%TF.GenerationSoftware,KiCad,Pcbnew,(6.0.4)*%
%TF.CreationDate,2023-07-18T11:50:36+07:00*%
%TF.ProjectId,05-Prototype-UpdatedComponents,30352d50-726f-4746-9f74-7970652d5570,rev?*%
%TF.SameCoordinates,PX82af528PY8a31af8*%
%TF.FileFunction,Legend,Bot*%
%TF.FilePolarity,Positive*%
%FSLAX46Y46*%
G04 Gerber Fmt 4.6, Leading zero omitted, Abs format (unit mm)*
G04 Created by KiCad (PCBNEW (6.0.4)) date 2023-07-18 11:50:36*
%MOMM*%
%LPD*%
G01*
G04 APERTURE LIST*
%TA.AperFunction,Profile*%
%ADD10C,0.100000*%
%TD*%
%ADD11C,0.150000*%
%ADD12C,0.120000*%
G04 APERTURE END LIST*
D10*
X1666666Y0D02*
G75*
G03*
X1666666Y0I-1666666J0D01*
G01*
X-2500000Y0D02*
X2500000Y0D01*
X0Y2500000D02*
X0Y-2500000D01*
X0Y0D02*
X83693000Y0D01*
X83693000Y0D02*
X83693000Y70612000D01*
X83693000Y70612000D02*
X0Y70612000D01*
X0Y70612000D02*
X0Y0D01*
D11*
%TO.C,J2*%
X7089333Y24335620D02*
X7089333Y23621334D01*
X7136952Y23478477D01*
X7232190Y23383239D01*
X7375047Y23335620D01*
X7470285Y23335620D01*
X6660761Y24240381D02*
X6613142Y24288000D01*
X6517904Y24335620D01*
X6279809Y24335620D01*
X6184571Y24288000D01*
X6136952Y24240381D01*
X6089333Y24145143D01*
X6089333Y24049905D01*
X6136952Y23907048D01*
X6708380Y23335620D01*
X6089333Y23335620D01*
%TO.C,J1*%
X3134380Y39815334D02*
X3848666Y39815334D01*
X3991523Y39862953D01*
X4086761Y39958191D01*
X4134380Y40101048D01*
X4134380Y40196286D01*
X4134380Y38815334D02*
X4134380Y39386762D01*
X4134380Y39101048D02*
X3134380Y39101048D01*
X3277238Y39196286D01*
X3372476Y39291524D01*
X3420095Y39386762D01*
%TO.C,U4*%
X24383904Y53879620D02*
X24383904Y53070096D01*
X24336285Y52974858D01*
X24288666Y52927239D01*
X24193428Y52879620D01*
X24002952Y52879620D01*
X23907714Y52927239D01*
X23860095Y52974858D01*
X23812476Y53070096D01*
X23812476Y53879620D01*
X22907714Y53546286D02*
X22907714Y52879620D01*
X23145809Y53927239D02*
X23383904Y53212953D01*
X22764857Y53212953D01*
%TO.C,C1*%
X44359142Y50413779D02*
X44406761Y50461398D01*
X44454380Y50604255D01*
X44454380Y50699493D01*
X44406761Y50842351D01*
X44311523Y50937589D01*
X44216285Y50985208D01*
X44025809Y51032827D01*
X43882952Y51032827D01*
X43692476Y50985208D01*
X43597238Y50937589D01*
X43502000Y50842351D01*
X43454380Y50699493D01*
X43454380Y50604255D01*
X43502000Y50461398D01*
X43549619Y50413779D01*
X44454380Y49461398D02*
X44454380Y50032827D01*
X44454380Y49747112D02*
X43454380Y49747112D01*
X43597238Y49842351D01*
X43692476Y49937589D01*
X43740095Y50032827D01*
%TO.C,R3*%
X69144380Y42838667D02*
X68668190Y43172000D01*
X69144380Y43410096D02*
X68144380Y43410096D01*
X68144380Y43029143D01*
X68192000Y42933905D01*
X68239619Y42886286D01*
X68334857Y42838667D01*
X68477714Y42838667D01*
X68572952Y42886286D01*
X68620571Y42933905D01*
X68668190Y43029143D01*
X68668190Y43410096D01*
X68144380Y42505334D02*
X68144380Y41886286D01*
X68525333Y42219620D01*
X68525333Y42076762D01*
X68572952Y41981524D01*
X68620571Y41933905D01*
X68715809Y41886286D01*
X68953904Y41886286D01*
X69049142Y41933905D01*
X69096761Y41981524D01*
X69144380Y42076762D01*
X69144380Y42362477D01*
X69096761Y42457715D01*
X69049142Y42505334D01*
%TO.C,R1*%
X73318666Y38424620D02*
X73652000Y38900810D01*
X73890095Y38424620D02*
X73890095Y39424620D01*
X73509142Y39424620D01*
X73413904Y39377000D01*
X73366285Y39329381D01*
X73318666Y39234143D01*
X73318666Y39091286D01*
X73366285Y38996048D01*
X73413904Y38948429D01*
X73509142Y38900810D01*
X73890095Y38900810D01*
X72366285Y38424620D02*
X72937714Y38424620D01*
X72652000Y38424620D02*
X72652000Y39424620D01*
X72747238Y39281762D01*
X72842476Y39186524D01*
X72937714Y39138905D01*
%TO.C,R9*%
X31423666Y37774620D02*
X31757000Y38250810D01*
X31995095Y37774620D02*
X31995095Y38774620D01*
X31614142Y38774620D01*
X31518904Y38727000D01*
X31471285Y38679381D01*
X31423666Y38584143D01*
X31423666Y38441286D01*
X31471285Y38346048D01*
X31518904Y38298429D01*
X31614142Y38250810D01*
X31995095Y38250810D01*
X30947476Y37774620D02*
X30757000Y37774620D01*
X30661761Y37822239D01*
X30614142Y37869858D01*
X30518904Y38012715D01*
X30471285Y38203191D01*
X30471285Y38584143D01*
X30518904Y38679381D01*
X30566523Y38727000D01*
X30661761Y38774620D01*
X30852238Y38774620D01*
X30947476Y38727000D01*
X30995095Y38679381D01*
X31042714Y38584143D01*
X31042714Y38346048D01*
X30995095Y38250810D01*
X30947476Y38203191D01*
X30852238Y38155572D01*
X30661761Y38155572D01*
X30566523Y38203191D01*
X30518904Y38250810D01*
X30471285Y38346048D01*
%TO.C,R0*%
X81239380Y33948667D02*
X80763190Y34282000D01*
X81239380Y34520096D02*
X80239380Y34520096D01*
X80239380Y34139143D01*
X80287000Y34043905D01*
X80334619Y33996286D01*
X80429857Y33948667D01*
X80572714Y33948667D01*
X80667952Y33996286D01*
X80715571Y34043905D01*
X80763190Y34139143D01*
X80763190Y34520096D01*
X80239380Y33329620D02*
X80239380Y33234381D01*
X80287000Y33139143D01*
X80334619Y33091524D01*
X80429857Y33043905D01*
X80620333Y32996286D01*
X80858428Y32996286D01*
X81048904Y33043905D01*
X81144142Y33091524D01*
X81191761Y33139143D01*
X81239380Y33234381D01*
X81239380Y33329620D01*
X81191761Y33424858D01*
X81144142Y33472477D01*
X81048904Y33520096D01*
X80858428Y33567715D01*
X80620333Y33567715D01*
X80429857Y33520096D01*
X80334619Y33472477D01*
X80287000Y33424858D01*
X80239380Y33329620D01*
%TO.C,R2*%
X81239380Y45378667D02*
X80763190Y45712000D01*
X81239380Y45950096D02*
X80239380Y45950096D01*
X80239380Y45569143D01*
X80287000Y45473905D01*
X80334619Y45426286D01*
X80429857Y45378667D01*
X80572714Y45378667D01*
X80667952Y45426286D01*
X80715571Y45473905D01*
X80763190Y45569143D01*
X80763190Y45950096D01*
X80334619Y44997715D02*
X80287000Y44950096D01*
X80239380Y44854858D01*
X80239380Y44616762D01*
X80287000Y44521524D01*
X80334619Y44473905D01*
X80429857Y44426286D01*
X80525095Y44426286D01*
X80667952Y44473905D01*
X81239380Y45045334D01*
X81239380Y44426286D01*
D12*
%TO.C,J2*%
X5426000Y32968000D02*
X8086000Y32968000D01*
X8086000Y25228000D02*
X8086000Y26558000D01*
X5426000Y27828000D02*
X8086000Y27828000D01*
X5426000Y27828000D02*
X5426000Y32968000D01*
X8086000Y27828000D02*
X8086000Y32968000D01*
X6756000Y25228000D02*
X8086000Y25228000D01*
%TO.C,J1*%
X7722000Y40812000D02*
X12862000Y40812000D01*
X5122000Y38152000D02*
X6452000Y38152000D01*
X5122000Y39482000D02*
X5122000Y38152000D01*
X7722000Y40812000D02*
X7722000Y38152000D01*
X7722000Y38152000D02*
X12862000Y38152000D01*
X12862000Y40812000D02*
X12862000Y38152000D01*
%TO.C,C1*%
X50372000Y50247112D02*
G75*
G03*
X50372000Y50247112I-2620000J0D01*
G01*
X48792000Y49807112D02*
X50295000Y49807112D01*
X45603000Y48806112D02*
X46712000Y48806112D01*
X48792000Y49006112D02*
X50020000Y49006112D01*
X45284000Y49486112D02*
X46712000Y49486112D01*
X48792000Y48486112D02*
X49653000Y48486112D01*
X45370000Y49246112D02*
X46712000Y49246112D01*
X48792000Y49767112D02*
X50288000Y49767112D01*
X48792000Y49166112D02*
X50100000Y49166112D01*
X45423000Y49126112D02*
X46712000Y49126112D01*
X45967000Y48366112D02*
X46712000Y48366112D01*
X45851000Y48486112D02*
X46712000Y48486112D01*
X45224000Y49727112D02*
X46712000Y49727112D01*
X48792000Y49086112D02*
X50062000Y49086112D01*
X47468000Y47646112D02*
X48036000Y47646112D01*
X48792000Y49366112D02*
X50180000Y49366112D01*
X45324000Y49366112D02*
X46712000Y49366112D01*
X48792000Y48886112D02*
X49952000Y48886112D01*
X48792000Y49126112D02*
X50081000Y49126112D01*
X46741000Y47846112D02*
X48763000Y47846112D01*
X48792000Y48726112D02*
X49847000Y48726112D01*
X46309000Y48086112D02*
X49195000Y48086112D01*
X45187000Y49967112D02*
X46712000Y49967112D01*
X46099000Y48246112D02*
X46712000Y48246112D01*
X48792000Y48926112D02*
X49976000Y48926112D01*
X45462000Y49046112D02*
X46712000Y49046112D01*
X45191000Y49927112D02*
X46712000Y49927112D01*
X46009000Y48326112D02*
X46712000Y48326112D01*
X48792000Y50247112D02*
X50332000Y50247112D01*
X45687000Y48686112D02*
X46712000Y48686112D01*
X48792000Y48366112D02*
X49537000Y48366112D01*
X48792000Y49927112D02*
X50313000Y49927112D01*
X45717000Y48646112D02*
X46712000Y48646112D01*
X48792000Y48566112D02*
X49723000Y48566112D01*
X45272000Y49526112D02*
X46712000Y49526112D01*
X48792000Y49607112D02*
X50253000Y49607112D01*
X45387000Y49206112D02*
X46712000Y49206112D01*
X46053000Y48286112D02*
X46712000Y48286112D01*
X45172000Y50247112D02*
X46712000Y50247112D01*
X48792000Y49567112D02*
X50243000Y49567112D01*
X45232000Y49687112D02*
X46712000Y49687112D01*
X47075000Y47726112D02*
X48429000Y47726112D01*
X48792000Y49286112D02*
X50150000Y49286112D01*
X45310000Y49406112D02*
X46712000Y49406112D01*
X45176000Y50087112D02*
X46712000Y50087112D01*
X48792000Y48286112D02*
X49451000Y48286112D01*
X45926000Y48406112D02*
X46712000Y48406112D01*
X46027000Y52801887D02*
X46527000Y52801887D01*
X48792000Y49486112D02*
X50220000Y49486112D01*
X45179000Y50047112D02*
X46712000Y50047112D01*
X48792000Y49647112D02*
X50263000Y49647112D01*
X45241000Y49647112D02*
X46712000Y49647112D01*
X48792000Y49046112D02*
X50042000Y49046112D01*
X46654000Y47886112D02*
X48850000Y47886112D01*
X46277000Y53051887D02*
X46277000Y52551887D01*
X45781000Y48566112D02*
X46712000Y48566112D01*
X45404000Y49166112D02*
X46712000Y49166112D01*
X48792000Y48686112D02*
X49817000Y48686112D01*
X45815000Y48526112D02*
X46712000Y48526112D01*
X48792000Y48326112D02*
X49495000Y48326112D01*
X48792000Y50127112D02*
X50330000Y50127112D01*
X45484000Y49006112D02*
X46712000Y49006112D01*
X48792000Y48806112D02*
X49901000Y48806112D01*
X45209000Y49807112D02*
X46712000Y49807112D01*
X48792000Y50007112D02*
X50321000Y50007112D01*
X45630000Y48766112D02*
X46712000Y48766112D01*
X45338000Y49326112D02*
X46712000Y49326112D01*
X46574000Y47926112D02*
X48930000Y47926112D01*
X48792000Y49246112D02*
X50134000Y49246112D01*
X45657000Y48726112D02*
X46712000Y48726112D01*
X48792000Y49446112D02*
X50207000Y49446112D01*
X48792000Y49406112D02*
X50194000Y49406112D01*
X48792000Y50087112D02*
X50328000Y50087112D01*
X45251000Y49607112D02*
X46712000Y49607112D01*
X48792000Y48766112D02*
X49874000Y48766112D01*
X46837000Y47806112D02*
X48667000Y47806112D01*
X48792000Y49326112D02*
X50166000Y49326112D01*
X48792000Y49847112D02*
X50302000Y49847112D01*
X48792000Y50207112D02*
X50332000Y50207112D01*
X45577000Y48846112D02*
X46712000Y48846112D01*
X48792000Y48846112D02*
X49927000Y48846112D01*
X48792000Y48446112D02*
X49616000Y48446112D01*
X45173000Y50167112D02*
X46712000Y50167112D01*
X46947000Y47766112D02*
X48557000Y47766112D01*
X46501000Y47966112D02*
X49003000Y47966112D01*
X48792000Y48966112D02*
X49999000Y48966112D01*
X45172000Y50207112D02*
X46712000Y50207112D01*
X45442000Y49086112D02*
X46712000Y49086112D01*
X48792000Y50167112D02*
X50331000Y50167112D01*
X48792000Y48606112D02*
X49756000Y48606112D01*
X45183000Y50007112D02*
X46712000Y50007112D01*
X48792000Y49687112D02*
X50272000Y49687112D01*
X48792000Y49967112D02*
X50317000Y49967112D01*
X48792000Y48246112D02*
X49405000Y48246112D01*
X46198000Y48166112D02*
X49306000Y48166112D01*
X45174000Y50127112D02*
X46712000Y50127112D01*
X45202000Y49847112D02*
X46712000Y49847112D01*
X45748000Y48606112D02*
X46712000Y48606112D01*
X46369000Y48046112D02*
X49135000Y48046112D01*
X45552000Y48886112D02*
X46712000Y48886112D01*
X45261000Y49567112D02*
X46712000Y49567112D01*
X45216000Y49767112D02*
X46712000Y49767112D01*
X45505000Y48966112D02*
X46712000Y48966112D01*
X45354000Y49286112D02*
X46712000Y49286112D01*
X46147000Y48206112D02*
X49357000Y48206112D01*
X45196000Y49887112D02*
X46712000Y49887112D01*
X48792000Y49727112D02*
X50280000Y49727112D01*
X48792000Y50047112D02*
X50325000Y50047112D01*
X48792000Y49526112D02*
X50232000Y49526112D01*
X45528000Y48926112D02*
X46712000Y48926112D01*
X48792000Y49206112D02*
X50117000Y49206112D01*
X47234000Y47686112D02*
X48270000Y47686112D01*
X46433000Y48006112D02*
X49071000Y48006112D01*
X48792000Y48526112D02*
X49689000Y48526112D01*
X45888000Y48446112D02*
X46712000Y48446112D01*
X46252000Y48126112D02*
X49252000Y48126112D01*
X48792000Y48646112D02*
X49787000Y48646112D01*
X48792000Y48406112D02*
X49578000Y48406112D01*
X45297000Y49446112D02*
X46712000Y49446112D01*
X48792000Y49887112D02*
X50308000Y49887112D01*
%TO.C,R3*%
X71532000Y44592000D02*
X71532000Y40752000D01*
X69692000Y44592000D02*
X69692000Y40752000D01*
%TO.C,R1*%
X75072000Y36037000D02*
X71232000Y36037000D01*
X75072000Y37877000D02*
X71232000Y37877000D01*
%TO.C,R9*%
X27417000Y41052000D02*
X31257000Y41052000D01*
X27417000Y39212000D02*
X31257000Y39212000D01*
%TO.C,R0*%
X77947000Y31862000D02*
X77947000Y35702000D01*
X79787000Y31862000D02*
X79787000Y35702000D01*
%TO.C,R2*%
X77947000Y43292000D02*
X77947000Y47132000D01*
X79787000Y43292000D02*
X79787000Y47132000D01*
%TD*%
M02*
