M48
; DRILL file {KiCad (6.0.4)} date Tue Jul 18 11:50:58 2023
; FORMAT={-:-/ absolute / metric / decimal}
; #@! TF.CreationDate,2023-07-18T11:50:58+07:00
; #@! TF.GenerationSoftware,Kicad,Pcbnew,(6.0.4)
; #@! TF.FileFunction,Plated,1,2,PTH
FMAT,2
METRIC
; #@! TA.AperFunction,Plated,PTH,ComponentDrill
T1C0.700
; #@! TA.AperFunction,Plated,PTH,ComponentDrill
T2C0.762
; #@! TA.AperFunction,Plated,PTH,ComponentDrill
T3C0.800
; #@! TA.AperFunction,Plated,PTH,ComponentDrill
T4C0.890
; #@! TA.AperFunction,Plated,PTH,ComponentDrill
T5C1.000
; #@! TA.AperFunction,Plated,PTH,ComponentDrill
T6C1.100
%
G90
G05
T1
X21.717Y15.367
X26.797Y40.132
X26.797Y15.367
X29.972Y15.367
X31.877Y40.132
X35.052Y15.367
X38.227Y19.177
X38.227Y15.367
X43.307Y19.177
X43.307Y15.367
X50.927Y21.082
X56.007Y21.082
X70.612Y45.212
X70.612Y40.132
X70.612Y36.957
X75.692Y36.957
X78.867Y47.752
X78.867Y42.672
X78.867Y36.322
X78.867Y31.242
T2
X5.892Y59.182
X5.892Y56.562
X5.892Y54.022
X5.892Y51.482
X5.892Y48.942
X5.892Y46.402
X16.637Y48.567
X17.267Y20.447
X17.267Y17.907
X17.267Y15.367
X17.267Y12.827
X17.267Y10.287
X17.267Y7.747
X19.177Y48.567
X21.717Y48.567
X24.257Y48.567
X26.797Y48.567
X29.337Y48.567
X29.337Y22.597
X29.337Y18.297
X34.417Y22.597
X34.417Y18.297
X41.352Y56.642
X41.352Y54.102
X41.352Y51.562
X41.352Y49.022
X47.752Y18.787
X47.752Y14.487
X52.197Y51.592
X52.197Y49.052
X53.467Y18.787
X53.467Y14.487
X54.737Y51.592
X54.737Y49.052
X57.277Y51.592
X57.277Y49.052
X59.182Y18.787
X59.182Y14.487
X59.817Y51.592
X59.817Y49.052
X64.897Y18.787
X64.897Y14.487
T3
X47.752Y51.247
X47.752Y49.247
X69.962Y21.072
X69.962Y18.532
X69.962Y15.992
X69.962Y13.452
X70.612Y33.557
X70.612Y31.557
X77.582Y21.072
X77.582Y18.532
X77.582Y15.992
X77.582Y13.452
T4
X25.272Y10.817
X26.287Y8.377
X27.307Y10.817
X28.322Y8.277
X41.782Y10.817
X42.797Y8.377
X43.817Y10.817
X44.832Y8.277
T5
X6.452Y39.482
X6.756Y31.638
X6.756Y29.098
X6.756Y26.558
X8.992Y39.482
X11.532Y39.482
X16.637Y43.307
X16.637Y28.067
X19.177Y43.307
X19.177Y28.067
X21.717Y43.307
X21.717Y28.067
X24.257Y43.307
X24.257Y28.067
X26.797Y43.307
X26.797Y28.067
X29.337Y43.307
X29.337Y28.067
X31.877Y43.307
X31.877Y28.067
X34.392Y54.117
X34.392Y51.577
X34.392Y49.037
X34.417Y43.307
X34.417Y28.067
X36.957Y43.307
X36.957Y28.067
X39.497Y43.307
X39.497Y28.067
X42.037Y43.307
X42.037Y28.067
X44.577Y43.307
X44.577Y28.067
X47.117Y43.307
X47.117Y28.067
X49.657Y43.307
X49.657Y28.067
X52.197Y43.307
X52.197Y28.067
X54.737Y43.307
X54.737Y28.067
X57.277Y43.307
X57.277Y28.067
X59.817Y43.307
X59.817Y28.067
X62.357Y43.307
X62.357Y28.067
X64.897Y43.307
X64.897Y28.067
T6
X75.382Y45.212
X75.382Y42.672
X75.382Y40.132
X75.382Y33.782
X75.382Y31.242
X75.382Y28.702
T5
G00X73.502Y53.414
M15
G01X73.502Y55.414
M16
G05
G00X77.502Y59.114
M15
G01X75.502Y59.114
M16
G05
G00X79.502Y53.414
M15
G01X79.502Y55.414
M16
G05
T0
M30
