%TF.GenerationSoftware,KiCad,Pcbnew,(6.0.4)*%
%TF.CreationDate,2023-07-18T11:50:37+07:00*%
%TF.ProjectId,05-Prototype-UpdatedComponents,30352d50-726f-4746-9f74-7970652d5570,rev?*%
%TF.SameCoordinates,PX82af528PY8a31af8*%
%TF.FileFunction,AssemblyDrawing,Bot*%
%FSLAX46Y46*%
G04 Gerber Fmt 4.6, Leading zero omitted, Abs format (unit mm)*
G04 Created by KiCad (PCBNEW (6.0.4)) date 2023-07-18 11:50:37*
%MOMM*%
%LPD*%
G01*
G04 APERTURE LIST*
%TA.AperFunction,Profile*%
%ADD10C,0.100000*%
%TD*%
%ADD11C,0.150000*%
%ADD12C,0.108000*%
%ADD13C,0.100000*%
G04 APERTURE END LIST*
D10*
X1666666Y0D02*
G75*
G03*
X1666666Y0I-1666666J0D01*
G01*
X-2500000Y0D02*
X2500000Y0D01*
X0Y2500000D02*
X0Y-2500000D01*
X0Y0D02*
X83693000Y0D01*
X83693000Y0D02*
X83693000Y70612000D01*
X83693000Y70612000D02*
X0Y70612000D01*
X0Y70612000D02*
X0Y0D01*
D11*
%TO.C,J2*%
X12589333Y34050858D02*
X12636952Y34003239D01*
X12779809Y33955620D01*
X12875047Y33955620D01*
X13017904Y34003239D01*
X13113142Y34098477D01*
X13160761Y34193715D01*
X13208380Y34384191D01*
X13208380Y34527048D01*
X13160761Y34717524D01*
X13113142Y34812762D01*
X13017904Y34908000D01*
X12875047Y34955620D01*
X12779809Y34955620D01*
X12636952Y34908000D01*
X12589333Y34860381D01*
X12017904Y33955620D02*
X12113142Y34003239D01*
X12160761Y34050858D01*
X12208380Y34146096D01*
X12208380Y34431810D01*
X12160761Y34527048D01*
X12113142Y34574667D01*
X12017904Y34622286D01*
X11875047Y34622286D01*
X11779809Y34574667D01*
X11732190Y34527048D01*
X11684571Y34431810D01*
X11684571Y34146096D01*
X11732190Y34050858D01*
X11779809Y34003239D01*
X11875047Y33955620D01*
X12017904Y33955620D01*
X11256000Y34622286D02*
X11256000Y33955620D01*
X11256000Y34527048D02*
X11208380Y34574667D01*
X11113142Y34622286D01*
X10970285Y34622286D01*
X10875047Y34574667D01*
X10827428Y34479429D01*
X10827428Y33955620D01*
X10351238Y34622286D02*
X10351238Y33955620D01*
X10351238Y34527048D02*
X10303619Y34574667D01*
X10208380Y34622286D01*
X10065523Y34622286D01*
X9970285Y34574667D01*
X9922666Y34479429D01*
X9922666Y33955620D01*
X9684571Y33860381D02*
X8922666Y33860381D01*
X8494095Y34955620D02*
X8398857Y34955620D01*
X8303619Y34908000D01*
X8256000Y34860381D01*
X8208380Y34765143D01*
X8160761Y34574667D01*
X8160761Y34336572D01*
X8208380Y34146096D01*
X8256000Y34050858D01*
X8303619Y34003239D01*
X8398857Y33955620D01*
X8494095Y33955620D01*
X8589333Y34003239D01*
X8636952Y34050858D01*
X8684571Y34146096D01*
X8732190Y34336572D01*
X8732190Y34574667D01*
X8684571Y34765143D01*
X8636952Y34860381D01*
X8589333Y34908000D01*
X8494095Y34955620D01*
X7208380Y33955620D02*
X7779809Y33955620D01*
X7494095Y33955620D02*
X7494095Y34955620D01*
X7589333Y34812762D01*
X7684571Y34717524D01*
X7779809Y34669905D01*
X6875047Y33955620D02*
X6351238Y34622286D01*
X6875047Y34622286D02*
X6351238Y33955620D01*
X5779809Y34955620D02*
X5684571Y34955620D01*
X5589333Y34908000D01*
X5541714Y34860381D01*
X5494095Y34765143D01*
X5446476Y34574667D01*
X5446476Y34336572D01*
X5494095Y34146096D01*
X5541714Y34050858D01*
X5589333Y34003239D01*
X5684571Y33955620D01*
X5779809Y33955620D01*
X5875047Y34003239D01*
X5922666Y34050858D01*
X5970285Y34146096D01*
X6017904Y34336572D01*
X6017904Y34574667D01*
X5970285Y34765143D01*
X5922666Y34860381D01*
X5875047Y34908000D01*
X5779809Y34955620D01*
X5113142Y34955620D02*
X4494095Y34955620D01*
X4827428Y34574667D01*
X4684571Y34574667D01*
X4589333Y34527048D01*
X4541714Y34479429D01*
X4494095Y34384191D01*
X4494095Y34146096D01*
X4541714Y34050858D01*
X4589333Y34003239D01*
X4684571Y33955620D01*
X4970285Y33955620D01*
X5065523Y34003239D01*
X5113142Y34050858D01*
X4303619Y33860381D02*
X3541714Y33860381D01*
X3303619Y33955620D02*
X3303619Y34955620D01*
X2970285Y34241334D01*
X2636952Y34955620D01*
X2636952Y33955620D01*
X1732190Y33955620D02*
X1732190Y34479429D01*
X1779809Y34574667D01*
X1875047Y34622286D01*
X2065523Y34622286D01*
X2160761Y34574667D01*
X1732190Y34003239D02*
X1827428Y33955620D01*
X2065523Y33955620D01*
X2160761Y34003239D01*
X2208380Y34098477D01*
X2208380Y34193715D01*
X2160761Y34288953D01*
X2065523Y34336572D01*
X1827428Y34336572D01*
X1732190Y34384191D01*
X1113142Y33955620D02*
X1208380Y34003239D01*
X1256000Y34098477D01*
X1256000Y34955620D01*
X351238Y34003239D02*
X446476Y33955620D01*
X636952Y33955620D01*
X732190Y34003239D01*
X779809Y34098477D01*
X779809Y34479429D01*
X732190Y34574667D01*
X636952Y34622286D01*
X446476Y34622286D01*
X351238Y34574667D01*
X303619Y34479429D01*
X303619Y34384191D01*
X779809Y34288953D01*
X6208380Y29431334D02*
X6922666Y29431334D01*
X7065523Y29478953D01*
X7160761Y29574191D01*
X7208380Y29717048D01*
X7208380Y29812286D01*
X6303619Y29002762D02*
X6256000Y28955143D01*
X6208380Y28859905D01*
X6208380Y28621810D01*
X6256000Y28526572D01*
X6303619Y28478953D01*
X6398857Y28431334D01*
X6494095Y28431334D01*
X6636952Y28478953D01*
X7208380Y29050381D01*
X7208380Y28431334D01*
%TO.C,J1*%
X14659142Y45315334D02*
X14706761Y45362953D01*
X14754380Y45505810D01*
X14754380Y45601048D01*
X14706761Y45743905D01*
X14611523Y45839143D01*
X14516285Y45886762D01*
X14325809Y45934381D01*
X14182952Y45934381D01*
X13992476Y45886762D01*
X13897238Y45839143D01*
X13802000Y45743905D01*
X13754380Y45601048D01*
X13754380Y45505810D01*
X13802000Y45362953D01*
X13849619Y45315334D01*
X14754380Y44743905D02*
X14706761Y44839143D01*
X14659142Y44886762D01*
X14563904Y44934381D01*
X14278190Y44934381D01*
X14182952Y44886762D01*
X14135333Y44839143D01*
X14087714Y44743905D01*
X14087714Y44601048D01*
X14135333Y44505810D01*
X14182952Y44458191D01*
X14278190Y44410572D01*
X14563904Y44410572D01*
X14659142Y44458191D01*
X14706761Y44505810D01*
X14754380Y44601048D01*
X14754380Y44743905D01*
X14087714Y43982000D02*
X14754380Y43982000D01*
X14182952Y43982000D02*
X14135333Y43934381D01*
X14087714Y43839143D01*
X14087714Y43696286D01*
X14135333Y43601048D01*
X14230571Y43553429D01*
X14754380Y43553429D01*
X14087714Y43077239D02*
X14754380Y43077239D01*
X14182952Y43077239D02*
X14135333Y43029620D01*
X14087714Y42934381D01*
X14087714Y42791524D01*
X14135333Y42696286D01*
X14230571Y42648667D01*
X14754380Y42648667D01*
X14849619Y42410572D02*
X14849619Y41648667D01*
X13754380Y41220096D02*
X13754380Y41124858D01*
X13802000Y41029620D01*
X13849619Y40982000D01*
X13944857Y40934381D01*
X14135333Y40886762D01*
X14373428Y40886762D01*
X14563904Y40934381D01*
X14659142Y40982000D01*
X14706761Y41029620D01*
X14754380Y41124858D01*
X14754380Y41220096D01*
X14706761Y41315334D01*
X14659142Y41362953D01*
X14563904Y41410572D01*
X14373428Y41458191D01*
X14135333Y41458191D01*
X13944857Y41410572D01*
X13849619Y41362953D01*
X13802000Y41315334D01*
X13754380Y41220096D01*
X14754380Y39934381D02*
X14754380Y40505810D01*
X14754380Y40220096D02*
X13754380Y40220096D01*
X13897238Y40315334D01*
X13992476Y40410572D01*
X14040095Y40505810D01*
X14754380Y39601048D02*
X14087714Y39077239D01*
X14087714Y39601048D02*
X14754380Y39077239D01*
X13754380Y38505810D02*
X13754380Y38410572D01*
X13802000Y38315334D01*
X13849619Y38267715D01*
X13944857Y38220096D01*
X14135333Y38172477D01*
X14373428Y38172477D01*
X14563904Y38220096D01*
X14659142Y38267715D01*
X14706761Y38315334D01*
X14754380Y38410572D01*
X14754380Y38505810D01*
X14706761Y38601048D01*
X14659142Y38648667D01*
X14563904Y38696286D01*
X14373428Y38743905D01*
X14135333Y38743905D01*
X13944857Y38696286D01*
X13849619Y38648667D01*
X13802000Y38601048D01*
X13754380Y38505810D01*
X13754380Y37839143D02*
X13754380Y37220096D01*
X14135333Y37553429D01*
X14135333Y37410572D01*
X14182952Y37315334D01*
X14230571Y37267715D01*
X14325809Y37220096D01*
X14563904Y37220096D01*
X14659142Y37267715D01*
X14706761Y37315334D01*
X14754380Y37410572D01*
X14754380Y37696286D01*
X14706761Y37791524D01*
X14659142Y37839143D01*
X14849619Y37029620D02*
X14849619Y36267715D01*
X14754380Y36029620D02*
X13754380Y36029620D01*
X14468666Y35696286D01*
X13754380Y35362953D01*
X14754380Y35362953D01*
X14754380Y34458191D02*
X14230571Y34458191D01*
X14135333Y34505810D01*
X14087714Y34601048D01*
X14087714Y34791524D01*
X14135333Y34886762D01*
X14706761Y34458191D02*
X14754380Y34553429D01*
X14754380Y34791524D01*
X14706761Y34886762D01*
X14611523Y34934381D01*
X14516285Y34934381D01*
X14421047Y34886762D01*
X14373428Y34791524D01*
X14373428Y34553429D01*
X14325809Y34458191D01*
X14754380Y33839143D02*
X14706761Y33934381D01*
X14611523Y33982000D01*
X13754380Y33982000D01*
X14706761Y33077239D02*
X14754380Y33172477D01*
X14754380Y33362953D01*
X14706761Y33458191D01*
X14611523Y33505810D01*
X14230571Y33505810D01*
X14135333Y33458191D01*
X14087714Y33362953D01*
X14087714Y33172477D01*
X14135333Y33077239D01*
X14230571Y33029620D01*
X14325809Y33029620D01*
X14421047Y33505810D01*
X9325333Y40029620D02*
X9325333Y39315334D01*
X9372952Y39172477D01*
X9468190Y39077239D01*
X9611047Y39029620D01*
X9706285Y39029620D01*
X8325333Y39029620D02*
X8896761Y39029620D01*
X8611047Y39029620D02*
X8611047Y40029620D01*
X8706285Y39886762D01*
X8801523Y39791524D01*
X8896761Y39743905D01*
%TO.C,U4*%
X33574380Y51379620D02*
X33574380Y52379620D01*
X33336285Y52379620D01*
X33193428Y52332000D01*
X33098190Y52236762D01*
X33050571Y52141524D01*
X33002952Y51951048D01*
X33002952Y51808191D01*
X33050571Y51617715D01*
X33098190Y51522477D01*
X33193428Y51427239D01*
X33336285Y51379620D01*
X33574380Y51379620D01*
X32622000Y51427239D02*
X32479142Y51379620D01*
X32241047Y51379620D01*
X32145809Y51427239D01*
X32098190Y51474858D01*
X32050571Y51570096D01*
X32050571Y51665334D01*
X32098190Y51760572D01*
X32145809Y51808191D01*
X32241047Y51855810D01*
X32431523Y51903429D01*
X32526761Y51951048D01*
X32574380Y51998667D01*
X32622000Y52093905D01*
X32622000Y52189143D01*
X32574380Y52284381D01*
X32526761Y52332000D01*
X32431523Y52379620D01*
X32193428Y52379620D01*
X32050571Y52332000D01*
X31717238Y52379620D02*
X31098190Y52379620D01*
X31431523Y51998667D01*
X31288666Y51998667D01*
X31193428Y51951048D01*
X31145809Y51903429D01*
X31098190Y51808191D01*
X31098190Y51570096D01*
X31145809Y51474858D01*
X31193428Y51427239D01*
X31288666Y51379620D01*
X31574380Y51379620D01*
X31669619Y51427239D01*
X31717238Y51474858D01*
X30717238Y52284381D02*
X30669619Y52332000D01*
X30574380Y52379620D01*
X30336285Y52379620D01*
X30241047Y52332000D01*
X30193428Y52284381D01*
X30145809Y52189143D01*
X30145809Y52093905D01*
X30193428Y51951048D01*
X30764857Y51379620D01*
X30145809Y51379620D01*
X29812476Y52379620D02*
X29193428Y52379620D01*
X29526761Y51998667D01*
X29383904Y51998667D01*
X29288666Y51951048D01*
X29241047Y51903429D01*
X29193428Y51808191D01*
X29193428Y51570096D01*
X29241047Y51474858D01*
X29288666Y51427239D01*
X29383904Y51379620D01*
X29669619Y51379620D01*
X29764857Y51427239D01*
X29812476Y51474858D01*
X28241047Y51379620D02*
X28812476Y51379620D01*
X28526761Y51379620D02*
X28526761Y52379620D01*
X28622000Y52236762D01*
X28717238Y52141524D01*
X28812476Y52093905D01*
X28050571Y51284381D02*
X27288666Y51284381D01*
X27050571Y51379620D02*
X27050571Y52379620D01*
X26717238Y51665334D01*
X26383904Y52379620D01*
X26383904Y51379620D01*
X25764857Y51379620D02*
X25860095Y51427239D01*
X25907714Y51474858D01*
X25955333Y51570096D01*
X25955333Y51855810D01*
X25907714Y51951048D01*
X25860095Y51998667D01*
X25764857Y52046286D01*
X25622000Y52046286D01*
X25526761Y51998667D01*
X25479142Y51951048D01*
X25431523Y51855810D01*
X25431523Y51570096D01*
X25479142Y51474858D01*
X25526761Y51427239D01*
X25622000Y51379620D01*
X25764857Y51379620D01*
X24574380Y51379620D02*
X24574380Y52379620D01*
X24574380Y51427239D02*
X24669619Y51379620D01*
X24860095Y51379620D01*
X24955333Y51427239D01*
X25002952Y51474858D01*
X25050571Y51570096D01*
X25050571Y51855810D01*
X25002952Y51951048D01*
X24955333Y51998667D01*
X24860095Y52046286D01*
X24669619Y52046286D01*
X24574380Y51998667D01*
X23669619Y52046286D02*
X23669619Y51379620D01*
X24098190Y52046286D02*
X24098190Y51522477D01*
X24050571Y51427239D01*
X23955333Y51379620D01*
X23812476Y51379620D01*
X23717238Y51427239D01*
X23669619Y51474858D01*
X23050571Y51379620D02*
X23145809Y51427239D01*
X23193428Y51522477D01*
X23193428Y52379620D01*
X22288666Y51427239D02*
X22383904Y51379620D01*
X22574380Y51379620D01*
X22669619Y51427239D01*
X22717238Y51522477D01*
X22717238Y51903429D01*
X22669619Y51998667D01*
X22574380Y52046286D01*
X22383904Y52046286D01*
X22288666Y51998667D01*
X22241047Y51903429D01*
X22241047Y51808191D01*
X22717238Y51712953D01*
X22050571Y51284381D02*
X21288666Y51284381D01*
X20717238Y51903429D02*
X21050571Y51903429D01*
X21050571Y51379620D02*
X21050571Y52379620D01*
X20574380Y52379620D01*
X19764857Y52046286D02*
X19764857Y51379620D01*
X20193428Y52046286D02*
X20193428Y51522477D01*
X20145809Y51427239D01*
X20050571Y51379620D01*
X19907714Y51379620D01*
X19812476Y51427239D01*
X19764857Y51474858D01*
X19145809Y51379620D02*
X19241047Y51427239D01*
X19288666Y51522477D01*
X19288666Y52379620D01*
X18622000Y51379620D02*
X18717238Y51427239D01*
X18764857Y51522477D01*
X18764857Y52379620D01*
X18288666Y51665334D02*
X17812476Y51665334D01*
X18383904Y51379620D02*
X18050571Y52379620D01*
X17717238Y51379620D01*
X16955333Y51427239D02*
X17050571Y51379620D01*
X17241047Y51379620D01*
X17336285Y51427239D01*
X17383904Y51474858D01*
X17431523Y51570096D01*
X17431523Y51855810D01*
X17383904Y51951048D01*
X17336285Y51998667D01*
X17241047Y52046286D01*
X17050571Y52046286D01*
X16955333Y51998667D01*
X16098190Y51427239D02*
X16193428Y51379620D01*
X16383904Y51379620D01*
X16479142Y51427239D01*
X16526761Y51474858D01*
X16574380Y51570096D01*
X16574380Y51855810D01*
X16526761Y51951048D01*
X16479142Y51998667D01*
X16383904Y52046286D01*
X16193428Y52046286D01*
X16098190Y51998667D01*
X15288666Y51427239D02*
X15383904Y51379620D01*
X15574380Y51379620D01*
X15669619Y51427239D01*
X15717238Y51522477D01*
X15717238Y51903429D01*
X15669619Y51998667D01*
X15574380Y52046286D01*
X15383904Y52046286D01*
X15288666Y51998667D01*
X15241047Y51903429D01*
X15241047Y51808191D01*
X15717238Y51712953D01*
X14860095Y51427239D02*
X14764857Y51379620D01*
X14574380Y51379620D01*
X14479142Y51427239D01*
X14431523Y51522477D01*
X14431523Y51570096D01*
X14479142Y51665334D01*
X14574380Y51712953D01*
X14717238Y51712953D01*
X14812476Y51760572D01*
X14860095Y51855810D01*
X14860095Y51903429D01*
X14812476Y51998667D01*
X14717238Y52046286D01*
X14574380Y52046286D01*
X14479142Y51998667D01*
X14050571Y51427239D02*
X13955333Y51379620D01*
X13764857Y51379620D01*
X13669619Y51427239D01*
X13622000Y51522477D01*
X13622000Y51570096D01*
X13669619Y51665334D01*
X13764857Y51712953D01*
X13907714Y51712953D01*
X14002952Y51760572D01*
X14050571Y51855810D01*
X14050571Y51903429D01*
X14002952Y51998667D01*
X13907714Y52046286D01*
X13764857Y52046286D01*
X13669619Y51998667D01*
X24383904Y50879620D02*
X24383904Y50070096D01*
X24336285Y49974858D01*
X24288666Y49927239D01*
X24193428Y49879620D01*
X24002952Y49879620D01*
X23907714Y49927239D01*
X23860095Y49974858D01*
X23812476Y50070096D01*
X23812476Y50879620D01*
X22907714Y50546286D02*
X22907714Y49879620D01*
X23145809Y50927239D02*
X23383904Y50212953D01*
X22764857Y50212953D01*
%TO.C,C1*%
X48109142Y50413779D02*
X48156761Y50461398D01*
X48204380Y50604255D01*
X48204380Y50699493D01*
X48156761Y50842351D01*
X48061523Y50937589D01*
X47966285Y50985208D01*
X47775809Y51032827D01*
X47632952Y51032827D01*
X47442476Y50985208D01*
X47347238Y50937589D01*
X47252000Y50842351D01*
X47204380Y50699493D01*
X47204380Y50604255D01*
X47252000Y50461398D01*
X47299619Y50413779D01*
X48204380Y49461398D02*
X48204380Y50032827D01*
X48204380Y49747112D02*
X47204380Y49747112D01*
X47347238Y49842351D01*
X47442476Y49937589D01*
X47490095Y50032827D01*
D12*
%TO.C,R3*%
X70937714Y42792000D02*
X70594857Y43032000D01*
X70937714Y43203429D02*
X70217714Y43203429D01*
X70217714Y42929143D01*
X70252000Y42860572D01*
X70286285Y42826286D01*
X70354857Y42792000D01*
X70457714Y42792000D01*
X70526285Y42826286D01*
X70560571Y42860572D01*
X70594857Y42929143D01*
X70594857Y43203429D01*
X70217714Y42552000D02*
X70217714Y42106286D01*
X70492000Y42346286D01*
X70492000Y42243429D01*
X70526285Y42174858D01*
X70560571Y42140572D01*
X70629142Y42106286D01*
X70800571Y42106286D01*
X70869142Y42140572D01*
X70903428Y42174858D01*
X70937714Y42243429D01*
X70937714Y42449143D01*
X70903428Y42517715D01*
X70869142Y42552000D01*
%TO.C,R1*%
X73272000Y36631286D02*
X73512000Y36974143D01*
X73683428Y36631286D02*
X73683428Y37351286D01*
X73409142Y37351286D01*
X73340571Y37317000D01*
X73306285Y37282715D01*
X73272000Y37214143D01*
X73272000Y37111286D01*
X73306285Y37042715D01*
X73340571Y37008429D01*
X73409142Y36974143D01*
X73683428Y36974143D01*
X72586285Y36631286D02*
X72997714Y36631286D01*
X72792000Y36631286D02*
X72792000Y37351286D01*
X72860571Y37248429D01*
X72929142Y37179858D01*
X72997714Y37145572D01*
%TO.C,R9*%
X29457000Y39806286D02*
X29697000Y40149143D01*
X29868428Y39806286D02*
X29868428Y40526286D01*
X29594142Y40526286D01*
X29525571Y40492000D01*
X29491285Y40457715D01*
X29457000Y40389143D01*
X29457000Y40286286D01*
X29491285Y40217715D01*
X29525571Y40183429D01*
X29594142Y40149143D01*
X29868428Y40149143D01*
X29114142Y39806286D02*
X28977000Y39806286D01*
X28908428Y39840572D01*
X28874142Y39874858D01*
X28805571Y39977715D01*
X28771285Y40114858D01*
X28771285Y40389143D01*
X28805571Y40457715D01*
X28839857Y40492000D01*
X28908428Y40526286D01*
X29045571Y40526286D01*
X29114142Y40492000D01*
X29148428Y40457715D01*
X29182714Y40389143D01*
X29182714Y40217715D01*
X29148428Y40149143D01*
X29114142Y40114858D01*
X29045571Y40080572D01*
X28908428Y40080572D01*
X28839857Y40114858D01*
X28805571Y40149143D01*
X28771285Y40217715D01*
%TO.C,R0*%
X79192714Y33902000D02*
X78849857Y34142000D01*
X79192714Y34313429D02*
X78472714Y34313429D01*
X78472714Y34039143D01*
X78507000Y33970572D01*
X78541285Y33936286D01*
X78609857Y33902000D01*
X78712714Y33902000D01*
X78781285Y33936286D01*
X78815571Y33970572D01*
X78849857Y34039143D01*
X78849857Y34313429D01*
X78472714Y33456286D02*
X78472714Y33387715D01*
X78507000Y33319143D01*
X78541285Y33284858D01*
X78609857Y33250572D01*
X78747000Y33216286D01*
X78918428Y33216286D01*
X79055571Y33250572D01*
X79124142Y33284858D01*
X79158428Y33319143D01*
X79192714Y33387715D01*
X79192714Y33456286D01*
X79158428Y33524858D01*
X79124142Y33559143D01*
X79055571Y33593429D01*
X78918428Y33627715D01*
X78747000Y33627715D01*
X78609857Y33593429D01*
X78541285Y33559143D01*
X78507000Y33524858D01*
X78472714Y33456286D01*
%TO.C,R2*%
X79192714Y45332000D02*
X78849857Y45572000D01*
X79192714Y45743429D02*
X78472714Y45743429D01*
X78472714Y45469143D01*
X78507000Y45400572D01*
X78541285Y45366286D01*
X78609857Y45332000D01*
X78712714Y45332000D01*
X78781285Y45366286D01*
X78815571Y45400572D01*
X78849857Y45469143D01*
X78849857Y45743429D01*
X78541285Y45057715D02*
X78507000Y45023429D01*
X78472714Y44954858D01*
X78472714Y44783429D01*
X78507000Y44714858D01*
X78541285Y44680572D01*
X78609857Y44646286D01*
X78678428Y44646286D01*
X78781285Y44680572D01*
X79192714Y45092000D01*
X79192714Y44646286D01*
D13*
%TO.C,J2*%
X5486000Y32908000D02*
X5486000Y25288000D01*
X8026000Y32908000D02*
X5486000Y32908000D01*
X5486000Y25288000D02*
X7391000Y25288000D01*
X8026000Y25923000D02*
X8026000Y32908000D01*
X7391000Y25288000D02*
X8026000Y25923000D01*
%TO.C,J1*%
X12802000Y38212000D02*
X12802000Y40752000D01*
X5817000Y38212000D02*
X12802000Y38212000D01*
X12802000Y40752000D02*
X5182000Y40752000D01*
X5182000Y38847000D02*
X5817000Y38212000D01*
X5182000Y40752000D02*
X5182000Y38847000D01*
%TO.C,C1*%
X50252000Y50247112D02*
G75*
G03*
X50252000Y50247112I-2500000J0D01*
G01*
X46664500Y52380717D02*
X46664500Y51880717D01*
X46414500Y52130717D02*
X46914500Y52130717D01*
%TO.C,R3*%
X71412000Y44472000D02*
X71412000Y40872000D01*
X70612000Y45212000D02*
X70612000Y44472000D01*
X69812000Y44472000D02*
X71412000Y44472000D01*
X71412000Y40872000D02*
X69812000Y40872000D01*
X69812000Y40872000D02*
X69812000Y44472000D01*
X70612000Y40132000D02*
X70612000Y40872000D01*
%TO.C,R1*%
X74952000Y36157000D02*
X71352000Y36157000D01*
X71352000Y36157000D02*
X71352000Y37757000D01*
X74952000Y37757000D02*
X74952000Y36157000D01*
X75692000Y36957000D02*
X74952000Y36957000D01*
X71352000Y37757000D02*
X74952000Y37757000D01*
X70612000Y36957000D02*
X71352000Y36957000D01*
%TO.C,R9*%
X31137000Y39332000D02*
X27537000Y39332000D01*
X31137000Y40932000D02*
X31137000Y39332000D01*
X26797000Y40132000D02*
X27537000Y40132000D01*
X27537000Y40932000D02*
X31137000Y40932000D01*
X27537000Y39332000D02*
X27537000Y40932000D01*
X31877000Y40132000D02*
X31137000Y40132000D01*
%TO.C,R0*%
X78067000Y31982000D02*
X78067000Y35582000D01*
X78867000Y36322000D02*
X78867000Y35582000D01*
X79667000Y35582000D02*
X79667000Y31982000D01*
X78067000Y35582000D02*
X79667000Y35582000D01*
X78867000Y31242000D02*
X78867000Y31982000D01*
X79667000Y31982000D02*
X78067000Y31982000D01*
%TO.C,R2*%
X78867000Y47752000D02*
X78867000Y47012000D01*
X78067000Y47012000D02*
X79667000Y47012000D01*
X79667000Y43412000D02*
X78067000Y43412000D01*
X78867000Y42672000D02*
X78867000Y43412000D01*
X79667000Y47012000D02*
X79667000Y43412000D01*
X78067000Y43412000D02*
X78067000Y47012000D01*
%TD*%
M02*
