%TF.GenerationSoftware,KiCad,Pcbnew,(6.0.4)*%
%TF.CreationDate,2023-07-18T11:50:36+07:00*%
%TF.ProjectId,05-Prototype-UpdatedComponents,30352d50-726f-4746-9f74-7970652d5570,rev?*%
%TF.SameCoordinates,PX82af528PY8a31af8*%
%TF.FileFunction,Soldermask,Bot*%
%TF.FilePolarity,Negative*%
%FSLAX46Y46*%
G04 Gerber Fmt 4.6, Leading zero omitted, Abs format (unit mm)*
G04 Created by KiCad (PCBNEW (6.0.4)) date 2023-07-18 11:50:36*
%MOMM*%
%LPD*%
G01*
G04 APERTURE LIST*
G04 Aperture macros list*
%AMRoundRect*
0 Rectangle with rounded corners*
0 $1 Rounding radius*
0 $2 $3 $4 $5 $6 $7 $8 $9 X,Y pos of 4 corners*
0 Add a 4 corners polygon primitive as box body*
4,1,4,$2,$3,$4,$5,$6,$7,$8,$9,$2,$3,0*
0 Add four circle primitives for the rounded corners*
1,1,$1+$1,$2,$3*
1,1,$1+$1,$4,$5*
1,1,$1+$1,$6,$7*
1,1,$1+$1,$8,$9*
0 Add four rect primitives between the rounded corners*
20,1,$1+$1,$2,$3,$4,$5,0*
20,1,$1+$1,$4,$5,$6,$7,0*
20,1,$1+$1,$6,$7,$8,$9,0*
20,1,$1+$1,$8,$9,$2,$3,0*%
G04 Aperture macros list end*
%TA.AperFunction,Profile*%
%ADD10C,0.100000*%
%TD*%
%ADD11C,0.120000*%
%ADD12O,1.700000X1.700000*%
%ADD13R,1.700000X1.700000*%
%ADD14R,3.500000X3.500000*%
%ADD15RoundRect,0.750000X0.750000X1.000000X-0.750000X1.000000X-0.750000X-1.000000X0.750000X-1.000000X0*%
%ADD16RoundRect,0.875000X0.875000X0.875000X-0.875000X0.875000X-0.875000X-0.875000X0.875000X-0.875000X0*%
%ADD17C,1.300000*%
%ADD18C,2.360000*%
%ADD19C,1.524000*%
%ADD20R,1.524000X1.524000*%
%ADD21C,1.600000*%
%ADD22R,1.600000X1.600000*%
%ADD23O,1.400000X1.400000*%
%ADD24C,1.400000*%
%ADD25O,2.400000X1.600000*%
%ADD26R,2.400000X1.600000*%
%ADD27O,2.000000X1.905000*%
%ADD28R,2.000000X1.905000*%
%ADD29C,3.500000*%
%ADD30C,1.700000*%
G04 APERTURE END LIST*
D10*
X1666666Y0D02*
G75*
G03*
X1666666Y0I-1666666J0D01*
G01*
X-2500000Y0D02*
X2500000Y0D01*
X0Y2500000D02*
X0Y-2500000D01*
X0Y0D02*
X83693000Y0D01*
X83693000Y0D02*
X83693000Y70612000D01*
X83693000Y70612000D02*
X0Y70612000D01*
X0Y70612000D02*
X0Y0D01*
D11*
%TO.C,U4*%
X4622000Y60452000D02*
X7162000Y60452000D01*
X7162000Y60452000D02*
X7162000Y45212000D01*
X7162000Y45212000D02*
X4622000Y45212000D01*
X4622000Y45212000D02*
X4622000Y60452000D01*
X42622000Y63582000D02*
X4622000Y63582000D01*
X4622000Y63582000D02*
X4622000Y42082000D01*
X4622000Y42082000D02*
X42622000Y42082000D01*
X42622000Y42082000D02*
X42622000Y63582000D01*
X42622000Y57912000D02*
X40082000Y57912000D01*
X40082000Y57912000D02*
X40082000Y47752000D01*
X40082000Y47752000D02*
X42622000Y47752000D01*
X42622000Y47752000D02*
X42622000Y57912000D01*
%TD*%
D12*
%TO.C,J2*%
X6756000Y31638000D03*
X6756000Y29098000D03*
D13*
X6756000Y26558000D03*
%TD*%
D14*
%TO.C,J0*%
X73502000Y54414500D03*
D15*
X79502000Y54414500D03*
D16*
X76502000Y59114500D03*
%TD*%
D12*
%TO.C,J5*%
X34392000Y54117000D03*
X34392000Y51577000D03*
D13*
X34392000Y49037000D03*
%TD*%
%TO.C,J1*%
X6452000Y39482000D03*
D12*
X8992000Y39482000D03*
X11532000Y39482000D03*
%TD*%
D17*
%TO.C,J3*%
X44832000Y8277000D03*
X42797000Y8377000D03*
X43817000Y10817000D03*
X41782000Y10817000D03*
D18*
X37207000Y5977000D03*
X49407000Y5977000D03*
%TD*%
D17*
%TO.C,J4*%
X28322000Y8277000D03*
X26287000Y8377000D03*
X27307000Y10817000D03*
X25272000Y10817000D03*
D18*
X20697000Y5977000D03*
X32897000Y5977000D03*
%TD*%
D19*
%TO.C,C5*%
X59182000Y14487000D03*
X59182000Y18787000D03*
%TD*%
D20*
%TO.C,U4*%
X41352000Y56642000D03*
D19*
X5892000Y54022000D03*
X5892000Y51482000D03*
X41352000Y54102000D03*
X5892000Y48942000D03*
X41352000Y51562000D03*
X41352000Y49022000D03*
X5892000Y46402000D03*
D20*
X5892000Y59182000D03*
D19*
X5892000Y56562000D03*
%TD*%
%TO.C,C3*%
X47752000Y14487000D03*
X47752000Y18787000D03*
%TD*%
D21*
%TO.C,C1*%
X47752000Y49247112D03*
D22*
X47752000Y51247112D03*
%TD*%
D23*
%TO.C,R8*%
X21717000Y15367000D03*
D24*
X26797000Y15367000D03*
%TD*%
D19*
%TO.C,C4*%
X53467000Y14487000D03*
X53467000Y18787000D03*
%TD*%
D25*
%TO.C,U6*%
X77582000Y21072000D03*
X77582000Y18532000D03*
X77582000Y15992000D03*
X77582000Y13452000D03*
X69962000Y13452000D03*
X69962000Y15992000D03*
X69962000Y18532000D03*
D26*
X69962000Y21072000D03*
%TD*%
D19*
%TO.C,U5*%
X59817000Y51592000D03*
X59817000Y49052000D03*
X57277000Y51592000D03*
X57277000Y49052000D03*
X54737000Y51592000D03*
X54737000Y49052000D03*
X52197000Y51592000D03*
D20*
X52197000Y49052000D03*
%TD*%
D21*
%TO.C,C0*%
X70612000Y33556888D03*
D22*
X70612000Y31556888D03*
%TD*%
D23*
%TO.C,R3*%
X70612000Y40132000D03*
D24*
X70612000Y45212000D03*
%TD*%
D19*
%TO.C,C2*%
X34417000Y22597000D03*
X34417000Y18297000D03*
%TD*%
D23*
%TO.C,R1*%
X70612000Y36957000D03*
D24*
X75692000Y36957000D03*
%TD*%
D19*
%TO.C,C7*%
X29337000Y22597000D03*
X29337000Y18297000D03*
%TD*%
D27*
%TO.C,U1*%
X75382000Y28702000D03*
X75382000Y31242000D03*
D28*
X75382000Y33782000D03*
%TD*%
D23*
%TO.C,R4*%
X38227000Y15367000D03*
D24*
X43307000Y15367000D03*
%TD*%
D19*
%TO.C,C6*%
X64897000Y14487000D03*
X64897000Y18787000D03*
%TD*%
D23*
%TO.C,R9*%
X31877000Y40132000D03*
D24*
X26797000Y40132000D03*
%TD*%
D23*
%TO.C,R0*%
X78867000Y36322000D03*
D24*
X78867000Y31242000D03*
%TD*%
D23*
%TO.C,R6*%
X43307000Y19177000D03*
D24*
X38227000Y19177000D03*
%TD*%
D19*
%TO.C,U7*%
X29337000Y48567000D03*
X24257000Y48567000D03*
X21717000Y48567000D03*
X19177000Y48567000D03*
X26797000Y48567000D03*
D20*
X16637000Y48567000D03*
D29*
X17867000Y56717000D03*
X28107000Y56717000D03*
%TD*%
D20*
%TO.C,U3*%
X17267000Y7747000D03*
D19*
X17267000Y10287000D03*
X17267000Y12827000D03*
X17267000Y15367000D03*
X17267000Y17907000D03*
X17267000Y20447000D03*
%TD*%
D23*
%TO.C,R2*%
X78867000Y47752000D03*
D24*
X78867000Y42672000D03*
%TD*%
D27*
%TO.C,U2*%
X75382000Y40132000D03*
X75382000Y42672000D03*
D28*
X75382000Y45212000D03*
%TD*%
D30*
%TO.C,U0*%
X64897000Y28067000D03*
X62357000Y28067000D03*
X59817000Y28067000D03*
X57277000Y28067000D03*
X54737000Y28067000D03*
X52197000Y28067000D03*
X49657000Y28067000D03*
X47117000Y28067000D03*
X44577000Y28067000D03*
X42037000Y28067000D03*
X39497000Y28067000D03*
X36957000Y28067000D03*
X34417000Y28067000D03*
X31877000Y28067000D03*
X29337000Y28067000D03*
X26797000Y28067000D03*
X24257000Y28067000D03*
X21717000Y28067000D03*
X19177000Y28067000D03*
X16637000Y28067000D03*
X16637000Y43307000D03*
X19177000Y43307000D03*
X21717000Y43307000D03*
X24257000Y43307000D03*
X26797000Y43307000D03*
X29337000Y43307000D03*
X31877000Y43307000D03*
X34417000Y43307000D03*
X36957000Y43307000D03*
X39497000Y43307000D03*
X42037000Y43307000D03*
X44577000Y43307000D03*
X47117000Y43307000D03*
X49657000Y43307000D03*
X52197000Y43307000D03*
X54737000Y43307000D03*
X57277000Y43307000D03*
X59817000Y43307000D03*
X62357000Y43307000D03*
D13*
X64897000Y43307000D03*
%TD*%
D23*
%TO.C,R5*%
X35052000Y15367000D03*
D24*
X29972000Y15367000D03*
%TD*%
D23*
%TO.C,R7*%
X50927000Y21082000D03*
D24*
X56007000Y21082000D03*
%TD*%
M02*
