M48
; DRILL file {KiCad (6.0.4)} date Fri Sep 22 15:25:03 2023
; FORMAT={-:-/ absolute / metric / decimal}
; #@! TF.CreationDate,2023-09-22T15:25:03+07:00
; #@! TF.GenerationSoftware,Kicad,Pcbnew,(6.0.4)
; #@! TF.FileFunction,Plated,1,2,PTH
FMAT,2
METRIC
; #@! TA.AperFunction,Plated,PTH,ComponentDrill
T1C0.700
; #@! TA.AperFunction,Plated,PTH,ComponentDrill
T2C0.762
; #@! TA.AperFunction,Plated,PTH,ComponentDrill
T3C0.800
; #@! TA.AperFunction,Plated,PTH,ComponentDrill
T4C0.890
; #@! TA.AperFunction,Plated,PTH,ViaDrill
T5C1.000
; #@! TA.AperFunction,Plated,PTH,ComponentDrill
T6C1.000
; #@! TA.AperFunction,Plated,PTH,ViaDrill
T7C2.500
; #@! TA.AperFunction,Plated,PTH,ViaDrill
T8C3.000
%
G90
G05
T1
X172.237Y-96.495
X172.237Y-101.575
X176.301Y-95.377
X176.657Y-61.671
X181.381Y-95.377
X181.737Y-61.671
X184.302Y-95.402
X189.382Y-95.402
X192.227Y-95.428
X193.091Y-58.166
X193.091Y-63.246
X197.307Y-95.428
T2
X155.194Y-58.898
X155.194Y-61.438
X157.734Y-58.898
X157.734Y-61.438
X160.274Y-58.898
X160.274Y-61.438
X161.29Y-70.917
X161.29Y-73.457
X161.29Y-75.997
X161.29Y-78.537
X161.29Y-81.077
X161.29Y-83.617
X162.814Y-58.898
X162.814Y-61.438
X164.541Y-70.917
X164.541Y-73.457
X164.541Y-75.997
X164.541Y-78.537
X193.015Y-80.222
X193.015Y-84.522
X193.04Y-73.415
X193.04Y-77.715
X198.332Y-57.709
X198.332Y-61.087
X198.332Y-64.465
X198.358Y-54.331
X200.001Y-68.297
X200.001Y-70.837
X200.001Y-73.377
X200.001Y-75.917
X200.001Y-78.457
X200.001Y-81.077
X202.632Y-57.709
X202.632Y-61.087
X202.632Y-64.465
X202.658Y-54.331
T3
X194.32Y-43.195
X194.32Y-50.815
X196.86Y-43.195
X196.86Y-50.815
X199.4Y-43.195
X199.4Y-50.815
X201.94Y-43.195
X201.94Y-50.815
T4
X178.865Y-99.12
X179.88Y-101.56
X180.9Y-99.12
X181.915Y-101.66
X195.285Y-99.12
X196.3Y-101.56
X197.32Y-99.12
X198.335Y-101.66
T5
X155.194Y-58.898
X155.194Y-61.438
X156.195Y-67.915
X157.734Y-58.898
X157.734Y-61.438
X158.735Y-67.895
X160.274Y-58.898
X160.274Y-61.438
X161.29Y-67.91
X161.29Y-70.917
X161.29Y-73.457
X161.29Y-75.997
X161.29Y-78.537
X161.29Y-81.077
X161.29Y-83.617
X162.814Y-58.898
X162.814Y-61.438
X164.541Y-70.917
X164.541Y-73.457
X164.541Y-75.997
X164.541Y-78.537
X167.107Y-52.299
X167.107Y-56.109
X172.237Y-96.495
X172.237Y-101.575
X176.301Y-95.377
X176.352Y-53.086
X176.352Y-55.626
X176.352Y-58.166
X176.657Y-61.671
X178.86Y-99.12
X179.324Y-74.676
X179.88Y-101.56
X180.9Y-99.12
X181.381Y-95.377
X181.737Y-61.671
X181.915Y-101.66
X184.273Y-95.377
X189.382Y-95.402
X192.227Y-95.428
X193.015Y-80.222
X193.015Y-84.522
X193.04Y-73.415
X193.04Y-77.715
X193.091Y-58.166
X193.091Y-63.246
X194.32Y-43.195
X194.32Y-50.815
X195.285Y-99.12
X196.3Y-101.56
X196.86Y-50.815
X197.307Y-95.428
X197.32Y-99.12
X198.332Y-54.356
X198.332Y-57.709
X198.332Y-61.087
X198.332Y-64.465
X198.335Y-101.66
X199.4Y-50.815
X200.001Y-68.297
X200.001Y-78.457
X200.001Y-81.077
X201.94Y-50.815
X202.632Y-57.709
X202.632Y-61.087
X202.632Y-64.465
X202.634Y-54.354
X203.15Y-78.522
X203.15Y-81.062
X203.15Y-83.602
T6
X156.195Y-67.895
X158.735Y-67.895
X161.275Y-67.895
X172.212Y-42.926
X172.212Y-45.466
X172.212Y-48.006
X172.212Y-50.546
X172.212Y-53.086
X172.212Y-55.626
X172.212Y-58.166
X172.212Y-60.706
X172.212Y-63.246
X172.212Y-65.786
X172.212Y-68.326
X172.212Y-70.866
X172.212Y-73.406
X172.212Y-75.946
X172.212Y-78.486
X172.212Y-81.026
X172.212Y-83.566
X172.212Y-86.106
X172.212Y-88.646
X172.212Y-91.186
X176.352Y-53.086
X176.352Y-55.626
X176.352Y-58.166
X187.452Y-42.926
X187.452Y-45.466
X187.452Y-48.006
X187.452Y-50.546
X187.452Y-53.086
X187.452Y-55.626
X187.452Y-58.166
X187.452Y-60.706
X187.452Y-63.246
X187.452Y-65.786
X187.452Y-68.326
X187.452Y-70.866
X187.452Y-73.406
X187.452Y-75.946
X187.452Y-78.486
X187.452Y-81.026
X187.452Y-83.566
X187.452Y-86.106
X187.452Y-88.646
X187.452Y-91.186
X203.15Y-78.522
X203.15Y-81.062
X203.15Y-83.602
T7
X174.29Y-103.93
X186.49Y-103.95
X190.71Y-103.96
X202.91Y-103.94
T8
X153.14Y-72.14
X153.15Y-82.37
T6
G00X154.76Y-99.664
M15
G01X156.76Y-99.664
M16
G05
G00X154.76Y-105.664
M15
G01X156.76Y-105.664
M16
G05
G00X160.46Y-103.664
M15
G01X160.46Y-101.664
M16
G05
T0
M30
