G04 #@! TF.GenerationSoftware,KiCad,Pcbnew,(6.0.4)*
G04 #@! TF.CreationDate,2023-08-28T23:05:39+07:00*
G04 #@! TF.ProjectId,07-LM317-RippleRejection,30372d4c-4d33-4313-972d-526970706c65,rev?*
G04 #@! TF.SameCoordinates,Original*
G04 #@! TF.FileFunction,Copper,L2,Bot*
G04 #@! TF.FilePolarity,Positive*
%FSLAX46Y46*%
G04 Gerber Fmt 4.6, Leading zero omitted, Abs format (unit mm)*
G04 Created by KiCad (PCBNEW (6.0.4)) date 2023-08-28 23:05:39*
%MOMM*%
%LPD*%
G01*
G04 APERTURE LIST*
G04 #@! TA.AperFunction,ComponentPad*
%ADD10R,1.700000X1.700000*%
G04 #@! TD*
G04 #@! TA.AperFunction,ComponentPad*
%ADD11O,1.700000X1.700000*%
G04 #@! TD*
G04 #@! TA.AperFunction,ComponentPad*
%ADD12R,1.905000X2.000000*%
G04 #@! TD*
G04 #@! TA.AperFunction,ComponentPad*
%ADD13O,1.905000X2.000000*%
G04 #@! TD*
G04 #@! TA.AperFunction,ComponentPad*
%ADD14C,1.600000*%
G04 #@! TD*
G04 #@! TA.AperFunction,ComponentPad*
%ADD15O,1.600000X1.600000*%
G04 #@! TD*
G04 #@! TA.AperFunction,ComponentPad*
%ADD16R,2.200000X2.200000*%
G04 #@! TD*
G04 #@! TA.AperFunction,ComponentPad*
%ADD17O,2.200000X2.200000*%
G04 #@! TD*
G04 #@! TA.AperFunction,ComponentPad*
%ADD18R,1.600000X1.600000*%
G04 #@! TD*
G04 #@! TA.AperFunction,Conductor*
%ADD19C,1.000000*%
G04 #@! TD*
G04 APERTURE END LIST*
D10*
G04 #@! TO.P,J1,1,Pin_1*
G04 #@! TO.N,GND*
X190500000Y-100330000D03*
D11*
G04 #@! TO.P,J1,2,Pin_2*
G04 #@! TO.N,VOUT*
X193040000Y-100330000D03*
G04 #@! TO.P,J1,3,Pin_3*
G04 #@! TO.N,VIN*
X195580000Y-100330000D03*
G04 #@! TD*
D12*
G04 #@! TO.P,U1,1,ADJ*
G04 #@! TO.N,/ADJ*
X190500000Y-82890000D03*
D13*
G04 #@! TO.P,U1,2,VO*
G04 #@! TO.N,VOUT*
X193040000Y-82890000D03*
G04 #@! TO.P,U1,3,VI*
G04 #@! TO.N,VIN*
X195580000Y-82890000D03*
G04 #@! TD*
D14*
G04 #@! TO.P,R2,1*
G04 #@! TO.N,/ADJ*
X182880000Y-86360000D03*
D15*
G04 #@! TO.P,R2,2*
G04 #@! TO.N,GND*
X182880000Y-93980000D03*
G04 #@! TD*
D14*
G04 #@! TO.P,R1,1*
G04 #@! TO.N,VOUT*
X186690000Y-93980000D03*
D15*
G04 #@! TO.P,R1,2*
G04 #@! TO.N,/ADJ*
X186690000Y-86360000D03*
G04 #@! TD*
D16*
G04 #@! TO.P,D1,1,K*
G04 #@! TO.N,VOUT*
X190500000Y-96520000D03*
D17*
G04 #@! TO.P,D1,2,A*
G04 #@! TO.N,/ADJ*
X190500000Y-86360000D03*
G04 #@! TD*
D18*
G04 #@! TO.P,C3,1*
G04 #@! TO.N,VOUT*
X185420000Y-74930000D03*
D14*
G04 #@! TO.P,C3,2*
G04 #@! TO.N,GND*
X183420000Y-74930000D03*
G04 #@! TD*
D18*
G04 #@! TO.P,C2,1*
G04 #@! TO.N,/ADJ*
X185420000Y-81280000D03*
D14*
G04 #@! TO.P,C2,2*
G04 #@! TO.N,GND*
X183420000Y-81280000D03*
G04 #@! TD*
D18*
G04 #@! TO.P,C1,1*
G04 #@! TO.N,VIN*
X195580000Y-87630000D03*
D14*
G04 #@! TO.P,C1,2*
G04 #@! TO.N,GND*
X197580000Y-87630000D03*
G04 #@! TD*
D19*
G04 #@! TO.N,GND*
X186690000Y-100330000D02*
X190500000Y-100330000D01*
X182880000Y-96520000D02*
X186690000Y-100330000D01*
X182880000Y-93980000D02*
X182880000Y-96520000D01*
G04 #@! TO.N,VOUT*
X190500000Y-96520000D02*
X193040000Y-93980000D01*
X193040000Y-93980000D02*
X193040000Y-92710000D01*
X193040000Y-100330000D02*
X193040000Y-93980000D01*
X187960000Y-93980000D02*
X190500000Y-96520000D01*
X186690000Y-93980000D02*
X187960000Y-93980000D01*
G04 #@! TO.N,/ADJ*
X190500000Y-86360000D02*
X190500000Y-82890000D01*
X186690000Y-86360000D02*
X190500000Y-86360000D01*
X182880000Y-86360000D02*
X186690000Y-86360000D01*
G04 #@! TO.N,GND*
X180340000Y-84360000D02*
X183420000Y-81280000D01*
X180340000Y-91440000D02*
X180340000Y-84360000D01*
X182880000Y-93980000D02*
X180340000Y-91440000D01*
X199390000Y-85820000D02*
X197580000Y-87630000D01*
X199390000Y-76200000D02*
X199390000Y-85820000D01*
X194310000Y-71120000D02*
X199390000Y-76200000D01*
X183420000Y-73120000D02*
X185420000Y-71120000D01*
X185420000Y-71120000D02*
X194310000Y-71120000D01*
X183420000Y-74930000D02*
X183420000Y-73120000D01*
G04 #@! TO.N,VIN*
X195580000Y-87630000D02*
X195580000Y-100330000D01*
G04 #@! TO.N,VOUT*
X193040000Y-78740000D02*
X193040000Y-82890000D01*
X189230000Y-74930000D02*
X193040000Y-78740000D01*
X185420000Y-74930000D02*
X189230000Y-74930000D01*
G04 #@! TO.N,GND*
X183420000Y-74930000D02*
X183420000Y-81280000D01*
G04 #@! TO.N,/ADJ*
X185420000Y-81280000D02*
X188890000Y-81280000D01*
X188890000Y-81280000D02*
X190500000Y-82890000D01*
G04 #@! TO.N,VOUT*
X193040000Y-92710000D02*
X193040000Y-91440000D01*
X193040000Y-82890000D02*
X193040000Y-91440000D01*
G04 #@! TO.N,VIN*
X195580000Y-82890000D02*
X195580000Y-87630000D01*
G04 #@! TD*
G04 #@! TA.AperFunction,Conductor*
G04 #@! TO.N,GND*
G36*
X191921108Y-63249758D02*
G01*
X192003187Y-63304602D01*
X192058031Y-63386681D01*
X192077289Y-63483500D01*
X192058031Y-63580319D01*
X192003187Y-63662398D01*
X191926589Y-63714895D01*
X191776179Y-63781391D01*
X191769638Y-63785282D01*
X191769637Y-63785283D01*
X191607563Y-63881707D01*
X191491164Y-63950957D01*
X191228585Y-64153536D01*
X191223162Y-64158875D01*
X191223158Y-64158878D01*
X190997678Y-64380843D01*
X190997672Y-64380849D01*
X190992244Y-64386193D01*
X190970287Y-64413747D01*
X190790310Y-64639604D01*
X190790306Y-64639609D01*
X190785566Y-64645558D01*
X190611545Y-64927874D01*
X190472700Y-65229051D01*
X190371043Y-65544728D01*
X190308047Y-65870332D01*
X190284624Y-66201145D01*
X190301114Y-66532376D01*
X190357277Y-66859227D01*
X190359458Y-66866520D01*
X190359459Y-66866524D01*
X190384548Y-66950414D01*
X190452300Y-67176964D01*
X190584807Y-67480983D01*
X190752879Y-67766882D01*
X190757497Y-67772933D01*
X190757501Y-67772939D01*
X190802208Y-67831519D01*
X190954080Y-68030518D01*
X190959395Y-68035974D01*
X190959401Y-68035981D01*
X191022190Y-68100435D01*
X191185496Y-68268073D01*
X191191426Y-68272850D01*
X191191430Y-68272853D01*
X191289871Y-68352143D01*
X191443775Y-68476107D01*
X191725176Y-68651604D01*
X192025623Y-68792024D01*
X192340763Y-68895332D01*
X192666032Y-68960032D01*
X192785425Y-68969114D01*
X192989113Y-68984609D01*
X192989121Y-68984609D01*
X192996718Y-68985187D01*
X193004332Y-68984848D01*
X193004339Y-68984848D01*
X193162374Y-68977810D01*
X193328031Y-68970432D01*
X193335544Y-68969182D01*
X193335549Y-68969181D01*
X193647656Y-68917232D01*
X193655172Y-68915981D01*
X193973401Y-68822622D01*
X194278111Y-68691709D01*
X194354097Y-68647573D01*
X194558292Y-68528967D01*
X194558298Y-68528963D01*
X194564885Y-68525137D01*
X194829572Y-68325319D01*
X195068335Y-68095150D01*
X195277718Y-67837964D01*
X195354699Y-67715956D01*
X195450618Y-67563935D01*
X195450622Y-67563927D01*
X195454687Y-67557485D01*
X195596678Y-67257778D01*
X195701635Y-66943183D01*
X195720327Y-66851720D01*
X195766512Y-66625717D01*
X195768037Y-66618257D01*
X195794923Y-66287707D01*
X195795527Y-66230000D01*
X195775570Y-65898960D01*
X195715987Y-65572715D01*
X195713726Y-65565432D01*
X195619902Y-65263271D01*
X195619899Y-65263264D01*
X195617641Y-65255991D01*
X195608818Y-65236311D01*
X195485074Y-64960324D01*
X195485072Y-64960320D01*
X195481958Y-64953375D01*
X195478036Y-64946860D01*
X195478032Y-64946853D01*
X195314835Y-64675785D01*
X195310902Y-64669252D01*
X195106951Y-64407737D01*
X195101587Y-64402345D01*
X195101581Y-64402338D01*
X194878435Y-64178021D01*
X194878433Y-64178019D01*
X194873060Y-64172618D01*
X194612617Y-63967301D01*
X194329393Y-63794760D01*
X194322463Y-63791609D01*
X194151358Y-63713812D01*
X194071193Y-63656207D01*
X194019174Y-63572309D01*
X194003222Y-63474891D01*
X194025763Y-63378783D01*
X194083368Y-63298618D01*
X194167266Y-63246599D01*
X194256075Y-63230500D01*
X199406500Y-63230500D01*
X199503319Y-63249758D01*
X199585398Y-63304602D01*
X199640242Y-63386681D01*
X199659500Y-63483500D01*
X199659500Y-101616500D01*
X199640242Y-101713319D01*
X199585398Y-101795398D01*
X199503319Y-101850242D01*
X199406500Y-101869500D01*
X197246643Y-101869500D01*
X197149824Y-101850242D01*
X197067745Y-101795398D01*
X197012901Y-101713319D01*
X196993643Y-101616500D01*
X197012901Y-101519681D01*
X197052974Y-101453709D01*
X197080910Y-101420475D01*
X197219586Y-101198116D01*
X197325547Y-100958436D01*
X197372664Y-100791376D01*
X197394252Y-100714830D01*
X197394253Y-100714824D01*
X197396681Y-100706216D01*
X197409750Y-100608918D01*
X197430706Y-100452897D01*
X197430707Y-100452889D01*
X197431566Y-100446491D01*
X197435227Y-100330000D01*
X197416719Y-100068596D01*
X197361563Y-99812408D01*
X197341013Y-99756703D01*
X197273957Y-99574941D01*
X197273955Y-99574938D01*
X197270860Y-99566547D01*
X197201912Y-99438764D01*
X197150667Y-99343790D01*
X197150663Y-99343784D01*
X197146420Y-99335920D01*
X197129993Y-99313679D01*
X197087962Y-99224362D01*
X197080500Y-99163368D01*
X197080500Y-89244206D01*
X197099758Y-89147387D01*
X197137439Y-89084303D01*
X197189821Y-89020076D01*
X197265937Y-88957219D01*
X197360314Y-88928274D01*
X197407932Y-88927942D01*
X197568993Y-88942033D01*
X197591007Y-88942033D01*
X197796995Y-88924012D01*
X197818668Y-88920190D01*
X198018403Y-88866671D01*
X198039077Y-88859147D01*
X198226489Y-88771755D01*
X198245545Y-88760753D01*
X198287478Y-88731391D01*
X198302132Y-88716084D01*
X198298406Y-88707616D01*
X197454602Y-87863812D01*
X197399758Y-87781733D01*
X197380500Y-87684914D01*
X197380500Y-87630000D01*
X197945056Y-87630000D01*
X197956829Y-87647619D01*
X198649480Y-88340270D01*
X198667099Y-88352043D01*
X198674792Y-88346903D01*
X198710753Y-88295545D01*
X198721755Y-88276489D01*
X198809147Y-88089077D01*
X198816671Y-88068403D01*
X198870190Y-87868668D01*
X198874012Y-87846995D01*
X198892033Y-87641007D01*
X198892033Y-87618993D01*
X198874012Y-87413005D01*
X198870190Y-87391332D01*
X198816671Y-87191597D01*
X198809147Y-87170923D01*
X198721755Y-86983511D01*
X198710753Y-86964455D01*
X198681391Y-86922522D01*
X198666084Y-86907868D01*
X198657616Y-86911594D01*
X197956829Y-87612381D01*
X197945056Y-87630000D01*
X197380500Y-87630000D01*
X197380500Y-87575086D01*
X197399758Y-87478267D01*
X197454602Y-87396188D01*
X198290270Y-86560520D01*
X198302043Y-86542901D01*
X198296903Y-86535208D01*
X198245545Y-86499247D01*
X198226489Y-86488245D01*
X198039077Y-86400853D01*
X198018403Y-86393329D01*
X197818668Y-86339810D01*
X197796995Y-86335988D01*
X197591007Y-86317967D01*
X197568993Y-86317967D01*
X197407932Y-86332058D01*
X197309803Y-86321311D01*
X197223257Y-86273830D01*
X197189821Y-86239924D01*
X197137439Y-86175697D01*
X197091171Y-86088496D01*
X197080500Y-86015794D01*
X197080500Y-84276629D01*
X197099758Y-84179810D01*
X197134815Y-84119999D01*
X197193873Y-84045084D01*
X197193878Y-84045077D01*
X197199415Y-84038053D01*
X197338328Y-83798896D01*
X197442158Y-83542552D01*
X197508833Y-83274135D01*
X197533000Y-83038266D01*
X197533000Y-82772039D01*
X197532684Y-82767572D01*
X197519087Y-82575538D01*
X197519086Y-82575533D01*
X197518455Y-82566617D01*
X197460244Y-82296238D01*
X197364518Y-82036759D01*
X197233185Y-81793357D01*
X197068867Y-81570888D01*
X196874841Y-81373791D01*
X196654981Y-81205998D01*
X196617126Y-81184798D01*
X196421472Y-81075228D01*
X196413671Y-81070859D01*
X196155728Y-80971068D01*
X195886297Y-80908617D01*
X195610755Y-80884753D01*
X195334599Y-80899950D01*
X195291027Y-80908617D01*
X195072115Y-80952161D01*
X195072110Y-80952162D01*
X195063339Y-80953907D01*
X194877327Y-81019230D01*
X194779599Y-81033140D01*
X194683984Y-81008591D01*
X194605043Y-80949320D01*
X194554792Y-80864352D01*
X194540500Y-80780522D01*
X194540500Y-78864419D01*
X194540945Y-78849413D01*
X194541529Y-78839580D01*
X194542993Y-78829294D01*
X194540565Y-78722304D01*
X194540500Y-78716564D01*
X194540500Y-78677446D01*
X194539798Y-78668903D01*
X194539014Y-78653930D01*
X194537631Y-78593000D01*
X194537631Y-78592996D01*
X194537395Y-78582618D01*
X194531550Y-78551683D01*
X194528004Y-78525454D01*
X194526276Y-78504434D01*
X194526275Y-78504429D01*
X194525425Y-78494089D01*
X194508046Y-78424903D01*
X194504833Y-78410290D01*
X194491584Y-78340167D01*
X194480768Y-78310612D01*
X194472982Y-78285303D01*
X194465316Y-78254783D01*
X194461177Y-78245265D01*
X194461174Y-78245255D01*
X194436877Y-78189378D01*
X194431301Y-78175438D01*
X194410358Y-78118209D01*
X194406789Y-78108456D01*
X194401677Y-78099421D01*
X194401674Y-78099414D01*
X194391290Y-78081060D01*
X194379478Y-78057369D01*
X194371070Y-78038032D01*
X194371068Y-78038028D01*
X194366928Y-78028507D01*
X194328183Y-77968616D01*
X194320423Y-77955803D01*
X194285288Y-77893703D01*
X194265527Y-77869213D01*
X194249998Y-77847760D01*
X194238549Y-77830062D01*
X194238544Y-77830055D01*
X194232905Y-77821339D01*
X194184899Y-77768580D01*
X194175132Y-77757185D01*
X194162313Y-77741298D01*
X194162311Y-77741296D01*
X194158083Y-77736056D01*
X194131444Y-77709417D01*
X194123215Y-77700791D01*
X194066846Y-77638842D01*
X194058707Y-77632414D01*
X194058695Y-77632403D01*
X194050037Y-77625566D01*
X194027943Y-77605916D01*
X190378992Y-73956965D01*
X190368696Y-73946039D01*
X190362151Y-73938667D01*
X190355917Y-73930364D01*
X190278543Y-73856424D01*
X190274438Y-73852411D01*
X190246781Y-73824754D01*
X190240250Y-73819215D01*
X190229106Y-73809181D01*
X190185034Y-73767065D01*
X190177532Y-73759896D01*
X190151531Y-73742159D01*
X190130465Y-73726111D01*
X190114382Y-73712471D01*
X190114377Y-73712468D01*
X190106469Y-73705761D01*
X190085697Y-73693329D01*
X190045271Y-73669134D01*
X190032625Y-73661047D01*
X189982277Y-73626702D01*
X189973700Y-73620851D01*
X189945145Y-73607596D01*
X189921762Y-73595215D01*
X189894750Y-73579049D01*
X189828385Y-73552907D01*
X189814586Y-73546993D01*
X189759309Y-73521334D01*
X189759305Y-73521333D01*
X189749896Y-73516965D01*
X189739901Y-73514193D01*
X189739890Y-73514189D01*
X189719570Y-73508554D01*
X189694457Y-73500152D01*
X189674840Y-73492425D01*
X189665178Y-73488619D01*
X189595435Y-73473667D01*
X189580876Y-73470091D01*
X189512129Y-73451026D01*
X189501819Y-73449924D01*
X189501813Y-73449923D01*
X189480838Y-73447682D01*
X189454682Y-73443492D01*
X189423920Y-73436897D01*
X189352681Y-73433538D01*
X189337709Y-73432386D01*
X189317398Y-73430215D01*
X189317397Y-73430215D01*
X189310708Y-73429500D01*
X189273025Y-73429500D01*
X189261107Y-73429219D01*
X189187827Y-73425763D01*
X189187824Y-73425763D01*
X189177453Y-73425274D01*
X189162541Y-73427026D01*
X189156188Y-73427772D01*
X189126670Y-73429500D01*
X187034206Y-73429500D01*
X186937387Y-73410242D01*
X186874306Y-73372564D01*
X186773596Y-73290427D01*
X186762234Y-73284487D01*
X186604835Y-73202200D01*
X186604831Y-73202198D01*
X186593470Y-73196259D01*
X186581146Y-73192725D01*
X186581143Y-73192724D01*
X186409663Y-73143553D01*
X186409659Y-73143552D01*
X186398087Y-73140234D01*
X186386097Y-73139164D01*
X186386092Y-73139163D01*
X186331254Y-73134269D01*
X186277816Y-73129500D01*
X184562184Y-73129500D01*
X184508746Y-73134269D01*
X184453908Y-73139163D01*
X184453903Y-73139164D01*
X184441913Y-73140234D01*
X184430341Y-73143552D01*
X184430337Y-73143553D01*
X184258857Y-73192724D01*
X184258854Y-73192725D01*
X184246530Y-73196259D01*
X184235169Y-73202198D01*
X184235165Y-73202200D01*
X184077766Y-73284487D01*
X184066404Y-73290427D01*
X183908891Y-73418891D01*
X183900789Y-73428825D01*
X183810179Y-73539924D01*
X183734062Y-73602782D01*
X183639685Y-73631726D01*
X183592068Y-73632058D01*
X183431007Y-73617967D01*
X183408993Y-73617967D01*
X183203005Y-73635988D01*
X183181332Y-73639810D01*
X182981597Y-73693329D01*
X182960923Y-73700853D01*
X182773511Y-73788245D01*
X182754455Y-73799247D01*
X182712522Y-73828609D01*
X182697868Y-73843916D01*
X182701594Y-73852384D01*
X183545398Y-74696188D01*
X183600242Y-74778267D01*
X183619500Y-74875086D01*
X183619500Y-74984914D01*
X183600242Y-75081733D01*
X183545398Y-75163812D01*
X182709730Y-75999480D01*
X182697957Y-76017099D01*
X182703097Y-76024792D01*
X182754455Y-76060753D01*
X182773511Y-76071755D01*
X182960923Y-76159147D01*
X182981597Y-76166671D01*
X183181332Y-76220190D01*
X183203005Y-76224012D01*
X183408993Y-76242033D01*
X183431007Y-76242033D01*
X183592068Y-76227942D01*
X183690197Y-76238689D01*
X183776743Y-76286170D01*
X183810179Y-76320076D01*
X183900789Y-76431175D01*
X183908891Y-76441109D01*
X184066404Y-76569573D01*
X184077766Y-76575513D01*
X184235165Y-76657800D01*
X184235169Y-76657802D01*
X184246530Y-76663741D01*
X184258854Y-76667275D01*
X184258857Y-76667276D01*
X184430337Y-76716447D01*
X184430341Y-76716448D01*
X184441913Y-76719766D01*
X184453903Y-76720836D01*
X184453908Y-76720837D01*
X184508746Y-76725731D01*
X184562184Y-76730500D01*
X186277816Y-76730500D01*
X186331254Y-76725731D01*
X186386092Y-76720837D01*
X186386097Y-76720836D01*
X186398087Y-76719766D01*
X186409659Y-76716448D01*
X186409663Y-76716447D01*
X186581143Y-76667276D01*
X186581146Y-76667275D01*
X186593470Y-76663741D01*
X186604831Y-76657802D01*
X186604835Y-76657800D01*
X186762234Y-76575513D01*
X186773596Y-76569573D01*
X186874305Y-76487437D01*
X186961505Y-76441171D01*
X187034206Y-76430500D01*
X188503676Y-76430500D01*
X188600495Y-76449758D01*
X188682574Y-76504602D01*
X191465398Y-79287425D01*
X191520242Y-79369504D01*
X191539500Y-79466323D01*
X191539500Y-80636500D01*
X191520242Y-80733319D01*
X191465398Y-80815398D01*
X191383319Y-80870242D01*
X191286500Y-80889500D01*
X190726323Y-80889500D01*
X190629504Y-80870242D01*
X190547425Y-80815398D01*
X190038992Y-80306965D01*
X190028696Y-80296039D01*
X190022151Y-80288667D01*
X190015917Y-80280364D01*
X189938543Y-80206424D01*
X189934438Y-80202411D01*
X189906781Y-80174754D01*
X189900250Y-80169215D01*
X189889106Y-80159181D01*
X189845034Y-80117065D01*
X189837532Y-80109896D01*
X189811531Y-80092159D01*
X189790465Y-80076111D01*
X189774382Y-80062471D01*
X189774377Y-80062468D01*
X189766469Y-80055761D01*
X189745697Y-80043329D01*
X189705271Y-80019134D01*
X189692625Y-80011047D01*
X189642277Y-79976702D01*
X189633700Y-79970851D01*
X189605145Y-79957596D01*
X189581762Y-79945215D01*
X189554750Y-79929049D01*
X189488385Y-79902907D01*
X189474586Y-79896993D01*
X189419309Y-79871334D01*
X189419305Y-79871333D01*
X189409896Y-79866965D01*
X189399901Y-79864193D01*
X189399890Y-79864189D01*
X189379570Y-79858554D01*
X189354457Y-79850152D01*
X189334840Y-79842425D01*
X189325178Y-79838619D01*
X189255435Y-79823667D01*
X189240876Y-79820091D01*
X189172129Y-79801026D01*
X189161819Y-79799924D01*
X189161813Y-79799923D01*
X189140838Y-79797682D01*
X189114682Y-79793492D01*
X189083920Y-79786897D01*
X189012681Y-79783538D01*
X188997709Y-79782386D01*
X188977398Y-79780215D01*
X188977397Y-79780215D01*
X188970708Y-79779500D01*
X188933025Y-79779500D01*
X188921107Y-79779219D01*
X188847827Y-79775763D01*
X188847824Y-79775763D01*
X188837453Y-79775274D01*
X188822541Y-79777026D01*
X188816188Y-79777772D01*
X188786670Y-79779500D01*
X187034206Y-79779500D01*
X186937387Y-79760242D01*
X186874306Y-79722564D01*
X186773596Y-79640427D01*
X186762234Y-79634487D01*
X186604835Y-79552200D01*
X186604831Y-79552198D01*
X186593470Y-79546259D01*
X186581146Y-79542725D01*
X186581143Y-79542724D01*
X186409663Y-79493553D01*
X186409659Y-79493552D01*
X186398087Y-79490234D01*
X186386097Y-79489164D01*
X186386092Y-79489163D01*
X186331254Y-79484269D01*
X186277816Y-79479500D01*
X184562184Y-79479500D01*
X184508746Y-79484269D01*
X184453908Y-79489163D01*
X184453903Y-79489164D01*
X184441913Y-79490234D01*
X184430341Y-79493552D01*
X184430337Y-79493553D01*
X184258857Y-79542724D01*
X184258854Y-79542725D01*
X184246530Y-79546259D01*
X184235169Y-79552198D01*
X184235165Y-79552200D01*
X184077766Y-79634487D01*
X184066404Y-79640427D01*
X183908891Y-79768891D01*
X183900789Y-79778825D01*
X183810179Y-79889924D01*
X183734062Y-79952782D01*
X183639685Y-79981726D01*
X183592068Y-79982058D01*
X183431007Y-79967967D01*
X183408993Y-79967967D01*
X183203005Y-79985988D01*
X183181332Y-79989810D01*
X182981597Y-80043329D01*
X182960923Y-80050853D01*
X182773511Y-80138245D01*
X182754455Y-80149247D01*
X182712522Y-80178609D01*
X182697868Y-80193916D01*
X182701594Y-80202384D01*
X183545398Y-81046188D01*
X183600242Y-81128267D01*
X183619500Y-81225086D01*
X183619500Y-81334914D01*
X183600242Y-81431733D01*
X183545398Y-81513812D01*
X182709730Y-82349480D01*
X182697957Y-82367099D01*
X182703097Y-82374792D01*
X182754455Y-82410753D01*
X182773511Y-82421755D01*
X182960923Y-82509147D01*
X182981597Y-82516671D01*
X183181332Y-82570190D01*
X183203005Y-82574012D01*
X183408993Y-82592033D01*
X183431007Y-82592033D01*
X183592068Y-82577942D01*
X183690197Y-82588689D01*
X183776743Y-82636170D01*
X183810179Y-82670076D01*
X183900789Y-82781175D01*
X183908891Y-82791109D01*
X184066404Y-82919573D01*
X184077766Y-82925513D01*
X184235165Y-83007800D01*
X184235169Y-83007802D01*
X184246530Y-83013741D01*
X184258854Y-83017275D01*
X184258857Y-83017276D01*
X184430337Y-83066447D01*
X184430341Y-83066448D01*
X184441913Y-83069766D01*
X184453903Y-83070836D01*
X184453908Y-83070837D01*
X184508746Y-83075731D01*
X184562184Y-83080500D01*
X186277816Y-83080500D01*
X186331254Y-83075731D01*
X186386092Y-83070837D01*
X186386097Y-83070836D01*
X186398087Y-83069766D01*
X186409659Y-83066448D01*
X186409663Y-83066447D01*
X186581143Y-83017276D01*
X186581146Y-83017275D01*
X186593470Y-83013741D01*
X186604831Y-83007802D01*
X186604835Y-83007800D01*
X186762234Y-82925513D01*
X186773596Y-82919573D01*
X186874305Y-82837437D01*
X186961505Y-82791171D01*
X187034206Y-82780500D01*
X188163676Y-82780500D01*
X188260495Y-82799758D01*
X188342574Y-82854602D01*
X188472898Y-82984926D01*
X188527742Y-83067005D01*
X188547000Y-83163824D01*
X188547000Y-83947816D01*
X188547501Y-83953425D01*
X188555054Y-84038053D01*
X188557734Y-84068087D01*
X188613759Y-84263470D01*
X188619698Y-84274831D01*
X188619700Y-84274835D01*
X188620638Y-84276629D01*
X188707927Y-84443596D01*
X188716029Y-84453530D01*
X188723083Y-84464228D01*
X188720597Y-84465867D01*
X188756637Y-84533776D01*
X188766021Y-84632045D01*
X188737085Y-84726425D01*
X188674235Y-84802547D01*
X188587038Y-84848823D01*
X188514314Y-84859500D01*
X187765140Y-84859500D01*
X187668321Y-84840242D01*
X187620930Y-84814376D01*
X187614096Y-84809635D01*
X187614093Y-84809633D01*
X187606385Y-84804286D01*
X187569271Y-84785983D01*
X187374788Y-84690075D01*
X187366371Y-84685924D01*
X187232800Y-84643167D01*
X187120439Y-84607200D01*
X187120434Y-84607199D01*
X187111497Y-84604338D01*
X186847364Y-84561322D01*
X186837981Y-84561199D01*
X186837979Y-84561199D01*
X186693555Y-84559309D01*
X186579774Y-84557819D01*
X186314605Y-84593907D01*
X186057683Y-84668792D01*
X186049165Y-84672719D01*
X186049162Y-84672720D01*
X185925839Y-84729573D01*
X185814652Y-84780831D01*
X185806799Y-84785980D01*
X185806793Y-84785983D01*
X185757838Y-84818080D01*
X185666311Y-84855060D01*
X185619120Y-84859500D01*
X183955140Y-84859500D01*
X183858321Y-84840242D01*
X183810930Y-84814376D01*
X183804096Y-84809635D01*
X183804093Y-84809633D01*
X183796385Y-84804286D01*
X183759271Y-84785983D01*
X183564788Y-84690075D01*
X183556371Y-84685924D01*
X183422800Y-84643167D01*
X183310439Y-84607200D01*
X183310434Y-84607199D01*
X183301497Y-84604338D01*
X183037364Y-84561322D01*
X183027981Y-84561199D01*
X183027979Y-84561199D01*
X182883555Y-84559309D01*
X182769774Y-84557819D01*
X182504605Y-84593907D01*
X182247683Y-84668792D01*
X182239165Y-84672719D01*
X182239162Y-84672720D01*
X182013176Y-84776901D01*
X182013172Y-84776903D01*
X182004652Y-84780831D01*
X181996808Y-84785974D01*
X181996804Y-84785976D01*
X181900947Y-84848823D01*
X181780851Y-84927562D01*
X181773853Y-84933808D01*
X181773849Y-84933811D01*
X181639743Y-85053505D01*
X181581197Y-85105760D01*
X181410075Y-85311512D01*
X181271244Y-85540298D01*
X181267618Y-85548945D01*
X181267617Y-85548947D01*
X181171385Y-85778433D01*
X181171383Y-85778440D01*
X181167755Y-85787091D01*
X181101881Y-86046470D01*
X181100941Y-86055810D01*
X181100940Y-86055813D01*
X181078728Y-86276404D01*
X181075070Y-86312736D01*
X181087909Y-86580041D01*
X181089739Y-86589239D01*
X181089739Y-86589242D01*
X181126129Y-86772184D01*
X181140118Y-86842512D01*
X181230549Y-87094383D01*
X181357215Y-87330121D01*
X181362836Y-87337648D01*
X181511719Y-87537027D01*
X181511723Y-87537031D01*
X181517335Y-87544547D01*
X181707390Y-87732950D01*
X181923205Y-87891192D01*
X182160039Y-88015797D01*
X182168898Y-88018891D01*
X182168901Y-88018892D01*
X182262132Y-88051449D01*
X182412690Y-88104026D01*
X182530832Y-88126456D01*
X182666381Y-88152192D01*
X182666387Y-88152193D01*
X182675606Y-88153943D01*
X182684986Y-88154312D01*
X182684990Y-88154312D01*
X182802064Y-88158911D01*
X182943013Y-88164449D01*
X183096430Y-88147647D01*
X183199706Y-88136337D01*
X183199710Y-88136336D01*
X183209035Y-88135315D01*
X183218101Y-88132928D01*
X183218107Y-88132927D01*
X183339623Y-88100934D01*
X183467829Y-88067180D01*
X183713710Y-87961542D01*
X183721687Y-87956605D01*
X183721692Y-87956603D01*
X183815810Y-87898361D01*
X183908274Y-87863790D01*
X183948942Y-87860500D01*
X185612853Y-87860500D01*
X185709672Y-87879758D01*
X185732921Y-87891732D01*
X185733205Y-87891192D01*
X185970039Y-88015797D01*
X185978898Y-88018891D01*
X185978901Y-88018892D01*
X186072132Y-88051449D01*
X186222690Y-88104026D01*
X186340832Y-88126456D01*
X186476381Y-88152192D01*
X186476387Y-88152193D01*
X186485606Y-88153943D01*
X186494986Y-88154312D01*
X186494990Y-88154312D01*
X186612064Y-88158911D01*
X186753013Y-88164449D01*
X186906430Y-88147647D01*
X187009706Y-88136337D01*
X187009710Y-88136336D01*
X187019035Y-88135315D01*
X187028101Y-88132928D01*
X187028107Y-88132927D01*
X187149623Y-88100934D01*
X187277829Y-88067180D01*
X187523710Y-87961542D01*
X187531687Y-87956605D01*
X187531692Y-87956603D01*
X187625810Y-87898361D01*
X187718274Y-87863790D01*
X187758942Y-87860500D01*
X188928078Y-87860500D01*
X189024897Y-87879758D01*
X189090364Y-87919406D01*
X189262472Y-88063311D01*
X189505088Y-88215503D01*
X189766114Y-88333361D01*
X189774372Y-88335807D01*
X189774377Y-88335809D01*
X190000417Y-88402765D01*
X190040719Y-88414703D01*
X190323824Y-88458024D01*
X190516599Y-88461053D01*
X190601585Y-88462388D01*
X190601588Y-88462388D01*
X190610189Y-88462523D01*
X190734740Y-88447450D01*
X190885974Y-88429149D01*
X190885981Y-88429148D01*
X190894514Y-88428115D01*
X190902833Y-88425933D01*
X190902836Y-88425932D01*
X191163207Y-88357625D01*
X191163209Y-88357624D01*
X191171539Y-88355439D01*
X191189677Y-88347926D01*
X191286496Y-88328666D01*
X191383315Y-88347923D01*
X191465395Y-88402765D01*
X191520240Y-88484843D01*
X191539500Y-88581666D01*
X191539500Y-93253676D01*
X191520242Y-93350495D01*
X191465398Y-93432574D01*
X190678898Y-94219075D01*
X190596819Y-94273918D01*
X190500000Y-94293177D01*
X190403181Y-94273919D01*
X190321102Y-94219075D01*
X189108992Y-93006965D01*
X189098696Y-92996039D01*
X189092151Y-92988667D01*
X189085917Y-92980364D01*
X189008543Y-92906424D01*
X189004438Y-92902411D01*
X188976781Y-92874754D01*
X188970250Y-92869215D01*
X188959106Y-92859181D01*
X188915034Y-92817065D01*
X188907532Y-92809896D01*
X188881531Y-92792159D01*
X188860465Y-92776111D01*
X188844382Y-92762471D01*
X188844377Y-92762468D01*
X188836469Y-92755761D01*
X188798407Y-92732981D01*
X188775271Y-92719134D01*
X188762625Y-92711047D01*
X188712277Y-92676702D01*
X188703700Y-92670851D01*
X188675145Y-92657596D01*
X188651762Y-92645215D01*
X188624750Y-92629049D01*
X188558385Y-92602907D01*
X188544586Y-92596993D01*
X188489309Y-92571334D01*
X188489305Y-92571333D01*
X188479896Y-92566965D01*
X188469901Y-92564193D01*
X188469890Y-92564189D01*
X188449570Y-92558554D01*
X188424457Y-92550152D01*
X188404840Y-92542425D01*
X188395178Y-92538619D01*
X188325435Y-92523667D01*
X188310876Y-92520091D01*
X188242129Y-92501026D01*
X188231819Y-92499924D01*
X188231813Y-92499923D01*
X188210838Y-92497682D01*
X188184682Y-92493492D01*
X188153920Y-92486897D01*
X188082681Y-92483538D01*
X188067709Y-92482386D01*
X188047398Y-92480215D01*
X188047397Y-92480215D01*
X188040708Y-92479500D01*
X188003025Y-92479500D01*
X187991107Y-92479219D01*
X187917827Y-92475763D01*
X187917824Y-92475763D01*
X187907453Y-92475274D01*
X187892541Y-92477026D01*
X187886188Y-92477772D01*
X187856670Y-92479500D01*
X187765140Y-92479500D01*
X187668321Y-92460242D01*
X187620930Y-92434376D01*
X187614096Y-92429635D01*
X187614093Y-92429633D01*
X187606385Y-92424286D01*
X187366371Y-92305924D01*
X187232800Y-92263167D01*
X187120439Y-92227200D01*
X187120434Y-92227199D01*
X187111497Y-92224338D01*
X186847364Y-92181322D01*
X186837981Y-92181199D01*
X186837979Y-92181199D01*
X186693555Y-92179309D01*
X186579774Y-92177819D01*
X186314605Y-92213907D01*
X186057683Y-92288792D01*
X186049165Y-92292719D01*
X186049162Y-92292720D01*
X185823176Y-92396901D01*
X185823172Y-92396903D01*
X185814652Y-92400831D01*
X185806808Y-92405974D01*
X185806804Y-92405976D01*
X185673321Y-92493492D01*
X185590851Y-92547562D01*
X185583853Y-92553808D01*
X185583849Y-92553811D01*
X185493576Y-92634383D01*
X185391197Y-92725760D01*
X185385194Y-92732978D01*
X185385191Y-92732981D01*
X185270065Y-92871405D01*
X185220075Y-92931512D01*
X185215213Y-92939524D01*
X185215211Y-92939527D01*
X185190431Y-92980364D01*
X185081244Y-93160298D01*
X185077618Y-93168945D01*
X185077617Y-93168947D01*
X184981385Y-93398433D01*
X184981383Y-93398440D01*
X184977755Y-93407091D01*
X184911881Y-93666470D01*
X184910941Y-93675810D01*
X184910940Y-93675813D01*
X184906303Y-93721866D01*
X184885070Y-93932736D01*
X184897909Y-94200041D01*
X184899739Y-94209239D01*
X184899739Y-94209242D01*
X184909452Y-94258069D01*
X184950118Y-94462512D01*
X185040549Y-94714383D01*
X185167215Y-94950121D01*
X185172836Y-94957648D01*
X185321719Y-95157027D01*
X185321723Y-95157031D01*
X185327335Y-95164547D01*
X185517390Y-95352950D01*
X185733205Y-95511192D01*
X185970039Y-95635797D01*
X185978898Y-95638891D01*
X185978901Y-95638892D01*
X186072132Y-95671449D01*
X186222690Y-95724026D01*
X186340832Y-95746456D01*
X186476381Y-95772192D01*
X186476387Y-95772193D01*
X186485606Y-95773943D01*
X186494986Y-95774312D01*
X186494990Y-95774312D01*
X186612064Y-95778911D01*
X186753013Y-95784449D01*
X186906430Y-95767647D01*
X187009706Y-95756337D01*
X187009710Y-95756336D01*
X187019035Y-95755315D01*
X187028101Y-95752928D01*
X187028107Y-95752927D01*
X187149623Y-95720934D01*
X187277829Y-95687180D01*
X187307286Y-95674524D01*
X187403845Y-95654001D01*
X187500908Y-95671991D01*
X187586053Y-95728081D01*
X188325398Y-96467426D01*
X188380242Y-96549505D01*
X188399500Y-96646324D01*
X188399500Y-97677816D01*
X188410234Y-97798087D01*
X188466259Y-97993470D01*
X188472198Y-98004831D01*
X188472200Y-98004835D01*
X188554487Y-98162234D01*
X188560427Y-98173596D01*
X188688891Y-98331109D01*
X188846404Y-98459573D01*
X188857766Y-98465513D01*
X189015165Y-98547800D01*
X189015169Y-98547802D01*
X189026530Y-98553741D01*
X189038854Y-98557275D01*
X189038857Y-98557276D01*
X189210337Y-98606447D01*
X189210341Y-98606448D01*
X189221913Y-98609766D01*
X189233907Y-98610836D01*
X189245745Y-98613041D01*
X189245298Y-98615442D01*
X189322429Y-98638064D01*
X189399313Y-98699981D01*
X189446649Y-98786607D01*
X189457232Y-98884753D01*
X189429450Y-98979479D01*
X189367533Y-99056363D01*
X189356962Y-99064734D01*
X189301522Y-99106284D01*
X189276285Y-99131521D01*
X189210637Y-99219115D01*
X189193501Y-99250415D01*
X189154318Y-99354936D01*
X189147034Y-99385566D01*
X189142740Y-99425095D01*
X189142000Y-99438764D01*
X189142000Y-100051082D01*
X189146134Y-100071866D01*
X189166918Y-100076000D01*
X190501000Y-100076000D01*
X190597819Y-100095258D01*
X190679898Y-100150102D01*
X190734742Y-100232181D01*
X190754000Y-100329000D01*
X190754000Y-100331000D01*
X190734742Y-100427819D01*
X190679898Y-100509898D01*
X190597819Y-100564742D01*
X190501000Y-100584000D01*
X189166919Y-100584000D01*
X189146135Y-100588134D01*
X189142001Y-100608918D01*
X189142001Y-101221245D01*
X189142740Y-101234888D01*
X189147035Y-101274436D01*
X189154318Y-101305064D01*
X189193501Y-101409585D01*
X189210635Y-101440881D01*
X189228539Y-101464770D01*
X189271192Y-101553795D01*
X189276531Y-101652366D01*
X189243741Y-101745477D01*
X189177816Y-101818953D01*
X189088791Y-101861606D01*
X189026086Y-101869500D01*
X180323500Y-101869500D01*
X180226681Y-101850242D01*
X180144602Y-101795398D01*
X180089758Y-101713319D01*
X180070500Y-101616500D01*
X180070500Y-94242391D01*
X181597206Y-94242391D01*
X181598209Y-94250016D01*
X181643329Y-94418403D01*
X181650853Y-94439077D01*
X181738245Y-94626490D01*
X181749248Y-94645547D01*
X181867851Y-94814930D01*
X181881997Y-94831788D01*
X182028212Y-94978003D01*
X182045070Y-94992149D01*
X182214453Y-95110752D01*
X182233510Y-95121755D01*
X182420923Y-95209147D01*
X182441597Y-95216671D01*
X182601931Y-95259633D01*
X182623076Y-95261019D01*
X182624996Y-95257125D01*
X182626000Y-95249502D01*
X182626000Y-95241164D01*
X183134000Y-95241164D01*
X183138134Y-95261948D01*
X183142391Y-95262794D01*
X183150016Y-95261791D01*
X183318403Y-95216671D01*
X183339077Y-95209147D01*
X183526490Y-95121755D01*
X183545547Y-95110752D01*
X183714930Y-94992149D01*
X183731788Y-94978003D01*
X183878003Y-94831788D01*
X183892149Y-94814930D01*
X184010752Y-94645547D01*
X184021755Y-94626490D01*
X184109147Y-94439077D01*
X184116671Y-94418403D01*
X184159633Y-94258069D01*
X184161019Y-94236924D01*
X184157125Y-94235004D01*
X184149502Y-94234000D01*
X183158918Y-94234000D01*
X183138134Y-94238134D01*
X183134000Y-94258918D01*
X183134000Y-95241164D01*
X182626000Y-95241164D01*
X182626000Y-94258918D01*
X182621866Y-94238134D01*
X182601082Y-94234000D01*
X181618836Y-94234000D01*
X181598052Y-94238134D01*
X181597206Y-94242391D01*
X180070500Y-94242391D01*
X180070500Y-93723076D01*
X181598981Y-93723076D01*
X181602875Y-93724996D01*
X181610498Y-93726000D01*
X182601082Y-93726000D01*
X182621866Y-93721866D01*
X182626000Y-93701082D01*
X183134000Y-93701082D01*
X183138134Y-93721866D01*
X183158918Y-93726000D01*
X184141164Y-93726000D01*
X184161948Y-93721866D01*
X184162794Y-93717609D01*
X184161791Y-93709984D01*
X184116671Y-93541597D01*
X184109147Y-93520923D01*
X184021755Y-93333510D01*
X184010752Y-93314453D01*
X183892149Y-93145070D01*
X183878003Y-93128212D01*
X183731788Y-92981997D01*
X183714930Y-92967851D01*
X183545547Y-92849248D01*
X183526490Y-92838245D01*
X183339077Y-92750853D01*
X183318403Y-92743329D01*
X183158069Y-92700367D01*
X183136924Y-92698981D01*
X183135004Y-92702875D01*
X183134000Y-92710498D01*
X183134000Y-93701082D01*
X182626000Y-93701082D01*
X182626000Y-92718836D01*
X182621866Y-92698052D01*
X182617609Y-92697206D01*
X182609984Y-92698209D01*
X182441597Y-92743329D01*
X182420923Y-92750853D01*
X182233510Y-92838245D01*
X182214453Y-92849248D01*
X182045070Y-92967851D01*
X182028212Y-92981997D01*
X181881997Y-93128212D01*
X181867851Y-93145070D01*
X181749248Y-93314453D01*
X181738245Y-93333510D01*
X181650853Y-93520923D01*
X181643329Y-93541597D01*
X181600367Y-93701931D01*
X181598981Y-93723076D01*
X180070500Y-93723076D01*
X180070500Y-81291007D01*
X182107967Y-81291007D01*
X182125988Y-81496995D01*
X182129810Y-81518668D01*
X182183329Y-81718403D01*
X182190853Y-81739077D01*
X182278245Y-81926489D01*
X182289247Y-81945545D01*
X182318609Y-81987478D01*
X182333916Y-82002132D01*
X182342384Y-81998406D01*
X183043171Y-81297619D01*
X183054944Y-81280000D01*
X183043171Y-81262381D01*
X182350520Y-80569730D01*
X182332901Y-80557957D01*
X182325208Y-80563097D01*
X182289247Y-80614455D01*
X182278245Y-80633511D01*
X182190853Y-80820923D01*
X182183329Y-80841597D01*
X182129810Y-81041332D01*
X182125988Y-81063005D01*
X182107967Y-81268993D01*
X182107967Y-81291007D01*
X180070500Y-81291007D01*
X180070500Y-74941007D01*
X182107967Y-74941007D01*
X182125988Y-75146995D01*
X182129810Y-75168668D01*
X182183329Y-75368403D01*
X182190853Y-75389077D01*
X182278245Y-75576489D01*
X182289247Y-75595545D01*
X182318609Y-75637478D01*
X182333916Y-75652132D01*
X182342384Y-75648406D01*
X183043171Y-74947619D01*
X183054944Y-74930000D01*
X183043171Y-74912381D01*
X182350520Y-74219730D01*
X182332901Y-74207957D01*
X182325208Y-74213097D01*
X182289247Y-74264455D01*
X182278245Y-74283511D01*
X182190853Y-74470923D01*
X182183329Y-74491597D01*
X182129810Y-74691332D01*
X182125988Y-74713005D01*
X182107967Y-74918993D01*
X182107967Y-74941007D01*
X180070500Y-74941007D01*
X180070500Y-63483500D01*
X180089758Y-63386681D01*
X180144602Y-63304602D01*
X180226681Y-63249758D01*
X180323500Y-63230500D01*
X191824289Y-63230500D01*
X191921108Y-63249758D01*
G37*
G04 #@! TD.AperFunction*
G04 #@! TD*
M02*
