%TF.GenerationSoftware,KiCad,Pcbnew,(6.0.4)*%
%TF.CreationDate,2022-11-02T21:24:09+07:00*%
%TF.ProjectId,01-Beta-PCB-From-Breadboard,30312d42-6574-4612-9d50-43422d46726f,rev?*%
%TF.SameCoordinates,PX68768dcPY7f2c270*%
%TF.FileFunction,Copper,L2,Bot*%
%TF.FilePolarity,Positive*%
%FSLAX46Y46*%
G04 Gerber Fmt 4.6, Leading zero omitted, Abs format (unit mm)*
G04 Created by KiCad (PCBNEW (6.0.4)) date 2022-11-02 21:24:09*
%MOMM*%
%LPD*%
G01*
G04 APERTURE LIST*
%TA.AperFunction,ComponentPad*%
%ADD10C,1.300000*%
%TD*%
%TA.AperFunction,ComponentPad*%
%ADD11C,1.524000*%
%TD*%
%TA.AperFunction,ComponentPad*%
%ADD12R,1.524000X1.524000*%
%TD*%
%TA.AperFunction,ComponentPad*%
%ADD13R,1.700000X1.700000*%
%TD*%
%TA.AperFunction,ComponentPad*%
%ADD14O,1.700000X1.700000*%
%TD*%
%TA.AperFunction,ComponentPad*%
%ADD15C,1.700000*%
%TD*%
%TA.AperFunction,WasherPad*%
%ADD16C,3.500000*%
%TD*%
%TA.AperFunction,ComponentPad*%
%ADD17O,1.600000X1.600000*%
%TD*%
%TA.AperFunction,ComponentPad*%
%ADD18C,1.600000*%
%TD*%
%TA.AperFunction,ComponentPad*%
%ADD19C,2.100000*%
%TD*%
%TA.AperFunction,ComponentPad*%
%ADD20R,2.100000X2.100000*%
%TD*%
%TA.AperFunction,Conductor*%
%ADD21C,0.250000*%
%TD*%
%TA.AperFunction,Conductor*%
%ADD22C,0.500000*%
%TD*%
G04 APERTURE END LIST*
D10*
%TO.P,J8,4*%
%TO.N,unconnected-(J8-Pad4)*%
X8150000Y49275000D03*
%TO.P,J8,3*%
%TO.N,Rain Gauge*%
X8250000Y51310000D03*
%TO.P,J8,2*%
%TO.N,GND*%
X10690000Y50290000D03*
%TO.P,J8,1*%
%TO.N,unconnected-(J8-Pad1)*%
X10690000Y52325000D03*
%TD*%
D11*
%TO.P,U5,6,CS*%
%TO.N,TF_NCSS*%
X8580000Y19685000D03*
%TO.P,U5,5,SCK*%
%TO.N,SPI1_SCK*%
X8580000Y17145000D03*
%TO.P,U5,4,MOSI*%
%TO.N,SPI1_MOSI*%
X8580000Y14605000D03*
%TO.P,U5,3,MISO*%
%TO.N,SPI1_MISO*%
X8580000Y12065000D03*
%TO.P,U5,2,VCC*%
%TO.N,+3V3*%
X8580000Y9525000D03*
D12*
%TO.P,U5,1,GND*%
%TO.N,GND*%
X8580000Y6985000D03*
%TD*%
D11*
%TO.P,U4,8,DIO0*%
%TO.N,LoRa_DIO0*%
X68550000Y18415000D03*
%TO.P,U4,7,MISO*%
%TO.N,LoRa_MISO*%
X71090000Y18415000D03*
%TO.P,U4,6,MOSI*%
%TO.N,LoRa_MOSI*%
X68550000Y15875000D03*
%TO.P,U4,5,SCLK*%
%TO.N,LoRa_SCLK*%
X71090000Y15875000D03*
%TO.P,U4,4,NCSS*%
%TO.N,LoRa_NCSS*%
X68550000Y13335000D03*
%TO.P,U4,3,RST*%
%TO.N,LoRa_Reset*%
X71090000Y13335000D03*
%TO.P,U4,2,VCC*%
%TO.N,+3.3VP*%
X68550000Y10795000D03*
D12*
%TO.P,U4,1,GND*%
%TO.N,GND*%
X71090000Y10795000D03*
%TD*%
D13*
%TO.P,J4,1,Pin_1*%
%TO.N,UART_TX*%
X46355000Y24145000D03*
D14*
%TO.P,J4,2,Pin_2*%
%TO.N,UART_RX*%
X46355000Y26685000D03*
%TO.P,J4,3,Pin_3*%
%TO.N,GND*%
X46355000Y29225000D03*
%TD*%
D15*
%TO.P,U1,20,3V3*%
%TO.N,unconnected-(U1-Pad20)*%
X38100000Y59690000D03*
%TO.P,U1,21,VBat*%
%TO.N,unconnected-(U1-Pad21)*%
X22860000Y59690000D03*
%TO.P,U1,19,GND*%
%TO.N,GND*%
X38100000Y57150000D03*
%TO.P,U1,22,PC13*%
%TO.N,unconnected-(U1-Pad22)*%
X22860000Y57150000D03*
%TO.P,U1,18,5V*%
%TO.N,+5V*%
X38100000Y54610000D03*
%TO.P,U1,23,PC14*%
%TO.N,unconnected-(U1-Pad23)*%
X22860000Y54610000D03*
%TO.P,U1,17,PB9*%
%TO.N,unconnected-(U1-Pad17)*%
X38100000Y52070000D03*
%TO.P,U1,24,PC15*%
%TO.N,unconnected-(U1-Pad24)*%
X22860000Y52070000D03*
%TO.P,U1,16,PB8*%
%TO.N,unconnected-(U1-Pad16)*%
X38100000Y49530000D03*
%TO.P,U1,25,PA0*%
%TO.N,unconnected-(U1-Pad25)*%
X22860000Y49530000D03*
%TO.P,U1,15,PB7*%
%TO.N,SDA*%
X38100000Y46990000D03*
%TO.P,U1,26,PA1*%
%TO.N,Rain Gauge*%
X22860000Y46990000D03*
%TO.P,U1,14,PB6*%
%TO.N,SCL*%
X38100000Y44450000D03*
%TO.P,U1,27,PA2*%
%TO.N,unconnected-(U1-Pad27)*%
X22860000Y44450000D03*
%TO.P,U1,13,PB5*%
%TO.N,unconnected-(U1-Pad13)*%
X38100000Y41910000D03*
%TO.P,U1,28,PA3*%
%TO.N,Anemometer*%
X22860000Y41910000D03*
%TO.P,U1,12,PB4*%
%TO.N,unconnected-(U1-Pad12)*%
X38100000Y39370000D03*
%TO.P,U1,29,PA4*%
%TO.N,TF_NCSS*%
X22860000Y39370000D03*
%TO.P,U1,11,PB3*%
%TO.N,DS18B20*%
X38100000Y36830000D03*
%TO.P,U1,30,PA5*%
%TO.N,SPI1_SCK*%
X22860000Y36830000D03*
%TO.P,U1,10,PA15*%
%TO.N,RTC_Alarm*%
X38100000Y34290000D03*
%TO.P,U1,31,PA6*%
%TO.N,SPI1_MISO*%
X22860000Y34290000D03*
%TO.P,U1,9,PA12*%
%TO.N,unconnected-(U1-Pad9)*%
X38100000Y31750000D03*
%TO.P,U1,32,PA7*%
%TO.N,SPI1_MOSI*%
X22860000Y31750000D03*
%TO.P,U1,8,PA11*%
%TO.N,LoRa_DIO0*%
X38100000Y29210000D03*
%TO.P,U1,33,PB0*%
%TO.N,unconnected-(U1-Pad33)*%
X22860000Y29210000D03*
%TO.P,U1,7,PA10*%
%TO.N,UART_RX*%
X38100000Y26670000D03*
%TO.P,U1,34,PB1*%
%TO.N,Wind_Vane*%
X22860000Y26670000D03*
%TO.P,U1,6,PA9*%
%TO.N,UART_TX*%
X38100000Y24130000D03*
%TO.P,U1,35,PB10*%
%TO.N,unconnected-(U1-Pad35)*%
X22860000Y24130000D03*
%TO.P,U1,5,PA8*%
%TO.N,LoRa_Reset*%
X38100000Y21590000D03*
%TO.P,U1,36,PB11*%
%TO.N,unconnected-(U1-Pad36)*%
X22860000Y21590000D03*
%TO.P,U1,4,PB15*%
%TO.N,LoRa_MOSI*%
X38100000Y19050000D03*
%TO.P,U1,37,RST*%
%TO.N,unconnected-(U1-Pad37)*%
X22860000Y19050000D03*
%TO.P,U1,3,PB14*%
%TO.N,LoRa_MISO*%
X38100000Y16510000D03*
%TO.P,U1,38,3V3*%
%TO.N,+3.3VA*%
X22860000Y16510000D03*
%TO.P,U1,2,PB13*%
%TO.N,LoRa_SCLK*%
X38100000Y13970000D03*
%TO.P,U1,39,GND*%
%TO.N,GND*%
X22860000Y13970000D03*
D13*
%TO.P,U1,1,PB12*%
%TO.N,LoRa_NCSS*%
X38100000Y11430000D03*
D15*
%TO.P,U1,40,GND*%
%TO.N,GND*%
X22860000Y11430000D03*
%TD*%
D11*
%TO.P,U3,5,ADDR*%
%TO.N,GND*%
X46320000Y39370000D03*
%TO.P,U3,4,SCL*%
%TO.N,SCL*%
X46320000Y44450000D03*
%TO.P,U3,3,SDA*%
%TO.N,SDA*%
X46320000Y46990000D03*
%TO.P,U3,2,GND*%
%TO.N,GND*%
X46320000Y49530000D03*
%TO.P,U3,1,VCC*%
%TO.N,+3V3*%
X46320000Y41910000D03*
X46320000Y52070000D03*
D16*
%TO.P,U3,*%
%TO.N,*%
X56820000Y50870000D03*
X56820000Y40570000D03*
%TD*%
D11*
%TO.P,U2,6,SQW*%
%TO.N,RTC_Alarm*%
X74810000Y41910000D03*
D12*
%TO.P,U2,5,32K*%
%TO.N,unconnected-(U2-Pad5)*%
X74810000Y39370000D03*
D11*
%TO.P,U2,4,GND*%
%TO.N,GND*%
X74810000Y52070000D03*
%TO.P,U2,3,VCC*%
%TO.N,+3V3*%
X74810000Y49530000D03*
%TO.P,U2,2,SDA*%
%TO.N,SDA*%
X74810000Y46990000D03*
%TO.P,U2,1,SCL*%
%TO.N,SCL*%
X74810000Y44450000D03*
%TD*%
D17*
%TO.P,R2,2*%
%TO.N,DS18B20*%
X66040000Y29210000D03*
D18*
%TO.P,R2,1*%
%TO.N,+3V3*%
X55880000Y29210000D03*
%TD*%
D17*
%TO.P,R1,2*%
%TO.N,+3.3VA*%
X16510000Y16510000D03*
D18*
%TO.P,R1,1*%
%TO.N,Wind_Vane_SensorSide*%
X16510000Y26670000D03*
%TD*%
D19*
%TO.P,J10,3,Pin_3*%
%TO.N,+3V3*%
X72390000Y31750000D03*
%TO.P,J10,2,Pin_2*%
%TO.N,DS18B20*%
X72390000Y29210000D03*
D20*
%TO.P,J10,1,Pin_1*%
%TO.N,GND*%
X72390000Y26670000D03*
%TD*%
D14*
%TO.P,J9,3,Pin_3*%
%TO.N,GND*%
X16510000Y50785000D03*
%TO.P,J9,2,Pin_2*%
%TO.N,Rain Gauge*%
X16510000Y53325000D03*
D13*
%TO.P,J9,1,Pin_1*%
%TO.N,+3V3*%
X16510000Y55865000D03*
%TD*%
D14*
%TO.P,J7,3,Pin_3*%
%TO.N,GND*%
X16510000Y39355000D03*
%TO.P,J7,2,Pin_2*%
%TO.N,Anemometer*%
X16510000Y41895000D03*
D13*
%TO.P,J7,1,Pin_1*%
%TO.N,+3V3*%
X16510000Y44435000D03*
%TD*%
D14*
%TO.P,J6,2,Pin_2*%
%TO.N,Wind_Vane*%
X16510000Y30480000D03*
D13*
%TO.P,J6,1,Pin_1*%
%TO.N,Wind_Vane_SensorSide*%
X16510000Y33020000D03*
%TD*%
D10*
%TO.P,J5,4*%
%TO.N,Wind_Vane_SensorSide*%
X8150000Y32765000D03*
%TO.P,J5,3*%
%TO.N,Anemometer*%
X8250000Y34800000D03*
%TO.P,J5,2*%
%TO.N,GND*%
X10690000Y33780000D03*
%TO.P,J5,1*%
X10690000Y35815000D03*
%TD*%
D14*
%TO.P,J3,3,Pin_3*%
%TO.N,GND*%
X80010000Y10780000D03*
%TO.P,J3,2,Pin_2*%
%TO.N,+3.3VP*%
X80010000Y13320000D03*
D13*
%TO.P,J3,1,Pin_1*%
%TO.N,VDD*%
X80010000Y15860000D03*
%TD*%
D14*
%TO.P,J2,3,Pin_3*%
%TO.N,GND*%
X64770000Y60960000D03*
%TO.P,J2,2,Pin_2*%
%TO.N,+3V3*%
X62230000Y60960000D03*
D13*
%TO.P,J2,1,Pin_1*%
%TO.N,VDD*%
X59690000Y60960000D03*
%TD*%
D14*
%TO.P,J1,3,Pin_3*%
%TO.N,GND*%
X52070000Y60960000D03*
%TO.P,J1,2,Pin_2*%
%TO.N,+5V*%
X49530000Y60960000D03*
D13*
%TO.P,J1,1,Pin_1*%
%TO.N,VDD*%
X46990000Y60960000D03*
%TD*%
D19*
%TO.P,J0,2,Pin_2*%
%TO.N,GND*%
X72390000Y61595000D03*
D20*
%TO.P,J0,1,Pin_1*%
%TO.N,VDD*%
X74930000Y61595000D03*
%TD*%
D21*
%TO.N,+3.3VP*%
X81295000Y13320000D02*
X80010000Y13320000D01*
X81280000Y6985000D02*
X82550000Y8255000D01*
X70485000Y6985000D02*
X81280000Y6985000D01*
X68550000Y8920000D02*
X70485000Y6985000D01*
X82550000Y8255000D02*
X82550000Y12065000D01*
X82550000Y12065000D02*
X81295000Y13320000D01*
X68550000Y10795000D02*
X68550000Y8920000D01*
D22*
%TO.N,GND*%
X19685000Y52070000D02*
X19685000Y62230000D01*
X18400000Y50785000D02*
X19685000Y52070000D01*
X22225000Y64770000D02*
X44450000Y64770000D01*
X16510000Y50785000D02*
X18400000Y50785000D01*
X19685000Y62230000D02*
X22225000Y64770000D01*
X69215000Y64770000D02*
X62230000Y64770000D01*
X72390000Y61595000D02*
X69215000Y64770000D01*
X12685000Y39355000D02*
X10690000Y37360000D01*
X16510000Y39355000D02*
X12685000Y39355000D01*
D21*
%TO.N,TF_NCSS*%
X7620000Y19685000D02*
X8580000Y19685000D01*
X5080000Y17145000D02*
X7620000Y19685000D01*
X29210000Y37465000D02*
X29210000Y6985000D01*
X29210000Y6985000D02*
X24765000Y2540000D01*
X5080000Y5080000D02*
X5080000Y17145000D01*
X24765000Y2540000D02*
X7620000Y2540000D01*
X27305000Y39370000D02*
X29210000Y37465000D01*
X22860000Y39370000D02*
X27305000Y39370000D01*
X7620000Y2540000D02*
X5080000Y5080000D01*
%TO.N,SPI1_SCK*%
X6350000Y16510000D02*
X6985000Y17145000D01*
X6985000Y17145000D02*
X8580000Y17145000D01*
X6350000Y5715000D02*
X6350000Y16510000D01*
X8255000Y3810000D02*
X6350000Y5715000D01*
X24130000Y3810000D02*
X8255000Y3810000D01*
%TO.N,SPI1_MISO*%
X13335000Y12065000D02*
X8580000Y12065000D01*
%TO.N,SPI1_MOSI*%
X12700000Y14605000D02*
X8580000Y14605000D01*
%TO.N,SPI1_SCK*%
X26035000Y36830000D02*
X22860000Y36830000D01*
X27940000Y34925000D02*
X26035000Y36830000D01*
X27940000Y7620000D02*
X27940000Y34925000D01*
X24130000Y3810000D02*
X27940000Y7620000D01*
%TO.N,SPI1_MISO*%
X26670000Y33020000D02*
X25400000Y34290000D01*
X25400000Y6985000D02*
X26670000Y8255000D01*
X18415000Y6985000D02*
X25400000Y6985000D01*
X25400000Y34290000D02*
X22860000Y34290000D01*
X13335000Y12065000D02*
X18415000Y6985000D01*
X26670000Y8255000D02*
X26670000Y33020000D01*
%TO.N,SPI1_MOSI*%
X19050000Y8255000D02*
X12700000Y14605000D01*
X24765000Y8255000D02*
X19050000Y8255000D01*
X25400000Y31115000D02*
X25400000Y8890000D01*
X25400000Y8890000D02*
X24765000Y8255000D01*
X22860000Y31750000D02*
X24765000Y31750000D01*
X24765000Y31750000D02*
X25400000Y31115000D01*
D22*
%TO.N,GND*%
X10690000Y40535000D02*
X10690000Y40745000D01*
X13335000Y24130000D02*
X5715000Y31750000D01*
X5715000Y35560000D02*
X10690000Y40535000D01*
X22860000Y13970000D02*
X15240000Y13970000D01*
X13335000Y15875000D02*
X13335000Y24130000D01*
X5715000Y31750000D02*
X5715000Y35560000D01*
X10690000Y40745000D02*
X10690000Y37360000D01*
X15240000Y13970000D02*
X13335000Y15875000D01*
X10690000Y44965000D02*
X10690000Y40745000D01*
X10690000Y35815000D02*
X10690000Y33780000D01*
X10690000Y37360000D02*
X10690000Y35815000D01*
D21*
%TO.N,Wind_Vane_SensorSide*%
X9165000Y31750000D02*
X8150000Y32765000D01*
X13970000Y31750000D02*
X9165000Y31750000D01*
%TO.N,LoRa_NCSS*%
X62230000Y15240000D02*
X64135000Y13335000D01*
X43815000Y15240000D02*
X62230000Y15240000D01*
X40005000Y11430000D02*
X43815000Y15240000D01*
X38100000Y11430000D02*
X40005000Y11430000D01*
X64135000Y13335000D02*
X68550000Y13335000D01*
%TO.N,LoRa_Reset*%
X73025000Y13335000D02*
X71090000Y13335000D01*
X71755000Y22860000D02*
X74930000Y19685000D01*
X63500000Y22860000D02*
X71755000Y22860000D01*
X60325000Y19685000D02*
X63500000Y22860000D01*
X43180000Y19685000D02*
X60325000Y19685000D01*
X41275000Y21590000D02*
X43180000Y19685000D01*
X38100000Y21590000D02*
X41275000Y21590000D01*
X74930000Y19685000D02*
X74930000Y15240000D01*
X74930000Y15240000D02*
X73025000Y13335000D01*
D22*
%TO.N,GND*%
X76835000Y12065000D02*
X78120000Y10780000D01*
X76835000Y18415000D02*
X76835000Y12065000D01*
X80010000Y30480000D02*
X80010000Y21590000D01*
X80010000Y21590000D02*
X76835000Y18415000D01*
X78120000Y10780000D02*
X80010000Y10780000D01*
X78105000Y10795000D02*
X78120000Y10780000D01*
X78105000Y10795000D02*
X71090000Y10795000D01*
D21*
%TO.N,LoRa_MISO*%
X71090000Y20350000D02*
X71090000Y18415000D01*
X69850000Y21590000D02*
X71090000Y20350000D01*
X64135000Y21590000D02*
X69850000Y21590000D01*
X38100000Y16510000D02*
X59055000Y16510000D01*
X59055000Y16510000D02*
X64135000Y21590000D01*
%TO.N,UART_TX*%
X38100000Y24130000D02*
X46340000Y24130000D01*
%TO.N,UART_RX*%
X46355000Y26685000D02*
X38115000Y26685000D01*
D22*
%TO.N,GND*%
X76200000Y26670000D02*
X72390000Y26670000D01*
X80010000Y30480000D02*
X76200000Y26670000D01*
X76200000Y52070000D02*
X80010000Y48260000D01*
X74810000Y52070000D02*
X76200000Y52070000D01*
X80010000Y48260000D02*
X80010000Y30480000D01*
X67310000Y52070000D02*
X74810000Y52070000D01*
X64770000Y54610000D02*
X67310000Y52070000D01*
X64770000Y60960000D02*
X64770000Y54610000D01*
X10690000Y44965000D02*
X10690000Y50290000D01*
X16510000Y50785000D02*
X10690000Y44965000D01*
X62230000Y64770000D02*
X64770000Y62230000D01*
X55880000Y64770000D02*
X62230000Y64770000D01*
X64770000Y62230000D02*
X64770000Y60960000D01*
X41910000Y62230000D02*
X44450000Y64770000D01*
X41910000Y58420000D02*
X41910000Y62230000D01*
X40640000Y57150000D02*
X41910000Y58420000D01*
X44450000Y64770000D02*
X55880000Y64770000D01*
X38100000Y57150000D02*
X40640000Y57150000D01*
X52070000Y60960000D02*
X55880000Y64770000D01*
%TO.N,+5V*%
X49530000Y58420000D02*
X49530000Y60960000D01*
X45720000Y54610000D02*
X49530000Y58420000D01*
X38100000Y54610000D02*
X45720000Y54610000D01*
D21*
%TO.N,RTC_Alarm*%
X64770000Y41910000D02*
X74810000Y41910000D01*
X38100000Y34290000D02*
X57150000Y34290000D01*
X57150000Y34290000D02*
X64770000Y41910000D01*
%TO.N,SCL*%
X46320000Y44450000D02*
X74810000Y44450000D01*
X38100000Y44450000D02*
X46320000Y44450000D01*
%TO.N,SDA*%
X46320000Y46990000D02*
X74810000Y46990000D01*
X38100000Y46990000D02*
X46320000Y46990000D01*
%TO.N,+3.3VA*%
X22860000Y16510000D02*
X16510000Y16510000D01*
%TO.N,Wind_Vane_SensorSide*%
X15240000Y33020000D02*
X16510000Y33020000D01*
X13970000Y27940000D02*
X13970000Y31750000D01*
X15240000Y26670000D02*
X13970000Y27940000D01*
X16510000Y26670000D02*
X15240000Y26670000D01*
X13970000Y31750000D02*
X15240000Y33020000D01*
%TO.N,Wind_Vane*%
X20320000Y26670000D02*
X22860000Y26670000D01*
X16510000Y30480000D02*
X20320000Y26670000D01*
%TD*%
%TA.AperFunction,Conductor*%
%TO.N,GND*%
G36*
X82461085Y66289287D02*
G01*
X82590280Y66230286D01*
X82697619Y66137276D01*
X82774406Y66017792D01*
X82814421Y65881515D01*
X82819500Y65810500D01*
X82819500Y17056794D01*
X82799287Y16916209D01*
X82740286Y16787014D01*
X82647276Y16679675D01*
X82527792Y16602888D01*
X82391515Y16562873D01*
X82249485Y16562873D01*
X82113208Y16602888D01*
X81993724Y16679675D01*
X81900714Y16787014D01*
X81840830Y16919251D01*
X81809829Y17027366D01*
X81793741Y17083470D01*
X81699573Y17263596D01*
X81571109Y17421109D01*
X81413596Y17549573D01*
X81233470Y17643741D01*
X81038087Y17699766D01*
X80917816Y17710500D01*
X79102184Y17710500D01*
X78981913Y17699766D01*
X78786530Y17643741D01*
X78606404Y17549573D01*
X78448891Y17421109D01*
X78320427Y17263596D01*
X78226259Y17083470D01*
X78170234Y16888087D01*
X78159500Y16767816D01*
X78159500Y14952184D01*
X78170234Y14831913D01*
X78226259Y14636530D01*
X78237971Y14614127D01*
X78299819Y14495823D01*
X78347039Y14361872D01*
X78354607Y14220044D01*
X78320105Y14077305D01*
X78245574Y13893297D01*
X78241321Y13876174D01*
X78241320Y13876172D01*
X78218437Y13784050D01*
X78182399Y13638968D01*
X78155688Y13378274D01*
X78156381Y13360638D01*
X78164187Y13161985D01*
X78165977Y13116418D01*
X78177027Y13055915D01*
X78203219Y12912500D01*
X78213058Y12858624D01*
X78218641Y12841890D01*
X78265900Y12700239D01*
X78295994Y12610035D01*
X78303876Y12594260D01*
X78303878Y12594256D01*
X78389032Y12423837D01*
X78413128Y12375613D01*
X78423164Y12361092D01*
X78441800Y12334127D01*
X78505103Y12206984D01*
X78530020Y12067156D01*
X78514535Y11925973D01*
X78462793Y11799787D01*
X78353267Y11611223D01*
X78337783Y11579618D01*
X78252673Y11369491D01*
X78241798Y11336020D01*
X78236486Y11314636D01*
X78233378Y11283869D01*
X78248952Y11280000D01*
X80011000Y11280000D01*
X80151585Y11259787D01*
X80280780Y11200786D01*
X80388119Y11107776D01*
X80464906Y10988292D01*
X80504921Y10852015D01*
X80510000Y10781000D01*
X80510000Y10779000D01*
X80489787Y10638415D01*
X80430786Y10509220D01*
X80337776Y10401881D01*
X80218292Y10325094D01*
X80082015Y10285079D01*
X80011000Y10280000D01*
X78262161Y10280000D01*
X78231550Y10275599D01*
X78231550Y10267234D01*
X78233552Y10258777D01*
X78290874Y10086960D01*
X78304342Y10054446D01*
X78405668Y9851661D01*
X78423595Y9821348D01*
X78552484Y9634860D01*
X78574491Y9607391D01*
X78728382Y9440913D01*
X78754029Y9416829D01*
X78929848Y9273690D01*
X78958633Y9253459D01*
X79152860Y9136525D01*
X79184218Y9120547D01*
X79305947Y9069002D01*
X79427522Y8995572D01*
X79523485Y8890864D01*
X79586061Y8763361D01*
X79610181Y8623394D01*
X79593890Y8482301D01*
X79538509Y8351513D01*
X79448523Y8241626D01*
X79331224Y8161541D01*
X79196114Y8117748D01*
X79111374Y8110500D01*
X72326013Y8110500D01*
X72185428Y8130713D01*
X72056233Y8189714D01*
X71948894Y8282724D01*
X71872107Y8402208D01*
X71832092Y8538485D01*
X71832092Y8680515D01*
X71872107Y8816792D01*
X71948894Y8936276D01*
X72056233Y9029286D01*
X72188469Y9089169D01*
X72200978Y9092756D01*
X72247684Y9111437D01*
X72382921Y9182137D01*
X72424909Y9209824D01*
X72543167Y9306273D01*
X72578727Y9341833D01*
X72675176Y9460091D01*
X72702863Y9502079D01*
X72773563Y9637316D01*
X72792241Y9684015D01*
X72834726Y9832177D01*
X72843382Y9878657D01*
X72851011Y9964140D01*
X72852000Y9986333D01*
X72852000Y10259310D01*
X72847437Y10291046D01*
X72833970Y10295000D01*
X71089000Y10295000D01*
X70948415Y10315213D01*
X70819220Y10374214D01*
X70711881Y10467224D01*
X70635094Y10586708D01*
X70595079Y10722985D01*
X70590000Y10794000D01*
X70590000Y10796000D01*
X70610213Y10936585D01*
X70669214Y11065780D01*
X70762224Y11173119D01*
X70881708Y11249906D01*
X71017985Y11289921D01*
X71089000Y11295000D01*
X72816309Y11295000D01*
X72848045Y11299563D01*
X72851999Y11313030D01*
X72851999Y11603678D01*
X72851012Y11625841D01*
X72844893Y11694411D01*
X72852530Y11836236D01*
X72899815Y11970164D01*
X72982915Y12085346D01*
X73095101Y12172449D01*
X73224799Y12223443D01*
X73238795Y12224778D01*
X73261582Y12231463D01*
X73261588Y12231464D01*
X73284682Y12238239D01*
X73320115Y12247238D01*
X73343648Y12252305D01*
X73343650Y12252306D01*
X73366866Y12257304D01*
X73388715Y12266600D01*
X73405614Y12271961D01*
X73422082Y12278548D01*
X73444876Y12285235D01*
X73487398Y12307135D01*
X73520490Y12322671D01*
X73542630Y12332092D01*
X73542631Y12332093D01*
X73564486Y12341392D01*
X73584186Y12354655D01*
X73599770Y12363116D01*
X73614694Y12372697D01*
X73635807Y12383571D01*
X73655167Y12398778D01*
X73673417Y12413114D01*
X73702980Y12434632D01*
X73742639Y12461332D01*
X73746825Y12465127D01*
X73752049Y12470351D01*
X73752696Y12470925D01*
X73755562Y12473654D01*
X73755658Y12473553D01*
X73769479Y12485812D01*
X73786027Y12501570D01*
X73804698Y12516237D01*
X73837513Y12554053D01*
X73861553Y12579855D01*
X75656067Y14374370D01*
X75659456Y14377519D01*
X75668770Y14384126D01*
X75731090Y14449226D01*
X75738702Y14457005D01*
X75763795Y14482098D01*
X75770606Y14490346D01*
X75776424Y14496583D01*
X75783661Y14504143D01*
X75817284Y14539265D01*
X75830172Y14559225D01*
X75841163Y14573142D01*
X75851102Y14587821D01*
X75866222Y14606131D01*
X75889152Y14648099D01*
X75907840Y14679511D01*
X75933782Y14719689D01*
X75942660Y14741719D01*
X75950822Y14757465D01*
X75957805Y14773757D01*
X75969193Y14794601D01*
X75983774Y14840151D01*
X75996187Y14874536D01*
X76005186Y14896865D01*
X76005186Y14896866D01*
X76014061Y14918887D01*
X76018612Y14942192D01*
X76023650Y14959199D01*
X76027427Y14976524D01*
X76034668Y14999144D01*
X76040371Y15046619D01*
X76046060Y15082745D01*
X76051781Y15112038D01*
X76051782Y15112045D01*
X76055224Y15129671D01*
X76055500Y15135314D01*
X76055500Y15142697D01*
X76055553Y15143581D01*
X76055649Y15147511D01*
X76055788Y15147508D01*
X76056892Y15165958D01*
X76057450Y15188797D01*
X76060283Y15212377D01*
X76058356Y15239603D01*
X76056746Y15262329D01*
X76055500Y15297574D01*
X76055500Y19586321D01*
X76055669Y19590934D01*
X76057584Y19602195D01*
X76055619Y19692251D01*
X76055500Y19703136D01*
X76055500Y19738664D01*
X76054483Y19749317D01*
X76054187Y19757856D01*
X76054180Y19758208D01*
X76052899Y19816910D01*
X76047899Y19840132D01*
X76045831Y19857738D01*
X76042478Y19875151D01*
X76040222Y19898795D01*
X76028756Y19937880D01*
X76026761Y19944682D01*
X76017762Y19980115D01*
X76012695Y20003648D01*
X76012694Y20003650D01*
X76007696Y20026866D01*
X75998400Y20048715D01*
X75993039Y20065614D01*
X75986452Y20082082D01*
X75979765Y20104876D01*
X75957865Y20147398D01*
X75942329Y20180490D01*
X75932908Y20202630D01*
X75932907Y20202631D01*
X75923608Y20224486D01*
X75910345Y20244186D01*
X75901884Y20259770D01*
X75892303Y20274694D01*
X75881429Y20295807D01*
X75863725Y20318346D01*
X75851886Y20333417D01*
X75830368Y20362980D01*
X75813695Y20387745D01*
X75803668Y20402639D01*
X75799873Y20406825D01*
X75794649Y20412049D01*
X75794075Y20412696D01*
X75791346Y20415562D01*
X75791447Y20415658D01*
X75779201Y20429464D01*
X75763435Y20446020D01*
X75748763Y20464698D01*
X75710934Y20497524D01*
X75685145Y20521553D01*
X72620625Y23586073D01*
X72617480Y23589457D01*
X72610874Y23598770D01*
X72545797Y23661068D01*
X72538018Y23668680D01*
X72512903Y23693795D01*
X72504646Y23700614D01*
X72498387Y23706454D01*
X72455735Y23747284D01*
X72456751Y23748345D01*
X72376943Y23832392D01*
X72312122Y23958767D01*
X72285530Y24098286D01*
X72299323Y24239645D01*
X72352382Y24371392D01*
X72440409Y24482854D01*
X72556273Y24565001D01*
X72690588Y24611177D01*
X72784013Y24620001D01*
X73486678Y24620001D01*
X73508840Y24620988D01*
X73594346Y24628618D01*
X73640823Y24637274D01*
X73788985Y24679759D01*
X73835684Y24698437D01*
X73970921Y24769137D01*
X74012909Y24796824D01*
X74131167Y24893273D01*
X74166727Y24928833D01*
X74263176Y25047091D01*
X74290863Y25089079D01*
X74361563Y25224316D01*
X74380241Y25271015D01*
X74422726Y25419177D01*
X74431382Y25465657D01*
X74439011Y25551140D01*
X74440000Y25573333D01*
X74440000Y26134310D01*
X74435437Y26166046D01*
X74421970Y26170000D01*
X72614202Y26170000D01*
X72473617Y26190213D01*
X72376986Y26234343D01*
X72343482Y26213237D01*
X72206849Y26174457D01*
X72140304Y26170000D01*
X70375691Y26170000D01*
X70343955Y26165437D01*
X70340001Y26151970D01*
X70340001Y25573322D01*
X70340988Y25551160D01*
X70348618Y25465654D01*
X70357274Y25419177D01*
X70399759Y25271015D01*
X70418437Y25224316D01*
X70489137Y25089079D01*
X70516824Y25047091D01*
X70613273Y24928833D01*
X70648832Y24893274D01*
X70675901Y24871197D01*
X70772071Y24766679D01*
X70834899Y24639301D01*
X70859296Y24499382D01*
X70843285Y24358257D01*
X70788163Y24227360D01*
X70698395Y24117294D01*
X70581255Y24036978D01*
X70446232Y23992917D01*
X70360518Y23985500D01*
X63598679Y23985500D01*
X63594066Y23985669D01*
X63582805Y23987584D01*
X63559060Y23987066D01*
X63559058Y23987066D01*
X63492749Y23985619D01*
X63481864Y23985500D01*
X63446336Y23985500D01*
X63435683Y23984483D01*
X63427163Y23984188D01*
X63368090Y23982899D01*
X63344868Y23977899D01*
X63327262Y23975831D01*
X63309849Y23972478D01*
X63286205Y23970222D01*
X63257855Y23961905D01*
X63240318Y23956761D01*
X63204885Y23947762D01*
X63181352Y23942695D01*
X63181350Y23942694D01*
X63158134Y23937696D01*
X63136285Y23928400D01*
X63119386Y23923039D01*
X63102918Y23916452D01*
X63080124Y23909765D01*
X63059006Y23898889D01*
X63059007Y23898889D01*
X63037602Y23887865D01*
X63004510Y23872329D01*
X62984424Y23863782D01*
X62960514Y23853608D01*
X62940814Y23840345D01*
X62925230Y23831884D01*
X62910306Y23822303D01*
X62889193Y23811429D01*
X62870521Y23796762D01*
X62870518Y23796760D01*
X62851583Y23781886D01*
X62822023Y23760370D01*
X62782361Y23733668D01*
X62778175Y23729873D01*
X62772951Y23724649D01*
X62772304Y23724075D01*
X62769438Y23721346D01*
X62769342Y23721447D01*
X62755536Y23709201D01*
X62738980Y23693435D01*
X62720302Y23678763D01*
X62687476Y23640934D01*
X62663447Y23615145D01*
X60004956Y20956654D01*
X59891255Y20871538D01*
X59758180Y20821904D01*
X59652110Y20810500D01*
X43852889Y20810500D01*
X43712304Y20830713D01*
X43583109Y20889714D01*
X43500043Y20956654D01*
X42304044Y22152654D01*
X42218928Y22266355D01*
X42169294Y22399430D01*
X42159161Y22541098D01*
X42189352Y22679883D01*
X42257420Y22804540D01*
X42357851Y22904970D01*
X42482508Y22973038D01*
X42621292Y23003229D01*
X42656890Y23004500D01*
X44226324Y23004500D01*
X44366909Y22984287D01*
X44496104Y22925286D01*
X44603443Y22832276D01*
X44642916Y22780186D01*
X44653712Y22763813D01*
X44665427Y22741404D01*
X44793891Y22583891D01*
X44951404Y22455427D01*
X45131530Y22361259D01*
X45326913Y22305234D01*
X45447184Y22294500D01*
X47262816Y22294500D01*
X47383087Y22305234D01*
X47578470Y22361259D01*
X47758596Y22455427D01*
X47916109Y22583891D01*
X48044573Y22741404D01*
X48138741Y22921530D01*
X48194766Y23116913D01*
X48205500Y23237184D01*
X48205500Y25052816D01*
X48194766Y25173087D01*
X48138741Y25368470D01*
X48064608Y25510273D01*
X48017391Y25644215D01*
X48009822Y25786044D01*
X48042518Y25924259D01*
X48050422Y25943182D01*
X48100547Y26056564D01*
X48108544Y26084917D01*
X48166893Y26291807D01*
X48166893Y26291808D01*
X48171681Y26308784D01*
X48206566Y26568509D01*
X48210227Y26685000D01*
X48194241Y26910785D01*
X48192966Y26928797D01*
X48192965Y26928802D01*
X48191719Y26946404D01*
X48136563Y27202592D01*
X48045860Y27448453D01*
X47921420Y27679080D01*
X47911957Y27691892D01*
X47854045Y27820644D01*
X47834635Y27961342D01*
X47855651Y28101808D01*
X47910220Y28222550D01*
X47984804Y28342142D01*
X48001277Y28373255D01*
X48092939Y28580591D01*
X48104866Y28613720D01*
X48126564Y28690653D01*
X48130637Y28721306D01*
X48117540Y28725000D01*
X44607161Y28725000D01*
X44576550Y28720599D01*
X44576550Y28712234D01*
X44578552Y28703777D01*
X44635874Y28531961D01*
X44648923Y28500458D01*
X44684048Y28362840D01*
X44678978Y28220900D01*
X44634125Y28086138D01*
X44553122Y27969472D01*
X44442531Y27880353D01*
X44311312Y27826000D01*
X44187907Y27810500D01*
X40270858Y27810500D01*
X40130273Y27830713D01*
X40001078Y27889714D01*
X39893739Y27982724D01*
X39816952Y28102208D01*
X39776937Y28238485D01*
X39776937Y28380515D01*
X39814468Y28511264D01*
X39845547Y28581564D01*
X39850768Y28600073D01*
X39911893Y28816807D01*
X39911893Y28816808D01*
X39916681Y28833784D01*
X39951566Y29093509D01*
X39955227Y29210000D01*
X39951881Y29257264D01*
X54075070Y29257264D01*
X54087909Y28989959D01*
X54140118Y28727488D01*
X54230549Y28475617D01*
X54239311Y28459310D01*
X54343388Y28265613D01*
X54357215Y28239879D01*
X54517335Y28025453D01*
X54530484Y28012418D01*
X54530486Y28012416D01*
X54694240Y27850085D01*
X54694245Y27850081D01*
X54707390Y27837050D01*
X54923205Y27678808D01*
X55160039Y27554203D01*
X55412690Y27465974D01*
X55430874Y27462522D01*
X55430880Y27462520D01*
X55657412Y27419511D01*
X55657416Y27419511D01*
X55675606Y27416057D01*
X55943013Y27405551D01*
X56209035Y27434685D01*
X56467829Y27502820D01*
X56713710Y27608458D01*
X56941275Y27749280D01*
X57025574Y27820644D01*
X57131394Y27910227D01*
X57131397Y27910230D01*
X57145526Y27922191D01*
X57321976Y28123393D01*
X57347949Y28163772D01*
X57442165Y28310249D01*
X57466747Y28348466D01*
X57546539Y28525598D01*
X57569059Y28575590D01*
X57569059Y28575591D01*
X57576661Y28592466D01*
X57596265Y28661975D01*
X57644275Y28832205D01*
X57644276Y28832211D01*
X57649302Y28850031D01*
X57656346Y28905396D01*
X57678671Y29080888D01*
X57683075Y29115505D01*
X57685549Y29210000D01*
X57683412Y29238765D01*
X57682037Y29257264D01*
X64235070Y29257264D01*
X64247909Y28989959D01*
X64300118Y28727488D01*
X64390549Y28475617D01*
X64399311Y28459310D01*
X64503388Y28265613D01*
X64517215Y28239879D01*
X64677335Y28025453D01*
X64690484Y28012418D01*
X64690486Y28012416D01*
X64854240Y27850085D01*
X64854245Y27850081D01*
X64867390Y27837050D01*
X65083205Y27678808D01*
X65320039Y27554203D01*
X65572690Y27465974D01*
X65590874Y27462522D01*
X65590880Y27462520D01*
X65817412Y27419511D01*
X65817416Y27419511D01*
X65835606Y27416057D01*
X66103013Y27405551D01*
X66369035Y27434685D01*
X66627829Y27502820D01*
X66873710Y27608458D01*
X67101275Y27749280D01*
X67185574Y27820644D01*
X67291394Y27910227D01*
X67291397Y27910230D01*
X67305526Y27922191D01*
X67481976Y28123393D01*
X67507949Y28163772D01*
X67602165Y28310249D01*
X67626747Y28348466D01*
X67706539Y28525598D01*
X67729059Y28575590D01*
X67729059Y28575591D01*
X67736661Y28592466D01*
X67756265Y28661975D01*
X67804275Y28832205D01*
X67804276Y28832211D01*
X67809302Y28850031D01*
X67816346Y28905396D01*
X67838671Y29080888D01*
X67843075Y29115505D01*
X67845549Y29210000D01*
X67843950Y29231523D01*
X70334822Y29231523D01*
X70350916Y28952404D01*
X70354187Y28935730D01*
X70354188Y28935724D01*
X70374188Y28833784D01*
X70404741Y28678052D01*
X70457064Y28525231D01*
X70483478Y28385682D01*
X70469507Y28244340D01*
X70427181Y28132410D01*
X70418438Y28115686D01*
X70399759Y28068985D01*
X70357274Y27920823D01*
X70348618Y27874343D01*
X70340989Y27788860D01*
X70340000Y27766667D01*
X70340000Y27205690D01*
X70344563Y27173954D01*
X70358030Y27170000D01*
X72127234Y27170000D01*
X72202713Y27164258D01*
X72215783Y27162258D01*
X72351693Y27121013D01*
X72377683Y27103976D01*
X72473617Y27147787D01*
X72554251Y27164386D01*
X72570783Y27166386D01*
X72630729Y27170000D01*
X74404309Y27170000D01*
X74436045Y27174563D01*
X74439999Y27188030D01*
X74439999Y27766678D01*
X74439012Y27788840D01*
X74431382Y27874346D01*
X74422726Y27920823D01*
X74380241Y28068985D01*
X74361563Y28115685D01*
X74353176Y28131727D01*
X74305956Y28265677D01*
X74298386Y28407506D01*
X74328603Y28539297D01*
X74357570Y28615956D01*
X74419987Y28888482D01*
X74423193Y28924396D01*
X74443970Y29157204D01*
X74443971Y29157215D01*
X74444840Y29166957D01*
X74445291Y29210000D01*
X74426275Y29488935D01*
X74369579Y29762708D01*
X74363906Y29778729D01*
X74281927Y30010232D01*
X74281925Y30010236D01*
X74276253Y30026254D01*
X74192486Y30188550D01*
X74159179Y30253080D01*
X74112662Y30387277D01*
X74105836Y30529143D01*
X74139255Y30667185D01*
X74164068Y30720048D01*
X74183133Y30755162D01*
X74258745Y30894422D01*
X74357570Y31155956D01*
X74419987Y31428482D01*
X74423591Y31468858D01*
X74443970Y31697204D01*
X74443971Y31697215D01*
X74444840Y31706957D01*
X74445291Y31750000D01*
X74440463Y31820827D01*
X74428670Y31993797D01*
X74426275Y32028935D01*
X74369579Y32302708D01*
X74362249Y32323408D01*
X74281927Y32550232D01*
X74281925Y32550236D01*
X74276253Y32566254D01*
X74148022Y32814696D01*
X73987261Y33043437D01*
X73930692Y33104313D01*
X73808510Y33235797D01*
X73808506Y33235801D01*
X73796944Y33248243D01*
X73779044Y33262894D01*
X73593739Y33414564D01*
X73593735Y33414567D01*
X73580591Y33425325D01*
X73431598Y33516628D01*
X73356688Y33562533D01*
X73356684Y33562535D01*
X73342208Y33571406D01*
X73086205Y33683784D01*
X72817319Y33760378D01*
X72800495Y33762772D01*
X72800492Y33762773D01*
X72713559Y33775145D01*
X72540526Y33799771D01*
X72523538Y33799860D01*
X72523537Y33799860D01*
X72421752Y33800393D01*
X72260947Y33801235D01*
X72244108Y33799018D01*
X72244106Y33799018D01*
X72000604Y33766961D01*
X72000603Y33766961D01*
X71983757Y33764743D01*
X71967373Y33760261D01*
X71967369Y33760260D01*
X71826145Y33721625D01*
X71714083Y33690968D01*
X71456917Y33581278D01*
X71217018Y33437701D01*
X71203771Y33427088D01*
X71203765Y33427084D01*
X71069564Y33319568D01*
X70998823Y33262894D01*
X70987126Y33250568D01*
X70919949Y33179778D01*
X70806371Y33060092D01*
X70777277Y33019603D01*
X70658759Y32854668D01*
X70643223Y32833048D01*
X70512398Y32585962D01*
X70506562Y32570014D01*
X70506561Y32570012D01*
X70485864Y32513453D01*
X70416317Y32323408D01*
X70412701Y32306825D01*
X70412699Y32306817D01*
X70360374Y32066834D01*
X70356757Y32050243D01*
X70350370Y31969088D01*
X70336423Y31791860D01*
X70334822Y31771523D01*
X70350916Y31492404D01*
X70354187Y31475730D01*
X70354188Y31475724D01*
X70370758Y31391266D01*
X70404741Y31218052D01*
X70414199Y31190427D01*
X70489798Y30969620D01*
X70489801Y30969612D01*
X70495303Y30953543D01*
X70599140Y30747086D01*
X70620925Y30703772D01*
X70617923Y30702262D01*
X70660004Y30600191D01*
X70674953Y30458950D01*
X70649504Y30319218D01*
X70617300Y30244089D01*
X70520348Y30060979D01*
X70520342Y30060966D01*
X70512398Y30045962D01*
X70506562Y30030014D01*
X70506561Y30030012D01*
X70445201Y29862336D01*
X70416317Y29783408D01*
X70412701Y29766825D01*
X70412699Y29766817D01*
X70360374Y29526834D01*
X70356757Y29510243D01*
X70334822Y29231523D01*
X67843950Y29231523D01*
X67843412Y29238765D01*
X67827089Y29458416D01*
X67827089Y29458418D01*
X67825717Y29476877D01*
X67821632Y29494930D01*
X67770741Y29719836D01*
X67770739Y29719843D01*
X67766655Y29737891D01*
X67669662Y29987309D01*
X67621366Y30071810D01*
X67546054Y30203579D01*
X67546050Y30203585D01*
X67536868Y30219650D01*
X67525409Y30234186D01*
X67382648Y30415277D01*
X67382646Y30415279D01*
X67371190Y30429811D01*
X67176269Y30613175D01*
X67160360Y30624212D01*
X67056543Y30696232D01*
X66956385Y30765714D01*
X66939783Y30773901D01*
X66939780Y30773903D01*
X66732980Y30875886D01*
X66732973Y30875889D01*
X66716371Y30884076D01*
X66461497Y30965662D01*
X66197364Y31008678D01*
X66055306Y31010538D01*
X65948286Y31011939D01*
X65948281Y31011939D01*
X65929774Y31012181D01*
X65911436Y31009685D01*
X65911431Y31009685D01*
X65776851Y30991369D01*
X65664605Y30976093D01*
X65646836Y30970914D01*
X65646832Y30970913D01*
X65425461Y30906390D01*
X65425458Y30906389D01*
X65407683Y30901208D01*
X65390867Y30893456D01*
X65390865Y30893455D01*
X65329469Y30865151D01*
X65164652Y30789169D01*
X64940851Y30642438D01*
X64927039Y30630110D01*
X64927036Y30630108D01*
X64756774Y30478143D01*
X64741197Y30464240D01*
X64570075Y30258488D01*
X64560471Y30242662D01*
X64560468Y30242657D01*
X64527331Y30188049D01*
X64431244Y30029702D01*
X64327755Y29782909D01*
X64261881Y29523530D01*
X64260027Y29505113D01*
X64260026Y29505110D01*
X64237755Y29283927D01*
X64235070Y29257264D01*
X57682037Y29257264D01*
X57667089Y29458416D01*
X57667089Y29458418D01*
X57665717Y29476877D01*
X57661632Y29494930D01*
X57610741Y29719836D01*
X57610739Y29719843D01*
X57606655Y29737891D01*
X57509662Y29987309D01*
X57461366Y30071810D01*
X57386054Y30203579D01*
X57386050Y30203585D01*
X57376868Y30219650D01*
X57365409Y30234186D01*
X57222648Y30415277D01*
X57222646Y30415279D01*
X57211190Y30429811D01*
X57016269Y30613175D01*
X57000360Y30624212D01*
X56896543Y30696232D01*
X56796385Y30765714D01*
X56779783Y30773901D01*
X56779780Y30773903D01*
X56572980Y30875886D01*
X56572973Y30875889D01*
X56556371Y30884076D01*
X56301497Y30965662D01*
X56037364Y31008678D01*
X55895306Y31010538D01*
X55788286Y31011939D01*
X55788281Y31011939D01*
X55769774Y31012181D01*
X55751436Y31009685D01*
X55751431Y31009685D01*
X55616851Y30991369D01*
X55504605Y30976093D01*
X55486836Y30970914D01*
X55486832Y30970913D01*
X55265461Y30906390D01*
X55265458Y30906389D01*
X55247683Y30901208D01*
X55230867Y30893456D01*
X55230865Y30893455D01*
X55169469Y30865151D01*
X55004652Y30789169D01*
X54780851Y30642438D01*
X54767039Y30630110D01*
X54767036Y30630108D01*
X54596774Y30478143D01*
X54581197Y30464240D01*
X54410075Y30258488D01*
X54400471Y30242662D01*
X54400468Y30242657D01*
X54367331Y30188049D01*
X54271244Y30029702D01*
X54167755Y29782909D01*
X54101881Y29523530D01*
X54100027Y29505113D01*
X54100026Y29505110D01*
X54077755Y29283927D01*
X54075070Y29257264D01*
X39951881Y29257264D01*
X39940162Y29422775D01*
X39937966Y29453797D01*
X39937965Y29453802D01*
X39936719Y29471404D01*
X39881563Y29727592D01*
X39881092Y29728869D01*
X44578378Y29728869D01*
X44593952Y29725000D01*
X45819310Y29725000D01*
X45851046Y29729563D01*
X45855000Y29743030D01*
X45855000Y29760690D01*
X46855000Y29760690D01*
X46859563Y29728954D01*
X46873030Y29725000D01*
X48104149Y29725000D01*
X48134760Y29729401D01*
X48134760Y29742535D01*
X48129975Y29759005D01*
X48051509Y29971696D01*
X48037025Y30003773D01*
X47929379Y30203277D01*
X47910508Y30233013D01*
X47775828Y30415356D01*
X47752971Y30442118D01*
X47593927Y30603680D01*
X47567529Y30626953D01*
X47387314Y30764489D01*
X47357890Y30783816D01*
X47160101Y30894583D01*
X47128248Y30909572D01*
X46916815Y30991369D01*
X46887523Y31000381D01*
X46858953Y31002814D01*
X46855000Y30985758D01*
X46855000Y29760690D01*
X45855000Y29760690D01*
X45855000Y30974582D01*
X45850599Y31005193D01*
X45844219Y31005193D01*
X45832042Y31002210D01*
X45635042Y30933028D01*
X45602749Y30919054D01*
X45401555Y30814542D01*
X45371555Y30796158D01*
X45187118Y30664357D01*
X45159978Y30641904D01*
X44995962Y30485440D01*
X44972259Y30459392D01*
X44831914Y30281365D01*
X44812131Y30252255D01*
X44698267Y30056223D01*
X44682783Y30024618D01*
X44597673Y29814491D01*
X44586798Y29781020D01*
X44581486Y29759636D01*
X44578378Y29728869D01*
X39881092Y29728869D01*
X39790860Y29973453D01*
X39666420Y30204080D01*
X39657179Y30216592D01*
X39599342Y30345174D01*
X39579931Y30485871D01*
X39600946Y30626338D01*
X39655514Y30747079D01*
X39739586Y30881884D01*
X39758470Y30924598D01*
X39838410Y31105420D01*
X39838411Y31105422D01*
X39845547Y31121564D01*
X39850767Y31140070D01*
X39911893Y31356807D01*
X39911893Y31356808D01*
X39916681Y31373784D01*
X39951566Y31633509D01*
X39952064Y31649356D01*
X39954827Y31737266D01*
X39954827Y31737270D01*
X39955227Y31750000D01*
X39936719Y32011404D01*
X39881563Y32267592D01*
X39798484Y32492788D01*
X39768789Y32631679D01*
X39779426Y32773310D01*
X39829536Y32906207D01*
X39915056Y33019603D01*
X40029060Y33104313D01*
X40162312Y33153472D01*
X40266641Y33164500D01*
X57051321Y33164500D01*
X57055934Y33164331D01*
X57067195Y33162416D01*
X57090940Y33162934D01*
X57090942Y33162934D01*
X57157251Y33164381D01*
X57168136Y33164500D01*
X57203664Y33164500D01*
X57214317Y33165517D01*
X57222837Y33165812D01*
X57281910Y33167101D01*
X57305132Y33172101D01*
X57322738Y33174169D01*
X57340151Y33177522D01*
X57363795Y33179778D01*
X57392145Y33188095D01*
X57409682Y33193239D01*
X57445115Y33202238D01*
X57468648Y33207305D01*
X57468650Y33207306D01*
X57491866Y33212304D01*
X57513715Y33221600D01*
X57530614Y33226961D01*
X57547082Y33233548D01*
X57569876Y33240235D01*
X57612398Y33262135D01*
X57645490Y33277671D01*
X57667630Y33287092D01*
X57667631Y33287093D01*
X57689486Y33296392D01*
X57709186Y33309655D01*
X57724770Y33318116D01*
X57739694Y33327697D01*
X57760807Y33338571D01*
X57789869Y33361399D01*
X57798417Y33368114D01*
X57827980Y33389632D01*
X57852745Y33406305D01*
X57867639Y33416332D01*
X57871825Y33420127D01*
X57877049Y33425351D01*
X57877696Y33425925D01*
X57880562Y33428654D01*
X57880658Y33428553D01*
X57894464Y33440799D01*
X57911020Y33456565D01*
X57929698Y33471237D01*
X57962524Y33509066D01*
X57986553Y33534855D01*
X65090044Y40638346D01*
X65203745Y40723462D01*
X65336820Y40773096D01*
X65442890Y40784500D01*
X72555057Y40784500D01*
X72695642Y40764287D01*
X72824837Y40705286D01*
X72932176Y40612276D01*
X73008963Y40492792D01*
X73048978Y40356515D01*
X73052081Y40241143D01*
X73047500Y40189816D01*
X73047500Y38550184D01*
X73058234Y38429913D01*
X73114259Y38234530D01*
X73208427Y38054404D01*
X73336891Y37896891D01*
X73494404Y37768427D01*
X73674530Y37674259D01*
X73869913Y37618234D01*
X73990184Y37607500D01*
X75629816Y37607500D01*
X75750087Y37618234D01*
X75945470Y37674259D01*
X76125596Y37768427D01*
X76283109Y37896891D01*
X76411573Y38054404D01*
X76505741Y38234530D01*
X76561766Y38429913D01*
X76572500Y38550184D01*
X76572500Y40189816D01*
X76561766Y40310087D01*
X76505741Y40505470D01*
X76411573Y40685596D01*
X76414231Y40686985D01*
X76370298Y40780272D01*
X76348436Y40920610D01*
X76366998Y41061422D01*
X76392433Y41131414D01*
X76463248Y41288618D01*
X76463250Y41288623D01*
X76470852Y41305499D01*
X76508129Y41437672D01*
X76536933Y41539803D01*
X76536934Y41539809D01*
X76541960Y41557629D01*
X76545392Y41584602D01*
X76573438Y41805065D01*
X76575020Y41817499D01*
X76577442Y41910000D01*
X76576498Y41922710D01*
X76563449Y42098297D01*
X76558028Y42171245D01*
X76500213Y42426750D01*
X76405267Y42670903D01*
X76285512Y42880432D01*
X76284462Y42882269D01*
X76284461Y42882270D01*
X76275276Y42898341D01*
X76268424Y42907032D01*
X76208256Y43031395D01*
X76184925Y43171496D01*
X76202010Y43312494D01*
X76264122Y43452525D01*
X76305019Y43516107D01*
X76363258Y43606650D01*
X76415849Y43723396D01*
X76463250Y43828623D01*
X76463250Y43828624D01*
X76470852Y43845499D01*
X76507653Y43975986D01*
X76536933Y44079803D01*
X76536934Y44079809D01*
X76541960Y44097629D01*
X76575020Y44357499D01*
X76577442Y44450000D01*
X76576498Y44462710D01*
X76559400Y44692781D01*
X76558028Y44711245D01*
X76500213Y44966750D01*
X76405267Y45210903D01*
X76275276Y45438341D01*
X76268424Y45447032D01*
X76208256Y45571395D01*
X76184925Y45711496D01*
X76202010Y45852494D01*
X76264122Y45992525D01*
X76298269Y46045613D01*
X76363258Y46146650D01*
X76378001Y46179377D01*
X76463250Y46368623D01*
X76463250Y46368624D01*
X76470852Y46385499D01*
X76506498Y46511890D01*
X76536933Y46619803D01*
X76536934Y46619809D01*
X76541960Y46637629D01*
X76549468Y46696640D01*
X76564124Y46811853D01*
X76575020Y46897499D01*
X76577442Y46990000D01*
X76576498Y47002710D01*
X76559400Y47232781D01*
X76558028Y47251245D01*
X76500213Y47506750D01*
X76405267Y47750903D01*
X76299711Y47935588D01*
X76284462Y47962269D01*
X76284461Y47962270D01*
X76275276Y47978341D01*
X76268424Y47987032D01*
X76208256Y48111395D01*
X76184925Y48251496D01*
X76202010Y48392494D01*
X76264122Y48532525D01*
X76298269Y48585613D01*
X76363258Y48686650D01*
X76383409Y48731382D01*
X76463250Y48908623D01*
X76463250Y48908624D01*
X76470852Y48925499D01*
X76499126Y49025750D01*
X76536933Y49159803D01*
X76536934Y49159809D01*
X76541960Y49177629D01*
X76544310Y49196096D01*
X76571968Y49413509D01*
X76575020Y49437499D01*
X76577442Y49530000D01*
X76576498Y49542710D01*
X76560317Y49760437D01*
X76558028Y49791245D01*
X76500213Y50046750D01*
X76405267Y50290903D01*
X76275276Y50518341D01*
X76268202Y50527314D01*
X76207951Y50651847D01*
X76184621Y50791948D01*
X76201707Y50932947D01*
X76263818Y51072975D01*
X76352804Y51211321D01*
X76370420Y51243765D01*
X76462777Y51448790D01*
X76475408Y51483494D01*
X76536442Y51699906D01*
X76543805Y51736096D01*
X76572940Y51965115D01*
X76574847Y51990035D01*
X76576613Y52057490D01*
X76576014Y52082479D01*
X76558905Y52312710D01*
X76553448Y52349224D01*
X76503819Y52568549D01*
X76493023Y52603860D01*
X76411524Y52813436D01*
X76395631Y52846757D01*
X76376330Y52880526D01*
X76357319Y52904919D01*
X76344967Y52897860D01*
X75162846Y51715739D01*
X75049145Y51630623D01*
X74916070Y51580989D01*
X74774402Y51570856D01*
X74635617Y51601047D01*
X74510960Y51669115D01*
X74457154Y51715739D01*
X73285458Y52887435D01*
X73260699Y52905970D01*
X73249135Y52894406D01*
X73245254Y52888011D01*
X73228480Y52855089D01*
X73141530Y52647739D01*
X73129809Y52612707D01*
X73074462Y52394778D01*
X73068047Y52358398D01*
X73045519Y52134678D01*
X73044553Y52097755D01*
X73055341Y51873163D01*
X73059843Y51836502D01*
X73103712Y51615957D01*
X73113576Y51580387D01*
X73189560Y51368752D01*
X73204587Y51335003D01*
X73311010Y51136939D01*
X73330855Y51105790D01*
X73335603Y51099431D01*
X73339706Y51091896D01*
X73340803Y51090174D01*
X73340685Y51090099D01*
X73403524Y50974694D01*
X73433551Y50835875D01*
X73423252Y50694218D01*
X73373461Y50561202D01*
X73362399Y50542023D01*
X73235198Y50332402D01*
X73228039Y50315331D01*
X73228038Y50315328D01*
X73146832Y50121674D01*
X73133893Y50090818D01*
X73102550Y49967404D01*
X73073968Y49854866D01*
X73073967Y49854859D01*
X73069409Y49836913D01*
X73067553Y49818482D01*
X73067553Y49818481D01*
X73047469Y49619017D01*
X73043164Y49576266D01*
X73055732Y49314603D01*
X73106839Y49057672D01*
X73113094Y49040249D01*
X73113095Y49040247D01*
X73189030Y48828751D01*
X73195361Y48811117D01*
X73196366Y48809246D01*
X73232754Y48680809D01*
X73231401Y48538785D01*
X73190091Y48402895D01*
X73112169Y48284148D01*
X73003949Y48192165D01*
X72874198Y48134396D01*
X72738179Y48115500D01*
X59162398Y48115500D01*
X59021813Y48135713D01*
X58892618Y48194714D01*
X58785279Y48287724D01*
X58708492Y48407208D01*
X58668477Y48543485D01*
X58668477Y48685515D01*
X58708492Y48821792D01*
X58785279Y48941276D01*
X58816076Y48973752D01*
X58837523Y48994427D01*
X58837524Y48994428D01*
X58848335Y49004850D01*
X58857815Y49016494D01*
X59048228Y49250379D01*
X59048230Y49250382D01*
X59057718Y49262036D01*
X59079429Y49296446D01*
X59226669Y49529806D01*
X59226674Y49529816D01*
X59234687Y49542515D01*
X59264794Y49606062D01*
X59341296Y49767540D01*
X59376678Y49842222D01*
X59381496Y49856661D01*
X59476878Y50142558D01*
X59476879Y50142561D01*
X59481635Y50156817D01*
X59548037Y50481743D01*
X59549685Y50501998D01*
X59574208Y50803503D01*
X59574923Y50812293D01*
X59575527Y50870000D01*
X59555570Y51201040D01*
X59495987Y51527285D01*
X59489106Y51549447D01*
X59470730Y51608624D01*
X59397641Y51844009D01*
X59348545Y51953509D01*
X59268107Y52132912D01*
X59268103Y52132919D01*
X59261958Y52146625D01*
X59254210Y52159495D01*
X59254206Y52159502D01*
X59098656Y52417869D01*
X59098654Y52417871D01*
X59090902Y52430748D01*
X58886951Y52692263D01*
X58653060Y52927382D01*
X58628855Y52946464D01*
X58404418Y53123396D01*
X58404416Y53123397D01*
X58392617Y53132699D01*
X58109393Y53305240D01*
X58095723Y53311455D01*
X58095720Y53311457D01*
X57821174Y53436286D01*
X57821168Y53436288D01*
X57807493Y53442506D01*
X57770773Y53454119D01*
X57505615Y53537978D01*
X57505614Y53537978D01*
X57491288Y53542509D01*
X57476531Y53545284D01*
X57476527Y53545285D01*
X57180117Y53601024D01*
X57180114Y53601024D01*
X57165359Y53603799D01*
X57090436Y53608710D01*
X56928602Y53619317D01*
X73972375Y53619317D01*
X73974213Y53615331D01*
X73984520Y53602587D01*
X74784762Y52802345D01*
X74810431Y52783129D01*
X74822749Y52789856D01*
X75627003Y53594110D01*
X75645538Y53618869D01*
X75640093Y53624314D01*
X75631588Y53629533D01*
X75488520Y53700087D01*
X75454270Y53713925D01*
X75240110Y53782478D01*
X75204215Y53791095D01*
X74982273Y53827241D01*
X74945485Y53830459D01*
X74720644Y53833403D01*
X74683787Y53831148D01*
X74460976Y53800825D01*
X74424861Y53793149D01*
X74208977Y53730224D01*
X74174394Y53717294D01*
X73998328Y53636127D01*
X73972375Y53619317D01*
X56928602Y53619317D01*
X56849416Y53624507D01*
X56849410Y53624507D01*
X56834428Y53625489D01*
X56503288Y53607265D01*
X56176735Y53549392D01*
X56162371Y53545014D01*
X56162366Y53545013D01*
X55873877Y53457088D01*
X55873874Y53457087D01*
X55859500Y53452706D01*
X55742161Y53400831D01*
X55599385Y53337710D01*
X55556179Y53318609D01*
X55543271Y53310930D01*
X55543266Y53310927D01*
X55349903Y53195888D01*
X55271164Y53149043D01*
X55008585Y52946464D01*
X54772244Y52713807D01*
X54762878Y52702053D01*
X54762875Y52702050D01*
X54653225Y52564447D01*
X54565566Y52454442D01*
X54557683Y52441654D01*
X54557682Y52441652D01*
X54529788Y52396399D01*
X54391545Y52172126D01*
X54385256Y52158484D01*
X54275175Y51919700D01*
X54252700Y51870949D01*
X54209244Y51736004D01*
X54159086Y51580247D01*
X54151043Y51555272D01*
X54148188Y51540513D01*
X54148187Y51540511D01*
X54090901Y51244422D01*
X54090900Y51244414D01*
X54088047Y51229668D01*
X54064624Y50898855D01*
X54065371Y50883849D01*
X54065371Y50883843D01*
X54069638Y50798143D01*
X54081114Y50567624D01*
X54083657Y50552824D01*
X54083658Y50552816D01*
X54133324Y50263777D01*
X54137277Y50240773D01*
X54141580Y50226386D01*
X54141581Y50226380D01*
X54172895Y50121674D01*
X54232300Y49923036D01*
X54261230Y49856661D01*
X54355723Y49639860D01*
X54364807Y49619017D01*
X54372423Y49606062D01*
X54478797Y49425115D01*
X54532879Y49333118D01*
X54734080Y49069482D01*
X54744562Y49058722D01*
X54744568Y49058715D01*
X54838104Y48962697D01*
X54921724Y48847891D01*
X54969612Y48714178D01*
X54977889Y48572389D01*
X54945884Y48434012D01*
X54876190Y48310256D01*
X54774453Y48211149D01*
X54648916Y48144719D01*
X54509748Y48116348D01*
X54480669Y48115500D01*
X48387501Y48115500D01*
X48246916Y48135713D01*
X48117721Y48194714D01*
X48010382Y48287724D01*
X47933595Y48407208D01*
X47893580Y48543485D01*
X47893580Y48685515D01*
X47932532Y48819449D01*
X47972774Y48908784D01*
X47985408Y48943494D01*
X48046442Y49159906D01*
X48053805Y49196096D01*
X48082940Y49425115D01*
X48084847Y49450035D01*
X48086613Y49517490D01*
X48086014Y49542479D01*
X48068905Y49772710D01*
X48063448Y49809224D01*
X48013819Y50028549D01*
X48003023Y50063860D01*
X47921526Y50273431D01*
X47905629Y50306761D01*
X47794041Y50501998D01*
X47779815Y50523089D01*
X47717959Y50650942D01*
X47694630Y50791043D01*
X47711717Y50932042D01*
X47773828Y51072067D01*
X47863239Y51211073D01*
X47863241Y51211077D01*
X47873258Y51226650D01*
X47901526Y51289401D01*
X47973250Y51448623D01*
X47973250Y51448624D01*
X47980852Y51465499D01*
X47998277Y51527285D01*
X48046933Y51699803D01*
X48046934Y51699809D01*
X48051960Y51717629D01*
X48054310Y51736096D01*
X48083438Y51965065D01*
X48085020Y51977499D01*
X48087442Y52070000D01*
X48086498Y52082710D01*
X48069400Y52312781D01*
X48068028Y52331245D01*
X48010213Y52586750D01*
X47915267Y52830903D01*
X47785276Y53058341D01*
X47773819Y53072875D01*
X47773815Y53072880D01*
X47634558Y53249526D01*
X47623095Y53264067D01*
X47432287Y53443560D01*
X47417071Y53454116D01*
X47417067Y53454119D01*
X47267567Y53557832D01*
X47163578Y53654573D01*
X47091057Y53776693D01*
X47055878Y53914297D01*
X47060892Y54056239D01*
X47105692Y54191018D01*
X47186650Y54307717D01*
X47199152Y54320678D01*
X50336325Y57457851D01*
X50351407Y57472315D01*
X50362224Y57482262D01*
X50379854Y57495790D01*
X50428416Y57549159D01*
X50444646Y57566172D01*
X50454281Y57575807D01*
X50461394Y57584314D01*
X50461404Y57584325D01*
X50465911Y57589716D01*
X50479640Y57605453D01*
X50515127Y57644453D01*
X50515128Y57644454D01*
X50530086Y57660893D01*
X50541899Y57679724D01*
X50541991Y57679845D01*
X50544466Y57682951D01*
X50546651Y57686258D01*
X50546741Y57686387D01*
X50560997Y57703438D01*
X50572007Y57722740D01*
X50572013Y57722749D01*
X50598139Y57768553D01*
X50608873Y57786489D01*
X50636899Y57831165D01*
X50636903Y57831173D01*
X50648707Y57849990D01*
X50656995Y57870608D01*
X50657066Y57870747D01*
X50658951Y57874241D01*
X50660534Y57877925D01*
X50660581Y57878028D01*
X50671595Y57897337D01*
X50696630Y57968034D01*
X50703990Y57987513D01*
X50731966Y58057105D01*
X50736473Y58078866D01*
X50736511Y58078993D01*
X50737755Y58082787D01*
X50738648Y58086641D01*
X50738691Y58086810D01*
X50746109Y58107757D01*
X50753288Y58151595D01*
X50758226Y58181755D01*
X50762028Y58202272D01*
X50777233Y58275690D01*
X50779203Y58309853D01*
X50779485Y58309837D01*
X50779476Y58311518D01*
X50782182Y58328046D01*
X50780562Y58431206D01*
X50780500Y58439041D01*
X50780500Y58744108D01*
X50800713Y58884693D01*
X50859714Y59013888D01*
X50952724Y59121227D01*
X51072208Y59198014D01*
X51208485Y59238029D01*
X51350515Y59238029D01*
X51441134Y59216205D01*
X51486281Y59200748D01*
X51535503Y59187697D01*
X51566219Y59184106D01*
X51570000Y59198367D01*
X51570000Y59213407D01*
X52570000Y59213407D01*
X52574401Y59182796D01*
X52584752Y59182796D01*
X52589460Y59183871D01*
X52735950Y59230199D01*
X52768669Y59243154D01*
X52973041Y59341292D01*
X53003607Y59358727D01*
X53192105Y59484677D01*
X53219916Y59506249D01*
X53388791Y59657506D01*
X53413280Y59682777D01*
X53559151Y59856312D01*
X53579840Y59884788D01*
X53684238Y60052184D01*
X57839500Y60052184D01*
X57850234Y59931913D01*
X57906259Y59736530D01*
X58000427Y59556404D01*
X58128891Y59398891D01*
X58286404Y59270427D01*
X58466530Y59176259D01*
X58661913Y59120234D01*
X58782184Y59109500D01*
X60597816Y59109500D01*
X60718087Y59120234D01*
X60913470Y59176259D01*
X61055063Y59250283D01*
X61189010Y59297501D01*
X61330838Y59305071D01*
X61480821Y59267568D01*
X61612814Y59211676D01*
X61612818Y59211675D01*
X61629060Y59204797D01*
X61646102Y59200278D01*
X61646109Y59200276D01*
X61736691Y59176259D01*
X61882365Y59137634D01*
X61899879Y59135561D01*
X61899885Y59135560D01*
X62120073Y59109500D01*
X62142607Y59106833D01*
X62404592Y59113007D01*
X62502996Y59129386D01*
X62645679Y59153134D01*
X62645684Y59153135D01*
X62663094Y59156033D01*
X62912955Y59235054D01*
X63149188Y59348491D01*
X63222678Y59397595D01*
X63350794Y59458891D01*
X63490995Y59481610D01*
X63631918Y59463910D01*
X63757280Y59410192D01*
X63912860Y59316525D01*
X63944214Y59300550D01*
X64152982Y59212148D01*
X64186271Y59200750D01*
X64235503Y59187697D01*
X64266219Y59184106D01*
X64270000Y59198367D01*
X64270000Y59213407D01*
X65270000Y59213407D01*
X65274401Y59182796D01*
X65284752Y59182796D01*
X65289460Y59183871D01*
X65435950Y59230199D01*
X65468669Y59243154D01*
X65673041Y59341292D01*
X65703607Y59358727D01*
X65892105Y59484677D01*
X65919916Y59506249D01*
X66088791Y59657506D01*
X66113280Y59682777D01*
X66241888Y59835775D01*
X71344106Y59835775D01*
X71356673Y59823208D01*
X71404615Y59793134D01*
X71434489Y59777116D01*
X71658274Y59676073D01*
X71690052Y59664255D01*
X71925462Y59594524D01*
X71958565Y59587125D01*
X72201261Y59549987D01*
X72235054Y59547149D01*
X72480552Y59543293D01*
X72514401Y59545067D01*
X72758161Y59574565D01*
X72791462Y59580917D01*
X73028967Y59643226D01*
X73077188Y59659454D01*
X73078212Y59656411D01*
X73186192Y59683954D01*
X73328131Y59678863D01*
X73470640Y59630022D01*
X73506530Y59611259D01*
X73701913Y59555234D01*
X73822184Y59544500D01*
X76037816Y59544500D01*
X76158087Y59555234D01*
X76353470Y59611259D01*
X76533596Y59705427D01*
X76691109Y59833891D01*
X76819573Y59991404D01*
X76913741Y60171530D01*
X76969766Y60366913D01*
X76980500Y60487184D01*
X76980500Y62702816D01*
X76969766Y62823087D01*
X76913741Y63018470D01*
X76819573Y63198596D01*
X76691109Y63356109D01*
X76533596Y63484573D01*
X76353470Y63578741D01*
X76158087Y63634766D01*
X76037816Y63645500D01*
X73822184Y63645500D01*
X73701913Y63634766D01*
X73506530Y63578741D01*
X73470653Y63559985D01*
X73336705Y63512765D01*
X73194877Y63505195D01*
X73086287Y63529198D01*
X73086035Y63528312D01*
X73071280Y63532515D01*
X73070421Y63532705D01*
X73069692Y63532967D01*
X72833551Y63600234D01*
X72800397Y63607282D01*
X72557305Y63641879D01*
X72523501Y63644361D01*
X72277964Y63645646D01*
X72244141Y63643518D01*
X72000704Y63611469D01*
X71967462Y63604766D01*
X71730633Y63539977D01*
X71698628Y63528832D01*
X71472778Y63432499D01*
X71442557Y63417100D01*
X71368364Y63372697D01*
X71344358Y63353200D01*
X71352482Y63339625D01*
X72733346Y61958761D01*
X72818462Y61845060D01*
X72868096Y61711985D01*
X72879500Y61605915D01*
X72879500Y61584085D01*
X72859287Y61443500D01*
X72800286Y61314305D01*
X72733346Y61231239D01*
X71362641Y59860534D01*
X71344106Y59835775D01*
X66241888Y59835775D01*
X66259151Y59856312D01*
X66279840Y59884788D01*
X66399808Y60077149D01*
X66416277Y60108255D01*
X66507939Y60315591D01*
X66519866Y60348720D01*
X66541564Y60425653D01*
X66545637Y60456306D01*
X66532540Y60460000D01*
X65305690Y60460000D01*
X65273954Y60455437D01*
X65270000Y60441970D01*
X65270000Y59213407D01*
X64270000Y59213407D01*
X64270000Y61495690D01*
X65270000Y61495690D01*
X65274563Y61463954D01*
X65288030Y61460000D01*
X66519149Y61460000D01*
X66549760Y61464401D01*
X66549760Y61477535D01*
X66544975Y61494005D01*
X66506035Y61599556D01*
X70336301Y61599556D01*
X70350435Y61354431D01*
X70354685Y61320787D01*
X70401954Y61079855D01*
X70410729Y61047106D01*
X70490261Y60814813D01*
X70503401Y60783555D01*
X70613720Y60564210D01*
X70616622Y60559303D01*
X70628446Y60546482D01*
X70647408Y60559515D01*
X71657655Y61569762D01*
X71676871Y61595431D01*
X71670144Y61607749D01*
X70653815Y62624078D01*
X70629056Y62642613D01*
X70621034Y62634591D01*
X70619492Y62632157D01*
X70520800Y62445762D01*
X70507021Y62414813D01*
X70422638Y62184227D01*
X70413178Y62151663D01*
X70360871Y61911765D01*
X70355920Y61878237D01*
X70336656Y61633456D01*
X70336301Y61599556D01*
X66506035Y61599556D01*
X66466509Y61706696D01*
X66452025Y61738773D01*
X66344379Y61938277D01*
X66325508Y61968013D01*
X66190828Y62150356D01*
X66167971Y62177118D01*
X66008927Y62338680D01*
X65982529Y62361953D01*
X65802314Y62499489D01*
X65772890Y62518816D01*
X65575101Y62629583D01*
X65543248Y62644572D01*
X65331815Y62726369D01*
X65302523Y62735381D01*
X65273953Y62737814D01*
X65270000Y62720758D01*
X65270000Y61495690D01*
X64270000Y61495690D01*
X64270000Y62709582D01*
X64265599Y62740193D01*
X64259219Y62740193D01*
X64247042Y62737210D01*
X64050042Y62668028D01*
X64017749Y62654054D01*
X63816555Y62549542D01*
X63771516Y62521941D01*
X63770438Y62523701D01*
X63664919Y62469082D01*
X63525500Y62441974D01*
X63384091Y62455242D01*
X63252319Y62507745D01*
X63248562Y62510612D01*
X63055712Y62618614D01*
X63035310Y62630040D01*
X63035304Y62630043D01*
X63019917Y62638660D01*
X62944005Y62668028D01*
X62791965Y62726848D01*
X62791963Y62726849D01*
X62775512Y62733213D01*
X62520221Y62792386D01*
X62259141Y62814998D01*
X62241533Y62814029D01*
X62241530Y62814029D01*
X62159436Y62809511D01*
X61997478Y62800598D01*
X61740456Y62749473D01*
X61723811Y62743628D01*
X61723805Y62743626D01*
X61509853Y62668491D01*
X61509850Y62668490D01*
X61493201Y62662643D01*
X61479624Y62655591D01*
X61343702Y62618614D01*
X61201700Y62621452D01*
X61066250Y62664182D01*
X61051386Y62671640D01*
X60935873Y62732029D01*
X60913470Y62743741D01*
X60718087Y62799766D01*
X60597816Y62810500D01*
X58782184Y62810500D01*
X58661913Y62799766D01*
X58466530Y62743741D01*
X58286404Y62649573D01*
X58128891Y62521109D01*
X58000427Y62363596D01*
X57906259Y62183470D01*
X57850234Y61988087D01*
X57839500Y61867816D01*
X57839500Y60052184D01*
X53684238Y60052184D01*
X53699808Y60077149D01*
X53716277Y60108255D01*
X53807939Y60315591D01*
X53819866Y60348720D01*
X53841564Y60425653D01*
X53845637Y60456306D01*
X53832540Y60460000D01*
X52605690Y60460000D01*
X52573954Y60455437D01*
X52570000Y60441970D01*
X52570000Y59213407D01*
X51570000Y59213407D01*
X51570000Y61495690D01*
X52570000Y61495690D01*
X52574563Y61463954D01*
X52588030Y61460000D01*
X53819149Y61460000D01*
X53849760Y61464401D01*
X53849760Y61477535D01*
X53844975Y61494005D01*
X53766509Y61706696D01*
X53752025Y61738773D01*
X53644379Y61938277D01*
X53625508Y61968013D01*
X53490828Y62150356D01*
X53467971Y62177118D01*
X53308927Y62338680D01*
X53282529Y62361953D01*
X53102314Y62499489D01*
X53072890Y62518816D01*
X52875101Y62629583D01*
X52843248Y62644572D01*
X52631815Y62726369D01*
X52602523Y62735381D01*
X52573953Y62737814D01*
X52570000Y62720758D01*
X52570000Y61495690D01*
X51570000Y61495690D01*
X51570000Y62709582D01*
X51565599Y62740193D01*
X51559219Y62740193D01*
X51547042Y62737210D01*
X51350042Y62668028D01*
X51317749Y62654054D01*
X51116555Y62549542D01*
X51071516Y62521941D01*
X51070438Y62523701D01*
X50964919Y62469082D01*
X50825500Y62441974D01*
X50684091Y62455242D01*
X50552319Y62507745D01*
X50548562Y62510612D01*
X50355712Y62618614D01*
X50335310Y62630040D01*
X50335304Y62630043D01*
X50319917Y62638660D01*
X50244005Y62668028D01*
X50091965Y62726848D01*
X50091963Y62726849D01*
X50075512Y62733213D01*
X49820221Y62792386D01*
X49559141Y62814998D01*
X49541533Y62814029D01*
X49541530Y62814029D01*
X49459436Y62809511D01*
X49297478Y62800598D01*
X49040456Y62749473D01*
X49023811Y62743628D01*
X49023805Y62743626D01*
X48809853Y62668491D01*
X48809850Y62668490D01*
X48793201Y62662643D01*
X48779624Y62655591D01*
X48643702Y62618614D01*
X48501700Y62621452D01*
X48366250Y62664182D01*
X48351386Y62671640D01*
X48235873Y62732029D01*
X48213470Y62743741D01*
X48018087Y62799766D01*
X47897816Y62810500D01*
X46082184Y62810500D01*
X45961913Y62799766D01*
X45766530Y62743741D01*
X45586404Y62649573D01*
X45428891Y62521109D01*
X45300427Y62363596D01*
X45206259Y62183470D01*
X45150234Y61988087D01*
X45139500Y61867816D01*
X45139500Y60052184D01*
X45150234Y59931913D01*
X45206259Y59736530D01*
X45300427Y59556404D01*
X45428891Y59398891D01*
X45586404Y59270427D01*
X45766530Y59176259D01*
X45961913Y59120234D01*
X46082184Y59109500D01*
X47246334Y59109500D01*
X47386919Y59089287D01*
X47516114Y59030286D01*
X47623453Y58937276D01*
X47700240Y58817792D01*
X47740255Y58681515D01*
X47740255Y58539485D01*
X47700240Y58403208D01*
X47623453Y58283724D01*
X47599180Y58257654D01*
X45348180Y56006654D01*
X45234479Y55921538D01*
X45101404Y55871904D01*
X44995334Y55860500D01*
X40315698Y55860500D01*
X40175113Y55880713D01*
X40045918Y55939714D01*
X39938579Y56032724D01*
X39861792Y56152208D01*
X39821777Y56288485D01*
X39821777Y56430515D01*
X39846197Y56528527D01*
X39849866Y56538719D01*
X39911400Y56756902D01*
X39918539Y56791371D01*
X39949371Y57020919D01*
X39951466Y57046269D01*
X39954326Y57137266D01*
X39953826Y57162710D01*
X39937469Y57393737D01*
X39932510Y57428581D01*
X39884795Y57650207D01*
X39874978Y57683999D01*
X39796509Y57896696D01*
X39782025Y57928773D01*
X39674376Y58128283D01*
X39657312Y58155171D01*
X39599048Y58284700D01*
X39579637Y58425398D01*
X39600652Y58565865D01*
X39655223Y58686613D01*
X39666146Y58704127D01*
X39739586Y58821884D01*
X39746721Y58838023D01*
X39838410Y59045420D01*
X39838411Y59045422D01*
X39845547Y59061564D01*
X39850726Y59079924D01*
X39911893Y59296807D01*
X39911893Y59296808D01*
X39916681Y59313784D01*
X39947746Y59545067D01*
X39949871Y59560888D01*
X39949871Y59560892D01*
X39951566Y59573509D01*
X39952752Y59611259D01*
X39954827Y59677266D01*
X39954827Y59677270D01*
X39955227Y59690000D01*
X39936719Y59951404D01*
X39881563Y60207592D01*
X39790860Y60453453D01*
X39666420Y60684080D01*
X39620209Y60746646D01*
X39521212Y60880677D01*
X39510726Y60894874D01*
X39326884Y61081626D01*
X39118562Y61240612D01*
X39048271Y61279977D01*
X38905310Y61360040D01*
X38905304Y61360043D01*
X38889917Y61368660D01*
X38645512Y61463213D01*
X38390221Y61522386D01*
X38129141Y61544998D01*
X38111533Y61544029D01*
X38111530Y61544029D01*
X37998309Y61537798D01*
X37867478Y61530598D01*
X37610456Y61479473D01*
X37593811Y61473628D01*
X37593805Y61473626D01*
X37379859Y61398493D01*
X37363201Y61392643D01*
X37130647Y61271841D01*
X36917434Y61119477D01*
X36727816Y60938591D01*
X36716897Y60924741D01*
X36716894Y60924737D01*
X36652860Y60843509D01*
X36565578Y60732792D01*
X36556718Y60717538D01*
X36467658Y60564210D01*
X36433955Y60506187D01*
X36335574Y60263297D01*
X36331321Y60246174D01*
X36331320Y60246172D01*
X36317453Y60190346D01*
X36272399Y60008968D01*
X36245688Y59748274D01*
X36246381Y59730638D01*
X36253673Y59545067D01*
X36255977Y59486418D01*
X36269898Y59410192D01*
X36299103Y59250281D01*
X36303058Y59228624D01*
X36385994Y58980035D01*
X36393876Y58964260D01*
X36393878Y58964256D01*
X36495240Y58761399D01*
X36503128Y58745613D01*
X36513163Y58731094D01*
X36513164Y58731092D01*
X36531800Y58704127D01*
X36595103Y58576984D01*
X36620020Y58437156D01*
X36604535Y58295973D01*
X36552793Y58169787D01*
X36443267Y57981223D01*
X36427783Y57949618D01*
X36342672Y57739489D01*
X36331799Y57706025D01*
X36277144Y57485996D01*
X36271094Y57451332D01*
X36247988Y57225817D01*
X36246882Y57190621D01*
X36255782Y56964104D01*
X36259644Y56929121D01*
X36300375Y56706098D01*
X36309128Y56672012D01*
X36380873Y56456965D01*
X36394344Y56424443D01*
X36495668Y56221661D01*
X36513596Y56191346D01*
X36531764Y56165058D01*
X36595066Y56037915D01*
X36619983Y55898088D01*
X36604497Y55756904D01*
X36552756Y55630719D01*
X36442822Y55441453D01*
X36433955Y55426187D01*
X36335574Y55183297D01*
X36272399Y54928968D01*
X36245688Y54668274D01*
X36246381Y54650638D01*
X36252268Y54500823D01*
X36255977Y54406418D01*
X36274003Y54307717D01*
X36295316Y54191018D01*
X36303058Y54148624D01*
X36385994Y53900035D01*
X36393876Y53884260D01*
X36393878Y53884256D01*
X36485902Y53700087D01*
X36503128Y53665613D01*
X36513158Y53651101D01*
X36513162Y53651094D01*
X36531484Y53624585D01*
X36594787Y53497442D01*
X36619706Y53357615D01*
X36604222Y53216432D01*
X36552479Y53090241D01*
X36542395Y53072880D01*
X36433955Y52886187D01*
X36335574Y52643297D01*
X36272399Y52388968D01*
X36245688Y52128274D01*
X36246381Y52110638D01*
X36255263Y51884602D01*
X36255977Y51866418D01*
X36265662Y51813390D01*
X36292011Y51669115D01*
X36303058Y51608624D01*
X36385994Y51360035D01*
X36393876Y51344260D01*
X36393878Y51344256D01*
X36488788Y51154311D01*
X36503128Y51125613D01*
X36513158Y51111101D01*
X36513162Y51111094D01*
X36531484Y51084585D01*
X36594787Y50957442D01*
X36619706Y50817615D01*
X36604222Y50676432D01*
X36552479Y50550241D01*
X36524457Y50501998D01*
X36433955Y50346187D01*
X36335574Y50103297D01*
X36331321Y50086174D01*
X36331320Y50086172D01*
X36312903Y50012029D01*
X36272399Y49848968D01*
X36245688Y49588274D01*
X36247478Y49542710D01*
X36255205Y49346076D01*
X36255977Y49326418D01*
X36269864Y49250379D01*
X36292662Y49125550D01*
X36303058Y49068624D01*
X36385994Y48820035D01*
X36393876Y48804260D01*
X36393878Y48804256D01*
X36491378Y48609128D01*
X36503128Y48585613D01*
X36513158Y48571101D01*
X36513162Y48571094D01*
X36531484Y48544585D01*
X36594787Y48417442D01*
X36619706Y48277615D01*
X36604222Y48136432D01*
X36552479Y48010241D01*
X36509117Y47935588D01*
X36433955Y47806187D01*
X36335574Y47563297D01*
X36272399Y47308968D01*
X36245688Y47048274D01*
X36246381Y47030638D01*
X36255244Y46805083D01*
X36255977Y46786418D01*
X36270693Y46705840D01*
X36297781Y46557521D01*
X36303058Y46528624D01*
X36385994Y46280035D01*
X36393876Y46264260D01*
X36393878Y46264256D01*
X36472495Y46106919D01*
X36503128Y46045613D01*
X36513158Y46031101D01*
X36513162Y46031094D01*
X36531484Y46004585D01*
X36594787Y45877442D01*
X36619706Y45737615D01*
X36604222Y45596432D01*
X36552479Y45470241D01*
X36534584Y45439432D01*
X36433955Y45266187D01*
X36335574Y45023297D01*
X36331321Y45006174D01*
X36331320Y45006172D01*
X36289356Y44837235D01*
X36272399Y44768968D01*
X36245688Y44508274D01*
X36255977Y44246418D01*
X36303058Y43988624D01*
X36385994Y43740035D01*
X36393876Y43724260D01*
X36393878Y43724256D01*
X36495240Y43521399D01*
X36503128Y43505613D01*
X36513158Y43491101D01*
X36513162Y43491094D01*
X36531484Y43464585D01*
X36594787Y43337442D01*
X36619706Y43197615D01*
X36604222Y43056432D01*
X36552479Y42930241D01*
X36529436Y42890569D01*
X36433955Y42726187D01*
X36335574Y42483297D01*
X36331321Y42466174D01*
X36331320Y42466172D01*
X36276654Y42246098D01*
X36272399Y42228968D01*
X36245688Y41968274D01*
X36246381Y41950638D01*
X36248964Y41884912D01*
X36255977Y41706418D01*
X36267816Y41641595D01*
X36290245Y41518784D01*
X36303058Y41448624D01*
X36385994Y41200035D01*
X36393876Y41184260D01*
X36393878Y41184256D01*
X36479994Y41011912D01*
X36503128Y40965613D01*
X36513158Y40951101D01*
X36513162Y40951094D01*
X36531484Y40924585D01*
X36594787Y40797442D01*
X36619706Y40657615D01*
X36604222Y40516432D01*
X36552479Y40390241D01*
X36519395Y40333283D01*
X36433955Y40186187D01*
X36335574Y39943297D01*
X36331321Y39926174D01*
X36331320Y39926172D01*
X36309655Y39838953D01*
X36272399Y39688968D01*
X36245688Y39428274D01*
X36255977Y39166418D01*
X36303058Y38908624D01*
X36326964Y38836970D01*
X36371043Y38704850D01*
X36385994Y38660035D01*
X36393876Y38644260D01*
X36393878Y38644256D01*
X36495240Y38441399D01*
X36503128Y38425613D01*
X36513158Y38411101D01*
X36513162Y38411094D01*
X36531484Y38384585D01*
X36594787Y38257442D01*
X36619706Y38117615D01*
X36604222Y37976432D01*
X36552479Y37850241D01*
X36520624Y37795399D01*
X36433955Y37646187D01*
X36335574Y37403297D01*
X36331321Y37386174D01*
X36331320Y37386172D01*
X36302008Y37268168D01*
X36272399Y37148968D01*
X36245688Y36888274D01*
X36255977Y36626418D01*
X36274930Y36522639D01*
X36294660Y36414610D01*
X36303058Y36368624D01*
X36385994Y36120035D01*
X36393876Y36104260D01*
X36393878Y36104256D01*
X36468066Y35955783D01*
X36503128Y35885613D01*
X36513158Y35871101D01*
X36513162Y35871094D01*
X36531484Y35844585D01*
X36594787Y35717442D01*
X36619706Y35577615D01*
X36604222Y35436432D01*
X36552479Y35310241D01*
X36521958Y35257695D01*
X36433955Y35106187D01*
X36335574Y34863297D01*
X36272399Y34608968D01*
X36245688Y34348274D01*
X36255977Y34086418D01*
X36281689Y33945630D01*
X36284943Y33927816D01*
X36303058Y33828624D01*
X36385994Y33580035D01*
X36393876Y33564260D01*
X36393878Y33564256D01*
X36486388Y33379115D01*
X36503128Y33345613D01*
X36513158Y33331101D01*
X36513162Y33331094D01*
X36531484Y33304585D01*
X36594787Y33177442D01*
X36619706Y33037615D01*
X36604222Y32896432D01*
X36552479Y32770241D01*
X36503676Y32686221D01*
X36433955Y32566187D01*
X36335574Y32323297D01*
X36272399Y32068968D01*
X36245688Y31808274D01*
X36255977Y31546418D01*
X36303058Y31288624D01*
X36385994Y31040035D01*
X36393876Y31024260D01*
X36393878Y31024256D01*
X36472495Y30866919D01*
X36503128Y30805613D01*
X36513158Y30791101D01*
X36513162Y30791094D01*
X36531484Y30764585D01*
X36594787Y30637442D01*
X36619706Y30497615D01*
X36604222Y30356432D01*
X36552479Y30230241D01*
X36493855Y30129312D01*
X36433955Y30026187D01*
X36335574Y29783297D01*
X36331321Y29766174D01*
X36331320Y29766172D01*
X36322186Y29729401D01*
X36272399Y29528968D01*
X36245688Y29268274D01*
X36247132Y29231523D01*
X36251216Y29127598D01*
X36255977Y29006418D01*
X36270957Y28924396D01*
X36288748Y28826981D01*
X36303058Y28748624D01*
X36308641Y28731890D01*
X36355157Y28592466D01*
X36385994Y28500035D01*
X36393876Y28484260D01*
X36393878Y28484256D01*
X36495240Y28281399D01*
X36503128Y28265613D01*
X36513158Y28251101D01*
X36513162Y28251094D01*
X36531484Y28224585D01*
X36594787Y28097442D01*
X36619706Y27957615D01*
X36604222Y27816432D01*
X36552479Y27690241D01*
X36504976Y27608458D01*
X36433955Y27486187D01*
X36335574Y27243297D01*
X36331321Y27226174D01*
X36331320Y27226172D01*
X36306807Y27127488D01*
X36272399Y26988968D01*
X36245688Y26728274D01*
X36246381Y26710638D01*
X36254813Y26496054D01*
X36255977Y26466418D01*
X36303058Y26208624D01*
X36308641Y26191890D01*
X36355157Y26052466D01*
X36385994Y25960035D01*
X36393876Y25944260D01*
X36393878Y25944256D01*
X36472932Y25786044D01*
X36503128Y25725613D01*
X36513158Y25711101D01*
X36513162Y25711094D01*
X36531484Y25684585D01*
X36594787Y25557442D01*
X36619706Y25417615D01*
X36604222Y25276432D01*
X36552479Y25150241D01*
X36504976Y25068458D01*
X36433955Y24946187D01*
X36335574Y24703297D01*
X36331321Y24686174D01*
X36331320Y24686172D01*
X36301221Y24565001D01*
X36272399Y24448968D01*
X36245688Y24188274D01*
X36246381Y24170638D01*
X36254519Y23963534D01*
X36255977Y23926418D01*
X36279755Y23796221D01*
X36288499Y23748345D01*
X36303058Y23668624D01*
X36385994Y23420035D01*
X36503128Y23185613D01*
X36513158Y23171101D01*
X36513162Y23171094D01*
X36531484Y23144585D01*
X36594787Y23017442D01*
X36619706Y22877615D01*
X36604222Y22736432D01*
X36552479Y22610241D01*
X36512318Y22541098D01*
X36433955Y22406187D01*
X36335574Y22163297D01*
X36272399Y21908968D01*
X36245688Y21648274D01*
X36246381Y21630638D01*
X36255185Y21406584D01*
X36255977Y21386418D01*
X36303058Y21128624D01*
X36385994Y20880035D01*
X36393876Y20864260D01*
X36393878Y20864256D01*
X36474973Y20701960D01*
X36503128Y20645613D01*
X36513158Y20631101D01*
X36513162Y20631094D01*
X36531484Y20604585D01*
X36594787Y20477442D01*
X36619706Y20337615D01*
X36604222Y20196432D01*
X36552479Y20070241D01*
X36527285Y20026866D01*
X36433955Y19866187D01*
X36335574Y19623297D01*
X36272399Y19368968D01*
X36245688Y19108274D01*
X36246381Y19090638D01*
X36252607Y18932195D01*
X36255977Y18846418D01*
X36277102Y18730746D01*
X36297545Y18618813D01*
X36303058Y18588624D01*
X36312775Y18559500D01*
X36373337Y18377974D01*
X36385994Y18340035D01*
X36393876Y18324260D01*
X36393878Y18324256D01*
X36495240Y18121399D01*
X36503128Y18105613D01*
X36513158Y18091101D01*
X36513162Y18091094D01*
X36531484Y18064585D01*
X36594787Y17937442D01*
X36619706Y17797615D01*
X36604222Y17656432D01*
X36552479Y17530241D01*
X36498368Y17437082D01*
X36433955Y17326187D01*
X36335574Y17083297D01*
X36331321Y17066174D01*
X36331320Y17066172D01*
X36292754Y16910912D01*
X36272399Y16828968D01*
X36245688Y16568274D01*
X36246888Y16537724D01*
X36253802Y16361781D01*
X36255977Y16306418D01*
X36303058Y16048624D01*
X36385994Y15800035D01*
X36393876Y15784260D01*
X36393878Y15784256D01*
X36495240Y15581399D01*
X36503128Y15565613D01*
X36513158Y15551101D01*
X36513162Y15551094D01*
X36531484Y15524585D01*
X36594787Y15397442D01*
X36619706Y15257615D01*
X36604222Y15116432D01*
X36552479Y14990241D01*
X36498242Y14896865D01*
X36433955Y14786187D01*
X36335574Y14543297D01*
X36331321Y14526174D01*
X36331320Y14526172D01*
X36309655Y14438953D01*
X36272399Y14288968D01*
X36245688Y14028274D01*
X36255977Y13766418D01*
X36268731Y13696584D01*
X36299867Y13526098D01*
X36303058Y13508624D01*
X36385994Y13260035D01*
X36393878Y13244257D01*
X36400632Y13227951D01*
X36399158Y13227340D01*
X36437628Y13111468D01*
X36442592Y12969524D01*
X36407365Y12831932D01*
X36388706Y12792048D01*
X36340709Y12700239D01*
X36316259Y12653470D01*
X36260234Y12458087D01*
X36249500Y12337816D01*
X36249500Y10522184D01*
X36260234Y10401913D01*
X36316259Y10206530D01*
X36410427Y10026404D01*
X36538891Y9868891D01*
X36696404Y9740427D01*
X36876530Y9646259D01*
X37071913Y9590234D01*
X37192184Y9579500D01*
X39007816Y9579500D01*
X39128087Y9590234D01*
X39323470Y9646259D01*
X39503596Y9740427D01*
X39661109Y9868891D01*
X39789573Y10026404D01*
X39802462Y10051058D01*
X39806061Y10056052D01*
X39815197Y10069907D01*
X39815774Y10069527D01*
X39885508Y10166279D01*
X39997651Y10253436D01*
X40139637Y10307688D01*
X40148931Y10309689D01*
X40177181Y10314062D01*
X40195149Y10317522D01*
X40218795Y10319778D01*
X40247145Y10328095D01*
X40264682Y10333239D01*
X40300115Y10342238D01*
X40323648Y10347305D01*
X40323650Y10347306D01*
X40346866Y10352304D01*
X40368715Y10361600D01*
X40385614Y10366961D01*
X40402082Y10373548D01*
X40424876Y10380235D01*
X40467398Y10402135D01*
X40500490Y10417671D01*
X40522630Y10427092D01*
X40522631Y10427093D01*
X40544486Y10436392D01*
X40564186Y10449655D01*
X40579770Y10458116D01*
X40594694Y10467697D01*
X40615807Y10478571D01*
X40653417Y10508114D01*
X40682980Y10529632D01*
X40707745Y10546305D01*
X40722639Y10556332D01*
X40726825Y10560127D01*
X40732049Y10565351D01*
X40732696Y10565925D01*
X40735562Y10568654D01*
X40735658Y10568553D01*
X40749479Y10580812D01*
X40766027Y10596570D01*
X40784698Y10611237D01*
X40817513Y10649053D01*
X40841553Y10674855D01*
X42485686Y12318988D01*
X44135043Y13968346D01*
X44248744Y14053462D01*
X44381819Y14103096D01*
X44487889Y14114500D01*
X61557110Y14114500D01*
X61697695Y14094287D01*
X61826890Y14035286D01*
X61909956Y13968346D01*
X63269370Y12608933D01*
X63272519Y12605544D01*
X63279126Y12596230D01*
X63343952Y12534172D01*
X63344225Y12533911D01*
X63352005Y12526298D01*
X63377098Y12501205D01*
X63385346Y12494394D01*
X63391576Y12488582D01*
X63434265Y12447716D01*
X63454225Y12434828D01*
X63468142Y12423837D01*
X63482821Y12413898D01*
X63501131Y12398778D01*
X63521966Y12387394D01*
X63521970Y12387392D01*
X63543099Y12375848D01*
X63574511Y12357160D01*
X63614689Y12331218D01*
X63636719Y12322340D01*
X63652465Y12314178D01*
X63668757Y12307195D01*
X63689601Y12295807D01*
X63735151Y12281226D01*
X63769536Y12268813D01*
X63788367Y12261224D01*
X63813887Y12250939D01*
X63837192Y12246388D01*
X63854199Y12241350D01*
X63871524Y12237573D01*
X63894144Y12230332D01*
X63917724Y12227499D01*
X63917726Y12227499D01*
X63941619Y12224629D01*
X63977745Y12218940D01*
X64007038Y12213219D01*
X64007045Y12213218D01*
X64024671Y12209776D01*
X64030314Y12209500D01*
X64037697Y12209500D01*
X64038581Y12209447D01*
X64042511Y12209351D01*
X64042508Y12209212D01*
X64060958Y12208108D01*
X64083797Y12207550D01*
X64107377Y12204717D01*
X64131062Y12206394D01*
X64131066Y12206394D01*
X64157329Y12208254D01*
X64192574Y12209500D01*
X66481527Y12209500D01*
X66622112Y12189287D01*
X66751307Y12130286D01*
X66858646Y12037276D01*
X66935433Y11917792D01*
X66975448Y11781515D01*
X66975448Y11639485D01*
X66941705Y11517531D01*
X66897440Y11411970D01*
X66873893Y11355818D01*
X66862701Y11311750D01*
X66813968Y11119866D01*
X66813967Y11119859D01*
X66809409Y11101913D01*
X66807553Y11083482D01*
X66807553Y11083481D01*
X66786571Y10875100D01*
X66783164Y10841266D01*
X66795732Y10579603D01*
X66846839Y10322672D01*
X66853094Y10305249D01*
X66853095Y10305247D01*
X66902990Y10166279D01*
X66935361Y10076117D01*
X66944126Y10059805D01*
X66944128Y10059800D01*
X67046708Y9868891D01*
X67059355Y9845354D01*
X67070433Y9830518D01*
X67070438Y9830511D01*
X67125775Y9756407D01*
X67216095Y9635454D01*
X67244404Y9607391D01*
X67276805Y9575271D01*
X67362415Y9461942D01*
X67412629Y9329085D01*
X67424500Y9220890D01*
X67424500Y9018679D01*
X67424331Y9014066D01*
X67422416Y9002805D01*
X67422934Y8979060D01*
X67422934Y8979058D01*
X67424381Y8912749D01*
X67424500Y8901864D01*
X67424500Y8866336D01*
X67425517Y8855683D01*
X67425812Y8847163D01*
X67427101Y8788090D01*
X67432101Y8764868D01*
X67434169Y8747262D01*
X67437522Y8729849D01*
X67439778Y8706205D01*
X67446466Y8683408D01*
X67453239Y8660318D01*
X67462238Y8624885D01*
X67467305Y8601352D01*
X67472304Y8578134D01*
X67481600Y8556285D01*
X67486961Y8539386D01*
X67493548Y8522918D01*
X67500235Y8500124D01*
X67511111Y8479007D01*
X67522135Y8457602D01*
X67537671Y8424510D01*
X67556392Y8380514D01*
X67569655Y8360814D01*
X67578116Y8345230D01*
X67587697Y8330306D01*
X67598571Y8309193D01*
X67613238Y8290521D01*
X67613240Y8290518D01*
X67628114Y8271583D01*
X67649630Y8242023D01*
X67676332Y8202361D01*
X67680127Y8198175D01*
X67685351Y8192951D01*
X67685925Y8192304D01*
X67688654Y8189438D01*
X67688553Y8189342D01*
X67700799Y8175536D01*
X67716565Y8158980D01*
X67731237Y8140302D01*
X67769066Y8107476D01*
X67794855Y8083447D01*
X69619375Y6258927D01*
X69622520Y6255543D01*
X69629126Y6246230D01*
X69681994Y6195620D01*
X69694202Y6183933D01*
X69701969Y6176333D01*
X69727097Y6151205D01*
X69735354Y6144386D01*
X69741613Y6138546D01*
X69784265Y6097716D01*
X69804222Y6084830D01*
X69818130Y6073846D01*
X69832814Y6063904D01*
X69851130Y6048779D01*
X69871977Y6037389D01*
X69893082Y6025858D01*
X69924503Y6007165D01*
X69944739Y5994099D01*
X69944742Y5994097D01*
X69964689Y5981218D01*
X69986712Y5972342D01*
X70002449Y5964185D01*
X70018754Y5957197D01*
X70039601Y5945807D01*
X70062223Y5938566D01*
X70085140Y5931230D01*
X70119539Y5918811D01*
X70141848Y5909820D01*
X70141858Y5909817D01*
X70163887Y5900939D01*
X70187199Y5896386D01*
X70204205Y5891349D01*
X70221529Y5887572D01*
X70244144Y5880333D01*
X70267717Y5877501D01*
X70267719Y5877501D01*
X70291613Y5874631D01*
X70327746Y5868940D01*
X70374671Y5859776D01*
X70380314Y5859500D01*
X70387706Y5859500D01*
X70388596Y5859447D01*
X70392511Y5859351D01*
X70392508Y5859213D01*
X70410942Y5858109D01*
X70433799Y5857550D01*
X70457377Y5854718D01*
X70481064Y5856395D01*
X70481068Y5856395D01*
X70507319Y5858254D01*
X70542561Y5859500D01*
X81181321Y5859500D01*
X81185934Y5859331D01*
X81197195Y5857416D01*
X81220940Y5857934D01*
X81220942Y5857934D01*
X81287251Y5859381D01*
X81298136Y5859500D01*
X81333664Y5859500D01*
X81344317Y5860517D01*
X81352837Y5860812D01*
X81411910Y5862101D01*
X81435132Y5867101D01*
X81452738Y5869169D01*
X81470151Y5872522D01*
X81493795Y5874778D01*
X81522145Y5883095D01*
X81539682Y5888239D01*
X81575115Y5897238D01*
X81598648Y5902305D01*
X81598650Y5902306D01*
X81621866Y5907304D01*
X81643715Y5916600D01*
X81660614Y5921961D01*
X81677082Y5928548D01*
X81699876Y5935235D01*
X81742398Y5957135D01*
X81775490Y5972671D01*
X81797630Y5982092D01*
X81797631Y5982093D01*
X81819486Y5991392D01*
X81839186Y6004655D01*
X81854770Y6013116D01*
X81869694Y6022697D01*
X81890807Y6033571D01*
X81928417Y6063114D01*
X81957980Y6084632D01*
X81997639Y6111332D01*
X82001825Y6115127D01*
X82007012Y6120314D01*
X82012790Y6124840D01*
X82135928Y6195620D01*
X82274018Y6228840D01*
X82415874Y6221811D01*
X82550004Y6175100D01*
X82665540Y6092493D01*
X82753123Y5980682D01*
X82805658Y5848725D01*
X82819500Y5732010D01*
X82819500Y1499500D01*
X82799287Y1358915D01*
X82740286Y1229720D01*
X82647276Y1122381D01*
X82527792Y1045594D01*
X82391515Y1005579D01*
X82320500Y1000500D01*
X61459000Y1000500D01*
X61318415Y1020713D01*
X61189220Y1079714D01*
X61081881Y1172724D01*
X61005094Y1292208D01*
X60965079Y1428485D01*
X60960000Y1499500D01*
X60960000Y11430000D01*
X44450000Y11430000D01*
X44450000Y1499500D01*
X44429787Y1358915D01*
X44370786Y1229720D01*
X44277776Y1122381D01*
X44158292Y1045594D01*
X44022015Y1005579D01*
X43951000Y1000500D01*
X26021890Y1000500D01*
X25881305Y1020713D01*
X25752110Y1079714D01*
X25644771Y1172724D01*
X25567984Y1292208D01*
X25527969Y1428485D01*
X25527969Y1570515D01*
X25567984Y1706792D01*
X25644771Y1826276D01*
X25669044Y1852346D01*
X29936073Y6119375D01*
X29939457Y6122520D01*
X29948770Y6129126D01*
X30011068Y6194203D01*
X30018680Y6201982D01*
X30043795Y6227097D01*
X30050614Y6235354D01*
X30056454Y6241613D01*
X30080855Y6267103D01*
X30097284Y6284265D01*
X30110170Y6304222D01*
X30121154Y6318130D01*
X30131096Y6332814D01*
X30146221Y6351130D01*
X30169142Y6393082D01*
X30187835Y6424503D01*
X30200901Y6444739D01*
X30200903Y6444742D01*
X30213782Y6464689D01*
X30222658Y6486712D01*
X30230815Y6502449D01*
X30237803Y6518754D01*
X30249193Y6539601D01*
X30263770Y6585140D01*
X30276189Y6619539D01*
X30285180Y6641848D01*
X30285183Y6641858D01*
X30294061Y6663887D01*
X30298614Y6687199D01*
X30303651Y6704205D01*
X30307428Y6721529D01*
X30314667Y6744144D01*
X30320369Y6791613D01*
X30326060Y6827747D01*
X30331778Y6857028D01*
X30335224Y6874671D01*
X30335500Y6880314D01*
X30335500Y6887706D01*
X30335553Y6888596D01*
X30335649Y6892511D01*
X30335787Y6892508D01*
X30336891Y6910942D01*
X30337450Y6933799D01*
X30340282Y6957377D01*
X30338256Y6986000D01*
X30336746Y7007319D01*
X30335500Y7042561D01*
X30335500Y37366321D01*
X30335669Y37370934D01*
X30337584Y37382195D01*
X30335619Y37472251D01*
X30335500Y37483136D01*
X30335500Y37518664D01*
X30334483Y37529317D01*
X30334187Y37537856D01*
X30333417Y37573168D01*
X30333417Y37573169D01*
X30332899Y37596910D01*
X30327902Y37620121D01*
X30325833Y37637732D01*
X30322477Y37655158D01*
X30320222Y37678795D01*
X30310620Y37711525D01*
X30306762Y37724677D01*
X30297760Y37760121D01*
X30295972Y37768427D01*
X30287697Y37806866D01*
X30278397Y37828723D01*
X30273037Y37845620D01*
X30266451Y37862086D01*
X30259765Y37884876D01*
X30237863Y37927403D01*
X30222343Y37960458D01*
X30203608Y38004486D01*
X30190346Y38024184D01*
X30181881Y38039776D01*
X30172301Y38054699D01*
X30161429Y38075807D01*
X30141000Y38101815D01*
X30131886Y38113417D01*
X30110368Y38142980D01*
X30101368Y38156348D01*
X30083668Y38182639D01*
X30079873Y38186824D01*
X30074657Y38192040D01*
X30074071Y38192701D01*
X30071366Y38195541D01*
X30071466Y38195637D01*
X30059184Y38209482D01*
X30043434Y38226021D01*
X30028763Y38244698D01*
X29990940Y38277519D01*
X29965138Y38301559D01*
X28170625Y40096073D01*
X28167480Y40099457D01*
X28160874Y40108770D01*
X28095797Y40171068D01*
X28088018Y40178680D01*
X28062903Y40203795D01*
X28054646Y40210614D01*
X28048387Y40216454D01*
X28028047Y40235925D01*
X28005735Y40257284D01*
X27985778Y40270170D01*
X27971870Y40281154D01*
X27957186Y40291096D01*
X27938870Y40306221D01*
X27896918Y40329142D01*
X27865497Y40347835D01*
X27845261Y40360901D01*
X27845258Y40360903D01*
X27825311Y40373782D01*
X27803289Y40382657D01*
X27787555Y40390813D01*
X27771247Y40397803D01*
X27750399Y40409193D01*
X27704849Y40423774D01*
X27670464Y40436187D01*
X27648135Y40445186D01*
X27648134Y40445186D01*
X27626113Y40454061D01*
X27602808Y40458612D01*
X27585801Y40463650D01*
X27568476Y40467427D01*
X27545856Y40474668D01*
X27522276Y40477501D01*
X27522274Y40477501D01*
X27498381Y40480371D01*
X27462255Y40486060D01*
X27432962Y40491781D01*
X27432955Y40491782D01*
X27415329Y40495224D01*
X27409686Y40495500D01*
X27402303Y40495500D01*
X27401419Y40495553D01*
X27397489Y40495649D01*
X27397492Y40495788D01*
X27379042Y40496892D01*
X27356203Y40497450D01*
X27332623Y40500283D01*
X27308938Y40498606D01*
X27308934Y40498606D01*
X27282671Y40496746D01*
X27247426Y40495500D01*
X25024227Y40495500D01*
X24883642Y40515713D01*
X24754447Y40574714D01*
X24647108Y40667724D01*
X24570321Y40787208D01*
X24530306Y40923485D01*
X24530306Y41065515D01*
X24567837Y41196266D01*
X24605547Y41281564D01*
X24612298Y41305499D01*
X24671893Y41516807D01*
X24671893Y41516808D01*
X24676681Y41533784D01*
X24697854Y41691418D01*
X24709871Y41780888D01*
X24709871Y41780892D01*
X24711566Y41793509D01*
X24714318Y41881067D01*
X24714827Y41897266D01*
X24714827Y41897270D01*
X24715227Y41910000D01*
X24704441Y42062336D01*
X24697966Y42153797D01*
X24697965Y42153802D01*
X24696719Y42171404D01*
X24641563Y42427592D01*
X24550860Y42673453D01*
X24426420Y42904080D01*
X24417179Y42916592D01*
X24359342Y43045174D01*
X24339931Y43185871D01*
X24360946Y43326338D01*
X24415514Y43447079D01*
X24499586Y43581884D01*
X24546244Y43687423D01*
X24598410Y43805420D01*
X24598411Y43805422D01*
X24605547Y43821564D01*
X24612298Y43845499D01*
X24671893Y44056807D01*
X24671893Y44056808D01*
X24676681Y44073784D01*
X24711566Y44333509D01*
X24715227Y44450000D01*
X24696719Y44711404D01*
X24641563Y44967592D01*
X24550860Y45213453D01*
X24426420Y45444080D01*
X24417179Y45456592D01*
X24359342Y45585174D01*
X24339931Y45725871D01*
X24360946Y45866338D01*
X24415514Y45987079D01*
X24499586Y46121884D01*
X24530171Y46191067D01*
X24598410Y46345420D01*
X24598411Y46345422D01*
X24605547Y46361564D01*
X24611884Y46384030D01*
X24671893Y46596807D01*
X24671893Y46596808D01*
X24676681Y46613784D01*
X24711566Y46873509D01*
X24715227Y46990000D01*
X24696719Y47251404D01*
X24641563Y47507592D01*
X24550860Y47753453D01*
X24426420Y47984080D01*
X24417179Y47996592D01*
X24359342Y48125174D01*
X24339931Y48265871D01*
X24360946Y48406338D01*
X24415514Y48527079D01*
X24499586Y48661884D01*
X24568369Y48817469D01*
X24598410Y48885420D01*
X24598413Y48885427D01*
X24605547Y48901564D01*
X24612298Y48925499D01*
X24671893Y49136807D01*
X24671893Y49136808D01*
X24676681Y49153784D01*
X24697620Y49309677D01*
X24709871Y49400888D01*
X24709871Y49400892D01*
X24711566Y49413509D01*
X24712714Y49450035D01*
X24714827Y49517266D01*
X24714827Y49517270D01*
X24715227Y49530000D01*
X24696719Y49791404D01*
X24641563Y50047592D01*
X24550860Y50293453D01*
X24426420Y50524080D01*
X24417179Y50536592D01*
X24359342Y50665174D01*
X24339931Y50805871D01*
X24360946Y50946338D01*
X24415514Y51067079D01*
X24499586Y51201884D01*
X24550773Y51317667D01*
X24598410Y51425420D01*
X24598411Y51425422D01*
X24605547Y51441564D01*
X24612298Y51465499D01*
X24671893Y51676807D01*
X24671893Y51676808D01*
X24676681Y51693784D01*
X24696283Y51839724D01*
X24709871Y51940888D01*
X24709871Y51940892D01*
X24711566Y51953509D01*
X24715227Y52070000D01*
X24708890Y52159502D01*
X24697966Y52313797D01*
X24697965Y52313802D01*
X24696719Y52331404D01*
X24641563Y52587592D01*
X24550860Y52833453D01*
X24426420Y53064080D01*
X24417179Y53076592D01*
X24359342Y53205174D01*
X24339931Y53345871D01*
X24360946Y53486338D01*
X24415514Y53607079D01*
X24499586Y53741884D01*
X24525347Y53800154D01*
X24598410Y53965420D01*
X24598411Y53965422D01*
X24605547Y53981564D01*
X24657557Y54165974D01*
X24671893Y54216807D01*
X24671893Y54216808D01*
X24676681Y54233784D01*
X24711566Y54493509D01*
X24715227Y54610000D01*
X24705919Y54741469D01*
X24697966Y54853797D01*
X24697965Y54853802D01*
X24696719Y54871404D01*
X24641563Y55127592D01*
X24550860Y55373453D01*
X24426420Y55604080D01*
X24417179Y55616592D01*
X24359342Y55745174D01*
X24339931Y55885871D01*
X24360946Y56026338D01*
X24415514Y56147079D01*
X24499586Y56281884D01*
X24562528Y56424256D01*
X24598410Y56505420D01*
X24598411Y56505422D01*
X24605547Y56521564D01*
X24610386Y56538719D01*
X24671893Y56756807D01*
X24671893Y56756808D01*
X24676681Y56773784D01*
X24711566Y57033509D01*
X24715227Y57150000D01*
X24701181Y57348389D01*
X24697966Y57393797D01*
X24697965Y57393802D01*
X24696719Y57411404D01*
X24641563Y57667592D01*
X24550860Y57913453D01*
X24426420Y58144080D01*
X24417179Y58156592D01*
X24359342Y58285174D01*
X24339931Y58425871D01*
X24360946Y58566338D01*
X24415514Y58687079D01*
X24499586Y58821884D01*
X24506721Y58838023D01*
X24598410Y59045420D01*
X24598411Y59045422D01*
X24605547Y59061564D01*
X24610726Y59079924D01*
X24671893Y59296807D01*
X24671893Y59296808D01*
X24676681Y59313784D01*
X24707746Y59545067D01*
X24709871Y59560888D01*
X24709871Y59560892D01*
X24711566Y59573509D01*
X24712752Y59611259D01*
X24714827Y59677266D01*
X24714827Y59677270D01*
X24715227Y59690000D01*
X24696719Y59951404D01*
X24641563Y60207592D01*
X24550860Y60453453D01*
X24426420Y60684080D01*
X24380209Y60746646D01*
X24281212Y60880677D01*
X24270726Y60894874D01*
X24086884Y61081626D01*
X23878562Y61240612D01*
X23808271Y61279977D01*
X23665310Y61360040D01*
X23665304Y61360043D01*
X23649917Y61368660D01*
X23405512Y61463213D01*
X23150221Y61522386D01*
X22889141Y61544998D01*
X22871533Y61544029D01*
X22871530Y61544029D01*
X22758309Y61537798D01*
X22627478Y61530598D01*
X22370456Y61479473D01*
X22353811Y61473628D01*
X22353805Y61473626D01*
X22139859Y61398493D01*
X22123201Y61392643D01*
X21890647Y61271841D01*
X21677434Y61119477D01*
X21487816Y60938591D01*
X21476897Y60924741D01*
X21476894Y60924737D01*
X21412860Y60843509D01*
X21325578Y60732792D01*
X21316718Y60717538D01*
X21227658Y60564210D01*
X21193955Y60506187D01*
X21095574Y60263297D01*
X21091321Y60246174D01*
X21091320Y60246172D01*
X21077453Y60190346D01*
X21032399Y60008968D01*
X21005688Y59748274D01*
X21006381Y59730638D01*
X21013673Y59545067D01*
X21015977Y59486418D01*
X21029898Y59410192D01*
X21059103Y59250281D01*
X21063058Y59228624D01*
X21145994Y58980035D01*
X21153876Y58964260D01*
X21153878Y58964256D01*
X21255240Y58761399D01*
X21263128Y58745613D01*
X21273158Y58731101D01*
X21273162Y58731094D01*
X21291484Y58704585D01*
X21354787Y58577442D01*
X21379706Y58437615D01*
X21364222Y58296432D01*
X21312479Y58170241D01*
X21253855Y58069312D01*
X21193955Y57966187D01*
X21095574Y57723297D01*
X21091321Y57706174D01*
X21091320Y57706172D01*
X21036654Y57486098D01*
X21032399Y57468968D01*
X21005688Y57208274D01*
X21006381Y57190638D01*
X21012409Y57037235D01*
X21015977Y56946418D01*
X21025717Y56893087D01*
X21059867Y56706098D01*
X21063058Y56688624D01*
X21145994Y56440035D01*
X21153876Y56424260D01*
X21153878Y56424256D01*
X21232495Y56266919D01*
X21263128Y56205613D01*
X21273158Y56191101D01*
X21273162Y56191094D01*
X21291484Y56164585D01*
X21354787Y56037442D01*
X21379706Y55897615D01*
X21364222Y55756432D01*
X21312479Y55630241D01*
X21297284Y55604080D01*
X21193955Y55426187D01*
X21095574Y55183297D01*
X21032399Y54928968D01*
X21005688Y54668274D01*
X21006381Y54650638D01*
X21012268Y54500823D01*
X21015977Y54406418D01*
X21034003Y54307717D01*
X21055316Y54191018D01*
X21063058Y54148624D01*
X21145994Y53900035D01*
X21153876Y53884260D01*
X21153878Y53884256D01*
X21245902Y53700087D01*
X21263128Y53665613D01*
X21273158Y53651101D01*
X21273162Y53651094D01*
X21291484Y53624585D01*
X21354787Y53497442D01*
X21379706Y53357615D01*
X21364222Y53216432D01*
X21312479Y53090241D01*
X21302395Y53072880D01*
X21193955Y52886187D01*
X21095574Y52643297D01*
X21032399Y52388968D01*
X21005688Y52128274D01*
X21006381Y52110638D01*
X21015263Y51884602D01*
X21015977Y51866418D01*
X21025662Y51813390D01*
X21052011Y51669115D01*
X21063058Y51608624D01*
X21145994Y51360035D01*
X21153876Y51344260D01*
X21153878Y51344256D01*
X21248788Y51154311D01*
X21263128Y51125613D01*
X21273158Y51111101D01*
X21273162Y51111094D01*
X21291484Y51084585D01*
X21354787Y50957442D01*
X21379706Y50817615D01*
X21364222Y50676432D01*
X21312479Y50550241D01*
X21284457Y50501998D01*
X21193955Y50346187D01*
X21095574Y50103297D01*
X21091321Y50086174D01*
X21091320Y50086172D01*
X21072903Y50012029D01*
X21032399Y49848968D01*
X21005688Y49588274D01*
X21007478Y49542710D01*
X21015205Y49346076D01*
X21015977Y49326418D01*
X21029864Y49250379D01*
X21052662Y49125550D01*
X21063058Y49068624D01*
X21145994Y48820035D01*
X21153876Y48804260D01*
X21153878Y48804256D01*
X21251378Y48609128D01*
X21263128Y48585613D01*
X21273158Y48571101D01*
X21273162Y48571094D01*
X21291484Y48544585D01*
X21354787Y48417442D01*
X21379706Y48277615D01*
X21364222Y48136432D01*
X21312479Y48010241D01*
X21269117Y47935588D01*
X21193955Y47806187D01*
X21095574Y47563297D01*
X21032399Y47308968D01*
X21005688Y47048274D01*
X21006381Y47030638D01*
X21015244Y46805083D01*
X21015977Y46786418D01*
X21030693Y46705840D01*
X21057781Y46557521D01*
X21063058Y46528624D01*
X21145994Y46280035D01*
X21153876Y46264260D01*
X21153878Y46264256D01*
X21232495Y46106919D01*
X21263128Y46045613D01*
X21273158Y46031101D01*
X21273162Y46031094D01*
X21291484Y46004585D01*
X21354787Y45877442D01*
X21379706Y45737615D01*
X21364222Y45596432D01*
X21312479Y45470241D01*
X21294584Y45439432D01*
X21193955Y45266187D01*
X21095574Y45023297D01*
X21091321Y45006174D01*
X21091320Y45006172D01*
X21049356Y44837235D01*
X21032399Y44768968D01*
X21005688Y44508274D01*
X21015977Y44246418D01*
X21063058Y43988624D01*
X21145994Y43740035D01*
X21153876Y43724260D01*
X21153878Y43724256D01*
X21255240Y43521399D01*
X21263128Y43505613D01*
X21273158Y43491101D01*
X21273162Y43491094D01*
X21291484Y43464585D01*
X21354787Y43337442D01*
X21379706Y43197615D01*
X21364222Y43056432D01*
X21312479Y42930241D01*
X21289436Y42890569D01*
X21193955Y42726187D01*
X21095574Y42483297D01*
X21091321Y42466174D01*
X21091320Y42466172D01*
X21036654Y42246098D01*
X21032399Y42228968D01*
X21005688Y41968274D01*
X21006381Y41950638D01*
X21008964Y41884912D01*
X21015977Y41706418D01*
X21027816Y41641595D01*
X21050245Y41518784D01*
X21063058Y41448624D01*
X21145994Y41200035D01*
X21153876Y41184260D01*
X21153878Y41184256D01*
X21239994Y41011912D01*
X21263128Y40965613D01*
X21273158Y40951101D01*
X21273162Y40951094D01*
X21291484Y40924585D01*
X21354787Y40797442D01*
X21379706Y40657615D01*
X21364222Y40516432D01*
X21312479Y40390241D01*
X21279395Y40333283D01*
X21193955Y40186187D01*
X21095574Y39943297D01*
X21091321Y39926174D01*
X21091320Y39926172D01*
X21069655Y39838953D01*
X21032399Y39688968D01*
X21005688Y39428274D01*
X21015977Y39166418D01*
X21063058Y38908624D01*
X21086964Y38836970D01*
X21131043Y38704850D01*
X21145994Y38660035D01*
X21153876Y38644260D01*
X21153878Y38644256D01*
X21255240Y38441399D01*
X21263128Y38425613D01*
X21273158Y38411101D01*
X21273162Y38411094D01*
X21291484Y38384585D01*
X21354787Y38257442D01*
X21379706Y38117615D01*
X21364222Y37976432D01*
X21312479Y37850241D01*
X21280624Y37795399D01*
X21193955Y37646187D01*
X21095574Y37403297D01*
X21091321Y37386174D01*
X21091320Y37386172D01*
X21062008Y37268168D01*
X21032399Y37148968D01*
X21005688Y36888274D01*
X21015977Y36626418D01*
X21034930Y36522639D01*
X21054660Y36414610D01*
X21063058Y36368624D01*
X21145994Y36120035D01*
X21153876Y36104260D01*
X21153878Y36104256D01*
X21228066Y35955783D01*
X21263128Y35885613D01*
X21273158Y35871101D01*
X21273162Y35871094D01*
X21291484Y35844585D01*
X21354787Y35717442D01*
X21379706Y35577615D01*
X21364222Y35436432D01*
X21312479Y35310241D01*
X21281958Y35257695D01*
X21193955Y35106187D01*
X21095574Y34863297D01*
X21032399Y34608968D01*
X21005688Y34348274D01*
X21015977Y34086418D01*
X21041689Y33945630D01*
X21044943Y33927816D01*
X21063058Y33828624D01*
X21145994Y33580035D01*
X21153876Y33564260D01*
X21153878Y33564256D01*
X21246388Y33379115D01*
X21263128Y33345613D01*
X21273158Y33331101D01*
X21273162Y33331094D01*
X21291484Y33304585D01*
X21354787Y33177442D01*
X21379706Y33037615D01*
X21364222Y32896432D01*
X21312479Y32770241D01*
X21263676Y32686221D01*
X21193955Y32566187D01*
X21095574Y32323297D01*
X21032399Y32068968D01*
X21005688Y31808274D01*
X21015977Y31546418D01*
X21063058Y31288624D01*
X21145994Y31040035D01*
X21153876Y31024260D01*
X21153878Y31024256D01*
X21232495Y30866919D01*
X21263128Y30805613D01*
X21273158Y30791101D01*
X21273162Y30791094D01*
X21291484Y30764585D01*
X21354787Y30637442D01*
X21379706Y30497615D01*
X21364222Y30356432D01*
X21312479Y30230241D01*
X21253855Y30129312D01*
X21193955Y30026187D01*
X21095574Y29783297D01*
X21091321Y29766174D01*
X21091320Y29766172D01*
X21082186Y29729401D01*
X21032399Y29528968D01*
X21005688Y29268274D01*
X21007132Y29231523D01*
X21011216Y29127598D01*
X21015977Y29006418D01*
X21019147Y28989063D01*
X21019147Y28989060D01*
X21050492Y28817427D01*
X21055865Y28675498D01*
X21021034Y28537805D01*
X20948822Y28415503D01*
X20845078Y28318499D01*
X20718207Y28254652D01*
X20578488Y28229135D01*
X20437239Y28244016D01*
X20305905Y28298087D01*
X20206765Y28374932D01*
X19557648Y29024050D01*
X18509888Y30071810D01*
X18424772Y30185511D01*
X18375138Y30318586D01*
X18363980Y30440334D01*
X18364827Y30467270D01*
X18364827Y30467271D01*
X18365227Y30480000D01*
X18360605Y30545286D01*
X18347966Y30723797D01*
X18347965Y30723802D01*
X18346719Y30741404D01*
X18291563Y30997592D01*
X18200860Y31243453D01*
X18202751Y31244151D01*
X18169675Y31358613D01*
X18170284Y31500642D01*
X18210884Y31636746D01*
X18221669Y31658669D01*
X18293741Y31796530D01*
X18349766Y31991913D01*
X18360500Y32112184D01*
X18360500Y33927816D01*
X18349766Y34048087D01*
X18293741Y34243470D01*
X18199573Y34423596D01*
X18071109Y34581109D01*
X17913596Y34709573D01*
X17733470Y34803741D01*
X17538087Y34859766D01*
X17417816Y34870500D01*
X15602184Y34870500D01*
X15481913Y34859766D01*
X15286530Y34803741D01*
X15106404Y34709573D01*
X14948891Y34581109D01*
X14820427Y34423596D01*
X14726259Y34243470D01*
X14719293Y34219176D01*
X14719290Y34219169D01*
X14699952Y34151727D01*
X14641772Y34022160D01*
X14549446Y33914232D01*
X14534532Y33901862D01*
X14522361Y33893668D01*
X14518175Y33889873D01*
X14512951Y33884649D01*
X14512304Y33884075D01*
X14509438Y33881346D01*
X14509342Y33881447D01*
X14495536Y33869201D01*
X14478980Y33853435D01*
X14460302Y33838763D01*
X14427476Y33800934D01*
X14403447Y33775145D01*
X13649956Y33021654D01*
X13536255Y32936538D01*
X13403180Y32886904D01*
X13297110Y32875500D01*
X12802712Y32875500D01*
X12662127Y32895713D01*
X12532932Y32954714D01*
X12425593Y33047724D01*
X12348806Y33167208D01*
X12308791Y33303485D01*
X12308791Y33445515D01*
X12317501Y33490995D01*
X12320150Y33502028D01*
X12326263Y33540622D01*
X12343564Y33760458D01*
X12343564Y33799542D01*
X12326263Y34019378D01*
X12320150Y34057971D01*
X12268672Y34272396D01*
X12256595Y34309563D01*
X12172208Y34513293D01*
X12145562Y34565588D01*
X12148375Y34567022D01*
X12147249Y34569635D01*
X12108385Y34498460D01*
X12061761Y34444654D01*
X11042846Y33425739D01*
X10929145Y33340623D01*
X10796070Y33290989D01*
X10654402Y33280856D01*
X10515617Y33311047D01*
X10390960Y33379115D01*
X10337154Y33425739D01*
X9953726Y33809167D01*
X9868610Y33922868D01*
X9818976Y34055943D01*
X9808843Y34197611D01*
X9831993Y34316207D01*
X9832687Y34318343D01*
X9895352Y34445801D01*
X9991388Y34550442D01*
X10113015Y34623787D01*
X10250378Y34659896D01*
X10392351Y34655842D01*
X10527430Y34611953D01*
X10644673Y34531787D01*
X10660112Y34516995D01*
X10664762Y34512345D01*
X10690431Y34493129D01*
X10702749Y34499856D01*
X10975155Y34772262D01*
X10994371Y34797931D01*
X10987644Y34810249D01*
X10715238Y35082655D01*
X10689569Y35101871D01*
X10677251Y35095144D01*
X10661339Y35079232D01*
X10547638Y34994116D01*
X10414563Y34944482D01*
X10272895Y34934349D01*
X10134110Y34964540D01*
X10009453Y35032608D01*
X9909023Y35133038D01*
X9840955Y35257695D01*
X9833914Y35277884D01*
X9833220Y35280020D01*
X9809002Y35419971D01*
X9825194Y35561075D01*
X9880484Y35691901D01*
X9954953Y35787060D01*
X9957655Y35789762D01*
X9976226Y35814569D01*
X11403129Y35814569D01*
X11409856Y35802251D01*
X12061761Y35150346D01*
X12146877Y35036645D01*
X12147879Y35033959D01*
X12172208Y35081707D01*
X12256595Y35285437D01*
X12268672Y35322604D01*
X12320150Y35537029D01*
X12326263Y35575622D01*
X12343564Y35795458D01*
X12343564Y35834542D01*
X12326263Y36054378D01*
X12320150Y36092971D01*
X12268672Y36307396D01*
X12256595Y36344563D01*
X12172208Y36548293D01*
X12167270Y36557983D01*
X12157453Y36569815D01*
X12143168Y36561061D01*
X11422345Y35840238D01*
X11403129Y35814569D01*
X9976226Y35814569D01*
X9976871Y35815431D01*
X9970144Y35827749D01*
X9246686Y36551207D01*
X9221927Y36569742D01*
X9174824Y36522639D01*
X9171841Y36525622D01*
X9137896Y36488377D01*
X9016524Y36414610D01*
X8879287Y36378025D01*
X8737301Y36381586D01*
X8704201Y36388356D01*
X8508994Y36435221D01*
X8250000Y36455604D01*
X7991006Y36435221D01*
X7971940Y36430644D01*
X7971936Y36430643D01*
X7905155Y36414610D01*
X7738390Y36374573D01*
X7498372Y36275154D01*
X7481661Y36264914D01*
X7481656Y36264911D01*
X7406002Y36218550D01*
X7276860Y36139412D01*
X7079311Y35970689D01*
X6910588Y35773140D01*
X6900342Y35756420D01*
X6785089Y35568344D01*
X6785086Y35568339D01*
X6774846Y35551628D01*
X6675427Y35311610D01*
X6667843Y35280020D01*
X6619638Y35079232D01*
X6614779Y35058994D01*
X6594396Y34800000D01*
X6614779Y34541006D01*
X6619356Y34521940D01*
X6619357Y34521936D01*
X6621432Y34513293D01*
X6675427Y34288390D01*
X6682930Y34270277D01*
X6682930Y34270276D01*
X6704098Y34219173D01*
X6766276Y34069063D01*
X6768638Y34063360D01*
X6803763Y33925742D01*
X6798694Y33783802D01*
X6753841Y33649040D01*
X6733090Y33611674D01*
X6685089Y33533344D01*
X6685086Y33533339D01*
X6674846Y33516628D01*
X6575427Y33276610D01*
X6550833Y33174169D01*
X6520132Y33046289D01*
X6514779Y33023994D01*
X6494396Y32765000D01*
X6514779Y32506006D01*
X6575427Y32253390D01*
X6674846Y32013372D01*
X6685086Y31996661D01*
X6685089Y31996656D01*
X6687996Y31991913D01*
X6810588Y31791860D01*
X6979311Y31594311D01*
X7176860Y31425588D01*
X7193580Y31415342D01*
X7381656Y31300089D01*
X7381661Y31300086D01*
X7398372Y31289846D01*
X7638390Y31190427D01*
X7713024Y31172509D01*
X7871936Y31134357D01*
X7871940Y31134356D01*
X7891006Y31129779D01*
X7974574Y31123202D01*
X8034267Y31118504D01*
X8172832Y31087323D01*
X8297000Y31018366D01*
X8340180Y30981502D01*
X8374224Y30948912D01*
X8382005Y30941298D01*
X8407098Y30916205D01*
X8415346Y30909394D01*
X8421576Y30903582D01*
X8464265Y30862716D01*
X8484225Y30849828D01*
X8498142Y30838837D01*
X8512821Y30828898D01*
X8531131Y30813778D01*
X8551966Y30802394D01*
X8551970Y30802392D01*
X8573099Y30790848D01*
X8604511Y30772160D01*
X8644689Y30746218D01*
X8666719Y30737340D01*
X8682465Y30729178D01*
X8698757Y30722195D01*
X8719601Y30710807D01*
X8765151Y30696226D01*
X8799534Y30683814D01*
X8843887Y30665939D01*
X8867192Y30661388D01*
X8884199Y30656350D01*
X8901524Y30652573D01*
X8924144Y30645332D01*
X8947724Y30642499D01*
X8947726Y30642499D01*
X8971619Y30639629D01*
X9007745Y30633940D01*
X9037038Y30628219D01*
X9037045Y30628218D01*
X9054671Y30624776D01*
X9060314Y30624500D01*
X9067697Y30624500D01*
X9068581Y30624447D01*
X9072511Y30624351D01*
X9072508Y30624212D01*
X9090958Y30623108D01*
X9113797Y30622550D01*
X9137377Y30619717D01*
X9161062Y30621394D01*
X9161066Y30621394D01*
X9187329Y30623254D01*
X9222574Y30624500D01*
X12345500Y30624500D01*
X12486085Y30604287D01*
X12615280Y30545286D01*
X12722619Y30452276D01*
X12799406Y30332792D01*
X12839421Y30196515D01*
X12844500Y30125500D01*
X12844500Y28038679D01*
X12844331Y28034066D01*
X12842416Y28022805D01*
X12842934Y27999060D01*
X12842934Y27999058D01*
X12844381Y27932749D01*
X12844500Y27921864D01*
X12844500Y27886336D01*
X12845517Y27875683D01*
X12845812Y27867163D01*
X12847101Y27808090D01*
X12852101Y27784868D01*
X12854169Y27767262D01*
X12857522Y27749849D01*
X12859778Y27726205D01*
X12866466Y27703408D01*
X12873239Y27680318D01*
X12882238Y27644885D01*
X12887305Y27621352D01*
X12892304Y27598134D01*
X12901600Y27576285D01*
X12906961Y27559386D01*
X12913548Y27542918D01*
X12920235Y27520124D01*
X12935453Y27490576D01*
X12942135Y27477602D01*
X12957671Y27444510D01*
X12962710Y27432669D01*
X12976392Y27400514D01*
X12989655Y27380814D01*
X12998116Y27365230D01*
X13007697Y27350306D01*
X13018571Y27329193D01*
X13033238Y27310521D01*
X13033240Y27310518D01*
X13048114Y27291583D01*
X13069630Y27262023D01*
X13096332Y27222361D01*
X13100127Y27218175D01*
X13105351Y27212951D01*
X13105925Y27212304D01*
X13108654Y27209438D01*
X13108553Y27209342D01*
X13120799Y27195536D01*
X13136565Y27178980D01*
X13151237Y27160302D01*
X13189066Y27127476D01*
X13214855Y27103447D01*
X14374375Y25943927D01*
X14377520Y25940543D01*
X14384126Y25931230D01*
X14401282Y25914807D01*
X14401285Y25914804D01*
X14449202Y25868933D01*
X14456982Y25861320D01*
X14482097Y25836205D01*
X14490354Y25829386D01*
X14496613Y25823546D01*
X14539265Y25782716D01*
X14559222Y25769830D01*
X14573130Y25758846D01*
X14587814Y25748904D01*
X14606130Y25733779D01*
X14626977Y25722389D01*
X14648082Y25710858D01*
X14679503Y25692165D01*
X14699739Y25679099D01*
X14699742Y25679097D01*
X14719689Y25666218D01*
X14741711Y25657343D01*
X14757445Y25649187D01*
X14773753Y25642197D01*
X14794601Y25630807D01*
X14840151Y25616226D01*
X14874534Y25603814D01*
X14918887Y25585939D01*
X14942189Y25581388D01*
X14964967Y25574641D01*
X14964094Y25571693D01*
X15062929Y25537211D01*
X15184477Y25448634D01*
X15324240Y25310085D01*
X15324245Y25310081D01*
X15337390Y25297050D01*
X15553205Y25138808D01*
X15790039Y25014203D01*
X16042690Y24925974D01*
X16060874Y24922522D01*
X16060880Y24922520D01*
X16287412Y24879511D01*
X16287416Y24879511D01*
X16305606Y24876057D01*
X16573013Y24865551D01*
X16839035Y24894685D01*
X17097829Y24962820D01*
X17343710Y25068458D01*
X17571275Y25209280D01*
X17625872Y25255500D01*
X17761394Y25370227D01*
X17761397Y25370230D01*
X17775526Y25382191D01*
X17951976Y25583393D01*
X18096747Y25808466D01*
X18206661Y26052466D01*
X18226168Y26121632D01*
X18283782Y26251449D01*
X18375638Y26359778D01*
X18494292Y26437840D01*
X18630133Y26479311D01*
X18772155Y26480832D01*
X18908853Y26442279D01*
X19029151Y26366775D01*
X19059278Y26339025D01*
X19454370Y25943933D01*
X19457519Y25940544D01*
X19464126Y25931230D01*
X19481282Y25914807D01*
X19529225Y25868911D01*
X19536983Y25861320D01*
X19562098Y25836205D01*
X19570346Y25829394D01*
X19576576Y25823582D01*
X19619265Y25782716D01*
X19639225Y25769828D01*
X19653142Y25758837D01*
X19667821Y25748898D01*
X19686131Y25733778D01*
X19706966Y25722394D01*
X19706970Y25722392D01*
X19728099Y25710848D01*
X19759511Y25692160D01*
X19799689Y25666218D01*
X19821719Y25657340D01*
X19837465Y25649178D01*
X19853757Y25642195D01*
X19874601Y25630807D01*
X19920151Y25616226D01*
X19954534Y25603814D01*
X19998887Y25585939D01*
X20022192Y25581388D01*
X20039199Y25576350D01*
X20056524Y25572573D01*
X20079144Y25565332D01*
X20102724Y25562499D01*
X20102726Y25562499D01*
X20126619Y25559629D01*
X20162745Y25553940D01*
X20192038Y25548219D01*
X20192045Y25548218D01*
X20209671Y25544776D01*
X20215314Y25544500D01*
X20222697Y25544500D01*
X20223581Y25544447D01*
X20227511Y25544351D01*
X20227508Y25544212D01*
X20245958Y25543108D01*
X20268797Y25542550D01*
X20292377Y25539717D01*
X20316062Y25541394D01*
X20316066Y25541394D01*
X20342329Y25543254D01*
X20377574Y25544500D01*
X20695802Y25544500D01*
X20836387Y25524287D01*
X20965582Y25465286D01*
X21072921Y25372276D01*
X21149708Y25252792D01*
X21189723Y25116515D01*
X21189723Y24974485D01*
X21158303Y24858167D01*
X21095574Y24703297D01*
X21091321Y24686174D01*
X21091320Y24686172D01*
X21061221Y24565001D01*
X21032399Y24448968D01*
X21005688Y24188274D01*
X21006381Y24170638D01*
X21014519Y23963534D01*
X21015977Y23926418D01*
X21039755Y23796221D01*
X21048499Y23748345D01*
X21063058Y23668624D01*
X21145994Y23420035D01*
X21263128Y23185613D01*
X21273158Y23171101D01*
X21273162Y23171094D01*
X21291484Y23144585D01*
X21354787Y23017442D01*
X21379706Y22877615D01*
X21364222Y22736432D01*
X21312479Y22610241D01*
X21272318Y22541098D01*
X21193955Y22406187D01*
X21095574Y22163297D01*
X21032399Y21908968D01*
X21005688Y21648274D01*
X21006381Y21630638D01*
X21015185Y21406584D01*
X21015977Y21386418D01*
X21063058Y21128624D01*
X21145994Y20880035D01*
X21153876Y20864260D01*
X21153878Y20864256D01*
X21234973Y20701960D01*
X21263128Y20645613D01*
X21273158Y20631101D01*
X21273162Y20631094D01*
X21291484Y20604585D01*
X21354787Y20477442D01*
X21379706Y20337615D01*
X21364222Y20196432D01*
X21312479Y20070241D01*
X21287285Y20026866D01*
X21193955Y19866187D01*
X21095574Y19623297D01*
X21032399Y19368968D01*
X21005688Y19108274D01*
X21006381Y19090638D01*
X21012607Y18932195D01*
X21015977Y18846418D01*
X21037102Y18730746D01*
X21057545Y18618813D01*
X21063058Y18588624D01*
X21145994Y18340035D01*
X21153489Y18325035D01*
X21188505Y18187836D01*
X21183435Y18045896D01*
X21138580Y17911135D01*
X21057576Y17794469D01*
X20946985Y17705350D01*
X20815765Y17650999D01*
X20692364Y17635500D01*
X18139266Y17635500D01*
X17998681Y17655713D01*
X17869486Y17714714D01*
X17797359Y17771044D01*
X17659765Y17900480D01*
X17659759Y17900485D01*
X17646269Y17913175D01*
X17628868Y17925247D01*
X17505795Y18010625D01*
X17426385Y18065714D01*
X17409783Y18073901D01*
X17409780Y18073903D01*
X17202980Y18175886D01*
X17202973Y18175889D01*
X17186371Y18184076D01*
X16931497Y18265662D01*
X16667364Y18308678D01*
X16525306Y18310538D01*
X16418286Y18311939D01*
X16418281Y18311939D01*
X16399774Y18312181D01*
X16381436Y18309685D01*
X16381431Y18309685D01*
X16246586Y18291333D01*
X16134605Y18276093D01*
X16116836Y18270914D01*
X16116832Y18270913D01*
X15895461Y18206390D01*
X15895458Y18206389D01*
X15877683Y18201208D01*
X15860867Y18193456D01*
X15860865Y18193455D01*
X15848677Y18187836D01*
X15634652Y18089169D01*
X15410851Y17942438D01*
X15397039Y17930110D01*
X15397036Y17930108D01*
X15226774Y17778143D01*
X15211197Y17764240D01*
X15040075Y17558488D01*
X15030471Y17542662D01*
X15030468Y17542657D01*
X14944827Y17401524D01*
X14901244Y17329702D01*
X14843197Y17191276D01*
X14806083Y17102768D01*
X14797755Y17082909D01*
X14731881Y16823530D01*
X14730027Y16805113D01*
X14730026Y16805110D01*
X14714607Y16651975D01*
X14705070Y16557264D01*
X14717909Y16289959D01*
X14770118Y16027488D01*
X14860549Y15775617D01*
X14869311Y15759310D01*
X14973388Y15565613D01*
X14987215Y15539879D01*
X15147335Y15325453D01*
X15160484Y15312418D01*
X15160486Y15312416D01*
X15324240Y15150085D01*
X15324245Y15150081D01*
X15337390Y15137050D01*
X15553205Y14978808D01*
X15790039Y14854203D01*
X16042690Y14765974D01*
X16060874Y14762522D01*
X16060880Y14762520D01*
X16287412Y14719511D01*
X16287416Y14719511D01*
X16305606Y14716057D01*
X16573013Y14705551D01*
X16839035Y14734685D01*
X17097829Y14802820D01*
X17343710Y14908458D01*
X17571275Y15049280D01*
X17687307Y15147508D01*
X17761394Y15210227D01*
X17761397Y15210230D01*
X17775526Y15222191D01*
X17787733Y15236111D01*
X17793130Y15241414D01*
X17907570Y15325533D01*
X18041073Y15374004D01*
X18142882Y15384500D01*
X20696341Y15384500D01*
X20836926Y15364287D01*
X20966121Y15305286D01*
X21073460Y15212276D01*
X21150247Y15092792D01*
X21190262Y14956515D01*
X21190262Y14814485D01*
X21158842Y14698168D01*
X21102676Y14559502D01*
X21091799Y14526025D01*
X21037144Y14305996D01*
X21031094Y14271332D01*
X21007988Y14045817D01*
X21006882Y14010621D01*
X21015782Y13784104D01*
X21019644Y13749121D01*
X21060375Y13526098D01*
X21069128Y13492012D01*
X21140873Y13276965D01*
X21154344Y13244443D01*
X21229347Y13094337D01*
X21248671Y13066463D01*
X21256647Y13073754D01*
X22507154Y14324261D01*
X22620855Y14409377D01*
X22753930Y14459011D01*
X22895598Y14469144D01*
X23034383Y14438953D01*
X23159040Y14370885D01*
X23212846Y14324261D01*
X24128346Y13408761D01*
X24213462Y13295060D01*
X24263096Y13161985D01*
X24274500Y13055915D01*
X24274500Y13053085D01*
X24254287Y12912500D01*
X24195286Y12783305D01*
X24122091Y12698834D01*
X24174970Y12645955D01*
X24243038Y12521298D01*
X24273229Y12382513D01*
X24274500Y12346915D01*
X24274500Y12344085D01*
X24254287Y12203500D01*
X24195286Y12074305D01*
X24128346Y11991239D01*
X21978644Y9841537D01*
X21957909Y9813838D01*
X21948369Y9788261D01*
X21930282Y9705118D01*
X21862214Y9580461D01*
X21761784Y9480030D01*
X21637127Y9411962D01*
X21498343Y9381771D01*
X21462744Y9380500D01*
X19722890Y9380500D01*
X19582305Y9400713D01*
X19453110Y9459714D01*
X19370044Y9526654D01*
X17426077Y11470621D01*
X21006882Y11470621D01*
X21015782Y11244104D01*
X21019644Y11209121D01*
X21060375Y10986098D01*
X21069128Y10952012D01*
X21140873Y10736965D01*
X21154344Y10704443D01*
X21229347Y10554337D01*
X21246968Y10528919D01*
X21254449Y10532657D01*
X21261125Y10538232D01*
X22127655Y11404762D01*
X22146871Y11430431D01*
X22140144Y11442749D01*
X21250362Y12332531D01*
X21236819Y12318988D01*
X21203267Y12261224D01*
X21187783Y12229618D01*
X21102672Y12019489D01*
X21091799Y11986025D01*
X21037144Y11765996D01*
X21031094Y11731332D01*
X21007988Y11505817D01*
X21006882Y11470621D01*
X17426077Y11470621D01*
X16197129Y12699569D01*
X22303129Y12699569D01*
X22309856Y12687251D01*
X22834762Y12162345D01*
X22860431Y12143129D01*
X22872749Y12149856D01*
X23422654Y12699761D01*
X23422939Y12699974D01*
X23422654Y12700239D01*
X22885238Y13237655D01*
X22859569Y13256871D01*
X22847251Y13250144D01*
X22322345Y12725238D01*
X22303129Y12699569D01*
X16197129Y12699569D01*
X13565625Y15331073D01*
X13562480Y15334457D01*
X13555874Y15343770D01*
X13490797Y15406068D01*
X13483018Y15413680D01*
X13457903Y15438795D01*
X13449646Y15445614D01*
X13443387Y15451454D01*
X13417897Y15475855D01*
X13400735Y15492284D01*
X13380778Y15505170D01*
X13366870Y15516154D01*
X13352186Y15526096D01*
X13333870Y15541221D01*
X13291918Y15564142D01*
X13260497Y15582835D01*
X13240261Y15595901D01*
X13240258Y15595903D01*
X13220311Y15608782D01*
X13198289Y15617657D01*
X13182555Y15625813D01*
X13166247Y15632803D01*
X13145399Y15644193D01*
X13099849Y15658774D01*
X13065464Y15671187D01*
X13043135Y15680186D01*
X13043134Y15680186D01*
X13021113Y15689061D01*
X12997808Y15693612D01*
X12980801Y15698650D01*
X12963476Y15702427D01*
X12940856Y15709668D01*
X12917276Y15712501D01*
X12917274Y15712501D01*
X12893381Y15715371D01*
X12857255Y15721060D01*
X12827962Y15726781D01*
X12827955Y15726782D01*
X12810329Y15730224D01*
X12804686Y15730500D01*
X12797303Y15730500D01*
X12796419Y15730553D01*
X12792489Y15730649D01*
X12792492Y15730788D01*
X12774042Y15731892D01*
X12751203Y15732450D01*
X12727623Y15735283D01*
X12703938Y15733606D01*
X12703934Y15733606D01*
X12677671Y15731746D01*
X12642426Y15730500D01*
X10648049Y15730500D01*
X10507464Y15750713D01*
X10378269Y15809714D01*
X10270930Y15902724D01*
X10194143Y16022208D01*
X10154128Y16158485D01*
X10154128Y16300515D01*
X10193080Y16434449D01*
X10233250Y16523623D01*
X10233250Y16523624D01*
X10240852Y16540499D01*
X10267759Y16635903D01*
X10306933Y16774803D01*
X10306934Y16774809D01*
X10311960Y16792629D01*
X10314350Y16811409D01*
X10343438Y17040065D01*
X10345020Y17052499D01*
X10347442Y17145000D01*
X10342431Y17212439D01*
X10329400Y17387781D01*
X10328028Y17406245D01*
X10270213Y17661750D01*
X10175267Y17905903D01*
X10083928Y18065714D01*
X10054462Y18117269D01*
X10054461Y18117270D01*
X10045276Y18133341D01*
X10038424Y18142032D01*
X9978256Y18266395D01*
X9954925Y18406496D01*
X9972010Y18547494D01*
X10034122Y18687525D01*
X10066197Y18737392D01*
X10133258Y18841650D01*
X10143349Y18864050D01*
X10233250Y19063623D01*
X10233250Y19063624D01*
X10240852Y19080499D01*
X10279463Y19217402D01*
X10306933Y19314803D01*
X10306934Y19314809D01*
X10311960Y19332629D01*
X10314350Y19351409D01*
X10343438Y19580065D01*
X10345020Y19592499D01*
X10347442Y19685000D01*
X10346095Y19703136D01*
X10329400Y19927781D01*
X10328028Y19946245D01*
X10270213Y20201750D01*
X10175267Y20445903D01*
X10045276Y20673341D01*
X10033819Y20687875D01*
X10033815Y20687880D01*
X9894558Y20864526D01*
X9883095Y20879067D01*
X9692287Y21058560D01*
X9677074Y21069114D01*
X9677070Y21069117D01*
X9492257Y21197327D01*
X9477045Y21207880D01*
X9460442Y21216068D01*
X9460438Y21216070D01*
X9258701Y21315555D01*
X9258699Y21315556D01*
X9242095Y21323744D01*
X8992601Y21403607D01*
X8974332Y21406582D01*
X8974325Y21406584D01*
X8752317Y21442740D01*
X8752315Y21442740D01*
X8734043Y21445716D01*
X8598827Y21447486D01*
X8490612Y21448903D01*
X8490608Y21448903D01*
X8472100Y21449145D01*
X8212528Y21413819D01*
X8194750Y21408637D01*
X8194749Y21408637D01*
X8179012Y21404050D01*
X7961029Y21340514D01*
X7723127Y21230840D01*
X7504049Y21087206D01*
X7490241Y21074882D01*
X7490236Y21074878D01*
X7322421Y20925096D01*
X7308609Y20912768D01*
X7296775Y20898539D01*
X7296770Y20898534D01*
X7289435Y20889714D01*
X7198723Y20780646D01*
X7093290Y20685485D01*
X7085282Y20680637D01*
X7080514Y20678608D01*
X7067864Y20670092D01*
X7053164Y20661192D01*
X7045232Y20656886D01*
X7030302Y20647301D01*
X7009193Y20636429D01*
X6990521Y20621762D01*
X6990518Y20621760D01*
X6971583Y20606886D01*
X6942023Y20585370D01*
X6902361Y20558668D01*
X6898175Y20554873D01*
X6892951Y20549649D01*
X6892304Y20549075D01*
X6889438Y20546346D01*
X6889342Y20546447D01*
X6875536Y20534201D01*
X6858980Y20518435D01*
X6840302Y20503763D01*
X6807476Y20465934D01*
X6783447Y20440145D01*
X4353927Y18010625D01*
X4350543Y18007480D01*
X4341230Y18000874D01*
X4324804Y17983715D01*
X4278933Y17935798D01*
X4271320Y17928018D01*
X4246205Y17902903D01*
X4239386Y17894646D01*
X4233546Y17888387D01*
X4192716Y17845735D01*
X4179830Y17825778D01*
X4168846Y17811870D01*
X4158904Y17797186D01*
X4143779Y17778870D01*
X4132389Y17758023D01*
X4120858Y17736918D01*
X4102165Y17705497D01*
X4099828Y17701877D01*
X4076218Y17665311D01*
X4067343Y17643289D01*
X4059187Y17627555D01*
X4052197Y17611247D01*
X4040807Y17590399D01*
X4026226Y17544849D01*
X4013814Y17510466D01*
X3995939Y17466113D01*
X3991388Y17442808D01*
X3986350Y17425801D01*
X3982573Y17408476D01*
X3975332Y17385856D01*
X3972499Y17362276D01*
X3972499Y17362274D01*
X3969629Y17338381D01*
X3963940Y17302255D01*
X3959105Y17277494D01*
X3954776Y17255329D01*
X3954500Y17249686D01*
X3954500Y17242303D01*
X3954447Y17241419D01*
X3954351Y17237489D01*
X3954212Y17237492D01*
X3953108Y17219042D01*
X3952550Y17196203D01*
X3949717Y17172623D01*
X3951394Y17148938D01*
X3951394Y17148934D01*
X3953254Y17122671D01*
X3954500Y17087426D01*
X3954500Y5178679D01*
X3954331Y5174066D01*
X3952416Y5162805D01*
X3952934Y5139060D01*
X3952934Y5139058D01*
X3954381Y5072749D01*
X3954500Y5061864D01*
X3954500Y5026336D01*
X3955517Y5015683D01*
X3955812Y5007163D01*
X3957101Y4948090D01*
X3962101Y4924868D01*
X3964169Y4907262D01*
X3967522Y4889849D01*
X3969778Y4866205D01*
X3976466Y4843408D01*
X3983239Y4820318D01*
X3992238Y4784885D01*
X3997305Y4761352D01*
X4002304Y4738134D01*
X4011600Y4716285D01*
X4016961Y4699386D01*
X4023548Y4682918D01*
X4030235Y4660124D01*
X4041111Y4639007D01*
X4052135Y4617602D01*
X4067671Y4584510D01*
X4086392Y4540514D01*
X4099655Y4520814D01*
X4108116Y4505230D01*
X4117697Y4490306D01*
X4128571Y4469193D01*
X4143238Y4450521D01*
X4143240Y4450518D01*
X4158114Y4431583D01*
X4179630Y4402023D01*
X4206332Y4362361D01*
X4210127Y4358175D01*
X4215351Y4352951D01*
X4215925Y4352304D01*
X4218654Y4349438D01*
X4218553Y4349342D01*
X4230799Y4335536D01*
X4246565Y4318980D01*
X4261237Y4300302D01*
X4299066Y4267476D01*
X4324855Y4243447D01*
X6715956Y1852346D01*
X6801072Y1738645D01*
X6850706Y1605570D01*
X6860839Y1463902D01*
X6830648Y1325117D01*
X6762580Y1200460D01*
X6662150Y1100030D01*
X6537493Y1031962D01*
X6398708Y1001771D01*
X6363110Y1000500D01*
X2792959Y1000500D01*
X2652374Y1020713D01*
X2523179Y1079714D01*
X2415840Y1172724D01*
X2365460Y1242119D01*
X2202099Y1513461D01*
X2184352Y1536218D01*
X2013571Y1755200D01*
X2004328Y1767052D01*
X1970329Y1801230D01*
X1788118Y1984398D01*
X1788112Y1984403D01*
X1777523Y1995048D01*
X1721366Y2039318D01*
X1536768Y2184844D01*
X1536760Y2184850D01*
X1524970Y2194144D01*
X1250328Y2361458D01*
X1251214Y2362913D01*
X1151224Y2435776D01*
X1064652Y2548373D01*
X1013309Y2680798D01*
X1000500Y2793134D01*
X1000500Y28052765D01*
X3668718Y28052765D01*
X3707524Y27758001D01*
X3785976Y27471231D01*
X3902621Y27197761D01*
X4055300Y26942651D01*
X4070302Y26923926D01*
X4230571Y26723877D01*
X4230575Y26723873D01*
X4241190Y26710623D01*
X4456849Y26505970D01*
X4470644Y26496057D01*
X4470648Y26496054D01*
X4551662Y26437840D01*
X4698288Y26332479D01*
X4713297Y26324532D01*
X4713302Y26324529D01*
X4899441Y26225974D01*
X4961038Y26193360D01*
X5240238Y26091187D01*
X5256827Y26087570D01*
X5256834Y26087568D01*
X5336153Y26070274D01*
X5530722Y26027851D01*
X5763898Y26009500D01*
X5924738Y26009500D01*
X5933184Y26010076D01*
X5933191Y26010076D01*
X6129669Y26023470D01*
X6129676Y26023471D01*
X6146619Y26024626D01*
X6199562Y26035590D01*
X6421117Y26081472D01*
X6421123Y26081474D01*
X6437750Y26084917D01*
X6666852Y26166046D01*
X6701990Y26178489D01*
X6701992Y26178490D01*
X6718004Y26184160D01*
X6982197Y26320520D01*
X7225440Y26491474D01*
X7443230Y26693857D01*
X7631539Y26923926D01*
X7786882Y27177423D01*
X7797931Y27202592D01*
X7899559Y27434108D01*
X7899559Y27434109D01*
X7906384Y27449656D01*
X7987835Y27735589D01*
X7998154Y27808090D01*
X8027333Y28013114D01*
X8027333Y28013120D01*
X8029726Y28029931D01*
X8030106Y28102438D01*
X8030802Y28235612D01*
X8031282Y28327235D01*
X7992476Y28621999D01*
X7914024Y28908769D01*
X7797379Y29182239D01*
X7644700Y29437349D01*
X7458810Y29669377D01*
X7243151Y29874030D01*
X7229356Y29883943D01*
X7229352Y29883946D01*
X7072562Y29996611D01*
X7001712Y30047521D01*
X6986703Y30055468D01*
X6986698Y30055471D01*
X6753975Y30178691D01*
X6738962Y30186640D01*
X6459762Y30288813D01*
X6443173Y30292430D01*
X6443166Y30292432D01*
X6320313Y30319218D01*
X6169278Y30352149D01*
X5936102Y30370500D01*
X5775262Y30370500D01*
X5766816Y30369924D01*
X5766809Y30369924D01*
X5570331Y30356530D01*
X5570324Y30356529D01*
X5553381Y30355374D01*
X5536741Y30351928D01*
X5278883Y30298528D01*
X5278877Y30298526D01*
X5262250Y30295083D01*
X5246236Y30289412D01*
X5079142Y30230241D01*
X4981996Y30195840D01*
X4717803Y30059480D01*
X4474560Y29888526D01*
X4256770Y29686143D01*
X4068461Y29456074D01*
X3913118Y29202577D01*
X3906295Y29187035D01*
X3906294Y29187032D01*
X3803300Y28952404D01*
X3793616Y28930344D01*
X3712165Y28644411D01*
X3709772Y28627599D01*
X3709771Y28627593D01*
X3672667Y28366886D01*
X3670274Y28350069D01*
X3668718Y28052765D01*
X1000500Y28052765D01*
X1000500Y37282453D01*
X9935185Y37282453D01*
X9943939Y37268168D01*
X10664762Y36547345D01*
X10690431Y36528129D01*
X10702749Y36534856D01*
X11426207Y37258314D01*
X11444742Y37283073D01*
X11438206Y37289609D01*
X11423293Y37297208D01*
X11219563Y37381595D01*
X11182396Y37393672D01*
X10967971Y37445150D01*
X10929378Y37451263D01*
X10709542Y37468564D01*
X10670458Y37468564D01*
X10450622Y37451263D01*
X10412029Y37445150D01*
X10197604Y37393672D01*
X10160437Y37381595D01*
X9956707Y37297208D01*
X9947017Y37292270D01*
X9935185Y37282453D01*
X1000500Y37282453D01*
X1000500Y40252765D01*
X3668718Y40252765D01*
X3707524Y39958001D01*
X3734498Y39859401D01*
X3781124Y39688968D01*
X3785976Y39671231D01*
X3841003Y39542222D01*
X3886875Y39434678D01*
X3902621Y39397761D01*
X4055300Y39142651D01*
X4140667Y39036096D01*
X4230571Y38923877D01*
X4230575Y38923873D01*
X4241190Y38910623D01*
X4456849Y38705970D01*
X4470644Y38696057D01*
X4470648Y38696054D01*
X4627438Y38583389D01*
X4698288Y38532479D01*
X4713297Y38524532D01*
X4713302Y38524529D01*
X4847325Y38453568D01*
X4961038Y38393360D01*
X5240238Y38291187D01*
X5256827Y38287570D01*
X5256834Y38287568D01*
X5374282Y38261961D01*
X5530722Y38227851D01*
X5763898Y38209500D01*
X5924738Y38209500D01*
X5933184Y38210076D01*
X5933191Y38210076D01*
X6129669Y38223470D01*
X6129676Y38223471D01*
X6146619Y38224626D01*
X6194443Y38234530D01*
X6421117Y38281472D01*
X6421123Y38281474D01*
X6437750Y38284917D01*
X6577877Y38334539D01*
X6701990Y38378489D01*
X6701992Y38378490D01*
X6718004Y38384160D01*
X6982197Y38520520D01*
X7225440Y38691474D01*
X7387677Y38842234D01*
X14731550Y38842234D01*
X14733552Y38833777D01*
X14790874Y38661960D01*
X14804342Y38629446D01*
X14905668Y38426661D01*
X14923595Y38396348D01*
X15052484Y38209860D01*
X15074491Y38182391D01*
X15228382Y38015913D01*
X15254029Y37991829D01*
X15429848Y37848690D01*
X15458633Y37828459D01*
X15652860Y37711525D01*
X15684214Y37695550D01*
X15892982Y37607148D01*
X15926271Y37595750D01*
X15975503Y37582697D01*
X16006219Y37579106D01*
X16010000Y37593367D01*
X16010000Y37608407D01*
X17010000Y37608407D01*
X17014401Y37577796D01*
X17024752Y37577796D01*
X17029460Y37578871D01*
X17175950Y37625199D01*
X17208669Y37638154D01*
X17413041Y37736292D01*
X17443607Y37753727D01*
X17632105Y37879677D01*
X17659916Y37901249D01*
X17828791Y38052506D01*
X17853280Y38077777D01*
X17999151Y38251312D01*
X18019840Y38279788D01*
X18139808Y38472149D01*
X18156277Y38503255D01*
X18247939Y38710591D01*
X18259866Y38743720D01*
X18281564Y38820653D01*
X18285637Y38851306D01*
X18272540Y38855000D01*
X17045690Y38855000D01*
X17013954Y38850437D01*
X17010000Y38836970D01*
X17010000Y37608407D01*
X16010000Y37608407D01*
X16010000Y38819310D01*
X16005437Y38851046D01*
X15991970Y38855000D01*
X14762161Y38855000D01*
X14731550Y38850599D01*
X14731550Y38842234D01*
X7387677Y38842234D01*
X7443230Y38893857D01*
X7631539Y39123926D01*
X7661712Y39173163D01*
X7718747Y39266237D01*
X7786882Y39377423D01*
X7801463Y39410638D01*
X7899559Y39634108D01*
X7899559Y39634109D01*
X7906384Y39649656D01*
X7917583Y39688968D01*
X7965396Y39856817D01*
X7987835Y39935589D01*
X8003835Y40048007D01*
X8027333Y40213114D01*
X8027333Y40213120D01*
X8029726Y40229931D01*
X8031282Y40527235D01*
X7992476Y40821999D01*
X7952972Y40966399D01*
X7918507Y41092383D01*
X7918506Y41092387D01*
X7914024Y41108769D01*
X7797379Y41382239D01*
X7644700Y41637349D01*
X7509395Y41806237D01*
X7469429Y41856123D01*
X7469425Y41856127D01*
X7458810Y41869377D01*
X7370401Y41953274D01*
X14655688Y41953274D01*
X14656381Y41935638D01*
X14661966Y41793509D01*
X14665977Y41691418D01*
X14713058Y41433624D01*
X14795994Y41185035D01*
X14803876Y41169260D01*
X14803878Y41169256D01*
X14897745Y40981399D01*
X14913128Y40950613D01*
X14923164Y40936092D01*
X14941800Y40909127D01*
X15005103Y40781984D01*
X15030020Y40642156D01*
X15014535Y40500973D01*
X14962793Y40374787D01*
X14853267Y40186223D01*
X14837783Y40154618D01*
X14752673Y39944491D01*
X14741798Y39911020D01*
X14736486Y39889636D01*
X14733378Y39858869D01*
X14748952Y39855000D01*
X18259149Y39855000D01*
X18289760Y39859401D01*
X18289760Y39872535D01*
X18284975Y39889005D01*
X18206509Y40101696D01*
X18192025Y40133773D01*
X18084376Y40333283D01*
X18067312Y40360171D01*
X18009048Y40489700D01*
X17989637Y40630398D01*
X18010652Y40770865D01*
X18065223Y40891613D01*
X18079608Y40914678D01*
X18149586Y41026884D01*
X18188106Y41114014D01*
X18248410Y41250420D01*
X18248411Y41250422D01*
X18255547Y41266564D01*
X18261769Y41288623D01*
X18321893Y41501807D01*
X18321893Y41501808D01*
X18326681Y41518784D01*
X18352237Y41709050D01*
X18359871Y41765888D01*
X18359871Y41765892D01*
X18361566Y41778509D01*
X18364005Y41856123D01*
X18364827Y41882266D01*
X18364827Y41882270D01*
X18365227Y41895000D01*
X18353379Y42062336D01*
X18347966Y42138797D01*
X18347965Y42138802D01*
X18346719Y42156404D01*
X18291563Y42412592D01*
X18200860Y42658453D01*
X18202751Y42659151D01*
X18169675Y42773613D01*
X18170284Y42915642D01*
X18210884Y43051746D01*
X18221669Y43073669D01*
X18293741Y43211530D01*
X18349766Y43406913D01*
X18360500Y43527184D01*
X18360500Y45342816D01*
X18349766Y45463087D01*
X18293741Y45658470D01*
X18199573Y45838596D01*
X18071109Y45996109D01*
X17913596Y46124573D01*
X17733470Y46218741D01*
X17538087Y46274766D01*
X17417816Y46285500D01*
X15602184Y46285500D01*
X15481913Y46274766D01*
X15286530Y46218741D01*
X15106404Y46124573D01*
X14948891Y45996109D01*
X14820427Y45838596D01*
X14726259Y45658470D01*
X14670234Y45463087D01*
X14659500Y45342816D01*
X14659500Y43527184D01*
X14670234Y43406913D01*
X14726259Y43211530D01*
X14737971Y43189127D01*
X14799819Y43070823D01*
X14847039Y42936872D01*
X14854607Y42795044D01*
X14820105Y42652305D01*
X14812096Y42632531D01*
X14745574Y42468297D01*
X14741321Y42451174D01*
X14741320Y42451172D01*
X14690380Y42246098D01*
X14682399Y42213968D01*
X14655688Y41953274D01*
X7370401Y41953274D01*
X7243151Y42074030D01*
X7152112Y42139448D01*
X7049743Y42237898D01*
X6979255Y42361203D01*
X6946362Y42499371D01*
X6953728Y42641211D01*
X7000756Y42775229D01*
X7083636Y42890569D01*
X7156374Y42952933D01*
X7211538Y42991703D01*
X7211543Y42991707D01*
X7225440Y43001474D01*
X7443230Y43203857D01*
X7631539Y43433926D01*
X7642937Y43452525D01*
X7737384Y43606650D01*
X7786882Y43687423D01*
X7906384Y43959656D01*
X7987835Y44245589D01*
X7990463Y44264050D01*
X8027333Y44523114D01*
X8027333Y44523120D01*
X8029726Y44539931D01*
X8031282Y44837235D01*
X7992476Y45131999D01*
X7914024Y45418769D01*
X7797379Y45692239D01*
X7644700Y45947349D01*
X7504871Y46121884D01*
X7469429Y46166123D01*
X7469425Y46166127D01*
X7458810Y46179377D01*
X7243151Y46384030D01*
X7229356Y46393943D01*
X7229352Y46393946D01*
X7065214Y46511890D01*
X7001712Y46557521D01*
X6986703Y46565468D01*
X6986698Y46565471D01*
X6753975Y46688691D01*
X6738962Y46696640D01*
X6459762Y46798813D01*
X6443173Y46802430D01*
X6443166Y46802432D01*
X6325718Y46828039D01*
X6169278Y46862149D01*
X5936102Y46880500D01*
X5775262Y46880500D01*
X5766816Y46879924D01*
X5766809Y46879924D01*
X5570331Y46866530D01*
X5570324Y46866529D01*
X5553381Y46865374D01*
X5536741Y46861928D01*
X5278883Y46808528D01*
X5278877Y46808526D01*
X5262250Y46805083D01*
X4981996Y46705840D01*
X4717803Y46569480D01*
X4474560Y46398526D01*
X4256770Y46196143D01*
X4068461Y45966074D01*
X3913118Y45712577D01*
X3906295Y45697035D01*
X3906294Y45697032D01*
X3887788Y45654874D01*
X3793616Y45440344D01*
X3712165Y45154411D01*
X3709772Y45137599D01*
X3709771Y45137593D01*
X3685457Y44966750D01*
X3670274Y44860069D01*
X3668718Y44562765D01*
X3707524Y44268001D01*
X3713655Y44245589D01*
X3765301Y44056807D01*
X3785976Y43981231D01*
X3902621Y43707761D01*
X4055300Y43452651D01*
X4129908Y43359525D01*
X4230571Y43233877D01*
X4230575Y43233873D01*
X4241190Y43220623D01*
X4313213Y43152276D01*
X4439010Y43032899D01*
X4456849Y43015970D01*
X4547888Y42950552D01*
X4650257Y42852102D01*
X4720745Y42728797D01*
X4753638Y42590629D01*
X4746272Y42448789D01*
X4699244Y42314771D01*
X4616364Y42199431D01*
X4543626Y42137067D01*
X4488462Y42098297D01*
X4488457Y42098293D01*
X4474560Y42088526D01*
X4256770Y41886143D01*
X4068461Y41656074D01*
X3913118Y41402577D01*
X3906295Y41387035D01*
X3906294Y41387032D01*
X3824969Y41201769D01*
X3793616Y41130344D01*
X3712165Y40844411D01*
X3709772Y40827599D01*
X3709771Y40827593D01*
X3672667Y40566886D01*
X3670274Y40550069D01*
X3670185Y40533082D01*
X3670185Y40533081D01*
X3669725Y40445186D01*
X3668718Y40252765D01*
X1000500Y40252765D01*
X1000500Y49275000D01*
X6494396Y49275000D01*
X6514779Y49016006D01*
X6519356Y48996940D01*
X6519357Y48996936D01*
X6524923Y48973752D01*
X6575427Y48763390D01*
X6674846Y48523372D01*
X6685086Y48506661D01*
X6685089Y48506656D01*
X6755224Y48392206D01*
X6810588Y48301860D01*
X6979311Y48104311D01*
X7176860Y47935588D01*
X7193580Y47925342D01*
X7381656Y47810089D01*
X7381661Y47810086D01*
X7398372Y47799846D01*
X7638390Y47700427D01*
X7764698Y47670103D01*
X7871936Y47644357D01*
X7871940Y47644356D01*
X7891006Y47639779D01*
X8150000Y47619396D01*
X8408994Y47639779D01*
X8428060Y47644356D01*
X8428064Y47644357D01*
X8535302Y47670103D01*
X8661610Y47700427D01*
X8901628Y47799846D01*
X8918339Y47810086D01*
X8918344Y47810089D01*
X9106420Y47925342D01*
X9123140Y47935588D01*
X9320689Y48104311D01*
X9489412Y48301860D01*
X9610725Y48499826D01*
X9701410Y48609128D01*
X9819221Y48688457D01*
X9954610Y48731382D01*
X10096608Y48734425D01*
X10190394Y48713672D01*
X10197614Y48711326D01*
X10412029Y48659850D01*
X10450622Y48653737D01*
X10670458Y48636436D01*
X10709542Y48636436D01*
X10929378Y48653737D01*
X10967971Y48659850D01*
X11182396Y48711328D01*
X11219563Y48723405D01*
X11423293Y48807792D01*
X11432983Y48812730D01*
X11444815Y48822547D01*
X11436061Y48836832D01*
X10448151Y49824742D01*
X10363035Y49938443D01*
X10313401Y50071518D01*
X10303268Y50213186D01*
X10333459Y50351971D01*
X10401527Y50476628D01*
X10501957Y50577058D01*
X10626614Y50645126D01*
X10761739Y50675041D01*
X10764362Y50675248D01*
X10906101Y50666158D01*
X11039538Y50617504D01*
X11156466Y50530641D01*
X12133314Y49553793D01*
X12158073Y49535258D01*
X12164609Y49541794D01*
X12172208Y49556707D01*
X12256595Y49760437D01*
X12268672Y49797604D01*
X12320150Y50012029D01*
X12326263Y50050622D01*
X12343564Y50270458D01*
X12343564Y50272234D01*
X14731550Y50272234D01*
X14733552Y50263777D01*
X14790874Y50091960D01*
X14804342Y50059446D01*
X14905668Y49856661D01*
X14923595Y49826348D01*
X15052484Y49639860D01*
X15074491Y49612391D01*
X15228382Y49445913D01*
X15254029Y49421829D01*
X15429848Y49278690D01*
X15458633Y49258459D01*
X15652860Y49141525D01*
X15684214Y49125550D01*
X15892982Y49037148D01*
X15926271Y49025750D01*
X15975503Y49012697D01*
X16006219Y49009106D01*
X16010000Y49023367D01*
X16010000Y49038407D01*
X17010000Y49038407D01*
X17014401Y49007796D01*
X17024752Y49007796D01*
X17029460Y49008871D01*
X17175950Y49055199D01*
X17208669Y49068154D01*
X17413041Y49166292D01*
X17443607Y49183727D01*
X17632105Y49309677D01*
X17659916Y49331249D01*
X17828791Y49482506D01*
X17853280Y49507777D01*
X17999151Y49681312D01*
X18019840Y49709788D01*
X18139808Y49902149D01*
X18156277Y49933255D01*
X18247939Y50140591D01*
X18259866Y50173720D01*
X18281564Y50250653D01*
X18285637Y50281306D01*
X18272540Y50285000D01*
X17045690Y50285000D01*
X17013954Y50280437D01*
X17010000Y50266970D01*
X17010000Y49038407D01*
X16010000Y49038407D01*
X16010000Y50249310D01*
X16005437Y50281046D01*
X15991970Y50285000D01*
X14762161Y50285000D01*
X14731550Y50280599D01*
X14731550Y50272234D01*
X12343564Y50272234D01*
X12343564Y50309542D01*
X12326263Y50529378D01*
X12320150Y50567971D01*
X12268672Y50782396D01*
X12256595Y50819563D01*
X12172208Y51023291D01*
X12145563Y51075585D01*
X12148451Y51077056D01*
X12105498Y51176683D01*
X12088289Y51317667D01*
X12111496Y51457788D01*
X12148165Y51538092D01*
X12146011Y51539190D01*
X12154910Y51556655D01*
X12165154Y51573372D01*
X12264573Y51813390D01*
X12300999Y51965115D01*
X12320643Y52046936D01*
X12320644Y52046940D01*
X12325221Y52066006D01*
X12345604Y52325000D01*
X12325221Y52583994D01*
X12320418Y52604002D01*
X12289937Y52730961D01*
X12264573Y52836610D01*
X12165154Y53076628D01*
X12154914Y53093339D01*
X12154911Y53093344D01*
X12039658Y53281420D01*
X12029412Y53298140D01*
X11956701Y53383274D01*
X14655688Y53383274D01*
X14656381Y53365638D01*
X14665227Y53140517D01*
X14665977Y53121418D01*
X14677497Y53058341D01*
X14706601Y52898982D01*
X14713058Y52863624D01*
X14718641Y52846890D01*
X14781107Y52659658D01*
X14795994Y52615035D01*
X14803876Y52599260D01*
X14803878Y52599256D01*
X14888077Y52430748D01*
X14913128Y52380613D01*
X14923164Y52366092D01*
X14941800Y52339127D01*
X15005103Y52211984D01*
X15030020Y52072156D01*
X15014535Y51930973D01*
X14962793Y51804787D01*
X14853267Y51616223D01*
X14837783Y51584618D01*
X14752673Y51374491D01*
X14741798Y51341020D01*
X14736486Y51319636D01*
X14733378Y51288869D01*
X14748952Y51285000D01*
X18259149Y51285000D01*
X18289760Y51289401D01*
X18289760Y51302535D01*
X18284975Y51319005D01*
X18206509Y51531696D01*
X18192025Y51563773D01*
X18084376Y51763283D01*
X18067312Y51790171D01*
X18009048Y51919700D01*
X17989637Y52060398D01*
X18010652Y52200865D01*
X18065223Y52321613D01*
X18092963Y52366092D01*
X18149586Y52456884D01*
X18226902Y52631769D01*
X18248410Y52680420D01*
X18248411Y52680422D01*
X18255547Y52696564D01*
X18277644Y52774911D01*
X18321893Y52931807D01*
X18321893Y52931808D01*
X18326681Y52948784D01*
X18361566Y53208509D01*
X18363822Y53280286D01*
X18364827Y53312266D01*
X18364827Y53312270D01*
X18365227Y53325000D01*
X18356586Y53447039D01*
X18347966Y53568797D01*
X18347965Y53568802D01*
X18346719Y53586404D01*
X18291563Y53842592D01*
X18200860Y54088453D01*
X18202751Y54089151D01*
X18169675Y54203613D01*
X18170284Y54345642D01*
X18210884Y54481746D01*
X18221669Y54503669D01*
X18293741Y54641530D01*
X18349766Y54836913D01*
X18360500Y54957184D01*
X18360500Y56772816D01*
X18349766Y56893087D01*
X18293741Y57088470D01*
X18199573Y57268596D01*
X18071109Y57426109D01*
X17913596Y57554573D01*
X17733470Y57648741D01*
X17538087Y57704766D01*
X17417816Y57715500D01*
X15602184Y57715500D01*
X15481913Y57704766D01*
X15286530Y57648741D01*
X15106404Y57554573D01*
X14948891Y57426109D01*
X14820427Y57268596D01*
X14726259Y57088470D01*
X14670234Y56893087D01*
X14659500Y56772816D01*
X14659500Y54957184D01*
X14670234Y54836913D01*
X14726259Y54641530D01*
X14737971Y54619127D01*
X14799819Y54500823D01*
X14847039Y54366872D01*
X14854607Y54225044D01*
X14820105Y54082305D01*
X14745574Y53898297D01*
X14682399Y53643968D01*
X14655688Y53383274D01*
X11956701Y53383274D01*
X11860689Y53495689D01*
X11663140Y53664412D01*
X11635420Y53681399D01*
X11458344Y53789911D01*
X11458339Y53789914D01*
X11441628Y53800154D01*
X11201610Y53899573D01*
X11075302Y53929897D01*
X10968064Y53955643D01*
X10968060Y53955644D01*
X10948994Y53960221D01*
X10690000Y53980604D01*
X10431006Y53960221D01*
X10411940Y53955644D01*
X10411936Y53955643D01*
X10304698Y53929897D01*
X10178390Y53899573D01*
X9938372Y53800154D01*
X9921661Y53789914D01*
X9921656Y53789911D01*
X9744580Y53681399D01*
X9716860Y53664412D01*
X9519311Y53495689D01*
X9350588Y53298140D01*
X9243547Y53123465D01*
X9152862Y53014162D01*
X9035051Y52934833D01*
X8899662Y52891908D01*
X8757664Y52888865D01*
X8701592Y52898982D01*
X8528064Y52940643D01*
X8528060Y52940644D01*
X8508994Y52945221D01*
X8250000Y52965604D01*
X7991006Y52945221D01*
X7971940Y52940644D01*
X7971936Y52940643D01*
X7872300Y52916722D01*
X7738390Y52884573D01*
X7720277Y52877070D01*
X7720276Y52877070D01*
X7687815Y52863624D01*
X7498372Y52785154D01*
X7481661Y52774914D01*
X7481656Y52774911D01*
X7327461Y52680420D01*
X7276860Y52649412D01*
X7079311Y52480689D01*
X6910588Y52283140D01*
X6900342Y52266420D01*
X6785089Y52078344D01*
X6785086Y52078339D01*
X6774846Y52061628D01*
X6675427Y51821610D01*
X6670849Y51802540D01*
X6626118Y51616223D01*
X6614779Y51568994D01*
X6594396Y51310000D01*
X6614779Y51051006D01*
X6619356Y51031940D01*
X6619357Y51031936D01*
X6631940Y50979525D01*
X6675427Y50798390D01*
X6730200Y50666158D01*
X6768638Y50573360D01*
X6803763Y50435742D01*
X6798694Y50293802D01*
X6753841Y50159040D01*
X6733090Y50121674D01*
X6685089Y50043344D01*
X6685086Y50043339D01*
X6674846Y50026628D01*
X6575427Y49786610D01*
X6556984Y49709788D01*
X6520484Y49557755D01*
X6514779Y49533994D01*
X6494396Y49275000D01*
X1000500Y49275000D01*
X1000500Y56762765D01*
X3668718Y56762765D01*
X3707524Y56468001D01*
X3712008Y56451611D01*
X3774916Y56221661D01*
X3785976Y56181231D01*
X3902621Y55907761D01*
X4055300Y55652651D01*
X4094213Y55604080D01*
X4230571Y55433877D01*
X4230575Y55433873D01*
X4241190Y55420623D01*
X4456849Y55215970D01*
X4470644Y55206057D01*
X4470648Y55206054D01*
X4490613Y55191708D01*
X4698288Y55042479D01*
X4713297Y55034532D01*
X4713302Y55034529D01*
X4859382Y54957184D01*
X4961038Y54903360D01*
X5240238Y54801187D01*
X5256827Y54797570D01*
X5256834Y54797568D01*
X5374282Y54771961D01*
X5530722Y54737851D01*
X5763898Y54719500D01*
X5924738Y54719500D01*
X5933184Y54720076D01*
X5933191Y54720076D01*
X6129669Y54733470D01*
X6129676Y54733471D01*
X6146619Y54734626D01*
X6179662Y54741469D01*
X6421117Y54791472D01*
X6421123Y54791474D01*
X6437750Y54794917D01*
X6718004Y54894160D01*
X6982197Y55030520D01*
X7225440Y55201474D01*
X7443230Y55403857D01*
X7631539Y55633926D01*
X7786882Y55887423D01*
X7801858Y55921538D01*
X7899559Y56144108D01*
X7899559Y56144109D01*
X7906384Y56159656D01*
X7915340Y56191094D01*
X7949964Y56312643D01*
X7987835Y56445589D01*
X7990598Y56464998D01*
X8027333Y56723114D01*
X8027333Y56723120D01*
X8029726Y56739931D01*
X8031282Y57037235D01*
X7992476Y57331999D01*
X7914024Y57618769D01*
X7797379Y57892239D01*
X7644700Y58147349D01*
X7514522Y58309837D01*
X7469429Y58366123D01*
X7469425Y58366127D01*
X7458810Y58379377D01*
X7262293Y58565865D01*
X7255474Y58572336D01*
X7255473Y58572337D01*
X7243151Y58584030D01*
X7229356Y58593943D01*
X7229352Y58593946D01*
X7015510Y58747606D01*
X7001712Y58757521D01*
X6986703Y58765468D01*
X6986698Y58765471D01*
X6753975Y58888691D01*
X6738962Y58896640D01*
X6459762Y58998813D01*
X6443173Y59002430D01*
X6443166Y59002432D01*
X6315414Y59030286D01*
X6169278Y59062149D01*
X5936102Y59080500D01*
X5775262Y59080500D01*
X5766816Y59079924D01*
X5766809Y59079924D01*
X5570331Y59066530D01*
X5570324Y59066529D01*
X5553381Y59065374D01*
X5536741Y59061928D01*
X5278883Y59008528D01*
X5278877Y59008526D01*
X5262250Y59005083D01*
X5246236Y58999412D01*
X5070769Y58937276D01*
X4981996Y58905840D01*
X4717803Y58769480D01*
X4474560Y58598526D01*
X4256770Y58396143D01*
X4068461Y58166074D01*
X4059590Y58151598D01*
X4059588Y58151595D01*
X4032724Y58107757D01*
X3913118Y57912577D01*
X3906295Y57897035D01*
X3906294Y57897032D01*
X3830030Y57723297D01*
X3793616Y57640344D01*
X3712165Y57354411D01*
X3709772Y57337599D01*
X3709771Y57337593D01*
X3677504Y57110873D01*
X3670274Y57060069D01*
X3668718Y56762765D01*
X1000500Y56762765D01*
X1000500Y65810500D01*
X1020713Y65951085D01*
X1079714Y66080280D01*
X1172724Y66187619D01*
X1292208Y66264406D01*
X1428485Y66304421D01*
X1499500Y66309500D01*
X82320500Y66309500D01*
X82461085Y66289287D01*
G37*
%TD.AperFunction*%
%TA.AperFunction,Conductor*%
G36*
X12802695Y10919287D02*
G01*
X12931890Y10860286D01*
X13014956Y10793346D01*
X17549370Y6258933D01*
X17552519Y6255544D01*
X17559126Y6246230D01*
X17611994Y6195620D01*
X17624225Y6183911D01*
X17631983Y6176320D01*
X17657098Y6151205D01*
X17665346Y6144394D01*
X17671576Y6138582D01*
X17714265Y6097716D01*
X17734219Y6084832D01*
X17748126Y6073849D01*
X17762815Y6063904D01*
X17781130Y6048779D01*
X17801979Y6037388D01*
X17823082Y6025858D01*
X17854503Y6007165D01*
X17874739Y5994099D01*
X17874742Y5994097D01*
X17894689Y5981218D01*
X17916711Y5972343D01*
X17932445Y5964187D01*
X17948753Y5957197D01*
X17969601Y5945807D01*
X18015151Y5931226D01*
X18049536Y5918813D01*
X18093889Y5900938D01*
X18092877Y5898428D01*
X18190335Y5853639D01*
X18297452Y5760373D01*
X18373953Y5640706D01*
X18413641Y5504334D01*
X18413302Y5362304D01*
X18372961Y5226123D01*
X18295888Y5106823D01*
X18188327Y5014070D01*
X18058991Y4955378D01*
X17919552Y4935500D01*
X10620735Y4935500D01*
X10480150Y4955713D01*
X10350955Y5014714D01*
X10243616Y5107724D01*
X10166829Y5227208D01*
X10126814Y5363485D01*
X10126814Y5505515D01*
X10166829Y5641792D01*
X10182019Y5669227D01*
X10181153Y5669680D01*
X10263563Y5827316D01*
X10282241Y5874015D01*
X10324726Y6022177D01*
X10333382Y6068657D01*
X10341011Y6154140D01*
X10342000Y6176333D01*
X10342000Y6449310D01*
X10337437Y6481046D01*
X10323970Y6485000D01*
X8579000Y6485000D01*
X8438415Y6505213D01*
X8309220Y6564214D01*
X8201881Y6657224D01*
X8125094Y6776708D01*
X8085079Y6912985D01*
X8080000Y6984000D01*
X8080000Y6986000D01*
X8100213Y7126585D01*
X8159214Y7255780D01*
X8252224Y7363119D01*
X8371708Y7439906D01*
X8507985Y7479921D01*
X8579000Y7485000D01*
X10306309Y7485000D01*
X10338045Y7489563D01*
X10341999Y7503030D01*
X10341999Y7793678D01*
X10341012Y7815840D01*
X10333382Y7901346D01*
X10324726Y7947823D01*
X10282241Y8095985D01*
X10263563Y8142684D01*
X10181153Y8300320D01*
X10183851Y8301731D01*
X10140051Y8394741D01*
X10118192Y8535079D01*
X10136757Y8675891D01*
X10162189Y8745874D01*
X10233250Y8903623D01*
X10233250Y8903624D01*
X10240852Y8920499D01*
X10288422Y9089169D01*
X10306933Y9154803D01*
X10306934Y9154809D01*
X10311960Y9172629D01*
X10345020Y9432499D01*
X10347442Y9525000D01*
X10343319Y9580489D01*
X10329400Y9767781D01*
X10328028Y9786245D01*
X10270213Y10041750D01*
X10185479Y10259643D01*
X10153365Y10397995D01*
X10161529Y10539791D01*
X10209311Y10673542D01*
X10292840Y10788414D01*
X10405349Y10875100D01*
X10537722Y10926577D01*
X10650551Y10939500D01*
X12662110Y10939500D01*
X12802695Y10919287D01*
G37*
%TD.AperFunction*%
%TA.AperFunction,Conductor*%
G36*
X44392112Y43304287D02*
G01*
X44521307Y43245286D01*
X44628646Y43152276D01*
X44705433Y43032792D01*
X44745448Y42896515D01*
X44745448Y42754485D01*
X44711705Y42632531D01*
X44674762Y42544431D01*
X44643893Y42470818D01*
X44616054Y42361203D01*
X44583968Y42234866D01*
X44583967Y42234859D01*
X44579409Y42216913D01*
X44553164Y41956266D01*
X44565732Y41694603D01*
X44616839Y41437672D01*
X44623094Y41420249D01*
X44623095Y41420247D01*
X44678684Y41265420D01*
X44705361Y41191117D01*
X44714126Y41174805D01*
X44714128Y41174800D01*
X44784935Y41043023D01*
X44829355Y40960354D01*
X44845652Y40938530D01*
X44850155Y40930260D01*
X44850381Y40929905D01*
X44850357Y40929889D01*
X44913568Y40813799D01*
X44943594Y40674979D01*
X44933294Y40533323D01*
X44883503Y40400307D01*
X44872425Y40381102D01*
X44755250Y40188004D01*
X44738483Y40155096D01*
X44651530Y39947739D01*
X44639809Y39912707D01*
X44584462Y39694778D01*
X44578047Y39658398D01*
X44555519Y39434678D01*
X44554553Y39397755D01*
X44565341Y39173163D01*
X44569843Y39136502D01*
X44613712Y38915957D01*
X44623576Y38880387D01*
X44699560Y38668752D01*
X44714586Y38635003D01*
X44754772Y38560214D01*
X44773139Y38535331D01*
X44783809Y38541064D01*
X44784869Y38541976D01*
X45967154Y39724261D01*
X46080855Y39809377D01*
X46213930Y39859011D01*
X46355598Y39869144D01*
X46494383Y39838953D01*
X46619040Y39770885D01*
X46672846Y39724261D01*
X47846562Y38550545D01*
X47871321Y38532010D01*
X47877257Y38537946D01*
X47880434Y38543796D01*
X47972777Y38748790D01*
X47985408Y38783494D01*
X48046442Y38999906D01*
X48053805Y39036096D01*
X48082940Y39265115D01*
X48084847Y39290035D01*
X48086613Y39357490D01*
X48086014Y39382479D01*
X48068905Y39612710D01*
X48063448Y39649224D01*
X48013819Y39868549D01*
X48003023Y39903860D01*
X47921526Y40113431D01*
X47905629Y40146761D01*
X47794041Y40341998D01*
X47779815Y40363089D01*
X47717959Y40490942D01*
X47694630Y40631043D01*
X47711717Y40772042D01*
X47773828Y40912067D01*
X47863239Y41051073D01*
X47863241Y41051077D01*
X47873258Y41066650D01*
X47929327Y41191117D01*
X47973250Y41288623D01*
X47973250Y41288624D01*
X47980852Y41305499D01*
X48018129Y41437672D01*
X48046933Y41539803D01*
X48046934Y41539809D01*
X48051960Y41557629D01*
X48055392Y41584602D01*
X48083438Y41805065D01*
X48085020Y41817499D01*
X48087442Y41910000D01*
X48086498Y41922710D01*
X48073449Y42098297D01*
X48068028Y42171245D01*
X48010213Y42426750D01*
X47925479Y42644643D01*
X47893365Y42782995D01*
X47901529Y42924791D01*
X47949311Y43058542D01*
X48032840Y43173414D01*
X48145349Y43260100D01*
X48277722Y43311577D01*
X48390551Y43324500D01*
X54479154Y43324500D01*
X54619739Y43304287D01*
X54748934Y43245286D01*
X54856273Y43152276D01*
X54933060Y43032792D01*
X54973075Y42896515D01*
X54973075Y42754485D01*
X54933060Y42618208D01*
X54856273Y42498724D01*
X54829218Y42469893D01*
X54772244Y42413807D01*
X54762878Y42402053D01*
X54762875Y42402050D01*
X54578956Y42171245D01*
X54565566Y42154442D01*
X54391545Y41872126D01*
X54379789Y41846625D01*
X54289422Y41650604D01*
X54252700Y41570949D01*
X54191930Y41382239D01*
X54167218Y41305499D01*
X54151043Y41255272D01*
X54148188Y41240513D01*
X54148187Y41240511D01*
X54090901Y40944422D01*
X54090900Y40944414D01*
X54088047Y40929668D01*
X54064624Y40598855D01*
X54065371Y40583849D01*
X54065371Y40583843D01*
X54074851Y40393434D01*
X54081114Y40267624D01*
X54083657Y40252824D01*
X54083658Y40252816D01*
X54114619Y40072634D01*
X54137277Y39940773D01*
X54141580Y39926386D01*
X54141581Y39926380D01*
X54180234Y39797135D01*
X54232300Y39623036D01*
X54238307Y39609254D01*
X54348039Y39357490D01*
X54364807Y39319017D01*
X54403317Y39253509D01*
X54479496Y39123926D01*
X54532879Y39033118D01*
X54734080Y38769482D01*
X54965496Y38531927D01*
X54977188Y38522509D01*
X54977193Y38522505D01*
X55212068Y38333322D01*
X55212074Y38333318D01*
X55223775Y38323893D01*
X55236525Y38315941D01*
X55236527Y38315940D01*
X55276217Y38291187D01*
X55505176Y38148396D01*
X55805623Y38007976D01*
X56120763Y37904668D01*
X56446032Y37839968D01*
X56461009Y37838829D01*
X56461014Y37838828D01*
X56634094Y37825662D01*
X56776718Y37814813D01*
X56791718Y37815481D01*
X56791720Y37815481D01*
X56855023Y37818300D01*
X57108031Y37829568D01*
X57122850Y37832035D01*
X57122854Y37832035D01*
X57420345Y37881551D01*
X57420347Y37881551D01*
X57435172Y37884019D01*
X57753401Y37977378D01*
X57983312Y38076155D01*
X58120459Y38113078D01*
X58262453Y38109867D01*
X58397790Y38066781D01*
X58515507Y37987312D01*
X58606066Y37877897D01*
X58662131Y37747401D01*
X58679160Y37606396D01*
X58655774Y37466304D01*
X58593866Y37338476D01*
X58533134Y37264832D01*
X56829956Y35561654D01*
X56716255Y35476538D01*
X56583180Y35426904D01*
X56477110Y35415500D01*
X40264227Y35415500D01*
X40123642Y35435713D01*
X39994447Y35494714D01*
X39887108Y35587724D01*
X39810321Y35707208D01*
X39770306Y35843485D01*
X39770306Y35985515D01*
X39807837Y36116266D01*
X39845547Y36201564D01*
X39868418Y36282655D01*
X39911893Y36436807D01*
X39911893Y36436808D01*
X39916681Y36453784D01*
X39951566Y36713509D01*
X39955227Y36830000D01*
X39949858Y36905831D01*
X39937966Y37073797D01*
X39937965Y37073802D01*
X39936719Y37091404D01*
X39881563Y37347592D01*
X39790860Y37593453D01*
X39667519Y37822043D01*
X45485374Y37822043D01*
X45493160Y37814257D01*
X45496152Y37812367D01*
X45599045Y37758232D01*
X45632919Y37743503D01*
X45845198Y37669372D01*
X45880872Y37659813D01*
X46101785Y37617871D01*
X46138483Y37613690D01*
X46363162Y37604862D01*
X46400070Y37606151D01*
X46623587Y37630631D01*
X46659914Y37637364D01*
X46877355Y37694610D01*
X46912266Y37706630D01*
X47118881Y37795399D01*
X47138716Y37805725D01*
X47156617Y37820710D01*
X47147582Y37835311D01*
X46345238Y38637655D01*
X46319569Y38656871D01*
X46307251Y38650144D01*
X45503909Y37846802D01*
X45485374Y37822043D01*
X39667519Y37822043D01*
X39666420Y37824080D01*
X39657179Y37836592D01*
X39599342Y37965174D01*
X39579931Y38105871D01*
X39600946Y38246338D01*
X39655514Y38367079D01*
X39739586Y38501884D01*
X39765373Y38560214D01*
X39838410Y38725420D01*
X39838411Y38725422D01*
X39845547Y38741564D01*
X39876299Y38850599D01*
X39911893Y38976807D01*
X39911893Y38976808D01*
X39916681Y38993784D01*
X39951566Y39253509D01*
X39955227Y39370000D01*
X39943995Y39528638D01*
X39937966Y39613797D01*
X39937965Y39613802D01*
X39936719Y39631404D01*
X39881563Y39887592D01*
X39790860Y40133453D01*
X39666420Y40364080D01*
X39657179Y40376592D01*
X39599342Y40505174D01*
X39579931Y40645871D01*
X39600946Y40786338D01*
X39655514Y40907079D01*
X39739586Y41041884D01*
X39761911Y41092383D01*
X39838410Y41265420D01*
X39838413Y41265427D01*
X39845547Y41281564D01*
X39852298Y41305499D01*
X39911893Y41516807D01*
X39911893Y41516808D01*
X39916681Y41533784D01*
X39937854Y41691418D01*
X39949871Y41780888D01*
X39949871Y41780892D01*
X39951566Y41793509D01*
X39954318Y41881067D01*
X39954827Y41897266D01*
X39954827Y41897270D01*
X39955227Y41910000D01*
X39944441Y42062336D01*
X39937966Y42153797D01*
X39937965Y42153802D01*
X39936719Y42171404D01*
X39881563Y42427592D01*
X39798484Y42652788D01*
X39768789Y42791679D01*
X39779426Y42933310D01*
X39829536Y43066207D01*
X39915056Y43179603D01*
X40029060Y43264313D01*
X40162312Y43313472D01*
X40266641Y43324500D01*
X44251527Y43324500D01*
X44392112Y43304287D01*
G37*
%TD.AperFunction*%
%TD*%
M02*
