M48
; DRILL file {KiCad (6.0.4)} date Wed Nov  2 21:23:20 2022
; FORMAT={-:-/ absolute / metric / decimal}
; #@! TF.CreationDate,2022-11-02T21:23:20+07:00
; #@! TF.GenerationSoftware,Kicad,Pcbnew,(6.0.4)
; #@! TF.FileFunction,Plated,1,2,PTH
FMAT,2
METRIC
; #@! TA.AperFunction,Plated,PTH,ComponentDrill
T1C0.762
; #@! TA.AperFunction,Plated,PTH,ComponentDrill
T2C0.800
; #@! TA.AperFunction,Plated,PTH,ComponentDrill
T3C0.890
; #@! TA.AperFunction,Plated,PTH,ComponentDrill
T4C1.000
; #@! TA.AperFunction,Plated,PTH,ComponentDrill
T5C1.100
%
G90
G05
T1
X8.58Y19.685
X8.58Y17.145
X8.58Y14.605
X8.58Y12.065
X8.58Y9.525
X8.58Y6.985
X46.32Y52.07
X46.32Y49.53
X46.32Y46.99
X46.32Y44.45
X46.32Y41.91
X46.32Y39.37
X68.55Y18.415
X68.55Y15.875
X68.55Y13.335
X68.55Y10.795
X71.09Y18.415
X71.09Y15.875
X71.09Y13.335
X71.09Y10.795
X74.81Y52.07
X74.81Y49.53
X74.81Y46.99
X74.81Y44.45
X74.81Y41.91
X74.81Y39.37
T2
X16.51Y26.67
X16.51Y16.51
X55.88Y29.21
X66.04Y29.21
T3
X8.15Y49.275
X8.15Y32.765
X8.25Y51.31
X8.25Y34.8
X10.69Y52.325
X10.69Y50.29
X10.69Y35.815
X10.69Y33.78
T4
X16.51Y55.865
X16.51Y53.325
X16.51Y50.785
X16.51Y44.435
X16.51Y41.895
X16.51Y39.355
X16.51Y33.02
X16.51Y30.48
X22.86Y59.69
X22.86Y57.15
X22.86Y54.61
X22.86Y52.07
X22.86Y49.53
X22.86Y46.99
X22.86Y44.45
X22.86Y41.91
X22.86Y39.37
X22.86Y36.83
X22.86Y34.29
X22.86Y31.75
X22.86Y29.21
X22.86Y26.67
X22.86Y24.13
X22.86Y21.59
X22.86Y19.05
X22.86Y16.51
X22.86Y13.97
X22.86Y11.43
X38.1Y59.69
X38.1Y57.15
X38.1Y54.61
X38.1Y52.07
X38.1Y49.53
X38.1Y46.99
X38.1Y44.45
X38.1Y41.91
X38.1Y39.37
X38.1Y36.83
X38.1Y34.29
X38.1Y31.75
X38.1Y29.21
X38.1Y26.67
X38.1Y24.13
X38.1Y21.59
X38.1Y19.05
X38.1Y16.51
X38.1Y13.97
X38.1Y11.43
X46.355Y29.225
X46.355Y26.685
X46.355Y24.145
X46.99Y60.96
X49.53Y60.96
X52.07Y60.96
X59.69Y60.96
X62.23Y60.96
X64.77Y60.96
X80.01Y15.86
X80.01Y13.32
X80.01Y10.78
T5
X72.39Y61.595
X72.39Y31.75
X72.39Y29.21
X72.39Y26.67
X74.93Y61.595
T0
M30
