%TF.GenerationSoftware,KiCad,Pcbnew,(6.0.4)*%
%TF.CreationDate,2022-11-02T21:24:09+07:00*%
%TF.ProjectId,01-Beta-PCB-From-Breadboard,30312d42-6574-4612-9d50-43422d46726f,rev?*%
%TF.SameCoordinates,PX68768dcPY7f2c270*%
%TF.FileFunction,Soldermask,Bot*%
%TF.FilePolarity,Negative*%
%FSLAX46Y46*%
G04 Gerber Fmt 4.6, Leading zero omitted, Abs format (unit mm)*
G04 Created by KiCad (PCBNEW (6.0.4)) date 2022-11-02 21:24:09*
%MOMM*%
%LPD*%
G01*
G04 APERTURE LIST*
%ADD10C,1.300000*%
%ADD11C,2.360000*%
%ADD12C,1.524000*%
%ADD13R,1.524000X1.524000*%
%ADD14R,1.700000X1.700000*%
%ADD15O,1.700000X1.700000*%
%ADD16C,1.700000*%
%ADD17C,3.500000*%
%ADD18O,1.600000X1.600000*%
%ADD19C,1.600000*%
%ADD20C,2.100000*%
%ADD21R,2.100000X2.100000*%
G04 APERTURE END LIST*
D10*
%TO.C,J8*%
X8150000Y49275000D03*
X8250000Y51310000D03*
X10690000Y50290000D03*
X10690000Y52325000D03*
D11*
X5850000Y44700000D03*
X5850000Y56900000D03*
%TD*%
D12*
%TO.C,U5*%
X8580000Y19685000D03*
X8580000Y17145000D03*
X8580000Y14605000D03*
X8580000Y12065000D03*
X8580000Y9525000D03*
D13*
X8580000Y6985000D03*
%TD*%
D12*
%TO.C,U4*%
X68550000Y18415000D03*
X71090000Y18415000D03*
X68550000Y15875000D03*
X71090000Y15875000D03*
X68550000Y13335000D03*
X71090000Y13335000D03*
X68550000Y10795000D03*
D13*
X71090000Y10795000D03*
%TD*%
D14*
%TO.C,J4*%
X46355000Y24145000D03*
D15*
X46355000Y26685000D03*
X46355000Y29225000D03*
%TD*%
D16*
%TO.C,U1*%
X38100000Y59690000D03*
X22860000Y59690000D03*
X38100000Y57150000D03*
X22860000Y57150000D03*
X38100000Y54610000D03*
X22860000Y54610000D03*
X38100000Y52070000D03*
X22860000Y52070000D03*
X38100000Y49530000D03*
X22860000Y49530000D03*
X38100000Y46990000D03*
X22860000Y46990000D03*
X38100000Y44450000D03*
X22860000Y44450000D03*
X38100000Y41910000D03*
X22860000Y41910000D03*
X38100000Y39370000D03*
X22860000Y39370000D03*
X38100000Y36830000D03*
X22860000Y36830000D03*
X38100000Y34290000D03*
X22860000Y34290000D03*
X38100000Y31750000D03*
X22860000Y31750000D03*
X38100000Y29210000D03*
X22860000Y29210000D03*
X38100000Y26670000D03*
X22860000Y26670000D03*
X38100000Y24130000D03*
X22860000Y24130000D03*
X38100000Y21590000D03*
X22860000Y21590000D03*
X38100000Y19050000D03*
X22860000Y19050000D03*
X38100000Y16510000D03*
X22860000Y16510000D03*
X38100000Y13970000D03*
X22860000Y13970000D03*
D14*
X38100000Y11430000D03*
D16*
X22860000Y11430000D03*
%TD*%
D12*
%TO.C,U3*%
X46320000Y39370000D03*
X46320000Y44450000D03*
X46320000Y46990000D03*
X46320000Y49530000D03*
X46320000Y41910000D03*
X46320000Y52070000D03*
D17*
X56820000Y50870000D03*
X56820000Y40570000D03*
%TD*%
D12*
%TO.C,U2*%
X74810000Y41910000D03*
D13*
X74810000Y39370000D03*
D12*
X74810000Y52070000D03*
X74810000Y49530000D03*
X74810000Y46990000D03*
X74810000Y44450000D03*
%TD*%
D18*
%TO.C,R2*%
X66040000Y29210000D03*
D19*
X55880000Y29210000D03*
%TD*%
D18*
%TO.C,R1*%
X16510000Y16510000D03*
D19*
X16510000Y26670000D03*
%TD*%
D20*
%TO.C,J10*%
X72390000Y31750000D03*
X72390000Y29210000D03*
D21*
X72390000Y26670000D03*
%TD*%
D15*
%TO.C,J9*%
X16510000Y50785000D03*
X16510000Y53325000D03*
D14*
X16510000Y55865000D03*
%TD*%
D15*
%TO.C,J7*%
X16510000Y39355000D03*
X16510000Y41895000D03*
D14*
X16510000Y44435000D03*
%TD*%
D15*
%TO.C,J6*%
X16510000Y30480000D03*
D14*
X16510000Y33020000D03*
%TD*%
D10*
%TO.C,J5*%
X8150000Y32765000D03*
X8250000Y34800000D03*
X10690000Y33780000D03*
X10690000Y35815000D03*
D11*
X5850000Y28190000D03*
X5850000Y40390000D03*
%TD*%
D15*
%TO.C,J3*%
X80010000Y10780000D03*
X80010000Y13320000D03*
D14*
X80010000Y15860000D03*
%TD*%
D15*
%TO.C,J2*%
X64770000Y60960000D03*
X62230000Y60960000D03*
D14*
X59690000Y60960000D03*
%TD*%
D15*
%TO.C,J1*%
X52070000Y60960000D03*
X49530000Y60960000D03*
D14*
X46990000Y60960000D03*
%TD*%
D20*
%TO.C,J0*%
X72390000Y61595000D03*
D21*
X74930000Y61595000D03*
%TD*%
M02*
