%TF.GenerationSoftware,KiCad,Pcbnew,(6.0.4)*%
%TF.CreationDate,2022-11-02T21:24:09+07:00*%
%TF.ProjectId,01-Beta-PCB-From-Breadboard,30312d42-6574-4612-9d50-43422d46726f,rev?*%
%TF.SameCoordinates,PX68768dcPY7f2c270*%
%TF.FileFunction,Soldermask,Top*%
%TF.FilePolarity,Negative*%
%FSLAX46Y46*%
G04 Gerber Fmt 4.6, Leading zero omitted, Abs format (unit mm)*
G04 Created by KiCad (PCBNEW (6.0.4)) date 2022-11-02 21:24:09*
%MOMM*%
%LPD*%
G01*
G04 APERTURE LIST*
%ADD10C,0.120000*%
%ADD11C,1.300000*%
%ADD12C,2.360000*%
%ADD13C,1.524000*%
%ADD14R,1.524000X1.524000*%
%ADD15R,1.700000X1.700000*%
%ADD16O,1.700000X1.700000*%
%ADD17C,1.700000*%
%ADD18C,3.500000*%
%ADD19O,1.600000X1.600000*%
%ADD20C,1.600000*%
%ADD21C,2.100000*%
%ADD22R,2.100000X2.100000*%
G04 APERTURE END LIST*
D10*
%TO.C,J8*%
X7030000Y44700000D02*
G75*
G03*
X7030000Y44700000I-1180000J0D01*
G01*
X7030000Y56900000D02*
G75*
G03*
X7030000Y56900000I-1180000J0D01*
G01*
X12850000Y56900000D02*
X-150000Y56900000D01*
X-150000Y56900000D02*
X-150000Y44700000D01*
X-150000Y44700000D02*
X12850000Y44700000D01*
X12850000Y44700000D02*
X12850000Y56900000D01*
%TO.C,U4*%
X49560000Y5505000D02*
X72360000Y5505000D01*
X72360000Y5505000D02*
X72360000Y23705000D01*
X72360000Y23705000D02*
X49560000Y23705000D01*
X49560000Y23705000D02*
X49560000Y5505000D01*
%TO.C,U3*%
X44320000Y53870000D02*
X59820000Y53870000D01*
X59820000Y53870000D02*
X59820000Y37570000D01*
X59820000Y37570000D02*
X44320000Y37570000D01*
X44320000Y37570000D02*
X44320000Y53870000D01*
%TO.C,U2*%
X73540000Y38100000D02*
X76080000Y38100000D01*
X76080000Y38100000D02*
X76080000Y40640000D01*
X76080000Y40640000D02*
X73540000Y40640000D01*
X73540000Y40640000D02*
X73540000Y38100000D01*
X61080000Y34970000D02*
X76080000Y34970000D01*
X76080000Y34970000D02*
X76080000Y56470000D01*
X76080000Y56470000D02*
X61080000Y56470000D01*
X61080000Y56470000D02*
X61080000Y34970000D01*
X76080000Y38100000D02*
X73540000Y38100000D01*
X73540000Y38100000D02*
X73540000Y53340000D01*
X73540000Y53340000D02*
X76080000Y53340000D01*
X76080000Y53340000D02*
X76080000Y38100000D01*
%TO.C,J5*%
X7030000Y28190000D02*
G75*
G03*
X7030000Y28190000I-1180000J0D01*
G01*
X7030000Y40390000D02*
G75*
G03*
X7030000Y40390000I-1180000J0D01*
G01*
X12850000Y40390000D02*
X-150000Y40390000D01*
X-150000Y40390000D02*
X-150000Y28190000D01*
X-150000Y28190000D02*
X12850000Y28190000D01*
X12850000Y28190000D02*
X12850000Y40390000D01*
%TD*%
D11*
%TO.C,J8*%
X8150000Y49275000D03*
X8250000Y51310000D03*
X10690000Y50290000D03*
X10690000Y52325000D03*
D12*
X5850000Y44700000D03*
X5850000Y56900000D03*
%TD*%
D13*
%TO.C,U5*%
X8580000Y19685000D03*
X8580000Y17145000D03*
X8580000Y14605000D03*
X8580000Y12065000D03*
X8580000Y9525000D03*
D14*
X8580000Y6985000D03*
%TD*%
D13*
%TO.C,U4*%
X68550000Y18415000D03*
X71090000Y18415000D03*
X68550000Y15875000D03*
X71090000Y15875000D03*
X68550000Y13335000D03*
X71090000Y13335000D03*
X68550000Y10795000D03*
D14*
X71090000Y10795000D03*
%TD*%
D15*
%TO.C,J4*%
X46355000Y24145000D03*
D16*
X46355000Y26685000D03*
X46355000Y29225000D03*
%TD*%
D17*
%TO.C,U1*%
X38100000Y59690000D03*
X22860000Y59690000D03*
X38100000Y57150000D03*
X22860000Y57150000D03*
X38100000Y54610000D03*
X22860000Y54610000D03*
X38100000Y52070000D03*
X22860000Y52070000D03*
X38100000Y49530000D03*
X22860000Y49530000D03*
X38100000Y46990000D03*
X22860000Y46990000D03*
X38100000Y44450000D03*
X22860000Y44450000D03*
X38100000Y41910000D03*
X22860000Y41910000D03*
X38100000Y39370000D03*
X22860000Y39370000D03*
X38100000Y36830000D03*
X22860000Y36830000D03*
X38100000Y34290000D03*
X22860000Y34290000D03*
X38100000Y31750000D03*
X22860000Y31750000D03*
X38100000Y29210000D03*
X22860000Y29210000D03*
X38100000Y26670000D03*
X22860000Y26670000D03*
X38100000Y24130000D03*
X22860000Y24130000D03*
X38100000Y21590000D03*
X22860000Y21590000D03*
X38100000Y19050000D03*
X22860000Y19050000D03*
X38100000Y16510000D03*
X22860000Y16510000D03*
X38100000Y13970000D03*
X22860000Y13970000D03*
D15*
X38100000Y11430000D03*
D17*
X22860000Y11430000D03*
%TD*%
D13*
%TO.C,U3*%
X46320000Y39370000D03*
X46320000Y44450000D03*
X46320000Y46990000D03*
X46320000Y49530000D03*
X46320000Y41910000D03*
X46320000Y52070000D03*
D18*
X56820000Y50870000D03*
X56820000Y40570000D03*
%TD*%
D13*
%TO.C,U2*%
X74810000Y41910000D03*
D14*
X74810000Y39370000D03*
D13*
X74810000Y52070000D03*
X74810000Y49530000D03*
X74810000Y46990000D03*
X74810000Y44450000D03*
%TD*%
D19*
%TO.C,R2*%
X66040000Y29210000D03*
D20*
X55880000Y29210000D03*
%TD*%
D19*
%TO.C,R1*%
X16510000Y16510000D03*
D20*
X16510000Y26670000D03*
%TD*%
D21*
%TO.C,J10*%
X72390000Y31750000D03*
X72390000Y29210000D03*
D22*
X72390000Y26670000D03*
%TD*%
D16*
%TO.C,J9*%
X16510000Y50785000D03*
X16510000Y53325000D03*
D15*
X16510000Y55865000D03*
%TD*%
D16*
%TO.C,J7*%
X16510000Y39355000D03*
X16510000Y41895000D03*
D15*
X16510000Y44435000D03*
%TD*%
D16*
%TO.C,J6*%
X16510000Y30480000D03*
D15*
X16510000Y33020000D03*
%TD*%
D11*
%TO.C,J5*%
X8150000Y32765000D03*
X8250000Y34800000D03*
X10690000Y33780000D03*
X10690000Y35815000D03*
D12*
X5850000Y28190000D03*
X5850000Y40390000D03*
%TD*%
D16*
%TO.C,J3*%
X80010000Y10780000D03*
X80010000Y13320000D03*
D15*
X80010000Y15860000D03*
%TD*%
D16*
%TO.C,J2*%
X64770000Y60960000D03*
X62230000Y60960000D03*
D15*
X59690000Y60960000D03*
%TD*%
D16*
%TO.C,J1*%
X52070000Y60960000D03*
X49530000Y60960000D03*
D15*
X46990000Y60960000D03*
%TD*%
D21*
%TO.C,J0*%
X72390000Y61595000D03*
D22*
X74930000Y61595000D03*
%TD*%
M02*
