%TF.GenerationSoftware,KiCad,Pcbnew,(6.0.4)*%
%TF.CreationDate,2022-11-02T21:24:09+07:00*%
%TF.ProjectId,01-Beta-PCB-From-Breadboard,30312d42-6574-4612-9d50-43422d46726f,rev?*%
%TF.SameCoordinates,PX68768dcPY7f2c270*%
%TF.FileFunction,Copper,L1,Top*%
%TF.FilePolarity,Positive*%
%FSLAX46Y46*%
G04 Gerber Fmt 4.6, Leading zero omitted, Abs format (unit mm)*
G04 Created by KiCad (PCBNEW (6.0.4)) date 2022-11-02 21:24:09*
%MOMM*%
%LPD*%
G01*
G04 APERTURE LIST*
%TA.AperFunction,ComponentPad*%
%ADD10C,1.300000*%
%TD*%
%TA.AperFunction,ComponentPad*%
%ADD11C,1.524000*%
%TD*%
%TA.AperFunction,ComponentPad*%
%ADD12R,1.524000X1.524000*%
%TD*%
%TA.AperFunction,ComponentPad*%
%ADD13R,1.700000X1.700000*%
%TD*%
%TA.AperFunction,ComponentPad*%
%ADD14O,1.700000X1.700000*%
%TD*%
%TA.AperFunction,ComponentPad*%
%ADD15C,1.700000*%
%TD*%
%TA.AperFunction,WasherPad*%
%ADD16C,3.500000*%
%TD*%
%TA.AperFunction,ComponentPad*%
%ADD17O,1.600000X1.600000*%
%TD*%
%TA.AperFunction,ComponentPad*%
%ADD18C,1.600000*%
%TD*%
%TA.AperFunction,ComponentPad*%
%ADD19C,2.100000*%
%TD*%
%TA.AperFunction,ComponentPad*%
%ADD20R,2.100000X2.100000*%
%TD*%
%TA.AperFunction,Conductor*%
%ADD21C,0.500000*%
%TD*%
%TA.AperFunction,Conductor*%
%ADD22C,0.250000*%
%TD*%
G04 APERTURE END LIST*
D10*
%TO.P,J8,4*%
%TO.N,unconnected-(J8-Pad4)*%
X8150000Y49275000D03*
%TO.P,J8,3*%
%TO.N,Rain Gauge*%
X8250000Y51310000D03*
%TO.P,J8,2*%
%TO.N,GND*%
X10690000Y50290000D03*
%TO.P,J8,1*%
%TO.N,unconnected-(J8-Pad1)*%
X10690000Y52325000D03*
%TD*%
D11*
%TO.P,U5,6,CS*%
%TO.N,TF_NCSS*%
X8580000Y19685000D03*
%TO.P,U5,5,SCK*%
%TO.N,SPI1_SCK*%
X8580000Y17145000D03*
%TO.P,U5,4,MOSI*%
%TO.N,SPI1_MOSI*%
X8580000Y14605000D03*
%TO.P,U5,3,MISO*%
%TO.N,SPI1_MISO*%
X8580000Y12065000D03*
%TO.P,U5,2,VCC*%
%TO.N,+3V3*%
X8580000Y9525000D03*
D12*
%TO.P,U5,1,GND*%
%TO.N,GND*%
X8580000Y6985000D03*
%TD*%
D11*
%TO.P,U4,8,DIO0*%
%TO.N,LoRa_DIO0*%
X68550000Y18415000D03*
%TO.P,U4,7,MISO*%
%TO.N,LoRa_MISO*%
X71090000Y18415000D03*
%TO.P,U4,6,MOSI*%
%TO.N,LoRa_MOSI*%
X68550000Y15875000D03*
%TO.P,U4,5,SCLK*%
%TO.N,LoRa_SCLK*%
X71090000Y15875000D03*
%TO.P,U4,4,NCSS*%
%TO.N,LoRa_NCSS*%
X68550000Y13335000D03*
%TO.P,U4,3,RST*%
%TO.N,LoRa_Reset*%
X71090000Y13335000D03*
%TO.P,U4,2,VCC*%
%TO.N,+3.3VP*%
X68550000Y10795000D03*
D12*
%TO.P,U4,1,GND*%
%TO.N,GND*%
X71090000Y10795000D03*
%TD*%
D13*
%TO.P,J4,1,Pin_1*%
%TO.N,UART_TX*%
X46355000Y24145000D03*
D14*
%TO.P,J4,2,Pin_2*%
%TO.N,UART_RX*%
X46355000Y26685000D03*
%TO.P,J4,3,Pin_3*%
%TO.N,GND*%
X46355000Y29225000D03*
%TD*%
D15*
%TO.P,U1,20,3V3*%
%TO.N,unconnected-(U1-Pad20)*%
X38100000Y59690000D03*
%TO.P,U1,21,VBat*%
%TO.N,unconnected-(U1-Pad21)*%
X22860000Y59690000D03*
%TO.P,U1,19,GND*%
%TO.N,GND*%
X38100000Y57150000D03*
%TO.P,U1,22,PC13*%
%TO.N,unconnected-(U1-Pad22)*%
X22860000Y57150000D03*
%TO.P,U1,18,5V*%
%TO.N,+5V*%
X38100000Y54610000D03*
%TO.P,U1,23,PC14*%
%TO.N,unconnected-(U1-Pad23)*%
X22860000Y54610000D03*
%TO.P,U1,17,PB9*%
%TO.N,unconnected-(U1-Pad17)*%
X38100000Y52070000D03*
%TO.P,U1,24,PC15*%
%TO.N,unconnected-(U1-Pad24)*%
X22860000Y52070000D03*
%TO.P,U1,16,PB8*%
%TO.N,unconnected-(U1-Pad16)*%
X38100000Y49530000D03*
%TO.P,U1,25,PA0*%
%TO.N,unconnected-(U1-Pad25)*%
X22860000Y49530000D03*
%TO.P,U1,15,PB7*%
%TO.N,SDA*%
X38100000Y46990000D03*
%TO.P,U1,26,PA1*%
%TO.N,Rain Gauge*%
X22860000Y46990000D03*
%TO.P,U1,14,PB6*%
%TO.N,SCL*%
X38100000Y44450000D03*
%TO.P,U1,27,PA2*%
%TO.N,unconnected-(U1-Pad27)*%
X22860000Y44450000D03*
%TO.P,U1,13,PB5*%
%TO.N,unconnected-(U1-Pad13)*%
X38100000Y41910000D03*
%TO.P,U1,28,PA3*%
%TO.N,Anemometer*%
X22860000Y41910000D03*
%TO.P,U1,12,PB4*%
%TO.N,unconnected-(U1-Pad12)*%
X38100000Y39370000D03*
%TO.P,U1,29,PA4*%
%TO.N,TF_NCSS*%
X22860000Y39370000D03*
%TO.P,U1,11,PB3*%
%TO.N,DS18B20*%
X38100000Y36830000D03*
%TO.P,U1,30,PA5*%
%TO.N,SPI1_SCK*%
X22860000Y36830000D03*
%TO.P,U1,10,PA15*%
%TO.N,RTC_Alarm*%
X38100000Y34290000D03*
%TO.P,U1,31,PA6*%
%TO.N,SPI1_MISO*%
X22860000Y34290000D03*
%TO.P,U1,9,PA12*%
%TO.N,unconnected-(U1-Pad9)*%
X38100000Y31750000D03*
%TO.P,U1,32,PA7*%
%TO.N,SPI1_MOSI*%
X22860000Y31750000D03*
%TO.P,U1,8,PA11*%
%TO.N,LoRa_DIO0*%
X38100000Y29210000D03*
%TO.P,U1,33,PB0*%
%TO.N,unconnected-(U1-Pad33)*%
X22860000Y29210000D03*
%TO.P,U1,7,PA10*%
%TO.N,UART_RX*%
X38100000Y26670000D03*
%TO.P,U1,34,PB1*%
%TO.N,Wind_Vane*%
X22860000Y26670000D03*
%TO.P,U1,6,PA9*%
%TO.N,UART_TX*%
X38100000Y24130000D03*
%TO.P,U1,35,PB10*%
%TO.N,unconnected-(U1-Pad35)*%
X22860000Y24130000D03*
%TO.P,U1,5,PA8*%
%TO.N,LoRa_Reset*%
X38100000Y21590000D03*
%TO.P,U1,36,PB11*%
%TO.N,unconnected-(U1-Pad36)*%
X22860000Y21590000D03*
%TO.P,U1,4,PB15*%
%TO.N,LoRa_MOSI*%
X38100000Y19050000D03*
%TO.P,U1,37,RST*%
%TO.N,unconnected-(U1-Pad37)*%
X22860000Y19050000D03*
%TO.P,U1,3,PB14*%
%TO.N,LoRa_MISO*%
X38100000Y16510000D03*
%TO.P,U1,38,3V3*%
%TO.N,+3.3VA*%
X22860000Y16510000D03*
%TO.P,U1,2,PB13*%
%TO.N,LoRa_SCLK*%
X38100000Y13970000D03*
%TO.P,U1,39,GND*%
%TO.N,GND*%
X22860000Y13970000D03*
D13*
%TO.P,U1,1,PB12*%
%TO.N,LoRa_NCSS*%
X38100000Y11430000D03*
D15*
%TO.P,U1,40,GND*%
%TO.N,GND*%
X22860000Y11430000D03*
%TD*%
D11*
%TO.P,U3,5,ADDR*%
%TO.N,GND*%
X46320000Y39370000D03*
%TO.P,U3,4,SCL*%
%TO.N,SCL*%
X46320000Y44450000D03*
%TO.P,U3,3,SDA*%
%TO.N,SDA*%
X46320000Y46990000D03*
%TO.P,U3,2,GND*%
%TO.N,GND*%
X46320000Y49530000D03*
%TO.P,U3,1,VCC*%
%TO.N,+3V3*%
X46320000Y41910000D03*
X46320000Y52070000D03*
D16*
%TO.P,U3,*%
%TO.N,*%
X56820000Y50870000D03*
X56820000Y40570000D03*
%TD*%
D11*
%TO.P,U2,6,SQW*%
%TO.N,RTC_Alarm*%
X74810000Y41910000D03*
D12*
%TO.P,U2,5,32K*%
%TO.N,unconnected-(U2-Pad5)*%
X74810000Y39370000D03*
D11*
%TO.P,U2,4,GND*%
%TO.N,GND*%
X74810000Y52070000D03*
%TO.P,U2,3,VCC*%
%TO.N,+3V3*%
X74810000Y49530000D03*
%TO.P,U2,2,SDA*%
%TO.N,SDA*%
X74810000Y46990000D03*
%TO.P,U2,1,SCL*%
%TO.N,SCL*%
X74810000Y44450000D03*
%TD*%
D17*
%TO.P,R2,2*%
%TO.N,DS18B20*%
X66040000Y29210000D03*
D18*
%TO.P,R2,1*%
%TO.N,+3V3*%
X55880000Y29210000D03*
%TD*%
D17*
%TO.P,R1,2*%
%TO.N,+3.3VA*%
X16510000Y16510000D03*
D18*
%TO.P,R1,1*%
%TO.N,Wind_Vane_SensorSide*%
X16510000Y26670000D03*
%TD*%
D19*
%TO.P,J10,3,Pin_3*%
%TO.N,+3V3*%
X72390000Y31750000D03*
%TO.P,J10,2,Pin_2*%
%TO.N,DS18B20*%
X72390000Y29210000D03*
D20*
%TO.P,J10,1,Pin_1*%
%TO.N,GND*%
X72390000Y26670000D03*
%TD*%
D14*
%TO.P,J9,3,Pin_3*%
%TO.N,GND*%
X16510000Y50785000D03*
%TO.P,J9,2,Pin_2*%
%TO.N,Rain Gauge*%
X16510000Y53325000D03*
D13*
%TO.P,J9,1,Pin_1*%
%TO.N,+3V3*%
X16510000Y55865000D03*
%TD*%
D14*
%TO.P,J7,3,Pin_3*%
%TO.N,GND*%
X16510000Y39355000D03*
%TO.P,J7,2,Pin_2*%
%TO.N,Anemometer*%
X16510000Y41895000D03*
D13*
%TO.P,J7,1,Pin_1*%
%TO.N,+3V3*%
X16510000Y44435000D03*
%TD*%
D14*
%TO.P,J6,2,Pin_2*%
%TO.N,Wind_Vane*%
X16510000Y30480000D03*
D13*
%TO.P,J6,1,Pin_1*%
%TO.N,Wind_Vane_SensorSide*%
X16510000Y33020000D03*
%TD*%
D10*
%TO.P,J5,4*%
%TO.N,Wind_Vane_SensorSide*%
X8150000Y32765000D03*
%TO.P,J5,3*%
%TO.N,Anemometer*%
X8250000Y34800000D03*
%TO.P,J5,2*%
%TO.N,GND*%
X10690000Y33780000D03*
%TO.P,J5,1*%
X10690000Y35815000D03*
%TD*%
D14*
%TO.P,J3,3,Pin_3*%
%TO.N,GND*%
X80010000Y10780000D03*
%TO.P,J3,2,Pin_2*%
%TO.N,+3.3VP*%
X80010000Y13320000D03*
D13*
%TO.P,J3,1,Pin_1*%
%TO.N,VDD*%
X80010000Y15860000D03*
%TD*%
D14*
%TO.P,J2,3,Pin_3*%
%TO.N,GND*%
X64770000Y60960000D03*
%TO.P,J2,2,Pin_2*%
%TO.N,+3V3*%
X62230000Y60960000D03*
D13*
%TO.P,J2,1,Pin_1*%
%TO.N,VDD*%
X59690000Y60960000D03*
%TD*%
D14*
%TO.P,J1,3,Pin_3*%
%TO.N,GND*%
X52070000Y60960000D03*
%TO.P,J1,2,Pin_2*%
%TO.N,+5V*%
X49530000Y60960000D03*
D13*
%TO.P,J1,1,Pin_1*%
%TO.N,VDD*%
X46990000Y60960000D03*
%TD*%
D19*
%TO.P,J0,2,Pin_2*%
%TO.N,GND*%
X72390000Y61595000D03*
D20*
%TO.P,J0,1,Pin_1*%
%TO.N,VDD*%
X74930000Y61595000D03*
%TD*%
D21*
%TO.N,+3V3*%
X10175000Y44435000D02*
X3175000Y51435000D01*
X16510000Y44435000D02*
X10175000Y44435000D01*
X3175000Y52070000D02*
X3175000Y27305000D01*
X3175000Y51435000D02*
X3175000Y52070000D01*
X3175000Y59690000D02*
X3175000Y52070000D01*
X16510000Y55865000D02*
X16510000Y61595000D01*
X16510000Y61595000D02*
X18415000Y63500000D01*
X39370000Y63500000D02*
X18415000Y63500000D01*
X18415000Y63500000D02*
X6985000Y63500000D01*
X10160000Y9525000D02*
X8580000Y9525000D01*
X11430000Y10795000D02*
X10160000Y9525000D01*
X11430000Y21590000D02*
X11430000Y10795000D01*
X7620000Y25400000D02*
X11430000Y21590000D01*
X5080000Y25400000D02*
X7620000Y25400000D01*
X43180000Y59690000D02*
X39370000Y63500000D01*
X44450000Y52070000D02*
X43180000Y53340000D01*
X6985000Y63500000D02*
X3175000Y59690000D01*
X3175000Y27305000D02*
X5080000Y25400000D01*
X46320000Y52070000D02*
X44450000Y52070000D01*
X43180000Y53340000D02*
X43180000Y59690000D01*
%TO.N,VDD*%
X80010000Y17780000D02*
X80010000Y15860000D01*
X81915000Y19685000D02*
X80010000Y17780000D01*
X74930000Y57785000D02*
X81915000Y50800000D01*
X81915000Y50800000D02*
X81915000Y19685000D01*
X74930000Y61595000D02*
X74930000Y57785000D01*
%TO.N,+3V3*%
X72390000Y31750000D02*
X58420000Y31750000D01*
%TO.N,GND*%
X22860000Y13970000D02*
X22860000Y11430000D01*
X22860000Y8890000D02*
X22860000Y11430000D01*
X19685000Y5715000D02*
X22860000Y8890000D01*
X9525000Y5715000D02*
X19685000Y5715000D01*
X8580000Y6660000D02*
X9525000Y5715000D01*
X8580000Y6985000D02*
X8580000Y6660000D01*
%TO.N,VDD*%
X74930000Y64135000D02*
X74930000Y61595000D01*
X73025000Y66040000D02*
X74930000Y64135000D01*
X50800000Y66040000D02*
X73025000Y66040000D01*
X46990000Y62230000D02*
X50800000Y66040000D01*
X46990000Y60960000D02*
X46990000Y62230000D01*
D22*
%TO.N,Anemometer*%
X8250000Y40000000D02*
X10160000Y41910000D01*
X10160000Y41910000D02*
X11430000Y41910000D01*
X8250000Y34800000D02*
X8250000Y40000000D01*
D21*
%TO.N,GND*%
X43815000Y49530000D02*
X41275000Y52070000D01*
X46320000Y49530000D02*
X43815000Y49530000D01*
X41275000Y52070000D02*
X41275000Y56515000D01*
X41275000Y42545000D02*
X41275000Y52070000D01*
X40640000Y57150000D02*
X38100000Y57150000D01*
X41275000Y56515000D02*
X40640000Y57150000D01*
X46320000Y39370000D02*
X44450000Y39370000D01*
X44450000Y39370000D02*
X41275000Y42545000D01*
D22*
%TO.N,LoRa_DIO0*%
X71120000Y21590000D02*
X68550000Y19020000D01*
X74295000Y21590000D02*
X71120000Y21590000D01*
X75565000Y20320000D02*
X74295000Y21590000D01*
X73025000Y5715000D02*
X75565000Y8255000D01*
X68580000Y5715000D02*
X73025000Y5715000D01*
X61595000Y12700000D02*
X68580000Y5715000D01*
X43815000Y12700000D02*
X61595000Y12700000D01*
X68550000Y19020000D02*
X68550000Y18415000D01*
X39370000Y8255000D02*
X43815000Y12700000D01*
X75565000Y8255000D02*
X75565000Y20320000D01*
X36195000Y8255000D02*
X39370000Y8255000D01*
X34925000Y9525000D02*
X36195000Y8255000D01*
X34925000Y27940000D02*
X34925000Y9525000D01*
X36195000Y29210000D02*
X34925000Y27940000D01*
X38100000Y29210000D02*
X36195000Y29210000D01*
%TO.N,LoRa_SCLK*%
X62230000Y13970000D02*
X38100000Y13970000D01*
X67945000Y8255000D02*
X62230000Y13970000D01*
X73025000Y8255000D02*
X67945000Y8255000D01*
X74295000Y9525000D02*
X73025000Y8255000D01*
X71090000Y15875000D02*
X73025000Y15875000D01*
X73025000Y15875000D02*
X74295000Y14605000D01*
X74295000Y14605000D02*
X74295000Y9525000D01*
%TO.N,LoRa_MOSI*%
X40640000Y19050000D02*
X38100000Y19050000D01*
X41910000Y17780000D02*
X40640000Y19050000D01*
X62865000Y15875000D02*
X60960000Y17780000D01*
X68550000Y15875000D02*
X62865000Y15875000D01*
X60960000Y17780000D02*
X41910000Y17780000D01*
%TO.N,DS18B20*%
X66040000Y29210000D02*
X72390000Y29210000D01*
X76835000Y29210000D02*
X72390000Y29210000D01*
X78105000Y27940000D02*
X76835000Y29210000D01*
X78105000Y26035000D02*
X78105000Y27940000D01*
X76200000Y24130000D02*
X78105000Y26035000D01*
X51435000Y24130000D02*
X76200000Y24130000D01*
X48260000Y20955000D02*
X51435000Y24130000D01*
X44450000Y20955000D02*
X48260000Y20955000D01*
X43180000Y22225000D02*
X44450000Y20955000D01*
X43180000Y34290000D02*
X43180000Y22225000D01*
X40640000Y36830000D02*
X43180000Y34290000D01*
X38100000Y36830000D02*
X40640000Y36830000D01*
%TO.N,UART_TX*%
X46340000Y24130000D02*
X46355000Y24145000D01*
%TO.N,UART_RX*%
X38115000Y26685000D02*
X38100000Y26670000D01*
D21*
%TO.N,GND*%
X46320000Y33690000D02*
X46355000Y33655000D01*
X46355000Y33655000D02*
X46355000Y29225000D01*
X46320000Y33690000D02*
X46320000Y39370000D01*
X53340000Y26670000D02*
X46320000Y33690000D01*
X72390000Y26670000D02*
X53340000Y26670000D01*
%TO.N,+3V3*%
X74930000Y31750000D02*
X72390000Y31750000D01*
X77470000Y34290000D02*
X74930000Y31750000D01*
X77470000Y48260000D02*
X77470000Y34290000D01*
X76200000Y49530000D02*
X77470000Y48260000D01*
X74810000Y49530000D02*
X76200000Y49530000D01*
X48260000Y41910000D02*
X58420000Y31750000D01*
X46320000Y41910000D02*
X48260000Y41910000D01*
X58420000Y31750000D02*
X55880000Y29210000D01*
X62230000Y55880000D02*
X60960000Y54610000D01*
X62230000Y60960000D02*
X62230000Y55880000D01*
X53340000Y54610000D02*
X60960000Y54610000D01*
X66040000Y49530000D02*
X74810000Y49530000D01*
X50800000Y52070000D02*
X53340000Y54610000D01*
X46320000Y52070000D02*
X50800000Y52070000D01*
X60960000Y54610000D02*
X66040000Y49530000D01*
D22*
%TO.N,Rain Gauge*%
X12700000Y54610000D02*
X13985000Y53325000D01*
X8890000Y54610000D02*
X12700000Y54610000D01*
X8250000Y53970000D02*
X8890000Y54610000D01*
X8250000Y51310000D02*
X8250000Y53970000D01*
X13985000Y53325000D02*
X16510000Y53325000D01*
X15240000Y46990000D02*
X22860000Y46990000D01*
X12700000Y49530000D02*
X15240000Y46990000D01*
X12700000Y52070000D02*
X12700000Y49530000D01*
X13955000Y53325000D02*
X12700000Y52070000D01*
X16510000Y53325000D02*
X13955000Y53325000D01*
D21*
%TO.N,VDD*%
X59690000Y58420000D02*
X58420000Y57150000D01*
X59690000Y60960000D02*
X59690000Y58420000D01*
X48260000Y57150000D02*
X58420000Y57150000D01*
X46990000Y58420000D02*
X48260000Y57150000D01*
X46990000Y60960000D02*
X46990000Y58420000D01*
D22*
%TO.N,Anemometer*%
X22845000Y41895000D02*
X22860000Y41910000D01*
X16510000Y41895000D02*
X22845000Y41895000D01*
X11415000Y41895000D02*
X16510000Y41895000D01*
%TD*%
%TA.AperFunction,NonConductor*%
G36*
X48236919Y66289287D02*
G01*
X48366114Y66230286D01*
X48473453Y66137276D01*
X48550240Y66017792D01*
X48590255Y65881515D01*
X48590255Y65739485D01*
X48550240Y65603208D01*
X48473453Y65483724D01*
X48449180Y65457654D01*
X46183675Y63192149D01*
X46168593Y63177685D01*
X46157776Y63167738D01*
X46140146Y63154210D01*
X46125189Y63137772D01*
X46091584Y63100841D01*
X46075354Y63083828D01*
X46065720Y63074194D01*
X46058589Y63065665D01*
X46058585Y63065661D01*
X46054122Y63060323D01*
X46040378Y63044567D01*
X46004870Y63005544D01*
X46004867Y63005540D01*
X45989914Y62989107D01*
X45978103Y62970280D01*
X45978010Y62970157D01*
X45975536Y62967053D01*
X45973349Y62963742D01*
X45973259Y62963613D01*
X45959003Y62946562D01*
X45947993Y62927259D01*
X45935310Y62909011D01*
X45934214Y62909773D01*
X45861263Y62816000D01*
X45746216Y62733121D01*
X45586404Y62649573D01*
X45428891Y62521109D01*
X45300427Y62363596D01*
X45206259Y62183470D01*
X45150234Y61988087D01*
X45139500Y61867816D01*
X45139500Y60655716D01*
X45119287Y60515131D01*
X45060286Y60385936D01*
X44967276Y60278597D01*
X44847792Y60201810D01*
X44711515Y60161795D01*
X44569485Y60161795D01*
X44433208Y60201810D01*
X44313724Y60278597D01*
X44235270Y60364529D01*
X44216968Y60389999D01*
X44205129Y60407225D01*
X44174013Y60454595D01*
X44174012Y60454596D01*
X44163970Y60469884D01*
X44148557Y60487184D01*
X44141206Y60495434D01*
X44141421Y60495626D01*
X44140206Y60496825D01*
X44130448Y60510405D01*
X44114493Y60525867D01*
X44114490Y60525870D01*
X44056343Y60582218D01*
X44050758Y60587716D01*
X40332149Y64306325D01*
X40317685Y64321407D01*
X40307738Y64332224D01*
X40294210Y64349854D01*
X40240841Y64398416D01*
X40223828Y64414646D01*
X40214194Y64424280D01*
X40200323Y64435878D01*
X40184567Y64449622D01*
X40145544Y64485130D01*
X40145540Y64485133D01*
X40129107Y64500086D01*
X40110280Y64511897D01*
X40110157Y64511990D01*
X40107053Y64514464D01*
X40103742Y64516651D01*
X40103613Y64516741D01*
X40086562Y64530997D01*
X40067260Y64542007D01*
X40067251Y64542013D01*
X40021447Y64568139D01*
X40003511Y64578873D01*
X39958835Y64606899D01*
X39958827Y64606903D01*
X39940010Y64618707D01*
X39919392Y64626995D01*
X39919253Y64627066D01*
X39915754Y64628954D01*
X39912079Y64630533D01*
X39911965Y64630585D01*
X39892663Y64641595D01*
X39871719Y64649012D01*
X39871714Y64649014D01*
X39821988Y64666623D01*
X39802456Y64674003D01*
X39732895Y64701966D01*
X39711142Y64706471D01*
X39710967Y64706524D01*
X39707217Y64707753D01*
X39703325Y64708655D01*
X39703203Y64708686D01*
X39682244Y64716108D01*
X39660306Y64719700D01*
X39660304Y64719701D01*
X39608274Y64728221D01*
X39587718Y64732031D01*
X39532231Y64743522D01*
X39532227Y64743523D01*
X39514310Y64747233D01*
X39480146Y64749203D01*
X39480162Y64749485D01*
X39478483Y64749475D01*
X39461954Y64752182D01*
X39439728Y64751833D01*
X39439726Y64751833D01*
X39358823Y64750562D01*
X39350986Y64750500D01*
X18525173Y64750500D01*
X18504278Y64750938D01*
X18489606Y64751553D01*
X18467578Y64754453D01*
X18395508Y64751054D01*
X18372000Y64750500D01*
X7095173Y64750500D01*
X7074278Y64750938D01*
X7059606Y64751553D01*
X7037578Y64754453D01*
X6965501Y64751054D01*
X6941995Y64750500D01*
X6928370Y64750500D01*
X6917313Y64749513D01*
X6917308Y64749513D01*
X6910338Y64748891D01*
X6889487Y64747469D01*
X6814602Y64743938D01*
X6792937Y64738976D01*
X6792782Y64738955D01*
X6788837Y64738509D01*
X6784946Y64737714D01*
X6784793Y64737687D01*
X6762661Y64735711D01*
X6741227Y64729847D01*
X6741220Y64729846D01*
X6690360Y64715932D01*
X6670086Y64710839D01*
X6597013Y64694103D01*
X6576573Y64685384D01*
X6576434Y64685339D01*
X6572621Y64684199D01*
X6568900Y64682714D01*
X6568792Y64682674D01*
X6547349Y64676808D01*
X6479678Y64644530D01*
X6460653Y64635940D01*
X6391687Y64606524D01*
X6373107Y64594319D01*
X6372999Y64594261D01*
X6369437Y64592458D01*
X6366056Y64590349D01*
X6365938Y64590279D01*
X6345871Y64580708D01*
X6327819Y64567736D01*
X6327817Y64567735D01*
X6285002Y64536969D01*
X6267775Y64525129D01*
X6251539Y64514464D01*
X6205116Y64483970D01*
X6191460Y64471803D01*
X6191456Y64471800D01*
X6179566Y64461206D01*
X6179374Y64461421D01*
X6178175Y64460206D01*
X6164595Y64450448D01*
X6149133Y64434493D01*
X6149130Y64434490D01*
X6092782Y64376343D01*
X6087284Y64370758D01*
X2368675Y60652149D01*
X2353593Y60637685D01*
X2342776Y60627738D01*
X2325146Y60614210D01*
X2298516Y60584944D01*
X2276584Y60560841D01*
X2260354Y60543828D01*
X2250720Y60534194D01*
X2243589Y60525665D01*
X2243585Y60525661D01*
X2239122Y60520323D01*
X2225378Y60504567D01*
X2189870Y60465544D01*
X2189867Y60465540D01*
X2174914Y60449107D01*
X2163103Y60430280D01*
X2163010Y60430157D01*
X2160536Y60427053D01*
X2158349Y60423742D01*
X2158259Y60423613D01*
X2144003Y60406562D01*
X2132993Y60387260D01*
X2132987Y60387251D01*
X2106861Y60341447D01*
X2096127Y60323511D01*
X2068101Y60278835D01*
X2068097Y60278827D01*
X2056293Y60260010D01*
X2048005Y60239392D01*
X2047934Y60239253D01*
X2046046Y60235754D01*
X2044467Y60232079D01*
X2044415Y60231965D01*
X2033405Y60212663D01*
X2025988Y60191719D01*
X2025986Y60191714D01*
X2008377Y60141988D01*
X2000997Y60122456D01*
X1973034Y60052895D01*
X1972298Y60049339D01*
X1917216Y59931121D01*
X1823391Y59824494D01*
X1703325Y59748620D01*
X1566747Y59709646D01*
X1424721Y59710729D01*
X1288753Y59751781D01*
X1169859Y59829477D01*
X1077670Y59937523D01*
X1019655Y60067164D01*
X1000500Y60204094D01*
X1000500Y65810500D01*
X1020713Y65951085D01*
X1079714Y66080280D01*
X1172724Y66187619D01*
X1292208Y66264406D01*
X1428485Y66304421D01*
X1499500Y66309500D01*
X48096334Y66309500D01*
X48236919Y66289287D01*
G37*
%TD.AperFunction*%
%TA.AperFunction,NonConductor*%
G36*
X40611118Y60426847D02*
G01*
X40735726Y60358690D01*
X40789246Y60312280D01*
X41783346Y59318180D01*
X41868462Y59204479D01*
X41918096Y59071404D01*
X41929500Y58965334D01*
X41929500Y58714185D01*
X41909287Y58573600D01*
X41850286Y58444405D01*
X41757276Y58337066D01*
X41637792Y58260279D01*
X41501515Y58220264D01*
X41359485Y58220264D01*
X41223654Y58260148D01*
X41210010Y58268707D01*
X41189387Y58276997D01*
X41189252Y58277066D01*
X41185750Y58278956D01*
X41182079Y58280533D01*
X41181965Y58280585D01*
X41162663Y58291595D01*
X41141719Y58299012D01*
X41141714Y58299014D01*
X41091988Y58316623D01*
X41072456Y58324003D01*
X41002895Y58351966D01*
X40981142Y58356471D01*
X40980967Y58356524D01*
X40977217Y58357753D01*
X40973325Y58358655D01*
X40973203Y58358686D01*
X40952244Y58366108D01*
X40930306Y58369700D01*
X40930304Y58369701D01*
X40878274Y58378221D01*
X40857718Y58382031D01*
X40802231Y58393522D01*
X40802227Y58393523D01*
X40784310Y58397233D01*
X40750146Y58399203D01*
X40750162Y58399485D01*
X40748483Y58399475D01*
X40731954Y58402182D01*
X40709728Y58401833D01*
X40709726Y58401833D01*
X40628823Y58400562D01*
X40620986Y58400500D01*
X40316230Y58400500D01*
X40175645Y58420713D01*
X40046450Y58479714D01*
X39939111Y58572724D01*
X39862324Y58692208D01*
X39822309Y58828485D01*
X39822309Y58970515D01*
X39844284Y59058707D01*
X39845547Y59061564D01*
X39862225Y59120697D01*
X39911893Y59296807D01*
X39911893Y59296808D01*
X39916681Y59313784D01*
X39937537Y59469063D01*
X39949871Y59560888D01*
X39949871Y59560892D01*
X39951566Y59573509D01*
X39953878Y59647060D01*
X39954827Y59677266D01*
X39954827Y59677270D01*
X39955227Y59690000D01*
X39951413Y59743868D01*
X39938646Y59924193D01*
X39948880Y60065854D01*
X39998610Y60198893D01*
X40083807Y60312533D01*
X40197569Y60397567D01*
X40330680Y60447106D01*
X40472355Y60457137D01*
X40611118Y60426847D01*
G37*
%TD.AperFunction*%
%TA.AperFunction,NonConductor*%
G36*
X14904169Y62229287D02*
G01*
X15033364Y62170286D01*
X15140703Y62077276D01*
X15217490Y61957792D01*
X15257505Y61821515D01*
X15259291Y61779610D01*
X15260112Y61776063D01*
X15260215Y61757923D01*
X15261756Y61721774D01*
X15260797Y61705146D01*
X15260796Y61705141D01*
X15260515Y61705157D01*
X15260525Y61703483D01*
X15257818Y61686954D01*
X15258167Y61664728D01*
X15258167Y61664726D01*
X15259438Y61583823D01*
X15259500Y61575986D01*
X15259500Y57916378D01*
X15239287Y57775793D01*
X15180286Y57646598D01*
X15087276Y57539259D01*
X15075882Y57529680D01*
X14948891Y57426109D01*
X14820427Y57268596D01*
X14726259Y57088470D01*
X14670234Y56893087D01*
X14659500Y56772816D01*
X14659500Y55446890D01*
X14639287Y55306305D01*
X14580286Y55177110D01*
X14487276Y55069771D01*
X14367792Y54992984D01*
X14231515Y54952969D01*
X14089485Y54952969D01*
X13953208Y54992984D01*
X13833724Y55069771D01*
X13807654Y55094044D01*
X13565625Y55336073D01*
X13562480Y55339457D01*
X13555874Y55348770D01*
X13490797Y55411068D01*
X13483018Y55418680D01*
X13457903Y55443795D01*
X13449646Y55450614D01*
X13443387Y55456454D01*
X13417897Y55480855D01*
X13400735Y55497284D01*
X13380778Y55510170D01*
X13366870Y55521154D01*
X13352186Y55531096D01*
X13333870Y55546221D01*
X13291918Y55569142D01*
X13260497Y55587835D01*
X13240261Y55600901D01*
X13240258Y55600903D01*
X13220311Y55613782D01*
X13198289Y55622657D01*
X13182555Y55630813D01*
X13166247Y55637803D01*
X13145399Y55649193D01*
X13099849Y55663774D01*
X13065464Y55676187D01*
X13043135Y55685186D01*
X13043134Y55685186D01*
X13021113Y55694061D01*
X12997808Y55698612D01*
X12980801Y55703650D01*
X12963476Y55707427D01*
X12940856Y55714668D01*
X12917276Y55717501D01*
X12917274Y55717501D01*
X12893381Y55720371D01*
X12857255Y55726060D01*
X12827962Y55731781D01*
X12827955Y55731782D01*
X12810329Y55735224D01*
X12804686Y55735500D01*
X12797303Y55735500D01*
X12796419Y55735553D01*
X12792489Y55735649D01*
X12792492Y55735788D01*
X12774042Y55736892D01*
X12751203Y55737450D01*
X12727623Y55740283D01*
X12703938Y55738606D01*
X12703934Y55738606D01*
X12677671Y55736746D01*
X12642426Y55735500D01*
X8988679Y55735500D01*
X8984066Y55735669D01*
X8972805Y55737584D01*
X8949060Y55737066D01*
X8949058Y55737066D01*
X8882749Y55735619D01*
X8871864Y55735500D01*
X8836336Y55735500D01*
X8825683Y55734483D01*
X8817163Y55734188D01*
X8789885Y55733593D01*
X8781832Y55733417D01*
X8781831Y55733417D01*
X8758090Y55732899D01*
X8734874Y55727901D01*
X8717265Y55725832D01*
X8699845Y55722477D01*
X8676205Y55720222D01*
X8653415Y55713536D01*
X8653414Y55713536D01*
X8630325Y55706763D01*
X8594898Y55697765D01*
X8548135Y55687697D01*
X8548133Y55687696D01*
X8547644Y55689966D01*
X8439181Y55671978D01*
X8298194Y55689156D01*
X8167757Y55745360D01*
X8058438Y55836035D01*
X7979094Y55953836D01*
X7936151Y56089218D01*
X7933090Y56231216D01*
X7948519Y56307571D01*
X7983180Y56429248D01*
X7987835Y56445589D01*
X7996351Y56505420D01*
X8027333Y56723114D01*
X8027333Y56723120D01*
X8029726Y56739931D01*
X8029894Y56771932D01*
X8031193Y57020249D01*
X8031282Y57037235D01*
X7992476Y57331999D01*
X7939661Y57525056D01*
X7918507Y57602383D01*
X7918506Y57602387D01*
X7914024Y57618769D01*
X7797379Y57892239D01*
X7644700Y58147349D01*
X7509086Y58316623D01*
X7469429Y58366123D01*
X7469425Y58366127D01*
X7458810Y58379377D01*
X7275916Y58552937D01*
X7255474Y58572336D01*
X7255473Y58572337D01*
X7243151Y58584030D01*
X7229356Y58593943D01*
X7229352Y58593946D01*
X7015510Y58747606D01*
X7001712Y58757521D01*
X6986703Y58765468D01*
X6986698Y58765471D01*
X6753975Y58888691D01*
X6738962Y58896640D01*
X6459762Y58998813D01*
X6443173Y59002430D01*
X6443166Y59002432D01*
X6325718Y59028039D01*
X6169278Y59062149D01*
X5936102Y59080500D01*
X5775262Y59080500D01*
X5766814Y59079924D01*
X5766782Y59079923D01*
X5556540Y59065590D01*
X5414906Y59076194D01*
X5281997Y59126271D01*
X5168580Y59211765D01*
X5083844Y59325749D01*
X5034653Y59458989D01*
X5024993Y59600691D01*
X5055646Y59739374D01*
X5124129Y59863803D01*
X5169754Y59916280D01*
X7356820Y62103346D01*
X7470521Y62188462D01*
X7603596Y62238096D01*
X7709666Y62249500D01*
X14763584Y62249500D01*
X14904169Y62229287D01*
G37*
%TD.AperFunction*%
%TA.AperFunction,NonConductor*%
G36*
X45136792Y59675591D02*
G01*
X45256276Y59598804D01*
X45316197Y59537068D01*
X45428891Y59398891D01*
X45490688Y59348491D01*
X45555882Y59295320D01*
X45652052Y59190802D01*
X45714881Y59063424D01*
X45739278Y58923505D01*
X45739500Y58908622D01*
X45739500Y58530173D01*
X45739062Y58509278D01*
X45738447Y58494606D01*
X45735547Y58472578D01*
X45738936Y58400714D01*
X45738946Y58400508D01*
X45739500Y58377000D01*
X45739500Y58363370D01*
X45741112Y58345305D01*
X45742531Y58324495D01*
X45742902Y58316623D01*
X45744833Y58275690D01*
X45746063Y58249602D01*
X45751024Y58227941D01*
X45751040Y58227825D01*
X45751489Y58223849D01*
X45752285Y58219957D01*
X45752313Y58219799D01*
X45754289Y58197661D01*
X45760154Y58176223D01*
X45760154Y58176222D01*
X45774071Y58125349D01*
X45779161Y58105083D01*
X45790934Y58053682D01*
X45795897Y58032013D01*
X45804617Y58011570D01*
X45804660Y58011438D01*
X45805802Y58007620D01*
X45807286Y58003900D01*
X45807326Y58003792D01*
X45813192Y57982349D01*
X45822761Y57962288D01*
X45845464Y57914691D01*
X45854060Y57895653D01*
X45883476Y57826687D01*
X45895681Y57808107D01*
X45895739Y57807999D01*
X45897542Y57804437D01*
X45899651Y57801056D01*
X45899721Y57800938D01*
X45909292Y57780871D01*
X45923157Y57761576D01*
X45953036Y57719995D01*
X45964873Y57702772D01*
X45995987Y57655405D01*
X45995994Y57655396D01*
X46006031Y57640116D01*
X46018199Y57626459D01*
X46028792Y57614569D01*
X46028576Y57614377D01*
X46029794Y57613174D01*
X46039552Y57599595D01*
X46086011Y57554573D01*
X46113657Y57527782D01*
X46119242Y57522284D01*
X47297851Y56343675D01*
X47312315Y56328593D01*
X47322262Y56317776D01*
X47335790Y56300146D01*
X47352228Y56285189D01*
X47389159Y56251584D01*
X47406172Y56235354D01*
X47415806Y56225720D01*
X47424335Y56218589D01*
X47424339Y56218585D01*
X47429677Y56214122D01*
X47445433Y56200378D01*
X47484456Y56164870D01*
X47484460Y56164867D01*
X47500893Y56149914D01*
X47519720Y56138103D01*
X47519843Y56138010D01*
X47522947Y56135536D01*
X47526258Y56133349D01*
X47526387Y56133259D01*
X47543438Y56119003D01*
X47562740Y56107993D01*
X47562749Y56107987D01*
X47608553Y56081861D01*
X47626489Y56071127D01*
X47671165Y56043101D01*
X47671173Y56043097D01*
X47689990Y56031293D01*
X47710608Y56023005D01*
X47710747Y56022934D01*
X47714246Y56021046D01*
X47717921Y56019467D01*
X47718035Y56019415D01*
X47737337Y56008405D01*
X47758281Y56000988D01*
X47758286Y56000986D01*
X47808012Y55983377D01*
X47827544Y55975997D01*
X47897105Y55948034D01*
X47918858Y55943529D01*
X47919033Y55943476D01*
X47922783Y55942247D01*
X47926675Y55941345D01*
X47926797Y55941314D01*
X47947756Y55933892D01*
X47969694Y55930300D01*
X47969696Y55930299D01*
X48021726Y55921779D01*
X48042282Y55917969D01*
X48097769Y55906478D01*
X48097773Y55906477D01*
X48115690Y55902767D01*
X48149854Y55900797D01*
X48149838Y55900515D01*
X48151517Y55900525D01*
X48168046Y55897818D01*
X48190272Y55898167D01*
X48190274Y55898167D01*
X48271177Y55899438D01*
X48279014Y55899500D01*
X51656334Y55899500D01*
X51796919Y55879287D01*
X51926114Y55820286D01*
X52033453Y55727276D01*
X52110240Y55607792D01*
X52150255Y55471515D01*
X52150255Y55329485D01*
X52110240Y55193208D01*
X52033453Y55073724D01*
X52009180Y55047654D01*
X50428180Y53466654D01*
X50314479Y53381538D01*
X50181404Y53331904D01*
X50075334Y53320500D01*
X47758778Y53320500D01*
X47618193Y53340713D01*
X47488998Y53399714D01*
X47445366Y53431257D01*
X47432287Y53443560D01*
X47417070Y53454117D01*
X47232257Y53582327D01*
X47217045Y53592880D01*
X47200442Y53601068D01*
X47200438Y53601070D01*
X46998701Y53700555D01*
X46998699Y53700556D01*
X46982095Y53708744D01*
X46732601Y53788607D01*
X46714332Y53791582D01*
X46714325Y53791584D01*
X46492317Y53827740D01*
X46492315Y53827740D01*
X46474043Y53830716D01*
X46338827Y53832486D01*
X46230612Y53833903D01*
X46230608Y53833903D01*
X46212100Y53834145D01*
X45952528Y53798819D01*
X45934750Y53793637D01*
X45934749Y53793637D01*
X45917492Y53788607D01*
X45701029Y53725514D01*
X45463127Y53615840D01*
X45447645Y53605690D01*
X45447644Y53605689D01*
X45325109Y53525351D01*
X45196458Y53465173D01*
X45056063Y53443678D01*
X44915300Y53462607D01*
X44785572Y53520427D01*
X44698663Y53589811D01*
X44576654Y53711820D01*
X44491538Y53825521D01*
X44441904Y53958596D01*
X44430500Y54064666D01*
X44430500Y59221685D01*
X44450713Y59362270D01*
X44509714Y59491465D01*
X44602724Y59598804D01*
X44722208Y59675591D01*
X44858485Y59715606D01*
X45000515Y59715606D01*
X45136792Y59675591D01*
G37*
%TD.AperFunction*%
%TA.AperFunction,NonConductor*%
G36*
X82461085Y66289287D02*
G01*
X82590280Y66230286D01*
X82697619Y66137276D01*
X82774406Y66017792D01*
X82814421Y65881515D01*
X82819500Y65810500D01*
X82819500Y52868666D01*
X82799287Y52728081D01*
X82740286Y52598886D01*
X82647276Y52491547D01*
X82527792Y52414760D01*
X82391515Y52374745D01*
X82249485Y52374745D01*
X82113208Y52414760D01*
X81993724Y52491547D01*
X81967654Y52515820D01*
X76326654Y58156820D01*
X76241538Y58270521D01*
X76191904Y58403596D01*
X76180500Y58509666D01*
X76180500Y59218628D01*
X76200713Y59359213D01*
X76259714Y59488408D01*
X76352724Y59595747D01*
X76448315Y59660843D01*
X76457824Y59665814D01*
X76533596Y59705427D01*
X76691109Y59833891D01*
X76819573Y59991404D01*
X76890802Y60127651D01*
X76902029Y60149127D01*
X76913741Y60171530D01*
X76969766Y60366913D01*
X76980500Y60487184D01*
X76980500Y62702816D01*
X76969766Y62823087D01*
X76913741Y63018470D01*
X76819573Y63198596D01*
X76691109Y63356109D01*
X76533596Y63484573D01*
X76448315Y63529157D01*
X76333093Y63612202D01*
X76245935Y63724345D01*
X76193902Y63856501D01*
X76180500Y63971372D01*
X76180500Y64024827D01*
X76180938Y64045722D01*
X76181553Y64060394D01*
X76184453Y64082422D01*
X76181054Y64154493D01*
X76180500Y64178000D01*
X76180500Y64191630D01*
X76178888Y64209695D01*
X76177469Y64230512D01*
X76174984Y64283204D01*
X76174984Y64283206D01*
X76173937Y64305398D01*
X76168976Y64327059D01*
X76168960Y64327175D01*
X76168511Y64331151D01*
X76167715Y64335043D01*
X76167687Y64335201D01*
X76165711Y64357339D01*
X76145929Y64429651D01*
X76140839Y64449917D01*
X76129066Y64501318D01*
X76129065Y64501320D01*
X76124103Y64522987D01*
X76115383Y64543430D01*
X76115340Y64543562D01*
X76114198Y64547380D01*
X76112714Y64551100D01*
X76112674Y64551208D01*
X76106808Y64572651D01*
X76074530Y64640322D01*
X76065940Y64659347D01*
X76036524Y64728313D01*
X76024319Y64746893D01*
X76024261Y64747001D01*
X76022458Y64750563D01*
X76020349Y64753944D01*
X76020279Y64754062D01*
X76010708Y64774129D01*
X75966969Y64834998D01*
X75955129Y64852225D01*
X75924013Y64899595D01*
X75924012Y64899596D01*
X75913970Y64914884D01*
X75891206Y64940434D01*
X75891421Y64940626D01*
X75890206Y64941825D01*
X75880448Y64955405D01*
X75864493Y64970867D01*
X75864490Y64970870D01*
X75806343Y65027218D01*
X75800758Y65032716D01*
X75375820Y65457654D01*
X75290704Y65571355D01*
X75241070Y65704430D01*
X75230937Y65846098D01*
X75261128Y65984883D01*
X75329196Y66109540D01*
X75429626Y66209970D01*
X75554283Y66278038D01*
X75693068Y66308229D01*
X75728666Y66309500D01*
X82320500Y66309500D01*
X82461085Y66289287D01*
G37*
%TD.AperFunction*%
%TA.AperFunction,NonConductor*%
G36*
X5095988Y54853975D02*
G01*
X5224277Y54807027D01*
X5224289Y54807023D01*
X5240238Y54801187D01*
X5256827Y54797570D01*
X5256834Y54797568D01*
X5374282Y54771961D01*
X5530722Y54737851D01*
X5763898Y54719500D01*
X5924738Y54719500D01*
X5933184Y54720076D01*
X5933191Y54720076D01*
X6129669Y54733470D01*
X6129676Y54733471D01*
X6146619Y54734626D01*
X6179662Y54741469D01*
X6421117Y54791472D01*
X6421123Y54791474D01*
X6437750Y54794917D01*
X6499940Y54816940D01*
X6639205Y54844813D01*
X6780685Y54832321D01*
X6912914Y54780476D01*
X7025182Y54693478D01*
X7108391Y54578375D01*
X7155801Y54444491D01*
X7163571Y54302673D01*
X7154052Y54240263D01*
X7152572Y54233473D01*
X7145332Y54210856D01*
X7142499Y54187276D01*
X7142499Y54187274D01*
X7139629Y54163381D01*
X7133940Y54127255D01*
X7124776Y54080329D01*
X7124500Y54074686D01*
X7124500Y54067303D01*
X7124447Y54066419D01*
X7124351Y54062489D01*
X7124212Y54062492D01*
X7123108Y54044042D01*
X7122550Y54021203D01*
X7119717Y53997623D01*
X7121394Y53973938D01*
X7121394Y53973934D01*
X7123254Y53947671D01*
X7124500Y53912426D01*
X7124500Y52717689D01*
X7104287Y52577104D01*
X7045286Y52447909D01*
X7004943Y52393616D01*
X6910588Y52283140D01*
X6900342Y52266420D01*
X6785089Y52078344D01*
X6785086Y52078339D01*
X6774846Y52061628D01*
X6675427Y51821610D01*
X6661488Y51763550D01*
X6623136Y51603802D01*
X6614779Y51568994D01*
X6594396Y51310000D01*
X6595934Y51290458D01*
X6612023Y51086031D01*
X6614779Y51051006D01*
X6618666Y51034814D01*
X6620672Y50894426D01*
X6582608Y50757592D01*
X6507535Y50637024D01*
X6401535Y50542490D01*
X6273196Y50481649D01*
X6132915Y50459430D01*
X5992056Y50477633D01*
X5862031Y50534783D01*
X5772941Y50605533D01*
X4571654Y51806820D01*
X4486538Y51920521D01*
X4436904Y52053596D01*
X4425500Y52159666D01*
X4425500Y54385368D01*
X4445713Y54525953D01*
X4504714Y54655148D01*
X4597724Y54762487D01*
X4717208Y54839274D01*
X4853485Y54879289D01*
X4995515Y54879289D01*
X5095988Y54853975D01*
G37*
%TD.AperFunction*%
%TA.AperFunction,NonConductor*%
G36*
X21870201Y62229287D02*
G01*
X21999396Y62170286D01*
X22106735Y62077276D01*
X22183522Y61957792D01*
X22223537Y61821515D01*
X22223537Y61679485D01*
X22183522Y61543208D01*
X22106735Y61423724D01*
X21999396Y61330714D01*
X21959642Y61307681D01*
X21890647Y61271841D01*
X21677434Y61119477D01*
X21487816Y60938591D01*
X21476897Y60924741D01*
X21476894Y60924737D01*
X21434007Y60870334D01*
X21325578Y60732792D01*
X21316718Y60717538D01*
X21210563Y60534779D01*
X21193955Y60506187D01*
X21095574Y60263297D01*
X21091321Y60246174D01*
X21091320Y60246172D01*
X21060586Y60122443D01*
X21032399Y60008968D01*
X21005688Y59748274D01*
X21006381Y59730638D01*
X21013021Y59561661D01*
X21015977Y59486418D01*
X21039376Y59358298D01*
X21057801Y59257411D01*
X21063058Y59228624D01*
X21075814Y59190390D01*
X21134877Y59013358D01*
X21145994Y58980035D01*
X21153876Y58964260D01*
X21153878Y58964256D01*
X21255240Y58761399D01*
X21263128Y58745613D01*
X21273158Y58731101D01*
X21273162Y58731094D01*
X21291484Y58704585D01*
X21354787Y58577442D01*
X21379706Y58437615D01*
X21364222Y58296432D01*
X21312479Y58170241D01*
X21297284Y58144080D01*
X21193955Y57966187D01*
X21095574Y57723297D01*
X21091321Y57706174D01*
X21091320Y57706172D01*
X21037710Y57490349D01*
X21032399Y57468968D01*
X21005688Y57208274D01*
X21006381Y57190638D01*
X21013671Y57005116D01*
X21015977Y56946418D01*
X21026777Y56887284D01*
X21058726Y56712346D01*
X21063058Y56688624D01*
X21145994Y56440035D01*
X21153876Y56424260D01*
X21153878Y56424256D01*
X21244110Y56243674D01*
X21263128Y56205613D01*
X21273158Y56191101D01*
X21273162Y56191094D01*
X21291484Y56164585D01*
X21354787Y56037442D01*
X21379706Y55897615D01*
X21364222Y55756432D01*
X21312479Y55630241D01*
X21206368Y55447557D01*
X21193955Y55426187D01*
X21095574Y55183297D01*
X21091321Y55166174D01*
X21091320Y55166172D01*
X21038976Y54955447D01*
X21032399Y54928968D01*
X21005688Y54668274D01*
X21006381Y54650638D01*
X21012220Y54502044D01*
X21015977Y54406418D01*
X21025837Y54352429D01*
X21051693Y54210856D01*
X21063058Y54148624D01*
X21145994Y53900035D01*
X21153876Y53884260D01*
X21153878Y53884256D01*
X21245668Y53700555D01*
X21263128Y53665613D01*
X21273158Y53651101D01*
X21273162Y53651094D01*
X21291484Y53624585D01*
X21354787Y53497442D01*
X21379706Y53357615D01*
X21364222Y53216432D01*
X21312479Y53090241D01*
X21302395Y53072880D01*
X21193955Y52886187D01*
X21095574Y52643297D01*
X21032399Y52388968D01*
X21005688Y52128274D01*
X21006381Y52110638D01*
X21015263Y51884602D01*
X21015977Y51866418D01*
X21063058Y51608624D01*
X21145994Y51360035D01*
X21153876Y51344260D01*
X21153878Y51344256D01*
X21227723Y51196470D01*
X21263128Y51125613D01*
X21273158Y51111101D01*
X21273162Y51111094D01*
X21291484Y51084585D01*
X21354787Y50957442D01*
X21379706Y50817615D01*
X21364222Y50676432D01*
X21312479Y50550241D01*
X21300772Y50530086D01*
X21193955Y50346187D01*
X21095574Y50103297D01*
X21091321Y50086174D01*
X21091320Y50086172D01*
X21068971Y49996198D01*
X21032399Y49848968D01*
X21005688Y49588274D01*
X21006381Y49570638D01*
X21015205Y49346076D01*
X21015977Y49326418D01*
X21019147Y49309063D01*
X21058083Y49095866D01*
X21063058Y49068624D01*
X21145994Y48820035D01*
X21153489Y48805035D01*
X21188505Y48667836D01*
X21183435Y48525896D01*
X21138580Y48391135D01*
X21057576Y48274469D01*
X20946985Y48185350D01*
X20815765Y48130999D01*
X20692364Y48115500D01*
X17417854Y48115500D01*
X17277269Y48135713D01*
X17148074Y48194714D01*
X17040735Y48287724D01*
X16963948Y48407208D01*
X16923933Y48543485D01*
X16923933Y48685515D01*
X16963948Y48821792D01*
X17040735Y48941276D01*
X17148074Y49034286D01*
X17201843Y49064322D01*
X17429188Y49173491D01*
X17561705Y49262036D01*
X17632404Y49309275D01*
X17632408Y49309278D01*
X17647082Y49319083D01*
X17793275Y49450025D01*
X17829140Y49482148D01*
X17829144Y49482152D01*
X17842287Y49493924D01*
X18010910Y49694525D01*
X18149586Y49916884D01*
X18231998Y50103297D01*
X18248410Y50140420D01*
X18248411Y50140422D01*
X18255547Y50156564D01*
X18275238Y50226380D01*
X18321893Y50391807D01*
X18321893Y50391808D01*
X18326681Y50408784D01*
X18352114Y50598139D01*
X18359871Y50655888D01*
X18359871Y50655892D01*
X18361566Y50668509D01*
X18365227Y50785000D01*
X18358791Y50875897D01*
X18347966Y51028797D01*
X18347965Y51028802D01*
X18346719Y51046404D01*
X18291563Y51302592D01*
X18200860Y51548453D01*
X18076420Y51779080D01*
X18067179Y51791592D01*
X18009342Y51920174D01*
X17989931Y52060871D01*
X18010946Y52201338D01*
X18065514Y52322079D01*
X18149586Y52456884D01*
X18199747Y52570346D01*
X18248410Y52680420D01*
X18248411Y52680422D01*
X18255547Y52696564D01*
X18288972Y52815077D01*
X18321893Y52931807D01*
X18321893Y52931808D01*
X18326681Y52948784D01*
X18361566Y53208509D01*
X18365227Y53325000D01*
X18356824Y53443678D01*
X18347966Y53568797D01*
X18347965Y53568802D01*
X18346719Y53586404D01*
X18291563Y53842592D01*
X18200860Y54088453D01*
X18202751Y54089151D01*
X18169675Y54203613D01*
X18170284Y54345642D01*
X18210884Y54481746D01*
X18221669Y54503669D01*
X18293741Y54641530D01*
X18349766Y54836913D01*
X18360500Y54957184D01*
X18360500Y56772816D01*
X18349766Y56893087D01*
X18293741Y57088470D01*
X18199573Y57268596D01*
X18071109Y57426109D01*
X17944118Y57529680D01*
X17847948Y57634198D01*
X17785119Y57761576D01*
X17760722Y57901495D01*
X17760500Y57916378D01*
X17760500Y60870334D01*
X17780713Y61010919D01*
X17839714Y61140114D01*
X17906654Y61223180D01*
X18786820Y62103346D01*
X18900521Y62188462D01*
X19033596Y62238096D01*
X19139666Y62249500D01*
X21729616Y62249500D01*
X21870201Y62229287D01*
G37*
%TD.AperFunction*%
%TA.AperFunction,NonConductor*%
G36*
X11683138Y48829142D02*
G01*
X11817900Y48784289D01*
X11934567Y48703286D01*
X11947386Y48690916D01*
X14100956Y46537346D01*
X14186072Y46423645D01*
X14235706Y46290570D01*
X14245839Y46148902D01*
X14215648Y46010117D01*
X14147580Y45885460D01*
X14047150Y45785030D01*
X13922493Y45716962D01*
X13783708Y45686771D01*
X13748110Y45685500D01*
X10899666Y45685500D01*
X10759081Y45705713D01*
X10629886Y45764714D01*
X10546820Y45831654D01*
X9137951Y47240523D01*
X9052835Y47354224D01*
X9003201Y47487299D01*
X8993068Y47628967D01*
X9023259Y47767752D01*
X9091327Y47892409D01*
X9166720Y47972809D01*
X9320689Y48104311D01*
X9489412Y48301860D01*
X9501905Y48322246D01*
X9610453Y48499382D01*
X9701142Y48608689D01*
X9818953Y48688018D01*
X9954342Y48730942D01*
X10096340Y48733985D01*
X10176305Y48716291D01*
X10178390Y48715427D01*
X10197456Y48710850D01*
X10197461Y48710848D01*
X10411936Y48659357D01*
X10411940Y48659356D01*
X10431006Y48654779D01*
X10690000Y48634396D01*
X10948994Y48654779D01*
X10968060Y48659356D01*
X10968064Y48659357D01*
X11087444Y48688018D01*
X11201610Y48715427D01*
X11221523Y48723675D01*
X11403580Y48799086D01*
X11541199Y48834211D01*
X11683138Y48829142D01*
G37*
%TD.AperFunction*%
%TA.AperFunction,NonConductor*%
G36*
X20836387Y45844287D02*
G01*
X20965582Y45785286D01*
X21072921Y45692276D01*
X21149708Y45572792D01*
X21189723Y45436515D01*
X21189723Y45294485D01*
X21158303Y45178167D01*
X21095574Y45023297D01*
X21032399Y44768968D01*
X21005688Y44508274D01*
X21015977Y44246418D01*
X21063058Y43988624D01*
X21145994Y43740035D01*
X21153882Y43724249D01*
X21159593Y43710461D01*
X21194719Y43572842D01*
X21189650Y43430903D01*
X21144797Y43296141D01*
X21063795Y43179474D01*
X20953204Y43090354D01*
X20821986Y43036001D01*
X20698578Y43020500D01*
X18859158Y43020500D01*
X18718573Y43040713D01*
X18589378Y43099714D01*
X18482039Y43192724D01*
X18405252Y43312208D01*
X18365237Y43448485D01*
X18361366Y43527184D01*
X18360500Y43527184D01*
X18360500Y45342816D01*
X18360232Y45345819D01*
X18373924Y45484649D01*
X18427120Y45616340D01*
X18515263Y45727711D01*
X18631213Y45809737D01*
X18765575Y45855773D01*
X18858490Y45864500D01*
X20695802Y45864500D01*
X20836387Y45844287D01*
G37*
%TD.AperFunction*%
%TA.AperFunction,NonConductor*%
G36*
X43231346Y48419852D02*
G01*
X43244990Y48411293D01*
X43265623Y48402998D01*
X43265728Y48402945D01*
X43269246Y48401047D01*
X43272890Y48399481D01*
X43273033Y48399416D01*
X43292337Y48388405D01*
X43313284Y48380987D01*
X43313289Y48380985D01*
X43363012Y48363377D01*
X43382544Y48355997D01*
X43452105Y48328034D01*
X43473858Y48323529D01*
X43474033Y48323476D01*
X43477792Y48322244D01*
X43481669Y48321345D01*
X43481813Y48321308D01*
X43502756Y48313892D01*
X43576232Y48301860D01*
X43576721Y48301780D01*
X43597271Y48297971D01*
X43646754Y48287724D01*
X43670690Y48282767D01*
X43704852Y48280797D01*
X43704836Y48280516D01*
X43706511Y48280525D01*
X43723045Y48277818D01*
X43745269Y48278167D01*
X43745270Y48278167D01*
X43826176Y48279438D01*
X43834013Y48279500D01*
X44199110Y48279500D01*
X44339695Y48259287D01*
X44468890Y48200286D01*
X44576229Y48107276D01*
X44653016Y47987792D01*
X44693031Y47851515D01*
X44693031Y47709485D01*
X44659288Y47587532D01*
X44655984Y47579652D01*
X44643893Y47550818D01*
X44637083Y47524002D01*
X44583968Y47314866D01*
X44583967Y47314859D01*
X44579409Y47296913D01*
X44553164Y47036266D01*
X44565732Y46774603D01*
X44616839Y46517672D01*
X44623094Y46500249D01*
X44623095Y46500247D01*
X44698377Y46290570D01*
X44705361Y46271117D01*
X44714126Y46254805D01*
X44714128Y46254800D01*
X44807944Y46080202D01*
X44829355Y46040354D01*
X44843000Y46022082D01*
X44845328Y46018964D01*
X44849552Y46011206D01*
X44850381Y46009905D01*
X44850292Y46009848D01*
X44913247Y45894226D01*
X44943272Y45755405D01*
X44932970Y45613749D01*
X44883177Y45480733D01*
X44872103Y45461536D01*
X44745198Y45252402D01*
X44738039Y45235331D01*
X44738038Y45235328D01*
X44655984Y45039652D01*
X44643893Y45010818D01*
X44637083Y44984002D01*
X44583968Y44774866D01*
X44583967Y44774859D01*
X44579409Y44756913D01*
X44577553Y44738482D01*
X44577553Y44738481D01*
X44557561Y44539931D01*
X44553164Y44496266D01*
X44565732Y44234603D01*
X44616839Y43977672D01*
X44623094Y43960249D01*
X44623095Y43960247D01*
X44696150Y43756773D01*
X44705361Y43731117D01*
X44714126Y43714805D01*
X44714128Y43714800D01*
X44793588Y43566919D01*
X44829355Y43500354D01*
X44840436Y43485515D01*
X44845328Y43478964D01*
X44849552Y43471206D01*
X44850381Y43469905D01*
X44850292Y43469848D01*
X44913247Y43354226D01*
X44943272Y43215405D01*
X44932970Y43073749D01*
X44883177Y42940733D01*
X44872103Y42921536D01*
X44745198Y42712402D01*
X44738039Y42695331D01*
X44738038Y42695328D01*
X44655984Y42499652D01*
X44643893Y42470818D01*
X44619457Y42374602D01*
X44583968Y42234866D01*
X44583967Y42234859D01*
X44579409Y42216913D01*
X44574827Y42171404D01*
X44574317Y42166342D01*
X44540120Y42028491D01*
X44468472Y41905857D01*
X44365175Y41808376D01*
X44238600Y41743947D01*
X44098999Y41717787D01*
X43957684Y41732018D01*
X43826101Y41785484D01*
X43724982Y41863492D01*
X42671654Y42916820D01*
X42586538Y43030521D01*
X42536904Y43163596D01*
X42525500Y43269666D01*
X42525500Y47965815D01*
X42545713Y48106400D01*
X42604714Y48235595D01*
X42697724Y48342934D01*
X42817208Y48419721D01*
X42953485Y48459736D01*
X43095515Y48459736D01*
X43231346Y48419852D01*
G37*
%TD.AperFunction*%
%TA.AperFunction,NonConductor*%
G36*
X8467342Y44257752D02*
G01*
X8600976Y44209644D01*
X8719706Y44121819D01*
X9212872Y43628653D01*
X9227338Y43613568D01*
X9237265Y43602773D01*
X9250790Y43585146D01*
X9267223Y43570193D01*
X9267224Y43570192D01*
X9304148Y43536594D01*
X9321161Y43520364D01*
X9330806Y43510719D01*
X9344721Y43499084D01*
X9360456Y43485358D01*
X9382092Y43465670D01*
X9472467Y43356102D01*
X9528313Y43225512D01*
X9545105Y43084478D01*
X9521483Y42944426D01*
X9459360Y42816702D01*
X9394004Y42739526D01*
X9380302Y42728763D01*
X9364738Y42710827D01*
X9364737Y42710826D01*
X9347481Y42690940D01*
X9323441Y42665138D01*
X8328187Y41669885D01*
X8214486Y41584769D01*
X8081411Y41535135D01*
X7939742Y41525002D01*
X7800958Y41555193D01*
X7676301Y41623261D01*
X7585909Y41710733D01*
X7458810Y41869377D01*
X7243151Y42074030D01*
X7152112Y42139448D01*
X7049743Y42237898D01*
X6979255Y42361203D01*
X6946362Y42499371D01*
X6953728Y42641211D01*
X7000756Y42775229D01*
X7083636Y42890569D01*
X7156374Y42952933D01*
X7211538Y42991703D01*
X7211543Y42991707D01*
X7225440Y43001474D01*
X7443230Y43203857D01*
X7631539Y43433926D01*
X7685143Y43521399D01*
X7738926Y43609166D01*
X7786882Y43687423D01*
X7806063Y43731117D01*
X7906384Y43959656D01*
X7908397Y43958772D01*
X7963993Y44063420D01*
X8063267Y44164994D01*
X8187137Y44234484D01*
X8325567Y44266262D01*
X8467342Y44257752D01*
G37*
%TD.AperFunction*%
%TA.AperFunction,NonConductor*%
G36*
X40425694Y41535361D02*
G01*
X40555596Y41477932D01*
X40643777Y41407749D01*
X43487851Y38563675D01*
X43502315Y38548593D01*
X43512262Y38537776D01*
X43525790Y38520146D01*
X43542228Y38505189D01*
X43579159Y38471584D01*
X43596172Y38455354D01*
X43605806Y38445720D01*
X43614335Y38438589D01*
X43614339Y38438585D01*
X43619677Y38434122D01*
X43635433Y38420378D01*
X43674456Y38384870D01*
X43674460Y38384867D01*
X43690893Y38369914D01*
X43709720Y38358103D01*
X43709843Y38358010D01*
X43712947Y38355536D01*
X43716258Y38353349D01*
X43716387Y38353259D01*
X43733438Y38339003D01*
X43752740Y38327993D01*
X43752749Y38327987D01*
X43798553Y38301861D01*
X43816489Y38291127D01*
X43861165Y38263101D01*
X43861173Y38263097D01*
X43879990Y38251293D01*
X43900608Y38243005D01*
X43900747Y38242934D01*
X43904246Y38241046D01*
X43907921Y38239467D01*
X43908035Y38239415D01*
X43927337Y38228405D01*
X43948281Y38220988D01*
X43948286Y38220986D01*
X43998012Y38203377D01*
X44017544Y38195997D01*
X44087105Y38168034D01*
X44108858Y38163529D01*
X44109033Y38163476D01*
X44112783Y38162247D01*
X44116675Y38161345D01*
X44116797Y38161314D01*
X44137756Y38153892D01*
X44159694Y38150300D01*
X44159696Y38150299D01*
X44211726Y38141779D01*
X44232282Y38137969D01*
X44287769Y38126478D01*
X44287773Y38126477D01*
X44305690Y38122767D01*
X44339854Y38120797D01*
X44339838Y38120515D01*
X44341517Y38120525D01*
X44358046Y38117818D01*
X44380272Y38118167D01*
X44380274Y38118167D01*
X44461177Y38119438D01*
X44469014Y38119500D01*
X44570500Y38119500D01*
X44711085Y38099287D01*
X44840280Y38040286D01*
X44947619Y37947276D01*
X45024406Y37827792D01*
X45064421Y37691515D01*
X45069500Y37620500D01*
X45069500Y35136372D01*
X45049287Y34995787D01*
X44990286Y34866592D01*
X44897276Y34759253D01*
X44777792Y34682466D01*
X44641515Y34642451D01*
X44499485Y34642451D01*
X44363208Y34682466D01*
X44243724Y34759253D01*
X44150588Y34866790D01*
X44142301Y34879699D01*
X44131429Y34900807D01*
X44101886Y34938417D01*
X44080368Y34967980D01*
X44063695Y34992745D01*
X44053668Y35007639D01*
X44049873Y35011825D01*
X44044649Y35017049D01*
X44044075Y35017696D01*
X44041346Y35020562D01*
X44041447Y35020658D01*
X44029201Y35034464D01*
X44013435Y35051020D01*
X43998763Y35069698D01*
X43960934Y35102524D01*
X43935145Y35126553D01*
X41505625Y37556073D01*
X41502480Y37559457D01*
X41495874Y37568770D01*
X41430797Y37631068D01*
X41423018Y37638680D01*
X41397903Y37663795D01*
X41389646Y37670614D01*
X41383387Y37676454D01*
X41357897Y37700855D01*
X41340735Y37717284D01*
X41320778Y37730170D01*
X41306870Y37741154D01*
X41292186Y37751096D01*
X41273870Y37766221D01*
X41231918Y37789142D01*
X41200497Y37807835D01*
X41180261Y37820901D01*
X41180258Y37820903D01*
X41160311Y37833782D01*
X41138289Y37842657D01*
X41122555Y37850813D01*
X41106247Y37857803D01*
X41085399Y37869193D01*
X41039849Y37883774D01*
X41005464Y37896187D01*
X40983135Y37905186D01*
X40983134Y37905186D01*
X40961113Y37914061D01*
X40937808Y37918612D01*
X40920801Y37923650D01*
X40903476Y37927427D01*
X40880856Y37934668D01*
X40857276Y37937501D01*
X40857274Y37937501D01*
X40833381Y37940371D01*
X40797255Y37946060D01*
X40767962Y37951781D01*
X40767955Y37951782D01*
X40750329Y37955224D01*
X40744686Y37955500D01*
X40737303Y37955500D01*
X40736419Y37955553D01*
X40732489Y37955649D01*
X40732492Y37955788D01*
X40714042Y37956892D01*
X40691203Y37957450D01*
X40667623Y37960283D01*
X40643938Y37958606D01*
X40643934Y37958606D01*
X40617671Y37956746D01*
X40582426Y37955500D01*
X40264227Y37955500D01*
X40123642Y37975713D01*
X39994447Y38034714D01*
X39887108Y38127724D01*
X39810321Y38247208D01*
X39770306Y38383485D01*
X39770306Y38525515D01*
X39807837Y38656266D01*
X39845547Y38741564D01*
X39852298Y38765499D01*
X39911893Y38976807D01*
X39911893Y38976808D01*
X39916681Y38993784D01*
X39947856Y39225888D01*
X39949871Y39240888D01*
X39949871Y39240892D01*
X39951566Y39253509D01*
X39954058Y39332792D01*
X39954827Y39357266D01*
X39954827Y39357270D01*
X39955227Y39370000D01*
X39948310Y39467695D01*
X39937966Y39613797D01*
X39937965Y39613802D01*
X39936719Y39631404D01*
X39881563Y39887592D01*
X39790860Y40133453D01*
X39666420Y40364080D01*
X39657179Y40376592D01*
X39599342Y40505174D01*
X39579931Y40645871D01*
X39600946Y40786338D01*
X39655514Y40907079D01*
X39739586Y41041884D01*
X39830395Y41247290D01*
X39834542Y41256671D01*
X39909874Y41377077D01*
X40016076Y41471383D01*
X40144546Y41531948D01*
X40284875Y41553866D01*
X40425694Y41535361D01*
G37*
%TD.AperFunction*%
%TA.AperFunction,NonConductor*%
G36*
X54391669Y53339287D02*
G01*
X54520864Y53280286D01*
X54628203Y53187276D01*
X54704990Y53067792D01*
X54745005Y52931515D01*
X54745005Y52789485D01*
X54704990Y52653208D01*
X54641334Y52549525D01*
X54595134Y52491547D01*
X54565566Y52454442D01*
X54557683Y52441654D01*
X54557682Y52441652D01*
X54528843Y52394866D01*
X54391545Y52172126D01*
X54385256Y52158484D01*
X54296629Y51966237D01*
X54252700Y51870949D01*
X54151043Y51555272D01*
X54148188Y51540513D01*
X54148187Y51540511D01*
X54090901Y51244422D01*
X54090900Y51244414D01*
X54088047Y51229668D01*
X54064624Y50898855D01*
X54065371Y50883849D01*
X54065371Y50883843D01*
X54070292Y50785000D01*
X54081114Y50567624D01*
X54083657Y50552824D01*
X54083658Y50552816D01*
X54128225Y50293453D01*
X54137277Y50240773D01*
X54232300Y49923036D01*
X54364807Y49619017D01*
X54372423Y49606062D01*
X54464153Y49450025D01*
X54532879Y49333118D01*
X54734080Y49069482D01*
X54965496Y48831927D01*
X54977188Y48822509D01*
X54977193Y48822505D01*
X55212068Y48633322D01*
X55212074Y48633318D01*
X55223775Y48623893D01*
X55236525Y48615941D01*
X55236527Y48615940D01*
X55271564Y48594089D01*
X55505176Y48448396D01*
X55805623Y48307976D01*
X56120763Y48204668D01*
X56446032Y48139968D01*
X56461009Y48138829D01*
X56461014Y48138828D01*
X56634094Y48125662D01*
X56776718Y48114813D01*
X56791718Y48115481D01*
X56791720Y48115481D01*
X56855023Y48118300D01*
X57108031Y48129568D01*
X57122850Y48132035D01*
X57122854Y48132035D01*
X57420345Y48181551D01*
X57420347Y48181551D01*
X57435172Y48184019D01*
X57753401Y48277378D01*
X57801333Y48297971D01*
X58044293Y48402354D01*
X58044298Y48402356D01*
X58058111Y48408291D01*
X58344885Y48574863D01*
X58385760Y48605720D01*
X58597568Y48765619D01*
X58609572Y48774681D01*
X58640252Y48804256D01*
X58837523Y48994427D01*
X58837524Y48994428D01*
X58848335Y49004850D01*
X58872300Y49034286D01*
X59048228Y49250379D01*
X59048230Y49250382D01*
X59057718Y49262036D01*
X59101143Y49330860D01*
X59226669Y49529806D01*
X59226674Y49529816D01*
X59234687Y49542515D01*
X59264794Y49606062D01*
X59343779Y49772781D01*
X59376678Y49842222D01*
X59396593Y49901912D01*
X59476878Y50142558D01*
X59476879Y50142561D01*
X59481635Y50156817D01*
X59548037Y50481743D01*
X59550218Y50508550D01*
X59574208Y50803503D01*
X59574923Y50812293D01*
X59575414Y50859161D01*
X59575435Y50861181D01*
X59575435Y50861190D01*
X59575527Y50870000D01*
X59555570Y51201040D01*
X59495987Y51527285D01*
X59489106Y51549447D01*
X59470730Y51608624D01*
X59397641Y51844009D01*
X59348545Y51953509D01*
X59268107Y52132912D01*
X59268103Y52132919D01*
X59261958Y52146625D01*
X59254210Y52159495D01*
X59254206Y52159502D01*
X59098656Y52417869D01*
X59098654Y52417871D01*
X59090902Y52430748D01*
X58995070Y52553628D01*
X58924553Y52676916D01*
X58891627Y52815077D01*
X58898959Y52956918D01*
X58945955Y53090947D01*
X59028808Y53206307D01*
X59140805Y53293652D01*
X59272874Y53345906D01*
X59388555Y53359500D01*
X60235334Y53359500D01*
X60375919Y53339287D01*
X60505114Y53280286D01*
X60588180Y53213346D01*
X65077851Y48723675D01*
X65092315Y48708593D01*
X65102262Y48697776D01*
X65115790Y48680146D01*
X65151131Y48647988D01*
X65169159Y48631584D01*
X65186172Y48615354D01*
X65195807Y48605719D01*
X65204314Y48598606D01*
X65204325Y48598596D01*
X65209716Y48594089D01*
X65225453Y48580360D01*
X65264453Y48544873D01*
X65280893Y48529914D01*
X65299724Y48518101D01*
X65299845Y48518009D01*
X65302951Y48515534D01*
X65306258Y48513349D01*
X65306387Y48513259D01*
X65323438Y48499003D01*
X65342740Y48487993D01*
X65342749Y48487987D01*
X65388553Y48461861D01*
X65406489Y48451127D01*
X65451165Y48423101D01*
X65451173Y48423097D01*
X65469990Y48411293D01*
X65490608Y48403005D01*
X65490747Y48402934D01*
X65494239Y48401050D01*
X65497923Y48399467D01*
X65498027Y48399419D01*
X65517337Y48388405D01*
X65538284Y48380987D01*
X65538291Y48380984D01*
X65588006Y48363379D01*
X65607549Y48355994D01*
X65656478Y48336325D01*
X65656486Y48336323D01*
X65677105Y48328034D01*
X65698871Y48323526D01*
X65699015Y48323483D01*
X65702788Y48322246D01*
X65706676Y48321345D01*
X65706801Y48321313D01*
X65727757Y48313892D01*
X65749694Y48310300D01*
X65749696Y48310299D01*
X65801717Y48301780D01*
X65822261Y48297973D01*
X65895690Y48282767D01*
X65913960Y48281713D01*
X65913964Y48281713D01*
X65929854Y48280797D01*
X65929838Y48280515D01*
X65931517Y48280525D01*
X65948046Y48277818D01*
X65970272Y48278167D01*
X65970274Y48278167D01*
X66051177Y48279438D01*
X66059014Y48279500D01*
X72689110Y48279500D01*
X72829695Y48259287D01*
X72958890Y48200286D01*
X73066229Y48107276D01*
X73143016Y47987792D01*
X73183031Y47851515D01*
X73183031Y47709485D01*
X73149288Y47587532D01*
X73145984Y47579652D01*
X73133893Y47550818D01*
X73127083Y47524002D01*
X73073968Y47314866D01*
X73073967Y47314859D01*
X73069409Y47296913D01*
X73043164Y47036266D01*
X73055732Y46774603D01*
X73106839Y46517672D01*
X73113094Y46500249D01*
X73113095Y46500247D01*
X73188377Y46290570D01*
X73195361Y46271117D01*
X73204126Y46254805D01*
X73204128Y46254800D01*
X73297944Y46080202D01*
X73319355Y46040354D01*
X73333000Y46022082D01*
X73335328Y46018964D01*
X73339552Y46011206D01*
X73340381Y46009905D01*
X73340292Y46009848D01*
X73403247Y45894226D01*
X73433272Y45755405D01*
X73422970Y45613749D01*
X73373177Y45480733D01*
X73362103Y45461536D01*
X73235198Y45252402D01*
X73228039Y45235331D01*
X73228038Y45235328D01*
X73145984Y45039652D01*
X73133893Y45010818D01*
X73127083Y44984002D01*
X73073968Y44774866D01*
X73073967Y44774859D01*
X73069409Y44756913D01*
X73067553Y44738482D01*
X73067553Y44738481D01*
X73047561Y44539931D01*
X73043164Y44496266D01*
X73055732Y44234603D01*
X73106839Y43977672D01*
X73113094Y43960249D01*
X73113095Y43960247D01*
X73186150Y43756773D01*
X73195361Y43731117D01*
X73204126Y43714805D01*
X73204128Y43714800D01*
X73283588Y43566919D01*
X73319355Y43500354D01*
X73330436Y43485515D01*
X73335328Y43478964D01*
X73339552Y43471206D01*
X73340381Y43469905D01*
X73340292Y43469848D01*
X73403247Y43354226D01*
X73433272Y43215405D01*
X73422970Y43073749D01*
X73373177Y42940733D01*
X73362103Y42921536D01*
X73235198Y42712402D01*
X73228039Y42695331D01*
X73228038Y42695328D01*
X73145984Y42499652D01*
X73133893Y42470818D01*
X73109457Y42374602D01*
X73073968Y42234866D01*
X73073967Y42234859D01*
X73069409Y42216913D01*
X73067553Y42198482D01*
X73067553Y42198481D01*
X73063378Y42157013D01*
X73043164Y41956266D01*
X73055732Y41694603D01*
X73106839Y41437672D01*
X73113094Y41420249D01*
X73113095Y41420247D01*
X73168684Y41265420D01*
X73195361Y41191117D01*
X73211331Y41161396D01*
X73260068Y41027990D01*
X73269246Y40886257D01*
X73238121Y40747679D01*
X73206768Y40686464D01*
X73208427Y40685596D01*
X73114259Y40505470D01*
X73058234Y40310087D01*
X73047500Y40189816D01*
X73047500Y38550184D01*
X73058234Y38429913D01*
X73114259Y38234530D01*
X73208427Y38054404D01*
X73336891Y37896891D01*
X73494404Y37768427D01*
X73674530Y37674259D01*
X73869913Y37618234D01*
X73990184Y37607500D01*
X75629816Y37607500D01*
X75676147Y37611635D01*
X75817971Y37603998D01*
X75951899Y37556714D01*
X76067081Y37473613D01*
X76154184Y37361427D01*
X76206154Y37229247D01*
X76219500Y37114610D01*
X76219500Y35014666D01*
X76199287Y34874081D01*
X76140286Y34744886D01*
X76073346Y34661820D01*
X74578559Y33167033D01*
X74464858Y33081917D01*
X74331783Y33032283D01*
X74190115Y33022150D01*
X74051330Y33052341D01*
X73926673Y33120409D01*
X73860176Y33180198D01*
X73808512Y33235795D01*
X73808507Y33235800D01*
X73796944Y33248243D01*
X73740155Y33294724D01*
X73593739Y33414564D01*
X73593735Y33414567D01*
X73580591Y33425325D01*
X73498775Y33475462D01*
X73356688Y33562533D01*
X73356684Y33562535D01*
X73342208Y33571406D01*
X73086205Y33683784D01*
X72817319Y33760378D01*
X72800495Y33762772D01*
X72800492Y33762773D01*
X72730232Y33772772D01*
X72540526Y33799771D01*
X72523538Y33799860D01*
X72523537Y33799860D01*
X72421752Y33800393D01*
X72260947Y33801235D01*
X72244108Y33799018D01*
X72244106Y33799018D01*
X72000604Y33766961D01*
X72000603Y33766961D01*
X71983757Y33764743D01*
X71967373Y33760261D01*
X71967369Y33760260D01*
X71730466Y33695450D01*
X71714083Y33690968D01*
X71456917Y33581278D01*
X71217018Y33437701D01*
X71203771Y33427088D01*
X71203765Y33427084D01*
X71050862Y33304585D01*
X70998823Y33262894D01*
X70920348Y33180198D01*
X70897395Y33156011D01*
X70785961Y33067949D01*
X70654231Y33014847D01*
X70535433Y33000500D01*
X59144666Y33000500D01*
X59004081Y33020713D01*
X58874886Y33079714D01*
X58791820Y33146654D01*
X51339619Y40598855D01*
X54064624Y40598855D01*
X54065371Y40583849D01*
X54065371Y40583843D01*
X54068158Y40527873D01*
X54081114Y40267624D01*
X54083657Y40252824D01*
X54083658Y40252816D01*
X54104607Y40130903D01*
X54137277Y39940773D01*
X54141580Y39926386D01*
X54141581Y39926380D01*
X54153181Y39887592D01*
X54232300Y39623036D01*
X54364807Y39319017D01*
X54532879Y39033118D01*
X54734080Y38769482D01*
X54965496Y38531927D01*
X54977188Y38522509D01*
X54977193Y38522505D01*
X55212068Y38333322D01*
X55212074Y38333318D01*
X55223775Y38323893D01*
X55505176Y38148396D01*
X55805623Y38007976D01*
X56120763Y37904668D01*
X56446032Y37839968D01*
X56461009Y37838829D01*
X56461014Y37838828D01*
X56634094Y37825662D01*
X56776718Y37814813D01*
X56791718Y37815481D01*
X56791720Y37815481D01*
X56855023Y37818300D01*
X57108031Y37829568D01*
X57122850Y37832035D01*
X57122854Y37832035D01*
X57420345Y37881551D01*
X57420347Y37881551D01*
X57435172Y37884019D01*
X57753401Y37977378D01*
X57786190Y37991465D01*
X58044293Y38102354D01*
X58044298Y38102356D01*
X58058111Y38108291D01*
X58344885Y38274863D01*
X58365713Y38290586D01*
X58597568Y38465619D01*
X58609572Y38474681D01*
X58654533Y38518023D01*
X58837523Y38694427D01*
X58837524Y38694428D01*
X58848335Y38704850D01*
X58865082Y38725420D01*
X59048228Y38950379D01*
X59048230Y38950382D01*
X59057718Y38962036D01*
X59068285Y38978784D01*
X59226669Y39229806D01*
X59226674Y39229816D01*
X59234687Y39242515D01*
X59264794Y39306062D01*
X59331823Y39447545D01*
X59376678Y39542222D01*
X59400558Y39613797D01*
X59476878Y39842558D01*
X59476879Y39842561D01*
X59481635Y39856817D01*
X59548037Y40181743D01*
X59574923Y40512293D01*
X59575527Y40570000D01*
X59555570Y40901040D01*
X59495987Y41227285D01*
X59397641Y41544009D01*
X59313344Y41732018D01*
X59268107Y41832912D01*
X59268103Y41832919D01*
X59261958Y41846625D01*
X59254210Y41859495D01*
X59254206Y41859502D01*
X59098656Y42117869D01*
X59098654Y42117871D01*
X59090902Y42130748D01*
X58886951Y42392263D01*
X58653060Y42627382D01*
X58628855Y42646464D01*
X58404418Y42823396D01*
X58404416Y42823397D01*
X58392617Y42832699D01*
X58109393Y43005240D01*
X58095723Y43011455D01*
X58095720Y43011457D01*
X57821174Y43136286D01*
X57821168Y43136288D01*
X57807493Y43142506D01*
X57772661Y43153522D01*
X57505615Y43237978D01*
X57505614Y43237978D01*
X57491288Y43242509D01*
X57476531Y43245284D01*
X57476527Y43245285D01*
X57180117Y43301024D01*
X57180114Y43301024D01*
X57165359Y43303799D01*
X57090436Y43308710D01*
X56849416Y43324507D01*
X56849410Y43324507D01*
X56834428Y43325489D01*
X56503288Y43307265D01*
X56176735Y43249392D01*
X56162371Y43245014D01*
X56162366Y43245013D01*
X55873877Y43157088D01*
X55873874Y43157087D01*
X55859500Y43152706D01*
X55695285Y43080107D01*
X55585121Y43031404D01*
X55556179Y43018609D01*
X55543271Y43010930D01*
X55543266Y43010927D01*
X55284076Y42856725D01*
X55271164Y42849043D01*
X55008585Y42646464D01*
X54772244Y42413807D01*
X54762878Y42402053D01*
X54762875Y42402050D01*
X54575049Y42166342D01*
X54565566Y42154442D01*
X54391545Y41872126D01*
X54252700Y41570949D01*
X54151043Y41255272D01*
X54148188Y41240513D01*
X54148187Y41240511D01*
X54090901Y40944422D01*
X54090900Y40944414D01*
X54088047Y40929668D01*
X54064624Y40598855D01*
X51339619Y40598855D01*
X49222149Y42716325D01*
X49207685Y42731407D01*
X49197738Y42742224D01*
X49184210Y42759854D01*
X49130841Y42808416D01*
X49113828Y42824646D01*
X49104194Y42834280D01*
X49090323Y42845878D01*
X49074567Y42859622D01*
X49035544Y42895130D01*
X49035540Y42895133D01*
X49019107Y42910086D01*
X49000280Y42921897D01*
X49000157Y42921990D01*
X48997053Y42924464D01*
X48993742Y42926651D01*
X48993613Y42926741D01*
X48976562Y42940997D01*
X48957260Y42952007D01*
X48957251Y42952013D01*
X48911447Y42978139D01*
X48893511Y42988873D01*
X48848835Y43016899D01*
X48848827Y43016903D01*
X48830010Y43028707D01*
X48809392Y43036995D01*
X48809253Y43037066D01*
X48805754Y43038954D01*
X48802079Y43040533D01*
X48801965Y43040585D01*
X48782663Y43051595D01*
X48761719Y43059012D01*
X48761714Y43059014D01*
X48711988Y43076623D01*
X48692456Y43084003D01*
X48622895Y43111966D01*
X48601142Y43116471D01*
X48600967Y43116524D01*
X48597217Y43117753D01*
X48593325Y43118655D01*
X48593203Y43118686D01*
X48572244Y43126108D01*
X48550306Y43129700D01*
X48550304Y43129701D01*
X48506743Y43136834D01*
X48498272Y43138221D01*
X48477718Y43142031D01*
X48422232Y43153522D01*
X48422225Y43153523D01*
X48404310Y43157233D01*
X48386042Y43158286D01*
X48375722Y43159645D01*
X48238978Y43198034D01*
X48118589Y43273394D01*
X48024308Y43379619D01*
X47963773Y43508103D01*
X47941888Y43648437D01*
X47960427Y43789252D01*
X47971947Y43825046D01*
X47973245Y43828612D01*
X47980852Y43845499D01*
X47985879Y43863323D01*
X48046933Y44079803D01*
X48046934Y44079809D01*
X48051960Y44097629D01*
X48055038Y44121819D01*
X48083438Y44345065D01*
X48085020Y44357499D01*
X48087442Y44450000D01*
X48086498Y44462710D01*
X48069400Y44692781D01*
X48068028Y44711245D01*
X48010213Y44966750D01*
X47915267Y45210903D01*
X47785276Y45438341D01*
X47778424Y45447032D01*
X47718256Y45571395D01*
X47694925Y45711496D01*
X47712010Y45852494D01*
X47774122Y45992525D01*
X47808269Y46045613D01*
X47873258Y46146650D01*
X47929327Y46271117D01*
X47973250Y46368623D01*
X47973250Y46368624D01*
X47980852Y46385499D01*
X48018129Y46517672D01*
X48046933Y46619803D01*
X48046934Y46619809D01*
X48051960Y46637629D01*
X48069386Y46774603D01*
X48081968Y46873509D01*
X48085020Y46897499D01*
X48087442Y46990000D01*
X48086498Y47002710D01*
X48069400Y47232781D01*
X48068028Y47251245D01*
X48010213Y47506750D01*
X47915267Y47750903D01*
X47785276Y47978341D01*
X47778424Y47987032D01*
X47718256Y48111395D01*
X47694925Y48251496D01*
X47712010Y48392494D01*
X47774122Y48532525D01*
X47801354Y48574863D01*
X47873258Y48686650D01*
X47884159Y48710848D01*
X47973250Y48908623D01*
X47973250Y48908624D01*
X47980852Y48925499D01*
X48016964Y49053541D01*
X48046933Y49159803D01*
X48046934Y49159809D01*
X48051960Y49177629D01*
X48064316Y49274750D01*
X48083438Y49425065D01*
X48085020Y49437499D01*
X48087442Y49530000D01*
X48086498Y49542710D01*
X48069400Y49772781D01*
X48068028Y49791245D01*
X48010213Y50046750D01*
X48003506Y50063996D01*
X48003503Y50064007D01*
X47974089Y50139644D01*
X47941975Y50277996D01*
X47950139Y50419791D01*
X47997922Y50553542D01*
X48081451Y50668414D01*
X48193959Y50755100D01*
X48326332Y50806577D01*
X48439161Y50819500D01*
X50689827Y50819500D01*
X50710722Y50819062D01*
X50725394Y50818447D01*
X50747422Y50815547D01*
X50819493Y50818946D01*
X50843000Y50819500D01*
X50856630Y50819500D01*
X50874695Y50821112D01*
X50895505Y50822531D01*
X50919075Y50823642D01*
X50948204Y50825016D01*
X50948206Y50825016D01*
X50970398Y50826063D01*
X50992059Y50831024D01*
X50992175Y50831040D01*
X50996151Y50831489D01*
X51000043Y50832285D01*
X51000201Y50832313D01*
X51022339Y50834289D01*
X51048552Y50841460D01*
X51094651Y50854071D01*
X51114917Y50859161D01*
X51166318Y50870934D01*
X51166320Y50870935D01*
X51187987Y50875897D01*
X51208430Y50884617D01*
X51208562Y50884660D01*
X51212380Y50885802D01*
X51216100Y50887286D01*
X51216208Y50887326D01*
X51237651Y50893192D01*
X51305322Y50925470D01*
X51324347Y50934060D01*
X51393313Y50963476D01*
X51411893Y50975681D01*
X51412001Y50975739D01*
X51415563Y50977542D01*
X51418944Y50979651D01*
X51419062Y50979721D01*
X51439129Y50989292D01*
X51500005Y51033036D01*
X51517228Y51044873D01*
X51564595Y51075987D01*
X51564604Y51075994D01*
X51579884Y51086031D01*
X51605431Y51108792D01*
X51605623Y51108576D01*
X51606826Y51109794D01*
X51620405Y51119552D01*
X51692218Y51193657D01*
X51697716Y51199242D01*
X53711820Y53213346D01*
X53825521Y53298462D01*
X53958596Y53348096D01*
X54064666Y53359500D01*
X54251084Y53359500D01*
X54391669Y53339287D01*
G37*
%TD.AperFunction*%
%TA.AperFunction,NonConductor*%
G36*
X48701667Y39607956D02*
G01*
X48831805Y39551064D01*
X48921734Y39479792D01*
X56298680Y32102846D01*
X56383796Y31989145D01*
X56433430Y31856070D01*
X56443563Y31714402D01*
X56413372Y31575617D01*
X56345304Y31450960D01*
X56298680Y31397154D01*
X56055299Y31153773D01*
X55941598Y31068657D01*
X55808523Y31019023D01*
X55769744Y31012177D01*
X55756107Y31010321D01*
X55504605Y30976093D01*
X55486836Y30970914D01*
X55486832Y30970913D01*
X55265461Y30906390D01*
X55265458Y30906389D01*
X55247683Y30901208D01*
X55230867Y30893456D01*
X55230865Y30893455D01*
X55169469Y30865151D01*
X55004652Y30789169D01*
X54780851Y30642438D01*
X54767039Y30630110D01*
X54767036Y30630108D01*
X54596774Y30478143D01*
X54581197Y30464240D01*
X54410075Y30258488D01*
X54400471Y30242662D01*
X54400468Y30242657D01*
X54326395Y30120588D01*
X54271244Y30029702D01*
X54212044Y29888526D01*
X54174916Y29799985D01*
X54167755Y29782909D01*
X54101881Y29523530D01*
X54100027Y29505113D01*
X54100026Y29505110D01*
X54077010Y29276528D01*
X54075070Y29257264D01*
X54087909Y28989959D01*
X54091521Y28971802D01*
X54093778Y28953416D01*
X54091144Y28953093D01*
X54097234Y28839471D01*
X54064571Y28701247D01*
X53994290Y28577825D01*
X53892083Y28479203D01*
X53766231Y28413370D01*
X53626930Y28385661D01*
X53485465Y28398320D01*
X53353297Y28450322D01*
X53247374Y28531100D01*
X47716654Y34061820D01*
X47631538Y34175521D01*
X47581904Y34308596D01*
X47570500Y34414666D01*
X47570500Y37934883D01*
X47590713Y38075468D01*
X47649714Y38204663D01*
X47694331Y38263896D01*
X47703949Y38274863D01*
X47731542Y38306327D01*
X47755758Y38343975D01*
X47863243Y38511079D01*
X47863246Y38511085D01*
X47873258Y38526650D01*
X47883860Y38550184D01*
X47973250Y38748623D01*
X47973250Y38748624D01*
X47980852Y38765499D01*
X48016987Y38893624D01*
X48046933Y38999803D01*
X48046934Y38999809D01*
X48051960Y39017629D01*
X48073879Y39189928D01*
X48111670Y39326829D01*
X48186504Y39447545D01*
X48292317Y39542288D01*
X48420535Y39603383D01*
X48560772Y39625880D01*
X48701667Y39607956D01*
G37*
%TD.AperFunction*%
%TA.AperFunction,NonConductor*%
G36*
X64018487Y30479287D02*
G01*
X64147682Y30420286D01*
X64255021Y30327276D01*
X64331808Y30207792D01*
X64371823Y30071515D01*
X64371823Y29929485D01*
X64338079Y29807529D01*
X64334915Y29799985D01*
X64334915Y29799984D01*
X64327755Y29782909D01*
X64261881Y29523530D01*
X64260027Y29505113D01*
X64260026Y29505110D01*
X64237010Y29276528D01*
X64235070Y29257264D01*
X64247909Y28989959D01*
X64300118Y28727488D01*
X64344042Y28605151D01*
X64350156Y28588121D01*
X64378638Y28448976D01*
X64366764Y28307443D01*
X64315497Y28174988D01*
X64228990Y28062342D01*
X64114251Y27978631D01*
X63980576Y27930636D01*
X63880509Y27920500D01*
X58043271Y27920500D01*
X57902686Y27940713D01*
X57773491Y27999714D01*
X57666152Y28092724D01*
X57589365Y28212208D01*
X57549350Y28348485D01*
X57549350Y28490515D01*
X57572777Y28583843D01*
X57576661Y28592466D01*
X57595042Y28657639D01*
X57644275Y28832205D01*
X57644276Y28832211D01*
X57649302Y28850031D01*
X57651651Y28868491D01*
X57680362Y29094180D01*
X57718155Y29231090D01*
X57792989Y29351806D01*
X57822526Y29384052D01*
X58791820Y30353346D01*
X58905521Y30438462D01*
X59038596Y30488096D01*
X59144666Y30499500D01*
X63877902Y30499500D01*
X64018487Y30479287D01*
G37*
%TD.AperFunction*%
%TA.AperFunction,NonConductor*%
G36*
X76302695Y28064287D02*
G01*
X76431890Y28005286D01*
X76514956Y27938346D01*
X76833346Y27619956D01*
X76918462Y27506255D01*
X76968096Y27373180D01*
X76979500Y27267110D01*
X76979500Y26707889D01*
X76959287Y26567304D01*
X76900286Y26438109D01*
X76833346Y26355043D01*
X75879956Y25401654D01*
X75766255Y25316538D01*
X75633180Y25266904D01*
X75527110Y25255500D01*
X74939500Y25255500D01*
X74798915Y25275713D01*
X74669720Y25334714D01*
X74562381Y25427724D01*
X74485594Y25547208D01*
X74445579Y25683485D01*
X74440500Y25754500D01*
X74440500Y27585500D01*
X74460713Y27726085D01*
X74519714Y27855280D01*
X74612724Y27962619D01*
X74732208Y28039406D01*
X74868485Y28079421D01*
X74939500Y28084500D01*
X76162110Y28084500D01*
X76302695Y28064287D01*
G37*
%TD.AperFunction*%
%TA.AperFunction,NonConductor*%
G36*
X48812705Y29339335D02*
G01*
X48942442Y29281535D01*
X49029416Y29212110D01*
X52134180Y26107346D01*
X52219296Y25993645D01*
X52268930Y25860570D01*
X52279063Y25718902D01*
X52248872Y25580117D01*
X52180804Y25455460D01*
X52080374Y25355030D01*
X51955717Y25286962D01*
X51816932Y25256771D01*
X51781334Y25255500D01*
X51533679Y25255500D01*
X51529066Y25255669D01*
X51517805Y25257584D01*
X51494060Y25257066D01*
X51494058Y25257066D01*
X51427749Y25255619D01*
X51416864Y25255500D01*
X51381336Y25255500D01*
X51370683Y25254483D01*
X51362163Y25254188D01*
X51303090Y25252899D01*
X51279868Y25247899D01*
X51262262Y25245831D01*
X51244849Y25242478D01*
X51221205Y25240222D01*
X51192855Y25231905D01*
X51175318Y25226761D01*
X51139885Y25217762D01*
X51116352Y25212695D01*
X51116350Y25212694D01*
X51093134Y25207696D01*
X51071285Y25198400D01*
X51054386Y25193039D01*
X51037918Y25186452D01*
X51015124Y25179765D01*
X50994006Y25168889D01*
X50994007Y25168889D01*
X50972602Y25157865D01*
X50939510Y25142329D01*
X50923800Y25135644D01*
X50895514Y25123608D01*
X50875814Y25110345D01*
X50860230Y25101884D01*
X50845306Y25092303D01*
X50824193Y25081429D01*
X50805521Y25066762D01*
X50805518Y25066760D01*
X50786583Y25051886D01*
X50757023Y25030370D01*
X50717361Y25003668D01*
X50713175Y24999873D01*
X50707951Y24994649D01*
X50707304Y24994075D01*
X50704438Y24991346D01*
X50704342Y24991447D01*
X50690536Y24979201D01*
X50673980Y24963435D01*
X50655302Y24948763D01*
X50622476Y24910934D01*
X50598447Y24885145D01*
X49057346Y23344044D01*
X48943645Y23258928D01*
X48810570Y23209294D01*
X48668902Y23199161D01*
X48530117Y23229352D01*
X48405460Y23297420D01*
X48305030Y23397850D01*
X48236962Y23522507D01*
X48206771Y23661292D01*
X48205500Y23696890D01*
X48205500Y25052816D01*
X48194766Y25173087D01*
X48138741Y25368470D01*
X48064608Y25510273D01*
X48017391Y25644215D01*
X48009822Y25786044D01*
X48042518Y25924259D01*
X48050422Y25943182D01*
X48100547Y26056564D01*
X48142785Y26206325D01*
X48166893Y26291807D01*
X48166893Y26291808D01*
X48171681Y26308784D01*
X48193127Y26468455D01*
X48204871Y26555888D01*
X48204871Y26555892D01*
X48206566Y26568509D01*
X48207171Y26587772D01*
X48209827Y26672266D01*
X48209827Y26672270D01*
X48210227Y26685000D01*
X48198737Y26847288D01*
X48192966Y26928797D01*
X48192965Y26928802D01*
X48191719Y26946404D01*
X48136563Y27202592D01*
X48045860Y27448453D01*
X47921420Y27679080D01*
X47912179Y27691592D01*
X47854342Y27820174D01*
X47834931Y27960871D01*
X47855946Y28101338D01*
X47910514Y28222079D01*
X47994586Y28356884D01*
X48012905Y28398320D01*
X48093410Y28580420D01*
X48093411Y28580422D01*
X48100547Y28596564D01*
X48107721Y28621999D01*
X48166893Y28831807D01*
X48166893Y28831808D01*
X48171681Y28848784D01*
X48182011Y28925692D01*
X48220759Y29062335D01*
X48296435Y29182526D01*
X48402906Y29276528D01*
X48531548Y29336726D01*
X48671939Y29358243D01*
X48812705Y29339335D01*
G37*
%TD.AperFunction*%
%TA.AperFunction,NonConductor*%
G36*
X40506514Y35260579D02*
G01*
X40639483Y35210659D01*
X40752245Y35126057D01*
X41908346Y33969956D01*
X41993462Y33856255D01*
X42043096Y33723180D01*
X42054500Y33617110D01*
X42054500Y22323679D01*
X42054331Y22319066D01*
X42052416Y22307805D01*
X42052934Y22284060D01*
X42052934Y22284058D01*
X42054381Y22217749D01*
X42054500Y22206864D01*
X42054500Y22171336D01*
X42055517Y22160683D01*
X42055812Y22152163D01*
X42057101Y22093090D01*
X42062101Y22069868D01*
X42064169Y22052262D01*
X42067522Y22034849D01*
X42069778Y22011205D01*
X42076466Y21988408D01*
X42083239Y21965318D01*
X42092238Y21929885D01*
X42096321Y21910924D01*
X42102304Y21883134D01*
X42111600Y21861285D01*
X42116961Y21844386D01*
X42123548Y21827918D01*
X42130235Y21805124D01*
X42141111Y21784007D01*
X42152135Y21762602D01*
X42167671Y21729510D01*
X42186392Y21685514D01*
X42199655Y21665814D01*
X42208116Y21650230D01*
X42217697Y21635306D01*
X42228571Y21614193D01*
X42243238Y21595521D01*
X42243240Y21595518D01*
X42258114Y21576583D01*
X42279630Y21547023D01*
X42306332Y21507361D01*
X42310127Y21503175D01*
X42315351Y21497951D01*
X42315925Y21497304D01*
X42318654Y21494438D01*
X42318553Y21494342D01*
X42330799Y21480536D01*
X42346565Y21463980D01*
X42361237Y21445302D01*
X42399066Y21412476D01*
X42424855Y21388447D01*
X43584375Y20228927D01*
X43587520Y20225543D01*
X43594126Y20216230D01*
X43640558Y20171781D01*
X43659202Y20153933D01*
X43666982Y20146320D01*
X43692097Y20121205D01*
X43700354Y20114386D01*
X43706613Y20108546D01*
X43749265Y20067716D01*
X43769222Y20054830D01*
X43783130Y20043846D01*
X43797814Y20033904D01*
X43816130Y20018779D01*
X43836977Y20007389D01*
X43858082Y19995858D01*
X43889503Y19977165D01*
X43909739Y19964099D01*
X43909742Y19964097D01*
X43929689Y19951218D01*
X43951711Y19942343D01*
X43967445Y19934187D01*
X43983753Y19927197D01*
X44004601Y19915807D01*
X44050151Y19901226D01*
X44084536Y19888813D01*
X44128889Y19870938D01*
X44127877Y19868428D01*
X44225335Y19823639D01*
X44332452Y19730373D01*
X44408953Y19610706D01*
X44448641Y19474334D01*
X44448302Y19332304D01*
X44407961Y19196123D01*
X44330888Y19076823D01*
X44223327Y18984070D01*
X44093991Y18925378D01*
X43954552Y18905500D01*
X42582890Y18905500D01*
X42442305Y18925713D01*
X42313110Y18984714D01*
X42230044Y19051654D01*
X41505625Y19776073D01*
X41502480Y19779457D01*
X41495874Y19788770D01*
X41430797Y19851068D01*
X41423018Y19858680D01*
X41397903Y19883795D01*
X41389646Y19890614D01*
X41383387Y19896454D01*
X41357897Y19920855D01*
X41340735Y19937284D01*
X41320778Y19950170D01*
X41306870Y19961154D01*
X41292186Y19971096D01*
X41273870Y19986221D01*
X41248731Y19999956D01*
X41231918Y20009142D01*
X41200497Y20027835D01*
X41180261Y20040901D01*
X41180258Y20040903D01*
X41160311Y20053782D01*
X41138289Y20062657D01*
X41122555Y20070813D01*
X41106247Y20077803D01*
X41085399Y20089193D01*
X41039849Y20103774D01*
X41005464Y20116187D01*
X40983135Y20125186D01*
X40983134Y20125186D01*
X40961113Y20134061D01*
X40937808Y20138612D01*
X40920801Y20143650D01*
X40903476Y20147427D01*
X40880856Y20154668D01*
X40857276Y20157501D01*
X40857274Y20157501D01*
X40833381Y20160371D01*
X40797255Y20166060D01*
X40767962Y20171781D01*
X40767955Y20171782D01*
X40750329Y20175224D01*
X40744686Y20175500D01*
X40737303Y20175500D01*
X40736419Y20175553D01*
X40732489Y20175649D01*
X40732492Y20175788D01*
X40714042Y20176892D01*
X40691203Y20177450D01*
X40667623Y20180283D01*
X40643938Y20178606D01*
X40643934Y20178606D01*
X40617671Y20176746D01*
X40582426Y20175500D01*
X40264227Y20175500D01*
X40123642Y20195713D01*
X39994447Y20254714D01*
X39887108Y20347724D01*
X39810321Y20467208D01*
X39770306Y20603485D01*
X39770306Y20745515D01*
X39807837Y20876266D01*
X39845547Y20961564D01*
X39851537Y20982800D01*
X39911893Y21196807D01*
X39911893Y21196808D01*
X39916681Y21213784D01*
X39945687Y21429740D01*
X39949871Y21460888D01*
X39949871Y21460892D01*
X39951566Y21473509D01*
X39954353Y21562200D01*
X39954827Y21577266D01*
X39954827Y21577270D01*
X39955227Y21590000D01*
X39946917Y21707370D01*
X39937966Y21833797D01*
X39937965Y21833802D01*
X39936719Y21851404D01*
X39881563Y22107592D01*
X39790860Y22353453D01*
X39666420Y22584080D01*
X39657179Y22596592D01*
X39599342Y22725174D01*
X39579931Y22865871D01*
X39600946Y23006338D01*
X39655514Y23127079D01*
X39739586Y23261884D01*
X39845547Y23501564D01*
X39890596Y23661292D01*
X39911893Y23736807D01*
X39911893Y23736808D01*
X39916681Y23753784D01*
X39951566Y24013509D01*
X39955227Y24130000D01*
X39948431Y24225992D01*
X39937966Y24373797D01*
X39937965Y24373802D01*
X39936719Y24391404D01*
X39881563Y24647592D01*
X39790860Y24893453D01*
X39666420Y25124080D01*
X39657179Y25136592D01*
X39599342Y25265174D01*
X39579931Y25405871D01*
X39600946Y25546338D01*
X39655514Y25667079D01*
X39739586Y25801884D01*
X39798709Y25935617D01*
X39838410Y26025420D01*
X39838411Y26025422D01*
X39845547Y26041564D01*
X39854957Y26074926D01*
X39911893Y26276807D01*
X39911893Y26276808D01*
X39916681Y26293784D01*
X39946892Y26518707D01*
X39949871Y26540888D01*
X39949871Y26540892D01*
X39951566Y26553509D01*
X39953967Y26629911D01*
X39954827Y26657266D01*
X39954827Y26657270D01*
X39955227Y26670000D01*
X39942675Y26847288D01*
X39937966Y26913797D01*
X39937965Y26913802D01*
X39936719Y26931404D01*
X39881563Y27187592D01*
X39790860Y27433453D01*
X39666420Y27664080D01*
X39657179Y27676592D01*
X39599342Y27805174D01*
X39579931Y27945871D01*
X39600946Y28086338D01*
X39655514Y28207079D01*
X39739586Y28341884D01*
X39795641Y28468678D01*
X39838410Y28565420D01*
X39838411Y28565422D01*
X39845547Y28581564D01*
X39851537Y28602800D01*
X39911893Y28816807D01*
X39911893Y28816808D01*
X39916681Y28833784D01*
X39929423Y28928654D01*
X39949871Y29080888D01*
X39949871Y29080892D01*
X39951566Y29093509D01*
X39955227Y29210000D01*
X39948354Y29307078D01*
X39937966Y29453797D01*
X39937965Y29453802D01*
X39936719Y29471404D01*
X39881563Y29727592D01*
X39790860Y29973453D01*
X39666420Y30204080D01*
X39657179Y30216592D01*
X39599342Y30345174D01*
X39579931Y30485871D01*
X39600946Y30626338D01*
X39655514Y30747079D01*
X39739586Y30881884D01*
X39782339Y30978589D01*
X39838410Y31105420D01*
X39838411Y31105422D01*
X39845547Y31121564D01*
X39863678Y31185849D01*
X39911893Y31356807D01*
X39911893Y31356808D01*
X39916681Y31373784D01*
X39933720Y31500642D01*
X39949871Y31620888D01*
X39949871Y31620892D01*
X39951566Y31633509D01*
X39952267Y31655823D01*
X39954827Y31737266D01*
X39954827Y31737270D01*
X39955227Y31750000D01*
X39938295Y31989145D01*
X39937966Y31993797D01*
X39937965Y31993802D01*
X39936719Y32011404D01*
X39881563Y32267592D01*
X39790860Y32513453D01*
X39666420Y32744080D01*
X39657179Y32756592D01*
X39599342Y32885174D01*
X39579931Y33025871D01*
X39600946Y33166338D01*
X39655514Y33287079D01*
X39739586Y33421884D01*
X39759850Y33467721D01*
X39838410Y33645420D01*
X39838411Y33645422D01*
X39845547Y33661564D01*
X39853127Y33688438D01*
X39911893Y33896807D01*
X39911893Y33896808D01*
X39916681Y33913784D01*
X39936060Y34058064D01*
X39949871Y34160888D01*
X39949871Y34160892D01*
X39951566Y34173509D01*
X39955227Y34290000D01*
X39946400Y34414666D01*
X39937966Y34533797D01*
X39937965Y34533802D01*
X39936719Y34551404D01*
X39911576Y34668188D01*
X39901748Y34809876D01*
X39932236Y34948596D01*
X40000571Y35073106D01*
X40101217Y35173321D01*
X40226019Y35241122D01*
X40364868Y35271015D01*
X40506514Y35260579D01*
G37*
%TD.AperFunction*%
%TA.AperFunction,NonConductor*%
G36*
X69878696Y22984287D02*
G01*
X70007891Y22925286D01*
X70115230Y22832276D01*
X70192017Y22712792D01*
X70232032Y22576515D01*
X70232032Y22434485D01*
X70192017Y22298208D01*
X70115230Y22178724D01*
X70090958Y22152655D01*
X69094855Y21156553D01*
X68129538Y20191236D01*
X68015837Y20106120D01*
X67951443Y20076682D01*
X67948799Y20075694D01*
X67931029Y20070514D01*
X67693127Y19960840D01*
X67632140Y19920855D01*
X67496768Y19832101D01*
X67474049Y19817206D01*
X67460241Y19804882D01*
X67460236Y19804878D01*
X67292421Y19655096D01*
X67278609Y19642768D01*
X67111098Y19441359D01*
X66975198Y19217402D01*
X66968039Y19200331D01*
X66968038Y19200328D01*
X66922041Y19090638D01*
X66873893Y18975818D01*
X66847530Y18872015D01*
X66813968Y18739866D01*
X66813967Y18739859D01*
X66809409Y18721913D01*
X66807553Y18703482D01*
X66807553Y18703481D01*
X66787676Y18506073D01*
X66783164Y18461266D01*
X66795732Y18199603D01*
X66846839Y17942672D01*
X66853094Y17925249D01*
X66853095Y17925247D01*
X66928627Y17714874D01*
X66935361Y17696117D01*
X66936366Y17694246D01*
X66972754Y17565809D01*
X66971401Y17423785D01*
X66930091Y17287895D01*
X66852169Y17169148D01*
X66743949Y17077165D01*
X66614198Y17019396D01*
X66478179Y17000500D01*
X63537889Y17000500D01*
X63397304Y17020713D01*
X63268109Y17079714D01*
X63185043Y17146654D01*
X62573107Y17758591D01*
X61825625Y18506073D01*
X61822480Y18509457D01*
X61815874Y18518770D01*
X61750797Y18581068D01*
X61743018Y18588680D01*
X61717903Y18613795D01*
X61709646Y18620614D01*
X61703387Y18626454D01*
X61677897Y18650855D01*
X61660735Y18667284D01*
X61640778Y18680170D01*
X61626870Y18691154D01*
X61612186Y18701096D01*
X61593870Y18716221D01*
X61573023Y18727611D01*
X61551918Y18739142D01*
X61520497Y18757835D01*
X61500261Y18770901D01*
X61500258Y18770903D01*
X61480311Y18783782D01*
X61458289Y18792657D01*
X61442555Y18800813D01*
X61426247Y18807803D01*
X61405399Y18819193D01*
X61359849Y18833774D01*
X61325464Y18846187D01*
X61303135Y18855186D01*
X61303134Y18855186D01*
X61281113Y18864061D01*
X61257808Y18868612D01*
X61240801Y18873650D01*
X61223476Y18877427D01*
X61200856Y18884668D01*
X61177276Y18887501D01*
X61177274Y18887501D01*
X61153381Y18890371D01*
X61117255Y18896060D01*
X61087962Y18901781D01*
X61087955Y18901782D01*
X61070329Y18905224D01*
X61064686Y18905500D01*
X61057303Y18905500D01*
X61056419Y18905553D01*
X61052489Y18905649D01*
X61052492Y18905788D01*
X61034042Y18906892D01*
X61011203Y18907450D01*
X60987623Y18910283D01*
X60963938Y18908606D01*
X60963934Y18908606D01*
X60937671Y18906746D01*
X60902426Y18905500D01*
X48754238Y18905500D01*
X48613653Y18925713D01*
X48484458Y18984714D01*
X48377119Y19077724D01*
X48300332Y19197208D01*
X48260317Y19333485D01*
X48260317Y19475515D01*
X48300332Y19611792D01*
X48377119Y19731276D01*
X48484458Y19824286D01*
X48593465Y19875495D01*
X48601866Y19877304D01*
X48623710Y19886599D01*
X48640609Y19891959D01*
X48657082Y19898548D01*
X48679876Y19905235D01*
X48722398Y19927135D01*
X48755490Y19942671D01*
X48777630Y19952092D01*
X48777631Y19952093D01*
X48799486Y19961392D01*
X48819186Y19974655D01*
X48834770Y19983116D01*
X48849694Y19992697D01*
X48870807Y20003571D01*
X48908417Y20033114D01*
X48937980Y20054632D01*
X48950062Y20062766D01*
X48977639Y20081332D01*
X48981825Y20085127D01*
X48987049Y20090351D01*
X48987696Y20090925D01*
X48990562Y20093654D01*
X48990658Y20093553D01*
X49004464Y20105799D01*
X49021020Y20121565D01*
X49039698Y20136237D01*
X49072524Y20174066D01*
X49096553Y20199855D01*
X51755044Y22858346D01*
X51868745Y22943462D01*
X52001820Y22993096D01*
X52107890Y23004500D01*
X69738111Y23004500D01*
X69878696Y22984287D01*
G37*
%TD.AperFunction*%
%TA.AperFunction,NonConductor*%
G36*
X73762695Y20444287D02*
G01*
X73891890Y20385286D01*
X73974956Y20318346D01*
X74293346Y19999956D01*
X74378462Y19886255D01*
X74428096Y19753180D01*
X74439500Y19647110D01*
X74439500Y17220432D01*
X74419287Y17079847D01*
X74360286Y16950652D01*
X74267276Y16843313D01*
X74147792Y16766526D01*
X74011515Y16726511D01*
X73869485Y16726511D01*
X73733208Y16766526D01*
X73670000Y16802030D01*
X73658870Y16811221D01*
X73616918Y16834142D01*
X73585497Y16852835D01*
X73565261Y16865901D01*
X73565258Y16865903D01*
X73545311Y16878782D01*
X73523289Y16887657D01*
X73507555Y16895813D01*
X73491247Y16902803D01*
X73470399Y16914193D01*
X73424849Y16928774D01*
X73390464Y16941187D01*
X73368135Y16950186D01*
X73368134Y16950186D01*
X73346113Y16959061D01*
X73322808Y16963612D01*
X73305801Y16968650D01*
X73288476Y16972427D01*
X73265856Y16979668D01*
X73242276Y16982501D01*
X73242274Y16982501D01*
X73218381Y16985371D01*
X73182255Y16991060D01*
X73152962Y16996781D01*
X73152955Y16996782D01*
X73135329Y17000224D01*
X73129686Y17000500D01*
X73122338Y17000500D01*
X73099545Y17003268D01*
X73099973Y17006795D01*
X72993920Y17027369D01*
X72867758Y17092605D01*
X72765085Y17190741D01*
X72694219Y17313829D01*
X72660902Y17451896D01*
X72667833Y17593758D01*
X72702730Y17703672D01*
X72750852Y17810499D01*
X72795605Y17969180D01*
X72816933Y18044803D01*
X72816934Y18044809D01*
X72821960Y18062629D01*
X72824663Y18083872D01*
X72849831Y18281714D01*
X72855020Y18322499D01*
X72857442Y18415000D01*
X72852635Y18479693D01*
X72844098Y18594567D01*
X72838028Y18676245D01*
X72780213Y18931750D01*
X72685267Y19175903D01*
X72595202Y19333485D01*
X72564462Y19387269D01*
X72564461Y19387270D01*
X72555276Y19403341D01*
X72543819Y19417875D01*
X72543815Y19417880D01*
X72404558Y19594526D01*
X72393095Y19609067D01*
X72379605Y19621757D01*
X72373538Y19628378D01*
X72293462Y19745682D01*
X72249679Y19880796D01*
X72245734Y20022771D01*
X72281949Y20160107D01*
X72355389Y20281677D01*
X72460103Y20377632D01*
X72587610Y20440198D01*
X72741437Y20464500D01*
X73622110Y20464500D01*
X73762695Y20444287D01*
G37*
%TD.AperFunction*%
%TA.AperFunction,NonConductor*%
G36*
X40506514Y17480579D02*
G01*
X40639483Y17430659D01*
X40752245Y17346057D01*
X41044375Y17053927D01*
X41047520Y17050543D01*
X41054126Y17041230D01*
X41096673Y17000500D01*
X41119202Y16978933D01*
X41126982Y16971320D01*
X41152097Y16946205D01*
X41160354Y16939386D01*
X41166613Y16933546D01*
X41209265Y16892716D01*
X41229222Y16879830D01*
X41243130Y16868846D01*
X41257814Y16858904D01*
X41276130Y16843779D01*
X41296977Y16832389D01*
X41318082Y16820858D01*
X41349503Y16802165D01*
X41369739Y16789099D01*
X41369742Y16789097D01*
X41389689Y16776218D01*
X41411711Y16767343D01*
X41427445Y16759187D01*
X41443753Y16752197D01*
X41464601Y16740807D01*
X41510151Y16726226D01*
X41544534Y16713814D01*
X41588887Y16695939D01*
X41612186Y16691389D01*
X41629196Y16686350D01*
X41646528Y16682571D01*
X41669144Y16675332D01*
X41692723Y16672500D01*
X41692731Y16672498D01*
X41716632Y16669627D01*
X41752754Y16663938D01*
X41782033Y16658220D01*
X41782040Y16658219D01*
X41799671Y16654776D01*
X41805314Y16654500D01*
X41812707Y16654500D01*
X41813598Y16654447D01*
X41817511Y16654351D01*
X41817508Y16654213D01*
X41835943Y16653109D01*
X41858798Y16652550D01*
X41882377Y16649718D01*
X41906064Y16651395D01*
X41906068Y16651395D01*
X41932319Y16653254D01*
X41967561Y16654500D01*
X60287110Y16654500D01*
X60427695Y16634287D01*
X60556890Y16575286D01*
X60639956Y16508346D01*
X61200956Y15947346D01*
X61286072Y15833645D01*
X61335706Y15700570D01*
X61345839Y15558902D01*
X61315648Y15420117D01*
X61247580Y15295460D01*
X61147150Y15195030D01*
X61022493Y15126962D01*
X60883708Y15096771D01*
X60848110Y15095500D01*
X40264227Y15095500D01*
X40123642Y15115713D01*
X39994447Y15174714D01*
X39887108Y15267724D01*
X39810321Y15387208D01*
X39770306Y15523485D01*
X39770306Y15665515D01*
X39807837Y15796266D01*
X39845547Y15881564D01*
X39874848Y15985454D01*
X39911893Y16116807D01*
X39911893Y16116808D01*
X39916681Y16133784D01*
X39951566Y16393509D01*
X39955227Y16510000D01*
X39948650Y16602888D01*
X39937966Y16753797D01*
X39937965Y16753802D01*
X39936719Y16771404D01*
X39911576Y16888188D01*
X39901748Y17029876D01*
X39932236Y17168596D01*
X40000571Y17293106D01*
X40101217Y17393321D01*
X40226019Y17461122D01*
X40364868Y17491015D01*
X40506514Y17480579D01*
G37*
%TD.AperFunction*%
%TA.AperFunction,NonConductor*%
G36*
X66622112Y14729287D02*
G01*
X66751307Y14670286D01*
X66858646Y14577276D01*
X66935433Y14457792D01*
X66975448Y14321515D01*
X66975448Y14179485D01*
X66941705Y14057531D01*
X66929437Y14028274D01*
X66873893Y13895818D01*
X66854725Y13820343D01*
X66813968Y13659866D01*
X66813967Y13659859D01*
X66809409Y13641913D01*
X66807553Y13623482D01*
X66807553Y13623481D01*
X66793294Y13481867D01*
X66783164Y13381266D01*
X66795732Y13119603D01*
X66846839Y12862672D01*
X66853094Y12845249D01*
X66853095Y12845247D01*
X66928627Y12634874D01*
X66935361Y12616117D01*
X66944126Y12599805D01*
X66944128Y12599800D01*
X67046891Y12408550D01*
X67059355Y12385354D01*
X67070436Y12370515D01*
X67075328Y12363964D01*
X67079552Y12356206D01*
X67080381Y12354905D01*
X67080292Y12354848D01*
X67143247Y12239226D01*
X67173272Y12100405D01*
X67162970Y11958749D01*
X67113177Y11825733D01*
X67102107Y11806543D01*
X67010137Y11654980D01*
X66919931Y11545284D01*
X66802467Y11465441D01*
X66667267Y11421926D01*
X66525284Y11418263D01*
X66388021Y11454750D01*
X66266597Y11528431D01*
X66230693Y11561005D01*
X63894044Y13897654D01*
X63808928Y14011355D01*
X63759294Y14144430D01*
X63749161Y14286098D01*
X63779352Y14424883D01*
X63847420Y14549540D01*
X63947850Y14649970D01*
X64072507Y14718038D01*
X64211292Y14748229D01*
X64246890Y14749500D01*
X66481527Y14749500D01*
X66622112Y14729287D01*
G37*
%TD.AperFunction*%
%TA.AperFunction,NonConductor*%
G36*
X41303695Y12824287D02*
G01*
X41432890Y12765286D01*
X41540229Y12672276D01*
X41617016Y12552792D01*
X41657031Y12416515D01*
X41657031Y12274485D01*
X41617016Y12138208D01*
X41540229Y12018724D01*
X41515956Y11992654D01*
X40802346Y11279044D01*
X40688645Y11193928D01*
X40555570Y11144294D01*
X40413902Y11134161D01*
X40275117Y11164352D01*
X40150460Y11232420D01*
X40050030Y11332850D01*
X39981962Y11457507D01*
X39951771Y11596292D01*
X39950500Y11631890D01*
X39950500Y12337816D01*
X39952083Y12337816D01*
X39964594Y12464657D01*
X40017792Y12596348D01*
X40105937Y12707716D01*
X40221888Y12789740D01*
X40356251Y12835775D01*
X40449158Y12844500D01*
X41163110Y12844500D01*
X41303695Y12824287D01*
G37*
%TD.AperFunction*%
%TA.AperFunction,NonConductor*%
G36*
X11276644Y40775249D02*
G01*
X11287035Y40773220D01*
X11304671Y40769776D01*
X11310314Y40769500D01*
X14345802Y40769500D01*
X14486387Y40749287D01*
X14615582Y40690286D01*
X14722921Y40597276D01*
X14799708Y40477792D01*
X14839723Y40341515D01*
X14839723Y40199485D01*
X14808303Y40083168D01*
X14745574Y39928297D01*
X14741321Y39911174D01*
X14741320Y39911172D01*
X14690380Y39706098D01*
X14682399Y39673968D01*
X14655688Y39413274D01*
X14656381Y39395638D01*
X14662398Y39242515D01*
X14665977Y39151418D01*
X14713058Y38893624D01*
X14795994Y38645035D01*
X14803876Y38629260D01*
X14803878Y38629256D01*
X14895586Y38445720D01*
X14913128Y38410613D01*
X14923159Y38396099D01*
X14923161Y38396096D01*
X14966547Y38333322D01*
X15062124Y38195033D01*
X15240010Y38002598D01*
X15443235Y37837147D01*
X15458346Y37828050D01*
X15458348Y37828048D01*
X15598797Y37743491D01*
X15667745Y37701981D01*
X15683983Y37695105D01*
X15683987Y37695103D01*
X15757924Y37663795D01*
X15909060Y37599797D01*
X15926102Y37595278D01*
X15926109Y37595276D01*
X15995423Y37576898D01*
X16162365Y37532634D01*
X16179879Y37530561D01*
X16179885Y37530560D01*
X16405083Y37503907D01*
X16422607Y37501833D01*
X16684592Y37508007D01*
X16782996Y37524386D01*
X16925679Y37548134D01*
X16925684Y37548135D01*
X16943094Y37551033D01*
X17192955Y37630054D01*
X17429188Y37743491D01*
X17537634Y37815952D01*
X17632404Y37879275D01*
X17632408Y37879278D01*
X17647082Y37889083D01*
X17809675Y38034714D01*
X17829140Y38052148D01*
X17829144Y38052152D01*
X17842287Y38063924D01*
X17879582Y38108291D01*
X17999557Y38251019D01*
X18010910Y38264525D01*
X18149586Y38486884D01*
X18157679Y38505189D01*
X18248410Y38710420D01*
X18248411Y38710422D01*
X18255547Y38726564D01*
X18261769Y38748623D01*
X18321893Y38961807D01*
X18321893Y38961808D01*
X18326681Y38978784D01*
X18361566Y39238509D01*
X18364342Y39326829D01*
X18364827Y39342266D01*
X18364827Y39342270D01*
X18365227Y39355000D01*
X18357248Y39467695D01*
X18347966Y39598797D01*
X18347965Y39598802D01*
X18346719Y39616404D01*
X18291563Y39872592D01*
X18208484Y40097788D01*
X18178789Y40236679D01*
X18189426Y40378310D01*
X18239536Y40511207D01*
X18325056Y40624603D01*
X18439060Y40709313D01*
X18572312Y40758472D01*
X18676641Y40769500D01*
X20689726Y40769500D01*
X20830311Y40749287D01*
X20959506Y40690286D01*
X21066845Y40597276D01*
X21143632Y40477792D01*
X21183647Y40341515D01*
X21183647Y40199485D01*
X21152228Y40083169D01*
X21095574Y39943297D01*
X21091321Y39926174D01*
X21091320Y39926172D01*
X21036654Y39706098D01*
X21032399Y39688968D01*
X21005688Y39428274D01*
X21006381Y39410638D01*
X21015054Y39189919D01*
X21015977Y39166418D01*
X21019147Y39149063D01*
X21050245Y38978784D01*
X21063058Y38908624D01*
X21068641Y38891890D01*
X21131043Y38704850D01*
X21145994Y38660035D01*
X21153876Y38644260D01*
X21153878Y38644256D01*
X21253081Y38445720D01*
X21263128Y38425613D01*
X21273158Y38411101D01*
X21273162Y38411094D01*
X21291484Y38384585D01*
X21354787Y38257442D01*
X21379706Y38117615D01*
X21364222Y37976432D01*
X21312479Y37850241D01*
X21206214Y37667292D01*
X21193955Y37646187D01*
X21095574Y37403297D01*
X21091321Y37386174D01*
X21091320Y37386172D01*
X21069333Y37297655D01*
X21032399Y37148968D01*
X21005688Y36888274D01*
X21006381Y36870638D01*
X21009623Y36788140D01*
X21015977Y36626418D01*
X21063058Y36368624D01*
X21145994Y36120035D01*
X21153876Y36104260D01*
X21153878Y36104256D01*
X21232495Y35946919D01*
X21263128Y35885613D01*
X21273158Y35871101D01*
X21273162Y35871094D01*
X21291484Y35844585D01*
X21354787Y35717442D01*
X21379706Y35577615D01*
X21364222Y35436432D01*
X21312479Y35310241D01*
X21297978Y35285276D01*
X21193955Y35106187D01*
X21095574Y34863297D01*
X21091321Y34846174D01*
X21091320Y34846172D01*
X21068211Y34753140D01*
X21032399Y34608968D01*
X21005688Y34348274D01*
X21015977Y34086418D01*
X21039673Y33956669D01*
X21058012Y33856255D01*
X21063058Y33828624D01*
X21145994Y33580035D01*
X21153876Y33564260D01*
X21153878Y33564256D01*
X21253046Y33365790D01*
X21263128Y33345613D01*
X21273158Y33331101D01*
X21273162Y33331094D01*
X21291484Y33304585D01*
X21354787Y33177442D01*
X21379706Y33037615D01*
X21364222Y32896432D01*
X21312479Y32770241D01*
X21298084Y32745458D01*
X21193955Y32566187D01*
X21095574Y32323297D01*
X21091321Y32306174D01*
X21091320Y32306172D01*
X21051230Y32144779D01*
X21032399Y32068968D01*
X21005688Y31808274D01*
X21015977Y31546418D01*
X21063058Y31288624D01*
X21145994Y31040035D01*
X21153876Y31024260D01*
X21153878Y31024256D01*
X21227723Y30876470D01*
X21263128Y30805613D01*
X21273158Y30791101D01*
X21273162Y30791094D01*
X21291484Y30764585D01*
X21354787Y30637442D01*
X21379706Y30497615D01*
X21364222Y30356432D01*
X21312479Y30230241D01*
X21276990Y30169142D01*
X21193955Y30026187D01*
X21095574Y29783297D01*
X21032399Y29528968D01*
X21005688Y29268274D01*
X21007149Y29231090D01*
X21012529Y29094180D01*
X21015977Y29006418D01*
X21030720Y28925692D01*
X21059588Y28767625D01*
X21063058Y28748624D01*
X21093327Y28657897D01*
X21115157Y28592466D01*
X21145994Y28500035D01*
X21153876Y28484260D01*
X21153878Y28484256D01*
X21254373Y28283135D01*
X21263128Y28265613D01*
X21273158Y28251101D01*
X21273162Y28251094D01*
X21291484Y28224585D01*
X21354787Y28097442D01*
X21379706Y27957615D01*
X21364222Y27816432D01*
X21312479Y27690241D01*
X21297284Y27664080D01*
X21193955Y27486187D01*
X21095574Y27243297D01*
X21091321Y27226174D01*
X21091320Y27226172D01*
X21085848Y27204143D01*
X21032399Y26988968D01*
X21005688Y26728274D01*
X21006889Y26697710D01*
X21013671Y26525116D01*
X21015977Y26466418D01*
X21038590Y26342602D01*
X21052797Y26264811D01*
X21063058Y26208624D01*
X21068641Y26191890D01*
X21115157Y26052466D01*
X21145994Y25960035D01*
X21153876Y25944260D01*
X21153878Y25944256D01*
X21248694Y25754500D01*
X21263128Y25725613D01*
X21273158Y25711101D01*
X21273162Y25711094D01*
X21291484Y25684585D01*
X21354787Y25557442D01*
X21379706Y25417615D01*
X21364222Y25276432D01*
X21312479Y25150241D01*
X21264976Y25068458D01*
X21193955Y24946187D01*
X21095574Y24703297D01*
X21091321Y24686174D01*
X21091320Y24686172D01*
X21036654Y24466098D01*
X21032399Y24448968D01*
X21005688Y24188274D01*
X21015977Y23926418D01*
X21019147Y23909063D01*
X21057896Y23696890D01*
X21063058Y23668624D01*
X21145994Y23420035D01*
X21153876Y23404260D01*
X21153878Y23404256D01*
X21251295Y23209294D01*
X21263128Y23185613D01*
X21273158Y23171101D01*
X21273162Y23171094D01*
X21291484Y23144585D01*
X21354787Y23017442D01*
X21379706Y22877615D01*
X21364222Y22736432D01*
X21312479Y22610241D01*
X21272510Y22541429D01*
X21193955Y22406187D01*
X21095574Y22163297D01*
X21091321Y22146174D01*
X21091320Y22146172D01*
X21056526Y22006100D01*
X21032399Y21908968D01*
X21005688Y21648274D01*
X21006381Y21630638D01*
X21014953Y21412488D01*
X21015977Y21386418D01*
X21063058Y21128624D01*
X21145994Y20880035D01*
X21153876Y20864260D01*
X21153878Y20864256D01*
X21235927Y20700050D01*
X21263128Y20645613D01*
X21273158Y20631101D01*
X21273162Y20631094D01*
X21291484Y20604585D01*
X21354787Y20477442D01*
X21379706Y20337615D01*
X21364222Y20196432D01*
X21312479Y20070241D01*
X21276990Y20009142D01*
X21193955Y19866187D01*
X21095574Y19623297D01*
X21091321Y19606174D01*
X21091320Y19606172D01*
X21053917Y19455596D01*
X21032399Y19368968D01*
X21005688Y19108274D01*
X21006381Y19090638D01*
X21013802Y18901781D01*
X21015977Y18846418D01*
X21063058Y18588624D01*
X21068641Y18571890D01*
X21136386Y18368835D01*
X21145994Y18340035D01*
X21153876Y18324260D01*
X21153878Y18324256D01*
X21237683Y18156536D01*
X21263128Y18105613D01*
X21273158Y18091101D01*
X21273162Y18091094D01*
X21291484Y18064585D01*
X21354787Y17937442D01*
X21379706Y17797615D01*
X21364222Y17656432D01*
X21312479Y17530241D01*
X21274790Y17465354D01*
X21193955Y17326187D01*
X21095574Y17083297D01*
X21091321Y17066174D01*
X21091320Y17066172D01*
X21036654Y16846098D01*
X21032399Y16828968D01*
X21005688Y16568274D01*
X21007478Y16522710D01*
X21011199Y16428030D01*
X21015977Y16306418D01*
X21019147Y16289063D01*
X21047794Y16132205D01*
X21063058Y16048624D01*
X21068641Y16031890D01*
X21115157Y15892466D01*
X21145994Y15800035D01*
X21153876Y15784260D01*
X21153878Y15784256D01*
X21232495Y15626919D01*
X21263128Y15565613D01*
X21273158Y15551101D01*
X21273162Y15551094D01*
X21291484Y15524585D01*
X21354787Y15397442D01*
X21379706Y15257615D01*
X21364222Y15116432D01*
X21312479Y14990241D01*
X21266983Y14911913D01*
X21193955Y14786187D01*
X21095574Y14543297D01*
X21091321Y14526174D01*
X21091320Y14526172D01*
X21052886Y14371446D01*
X21032399Y14288968D01*
X21005688Y14028274D01*
X21006381Y14010638D01*
X21010893Y13895818D01*
X21015977Y13766418D01*
X21063058Y13508624D01*
X21145994Y13260035D01*
X21153876Y13244260D01*
X21153878Y13244256D01*
X21232495Y13086919D01*
X21263128Y13025613D01*
X21273158Y13011101D01*
X21273162Y13011094D01*
X21291484Y12984585D01*
X21354787Y12857442D01*
X21379706Y12717615D01*
X21364222Y12576432D01*
X21312479Y12450241D01*
X21260698Y12361094D01*
X21193955Y12246187D01*
X21095574Y12003297D01*
X21091321Y11986174D01*
X21091320Y11986172D01*
X21052886Y11831446D01*
X21032399Y11748968D01*
X21005688Y11488274D01*
X21006381Y11470638D01*
X21010893Y11355818D01*
X21015977Y11226418D01*
X21032826Y11134161D01*
X21058695Y10992516D01*
X21063058Y10968624D01*
X21145994Y10720035D01*
X21153876Y10704260D01*
X21153878Y10704256D01*
X21249527Y10512832D01*
X21263128Y10485613D01*
X21273159Y10471099D01*
X21273161Y10471096D01*
X21319683Y10403784D01*
X21412124Y10270033D01*
X21434574Y10245747D01*
X21476926Y10199931D01*
X21557512Y10082976D01*
X21601884Y9948055D01*
X21609500Y9861208D01*
X21609500Y9614666D01*
X21589287Y9474081D01*
X21530286Y9344886D01*
X21463346Y9261820D01*
X19313180Y7111654D01*
X19199479Y7026538D01*
X19066404Y6976904D01*
X18960334Y6965500D01*
X10841500Y6965500D01*
X10700915Y6985713D01*
X10571720Y7044714D01*
X10464381Y7137724D01*
X10387594Y7257208D01*
X10347579Y7393485D01*
X10342500Y7464500D01*
X10342500Y7804816D01*
X10337232Y7863839D01*
X10344868Y8005658D01*
X10392152Y8139586D01*
X10475252Y8254769D01*
X10587436Y8341873D01*
X10619429Y8358579D01*
X10665311Y8380464D01*
X10684347Y8389060D01*
X10753313Y8418476D01*
X10771893Y8430681D01*
X10772001Y8430739D01*
X10775563Y8432542D01*
X10778944Y8434651D01*
X10779062Y8434721D01*
X10799129Y8444292D01*
X10860005Y8488036D01*
X10877228Y8499873D01*
X10924595Y8530987D01*
X10924604Y8530994D01*
X10939884Y8541031D01*
X10965431Y8563792D01*
X10965623Y8563576D01*
X10966826Y8564794D01*
X10980405Y8574552D01*
X11052218Y8648657D01*
X11057716Y8654242D01*
X12236325Y9832851D01*
X12251407Y9847315D01*
X12262224Y9857262D01*
X12279854Y9870790D01*
X12328416Y9924159D01*
X12344646Y9941172D01*
X12354280Y9950806D01*
X12365878Y9964677D01*
X12379622Y9980433D01*
X12415130Y10019456D01*
X12415133Y10019460D01*
X12430086Y10035893D01*
X12441897Y10054720D01*
X12441990Y10054843D01*
X12444464Y10057947D01*
X12446651Y10061258D01*
X12446741Y10061387D01*
X12460997Y10078438D01*
X12472007Y10097740D01*
X12472013Y10097749D01*
X12498139Y10143553D01*
X12508873Y10161489D01*
X12536899Y10206165D01*
X12536903Y10206173D01*
X12548707Y10224990D01*
X12556995Y10245608D01*
X12557066Y10245747D01*
X12558954Y10249246D01*
X12560533Y10252921D01*
X12560585Y10253035D01*
X12571595Y10272337D01*
X12579012Y10293281D01*
X12579014Y10293286D01*
X12596623Y10343012D01*
X12604008Y10362557D01*
X12608751Y10374356D01*
X12631966Y10432105D01*
X12636471Y10453858D01*
X12636524Y10454033D01*
X12637753Y10457783D01*
X12638655Y10461675D01*
X12638686Y10461797D01*
X12646108Y10482756D01*
X12658221Y10556728D01*
X12662031Y10577282D01*
X12673522Y10632769D01*
X12673523Y10632773D01*
X12677233Y10650690D01*
X12679203Y10684854D01*
X12679485Y10684838D01*
X12679475Y10686517D01*
X12682182Y10703046D01*
X12680562Y10806177D01*
X12680500Y10814014D01*
X12680500Y16557264D01*
X14705070Y16557264D01*
X14717909Y16289959D01*
X14770118Y16027488D01*
X14860549Y15775617D01*
X14869311Y15759310D01*
X14976994Y15558902D01*
X14987215Y15539879D01*
X15147335Y15325453D01*
X15160484Y15312418D01*
X15160486Y15312416D01*
X15324240Y15150085D01*
X15324245Y15150081D01*
X15337390Y15137050D01*
X15553205Y14978808D01*
X15790039Y14854203D01*
X16042690Y14765974D01*
X16060874Y14762522D01*
X16060880Y14762520D01*
X16287412Y14719511D01*
X16287416Y14719511D01*
X16305606Y14716057D01*
X16573013Y14705551D01*
X16839035Y14734685D01*
X17097829Y14802820D01*
X17343710Y14908458D01*
X17571275Y15049280D01*
X17650598Y15116432D01*
X17761394Y15210227D01*
X17761397Y15210230D01*
X17775526Y15222191D01*
X17951976Y15423393D01*
X18096747Y15648466D01*
X18206661Y15892466D01*
X18251710Y16052198D01*
X18274275Y16132205D01*
X18274276Y16132211D01*
X18279302Y16150031D01*
X18313075Y16415505D01*
X18315549Y16510000D01*
X18313412Y16538765D01*
X18297089Y16758416D01*
X18297089Y16758418D01*
X18295717Y16776877D01*
X18289995Y16802165D01*
X18240741Y17019836D01*
X18240739Y17019843D01*
X18236655Y17037891D01*
X18139662Y17287309D01*
X18063189Y17421109D01*
X18016054Y17503579D01*
X18016050Y17503585D01*
X18006868Y17519650D01*
X17970479Y17565809D01*
X17852648Y17715277D01*
X17852646Y17715279D01*
X17841190Y17729811D01*
X17646269Y17913175D01*
X17628868Y17925247D01*
X17524401Y17997718D01*
X17426385Y18065714D01*
X17409783Y18073901D01*
X17409780Y18073903D01*
X17202980Y18175886D01*
X17202973Y18175889D01*
X17186371Y18184076D01*
X16931497Y18265662D01*
X16667364Y18308678D01*
X16525306Y18310538D01*
X16418286Y18311939D01*
X16418281Y18311939D01*
X16399774Y18312181D01*
X16381436Y18309685D01*
X16381431Y18309685D01*
X16242147Y18290729D01*
X16134605Y18276093D01*
X16116836Y18270914D01*
X16116832Y18270913D01*
X15895461Y18206390D01*
X15895458Y18206389D01*
X15877683Y18201208D01*
X15860867Y18193456D01*
X15860865Y18193455D01*
X15799469Y18165151D01*
X15634652Y18089169D01*
X15410851Y17942438D01*
X15397039Y17930110D01*
X15397036Y17930108D01*
X15240862Y17790717D01*
X15211197Y17764240D01*
X15040075Y17558488D01*
X15030471Y17542662D01*
X15030468Y17542657D01*
X14975393Y17451896D01*
X14901244Y17329702D01*
X14855423Y17220432D01*
X14806083Y17102768D01*
X14797755Y17082909D01*
X14731881Y16823530D01*
X14730027Y16805113D01*
X14730026Y16805110D01*
X14710760Y16613770D01*
X14705070Y16557264D01*
X12680500Y16557264D01*
X12680500Y21479827D01*
X12680938Y21500722D01*
X12681553Y21515394D01*
X12684453Y21537422D01*
X12681054Y21609499D01*
X12680500Y21633005D01*
X12680500Y21646630D01*
X12678891Y21664662D01*
X12677469Y21685520D01*
X12674985Y21738196D01*
X12673938Y21760398D01*
X12668976Y21782063D01*
X12668955Y21782218D01*
X12668509Y21786163D01*
X12667714Y21790054D01*
X12667687Y21790207D01*
X12665711Y21812339D01*
X12659847Y21833773D01*
X12659846Y21833780D01*
X12645932Y21884640D01*
X12640839Y21904914D01*
X12629065Y21956321D01*
X12624103Y21977987D01*
X12615384Y21998427D01*
X12615339Y21998566D01*
X12614199Y22002379D01*
X12612714Y22006100D01*
X12612674Y22006208D01*
X12606808Y22027651D01*
X12574530Y22095322D01*
X12565940Y22114347D01*
X12536524Y22183313D01*
X12524319Y22201893D01*
X12524261Y22202001D01*
X12522458Y22205563D01*
X12520349Y22208944D01*
X12520279Y22209062D01*
X12510708Y22229129D01*
X12466969Y22289998D01*
X12455129Y22307225D01*
X12424013Y22354595D01*
X12424012Y22354596D01*
X12413970Y22369884D01*
X12391206Y22395434D01*
X12391421Y22395626D01*
X12390206Y22396825D01*
X12380448Y22410405D01*
X12364493Y22425867D01*
X12364490Y22425870D01*
X12306343Y22482218D01*
X12300758Y22487716D01*
X8582149Y26206325D01*
X8567685Y26221407D01*
X8557738Y26232224D01*
X8544210Y26249854D01*
X8490841Y26298416D01*
X8473828Y26314646D01*
X8464194Y26324280D01*
X8450323Y26335878D01*
X8434567Y26349622D01*
X8395544Y26385130D01*
X8395540Y26385133D01*
X8379107Y26400086D01*
X8360280Y26411897D01*
X8360157Y26411990D01*
X8357053Y26414464D01*
X8353742Y26416651D01*
X8353613Y26416741D01*
X8336562Y26430997D01*
X8317260Y26442007D01*
X8317251Y26442013D01*
X8271447Y26468139D01*
X8253511Y26478873D01*
X8208835Y26506899D01*
X8208827Y26506903D01*
X8190010Y26518707D01*
X8169392Y26526995D01*
X8169253Y26527066D01*
X8165754Y26528954D01*
X8162079Y26530533D01*
X8161965Y26530585D01*
X8142663Y26541595D01*
X8102301Y26555888D01*
X8099376Y26556924D01*
X7973602Y26622905D01*
X7871513Y26721648D01*
X7801377Y26845154D01*
X7768879Y26983416D01*
X7776649Y27125234D01*
X7809029Y27227873D01*
X7899557Y27434102D01*
X7899560Y27434111D01*
X7906384Y27449656D01*
X7987835Y27735589D01*
X7997739Y27805174D01*
X8027333Y28013114D01*
X8027333Y28013120D01*
X8029726Y28029931D01*
X8030106Y28102438D01*
X8030873Y28249169D01*
X8031282Y28327235D01*
X7992476Y28621999D01*
X7956076Y28755054D01*
X7918507Y28892383D01*
X7918506Y28892387D01*
X7914024Y28908769D01*
X7797379Y29182239D01*
X7644700Y29437349D01*
X7491941Y29628023D01*
X7469429Y29656123D01*
X7469425Y29656127D01*
X7458810Y29669377D01*
X7243151Y29874030D01*
X7229356Y29883943D01*
X7229352Y29883946D01*
X7065214Y30001890D01*
X7001712Y30047521D01*
X6986703Y30055468D01*
X6986698Y30055471D01*
X6753975Y30178691D01*
X6738962Y30186640D01*
X6459762Y30288813D01*
X6443173Y30292430D01*
X6443166Y30292432D01*
X6315708Y30320222D01*
X6169278Y30352149D01*
X5936102Y30370500D01*
X5775262Y30370500D01*
X5766816Y30369924D01*
X5766809Y30369924D01*
X5570331Y30356530D01*
X5570324Y30356529D01*
X5553381Y30355374D01*
X5536741Y30351928D01*
X5278883Y30298528D01*
X5278877Y30298526D01*
X5262250Y30295083D01*
X5246236Y30289412D01*
X5091069Y30234465D01*
X4951801Y30206590D01*
X4810321Y30219082D01*
X4678091Y30270926D01*
X4565824Y30357925D01*
X4482615Y30473028D01*
X4459510Y30538274D01*
X14655688Y30538274D01*
X14656888Y30507724D01*
X14665244Y30295083D01*
X14665977Y30276418D01*
X14689755Y30146221D01*
X14708890Y30041447D01*
X14713058Y30018624D01*
X14795994Y29770035D01*
X14803876Y29754260D01*
X14803878Y29754256D01*
X14905240Y29551399D01*
X14913128Y29535613D01*
X15062124Y29320033D01*
X15240010Y29127598D01*
X15443235Y28962147D01*
X15458348Y28953048D01*
X15460292Y28951682D01*
X15563689Y28854309D01*
X15635465Y28731750D01*
X15669805Y28593933D01*
X15663926Y28452025D01*
X15618305Y28317521D01*
X15536638Y28201318D01*
X15446969Y28126118D01*
X15426563Y28112739D01*
X15410851Y28102438D01*
X15397039Y28090110D01*
X15397036Y28090108D01*
X15235432Y27945871D01*
X15211197Y27924240D01*
X15040075Y27718488D01*
X15030471Y27702662D01*
X15030468Y27702657D01*
X14980284Y27619956D01*
X14901244Y27489702D01*
X14797755Y27242909D01*
X14731881Y26983530D01*
X14730027Y26965113D01*
X14730026Y26965110D01*
X14711451Y26780633D01*
X14705070Y26717264D01*
X14717909Y26449959D01*
X14770118Y26187488D01*
X14860549Y25935617D01*
X14869311Y25919310D01*
X14976994Y25718902D01*
X14987215Y25699879D01*
X15147335Y25485453D01*
X15160484Y25472418D01*
X15160486Y25472416D01*
X15324240Y25310085D01*
X15324245Y25310081D01*
X15337390Y25297050D01*
X15553205Y25138808D01*
X15790039Y25014203D01*
X16042690Y24925974D01*
X16060874Y24922522D01*
X16060880Y24922520D01*
X16287412Y24879511D01*
X16287416Y24879511D01*
X16305606Y24876057D01*
X16573013Y24865551D01*
X16839035Y24894685D01*
X17097829Y24962820D01*
X17343710Y25068458D01*
X17571275Y25209280D01*
X17663037Y25286962D01*
X17761394Y25370227D01*
X17761397Y25370230D01*
X17775526Y25382191D01*
X17951976Y25583393D01*
X18096747Y25808466D01*
X18206661Y26052466D01*
X18250702Y26208624D01*
X18274275Y26292205D01*
X18274276Y26292211D01*
X18279302Y26310031D01*
X18282023Y26331415D01*
X18299543Y26469134D01*
X18313075Y26575505D01*
X18315549Y26670000D01*
X18314435Y26685000D01*
X18297089Y26918416D01*
X18297089Y26918418D01*
X18295717Y26936877D01*
X18289656Y26963662D01*
X18240741Y27179836D01*
X18240739Y27179843D01*
X18236655Y27197891D01*
X18139662Y27447309D01*
X18101185Y27514630D01*
X18016054Y27663579D01*
X18016050Y27663585D01*
X18006868Y27679650D01*
X17976251Y27718488D01*
X17852648Y27875277D01*
X17852646Y27875279D01*
X17841190Y27889811D01*
X17646269Y28073175D01*
X17621860Y28090108D01*
X17557958Y28134439D01*
X17453969Y28231179D01*
X17381447Y28353299D01*
X17346267Y28490903D01*
X17351281Y28632845D01*
X17396080Y28767625D01*
X17477037Y28884323D01*
X17565154Y28959341D01*
X17647082Y29014083D01*
X17788277Y29140548D01*
X17829140Y29177148D01*
X17829144Y29177152D01*
X17842287Y29188924D01*
X18010910Y29389525D01*
X18149586Y29611884D01*
X18180171Y29681067D01*
X18248410Y29835420D01*
X18248411Y29835422D01*
X18255547Y29851564D01*
X18261884Y29874030D01*
X18321893Y30086807D01*
X18321893Y30086808D01*
X18326681Y30103784D01*
X18341455Y30213782D01*
X18359871Y30350888D01*
X18359871Y30350892D01*
X18361566Y30363509D01*
X18365227Y30480000D01*
X18357462Y30589671D01*
X18347966Y30723797D01*
X18347965Y30723802D01*
X18346719Y30741404D01*
X18291563Y30997592D01*
X18200860Y31243453D01*
X18202751Y31244151D01*
X18169675Y31358613D01*
X18170284Y31500642D01*
X18210884Y31636746D01*
X18221669Y31658669D01*
X18293741Y31796530D01*
X18349766Y31991913D01*
X18360500Y32112184D01*
X18360500Y33927816D01*
X18349766Y34048087D01*
X18293741Y34243470D01*
X18199573Y34423596D01*
X18071109Y34581109D01*
X17913596Y34709573D01*
X17733470Y34803741D01*
X17538087Y34859766D01*
X17417816Y34870500D01*
X15602184Y34870500D01*
X15481913Y34859766D01*
X15286530Y34803741D01*
X15106404Y34709573D01*
X14948891Y34581109D01*
X14820427Y34423596D01*
X14726259Y34243470D01*
X14670234Y34048087D01*
X14659500Y33927816D01*
X14659500Y32112184D01*
X14670234Y31991913D01*
X14726259Y31796530D01*
X14737971Y31774127D01*
X14799819Y31655823D01*
X14847039Y31521872D01*
X14854607Y31380044D01*
X14820105Y31237305D01*
X14745574Y31053297D01*
X14741321Y31036174D01*
X14741320Y31036172D01*
X14725110Y30970913D01*
X14682399Y30798968D01*
X14655688Y30538274D01*
X4459510Y30538274D01*
X4435204Y30606912D01*
X4425500Y30704843D01*
X4425500Y37875368D01*
X4445713Y38015953D01*
X4504714Y38145148D01*
X4597724Y38252487D01*
X4717208Y38329274D01*
X4853485Y38369289D01*
X4995515Y38369289D01*
X5095988Y38343975D01*
X5224277Y38297027D01*
X5224289Y38297023D01*
X5240238Y38291187D01*
X5256827Y38287570D01*
X5256834Y38287568D01*
X5374282Y38261961D01*
X5530722Y38227851D01*
X5763898Y38209500D01*
X5924738Y38209500D01*
X5933184Y38210076D01*
X5933191Y38210076D01*
X6129669Y38223470D01*
X6129676Y38223471D01*
X6146619Y38224626D01*
X6218283Y38239467D01*
X6421117Y38281472D01*
X6421123Y38281474D01*
X6437750Y38284917D01*
X6458926Y38292416D01*
X6463818Y38293395D01*
X6470125Y38295156D01*
X6470257Y38294684D01*
X6598190Y38320292D01*
X6739670Y38307804D01*
X6871901Y38255961D01*
X6984169Y38168965D01*
X7067381Y38053864D01*
X7114794Y37919981D01*
X7124500Y37822040D01*
X7124500Y36207689D01*
X7104287Y36067104D01*
X7045286Y35937909D01*
X7004943Y35883616D01*
X6910588Y35773140D01*
X6900342Y35756420D01*
X6785089Y35568344D01*
X6785086Y35568339D01*
X6774846Y35551628D01*
X6675427Y35311610D01*
X6658504Y35241122D01*
X6622182Y35089828D01*
X6614779Y35058994D01*
X6594396Y34800000D01*
X6614779Y34541006D01*
X6619356Y34521940D01*
X6619357Y34521936D01*
X6633630Y34462485D01*
X6675427Y34288390D01*
X6682930Y34270277D01*
X6682930Y34270276D01*
X6703643Y34220270D01*
X6766276Y34069063D01*
X6768638Y34063360D01*
X6803763Y33925742D01*
X6798694Y33783802D01*
X6753841Y33649040D01*
X6733090Y33611674D01*
X6685089Y33533344D01*
X6685086Y33533339D01*
X6674846Y33516628D01*
X6575427Y33276610D01*
X6551619Y33177442D01*
X6521585Y33052341D01*
X6514779Y33023994D01*
X6494396Y32765000D01*
X6514779Y32506006D01*
X6519356Y32486940D01*
X6519357Y32486936D01*
X6532944Y32430342D01*
X6575427Y32253390D01*
X6674846Y32013372D01*
X6685086Y31996661D01*
X6685089Y31996656D01*
X6687996Y31991913D01*
X6810588Y31791860D01*
X6979311Y31594311D01*
X7176860Y31425588D01*
X7193580Y31415342D01*
X7381656Y31300089D01*
X7381661Y31300086D01*
X7398372Y31289846D01*
X7638390Y31190427D01*
X7759812Y31161276D01*
X7871936Y31134357D01*
X7871940Y31134356D01*
X7891006Y31129779D01*
X8150000Y31109396D01*
X8408994Y31129779D01*
X8428060Y31134356D01*
X8428064Y31134357D01*
X8540188Y31161276D01*
X8661610Y31190427D01*
X8901628Y31289846D01*
X8918339Y31300086D01*
X8918344Y31300089D01*
X9106420Y31415342D01*
X9123140Y31425588D01*
X9320689Y31594311D01*
X9489412Y31791860D01*
X9610453Y31989382D01*
X9701142Y32098689D01*
X9818953Y32178018D01*
X9954342Y32220942D01*
X10096340Y32223985D01*
X10176305Y32206291D01*
X10178390Y32205427D01*
X10197456Y32200850D01*
X10197461Y32200848D01*
X10411936Y32149357D01*
X10411940Y32149356D01*
X10431006Y32144779D01*
X10690000Y32124396D01*
X10948994Y32144779D01*
X10968060Y32149356D01*
X10968064Y32149357D01*
X11087444Y32178018D01*
X11201610Y32205427D01*
X11239067Y32220942D01*
X11273672Y32235276D01*
X11441628Y32304846D01*
X11458339Y32315086D01*
X11458344Y32315089D01*
X11646420Y32430342D01*
X11663140Y32440588D01*
X11810197Y32566187D01*
X11845783Y32596580D01*
X11860689Y32609311D01*
X12029412Y32806860D01*
X12077403Y32885174D01*
X12154911Y33011656D01*
X12154914Y33011661D01*
X12165154Y33028372D01*
X12264573Y33268390D01*
X12305280Y33437946D01*
X12320643Y33501936D01*
X12320644Y33501940D01*
X12325221Y33521006D01*
X12345604Y33780000D01*
X12325221Y34038994D01*
X12319687Y34062047D01*
X12284652Y34207974D01*
X12264573Y34291610D01*
X12165154Y34531628D01*
X12154910Y34548345D01*
X12146011Y34565810D01*
X12148858Y34567260D01*
X12105772Y34667235D01*
X12088584Y34808221D01*
X12111813Y34948339D01*
X12148222Y35028063D01*
X12146011Y35029190D01*
X12154910Y35046655D01*
X12165154Y35063372D01*
X12264573Y35303390D01*
X12296514Y35436432D01*
X12320643Y35536936D01*
X12320644Y35536940D01*
X12325221Y35556006D01*
X12345604Y35815000D01*
X12325221Y36073994D01*
X12314168Y36120035D01*
X12269151Y36307540D01*
X12264573Y36326610D01*
X12165154Y36566628D01*
X12154914Y36583339D01*
X12154911Y36583344D01*
X12039658Y36771420D01*
X12029412Y36788140D01*
X11860689Y36985689D01*
X11663140Y37154412D01*
X11541020Y37229247D01*
X11458344Y37279911D01*
X11458339Y37279914D01*
X11441628Y37290154D01*
X11201610Y37389573D01*
X11075302Y37419897D01*
X10968064Y37445643D01*
X10968060Y37445644D01*
X10948994Y37450221D01*
X10690000Y37470604D01*
X10431006Y37450221D01*
X10411940Y37445644D01*
X10411936Y37445643D01*
X10304698Y37419897D01*
X10178390Y37389573D01*
X10160273Y37382069D01*
X10160271Y37382068D01*
X10065459Y37342796D01*
X9927840Y37307671D01*
X9785900Y37312741D01*
X9651139Y37357594D01*
X9534472Y37438597D01*
X9445353Y37549188D01*
X9391000Y37680407D01*
X9375500Y37803812D01*
X9375500Y39327110D01*
X9395713Y39467695D01*
X9454714Y39596890D01*
X9521654Y39679956D01*
X10480043Y40638346D01*
X10593744Y40723462D01*
X10726819Y40773096D01*
X10832889Y40784500D01*
X11181004Y40784500D01*
X11276644Y40775249D01*
G37*
%TD.AperFunction*%
%TA.AperFunction,NonConductor*%
G36*
X37110201Y62229287D02*
G01*
X37239396Y62170286D01*
X37346735Y62077276D01*
X37423522Y61957792D01*
X37463537Y61821515D01*
X37463537Y61679485D01*
X37423522Y61543208D01*
X37346735Y61423724D01*
X37239396Y61330714D01*
X37199642Y61307681D01*
X37130647Y61271841D01*
X36917434Y61119477D01*
X36727816Y60938591D01*
X36716897Y60924741D01*
X36716894Y60924737D01*
X36674007Y60870334D01*
X36565578Y60732792D01*
X36556718Y60717538D01*
X36450563Y60534779D01*
X36433955Y60506187D01*
X36335574Y60263297D01*
X36331321Y60246174D01*
X36331320Y60246172D01*
X36300586Y60122443D01*
X36272399Y60008968D01*
X36245688Y59748274D01*
X36246381Y59730638D01*
X36253021Y59561661D01*
X36255977Y59486418D01*
X36279376Y59358298D01*
X36297801Y59257411D01*
X36303058Y59228624D01*
X36315814Y59190390D01*
X36374877Y59013358D01*
X36385994Y58980035D01*
X36393876Y58964260D01*
X36393878Y58964256D01*
X36495240Y58761399D01*
X36503128Y58745613D01*
X36513158Y58731101D01*
X36513162Y58731094D01*
X36531484Y58704585D01*
X36594787Y58577442D01*
X36619706Y58437615D01*
X36604222Y58296432D01*
X36552479Y58170241D01*
X36537284Y58144080D01*
X36433955Y57966187D01*
X36335574Y57723297D01*
X36331321Y57706174D01*
X36331320Y57706172D01*
X36277710Y57490349D01*
X36272399Y57468968D01*
X36245688Y57208274D01*
X36246381Y57190638D01*
X36253671Y57005116D01*
X36255977Y56946418D01*
X36266777Y56887284D01*
X36298726Y56712346D01*
X36303058Y56688624D01*
X36385994Y56440035D01*
X36393876Y56424260D01*
X36393878Y56424256D01*
X36484110Y56243674D01*
X36503128Y56205613D01*
X36513158Y56191101D01*
X36513162Y56191094D01*
X36531484Y56164585D01*
X36594787Y56037442D01*
X36619706Y55897615D01*
X36604222Y55756432D01*
X36552479Y55630241D01*
X36446368Y55447557D01*
X36433955Y55426187D01*
X36335574Y55183297D01*
X36331321Y55166174D01*
X36331320Y55166172D01*
X36278976Y54955447D01*
X36272399Y54928968D01*
X36245688Y54668274D01*
X36246381Y54650638D01*
X36252220Y54502044D01*
X36255977Y54406418D01*
X36265837Y54352429D01*
X36291693Y54210856D01*
X36303058Y54148624D01*
X36385994Y53900035D01*
X36393876Y53884260D01*
X36393878Y53884256D01*
X36485668Y53700555D01*
X36503128Y53665613D01*
X36513158Y53651101D01*
X36513162Y53651094D01*
X36531484Y53624585D01*
X36594787Y53497442D01*
X36619706Y53357615D01*
X36604222Y53216432D01*
X36552479Y53090241D01*
X36542395Y53072880D01*
X36433955Y52886187D01*
X36335574Y52643297D01*
X36272399Y52388968D01*
X36245688Y52128274D01*
X36246381Y52110638D01*
X36255263Y51884602D01*
X36255977Y51866418D01*
X36303058Y51608624D01*
X36385994Y51360035D01*
X36393876Y51344260D01*
X36393878Y51344256D01*
X36467723Y51196470D01*
X36503128Y51125613D01*
X36513158Y51111101D01*
X36513162Y51111094D01*
X36531484Y51084585D01*
X36594787Y50957442D01*
X36619706Y50817615D01*
X36604222Y50676432D01*
X36552479Y50550241D01*
X36540772Y50530086D01*
X36433955Y50346187D01*
X36335574Y50103297D01*
X36331321Y50086174D01*
X36331320Y50086172D01*
X36308971Y49996198D01*
X36272399Y49848968D01*
X36245688Y49588274D01*
X36246381Y49570638D01*
X36255205Y49346076D01*
X36255977Y49326418D01*
X36259147Y49309063D01*
X36298083Y49095866D01*
X36303058Y49068624D01*
X36314514Y49034286D01*
X36374892Y48853313D01*
X36385994Y48820035D01*
X36393876Y48804260D01*
X36393878Y48804256D01*
X36495240Y48601399D01*
X36503128Y48585613D01*
X36513158Y48571101D01*
X36513162Y48571094D01*
X36531484Y48544585D01*
X36594787Y48417442D01*
X36619706Y48277615D01*
X36604222Y48136432D01*
X36552479Y48010241D01*
X36524615Y47962269D01*
X36433955Y47806187D01*
X36335574Y47563297D01*
X36331321Y47546174D01*
X36331320Y47546172D01*
X36276654Y47326098D01*
X36272399Y47308968D01*
X36245688Y47048274D01*
X36246381Y47030638D01*
X36255244Y46805083D01*
X36255977Y46786418D01*
X36303058Y46528624D01*
X36385994Y46280035D01*
X36393876Y46264260D01*
X36393878Y46264256D01*
X36472495Y46106919D01*
X36503128Y46045613D01*
X36513158Y46031101D01*
X36513162Y46031094D01*
X36531484Y46004585D01*
X36594787Y45877442D01*
X36619706Y45737615D01*
X36604222Y45596432D01*
X36552479Y45470241D01*
X36528263Y45428550D01*
X36433955Y45266187D01*
X36335574Y45023297D01*
X36272399Y44768968D01*
X36245688Y44508274D01*
X36255977Y44246418D01*
X36303058Y43988624D01*
X36385994Y43740035D01*
X36393876Y43724260D01*
X36393878Y43724256D01*
X36495240Y43521399D01*
X36503128Y43505613D01*
X36513158Y43491101D01*
X36513162Y43491094D01*
X36531484Y43464585D01*
X36594787Y43337442D01*
X36619706Y43197615D01*
X36604222Y43056432D01*
X36552479Y42930241D01*
X36532085Y42895130D01*
X36433955Y42726187D01*
X36335574Y42483297D01*
X36331321Y42466174D01*
X36331320Y42466172D01*
X36276654Y42246098D01*
X36272399Y42228968D01*
X36245688Y41968274D01*
X36246381Y41950638D01*
X36253671Y41765116D01*
X36255977Y41706418D01*
X36268591Y41637349D01*
X36298902Y41471383D01*
X36303058Y41448624D01*
X36385994Y41200035D01*
X36393876Y41184260D01*
X36393878Y41184256D01*
X36471960Y41027990D01*
X36503128Y40965613D01*
X36513158Y40951101D01*
X36513162Y40951094D01*
X36531484Y40924585D01*
X36594787Y40797442D01*
X36619706Y40657615D01*
X36604222Y40516432D01*
X36552479Y40390241D01*
X36537284Y40364080D01*
X36433955Y40186187D01*
X36335574Y39943297D01*
X36331321Y39926174D01*
X36331320Y39926172D01*
X36276654Y39706098D01*
X36272399Y39688968D01*
X36245688Y39428274D01*
X36246381Y39410638D01*
X36255054Y39189919D01*
X36255977Y39166418D01*
X36259147Y39149063D01*
X36290245Y38978784D01*
X36303058Y38908624D01*
X36308641Y38891890D01*
X36371043Y38704850D01*
X36385994Y38660035D01*
X36393876Y38644260D01*
X36393878Y38644256D01*
X36493081Y38445720D01*
X36503128Y38425613D01*
X36513158Y38411101D01*
X36513162Y38411094D01*
X36531484Y38384585D01*
X36594787Y38257442D01*
X36619706Y38117615D01*
X36604222Y37976432D01*
X36552479Y37850241D01*
X36446214Y37667292D01*
X36433955Y37646187D01*
X36335574Y37403297D01*
X36331321Y37386174D01*
X36331320Y37386172D01*
X36309333Y37297655D01*
X36272399Y37148968D01*
X36245688Y36888274D01*
X36246381Y36870638D01*
X36249623Y36788140D01*
X36255977Y36626418D01*
X36303058Y36368624D01*
X36385994Y36120035D01*
X36393876Y36104260D01*
X36393878Y36104256D01*
X36472495Y35946919D01*
X36503128Y35885613D01*
X36513158Y35871101D01*
X36513162Y35871094D01*
X36531484Y35844585D01*
X36594787Y35717442D01*
X36619706Y35577615D01*
X36604222Y35436432D01*
X36552479Y35310241D01*
X36537978Y35285276D01*
X36433955Y35106187D01*
X36335574Y34863297D01*
X36331321Y34846174D01*
X36331320Y34846172D01*
X36308211Y34753140D01*
X36272399Y34608968D01*
X36245688Y34348274D01*
X36255977Y34086418D01*
X36279673Y33956669D01*
X36298012Y33856255D01*
X36303058Y33828624D01*
X36385994Y33580035D01*
X36393876Y33564260D01*
X36393878Y33564256D01*
X36493046Y33365790D01*
X36503128Y33345613D01*
X36513158Y33331101D01*
X36513162Y33331094D01*
X36531484Y33304585D01*
X36594787Y33177442D01*
X36619706Y33037615D01*
X36604222Y32896432D01*
X36552479Y32770241D01*
X36538084Y32745458D01*
X36433955Y32566187D01*
X36335574Y32323297D01*
X36331321Y32306174D01*
X36331320Y32306172D01*
X36291230Y32144779D01*
X36272399Y32068968D01*
X36245688Y31808274D01*
X36255977Y31546418D01*
X36303058Y31288624D01*
X36385994Y31040035D01*
X36393878Y31024256D01*
X36400422Y31008458D01*
X36435547Y30870840D01*
X36430477Y30728900D01*
X36385624Y30594138D01*
X36304621Y30477472D01*
X36194030Y30388352D01*
X36062811Y30334000D01*
X36027987Y30327934D01*
X36028173Y30326969D01*
X36004852Y30322478D01*
X35981205Y30320222D01*
X35952855Y30311905D01*
X35935318Y30306761D01*
X35899885Y30297762D01*
X35876352Y30292695D01*
X35876350Y30292694D01*
X35853134Y30287696D01*
X35831285Y30278400D01*
X35814386Y30273039D01*
X35797918Y30266452D01*
X35775124Y30259765D01*
X35754006Y30248889D01*
X35754007Y30248889D01*
X35732602Y30237865D01*
X35699510Y30222329D01*
X35691875Y30219080D01*
X35655514Y30203608D01*
X35635814Y30190345D01*
X35620230Y30181884D01*
X35605306Y30172303D01*
X35584193Y30161429D01*
X35565521Y30146762D01*
X35565518Y30146760D01*
X35546583Y30131886D01*
X35517023Y30110370D01*
X35477361Y30083668D01*
X35473175Y30079873D01*
X35467951Y30074649D01*
X35467304Y30074075D01*
X35464438Y30071346D01*
X35464342Y30071447D01*
X35450536Y30059201D01*
X35433980Y30043435D01*
X35415302Y30028763D01*
X35382476Y29990934D01*
X35358447Y29965145D01*
X34198927Y28805625D01*
X34195543Y28802480D01*
X34186230Y28795874D01*
X34157607Y28765974D01*
X34123933Y28730798D01*
X34116320Y28723018D01*
X34091205Y28697903D01*
X34084386Y28689646D01*
X34078546Y28683387D01*
X34037716Y28640735D01*
X34024830Y28620778D01*
X34013846Y28606870D01*
X34003904Y28592186D01*
X33988779Y28573870D01*
X33977389Y28553023D01*
X33965858Y28531918D01*
X33947165Y28500497D01*
X33934099Y28480261D01*
X33921218Y28460311D01*
X33912343Y28438289D01*
X33904187Y28422555D01*
X33897197Y28406247D01*
X33885807Y28385399D01*
X33871226Y28339849D01*
X33858814Y28305466D01*
X33840939Y28261113D01*
X33836388Y28237808D01*
X33831350Y28220801D01*
X33827573Y28203476D01*
X33820332Y28180856D01*
X33817499Y28157276D01*
X33817499Y28157274D01*
X33814629Y28133381D01*
X33808940Y28097255D01*
X33804238Y28073175D01*
X33799776Y28050329D01*
X33799500Y28044686D01*
X33799500Y28037303D01*
X33799447Y28036419D01*
X33799351Y28032489D01*
X33799212Y28032492D01*
X33798108Y28014042D01*
X33797550Y27991203D01*
X33794717Y27967623D01*
X33796394Y27943938D01*
X33796394Y27943934D01*
X33798254Y27917671D01*
X33799500Y27882426D01*
X33799500Y9623679D01*
X33799331Y9619066D01*
X33797416Y9607805D01*
X33797934Y9584060D01*
X33797934Y9584058D01*
X33799381Y9517749D01*
X33799500Y9506864D01*
X33799500Y9471336D01*
X33800517Y9460683D01*
X33800812Y9452163D01*
X33802101Y9393090D01*
X33807101Y9369868D01*
X33809169Y9352262D01*
X33812522Y9334849D01*
X33814778Y9311205D01*
X33821466Y9288408D01*
X33828239Y9265318D01*
X33837238Y9229885D01*
X33842305Y9206352D01*
X33847304Y9183134D01*
X33856600Y9161285D01*
X33861961Y9144386D01*
X33868548Y9127918D01*
X33875235Y9105124D01*
X33886111Y9084007D01*
X33897135Y9062602D01*
X33912671Y9029510D01*
X33922092Y9007370D01*
X33931392Y8985514D01*
X33944655Y8965814D01*
X33953116Y8950230D01*
X33962697Y8935306D01*
X33973571Y8914193D01*
X33988238Y8895521D01*
X33988240Y8895518D01*
X34003114Y8876583D01*
X34024630Y8847023D01*
X34051332Y8807361D01*
X34055127Y8803175D01*
X34060351Y8797951D01*
X34060925Y8797304D01*
X34063654Y8794438D01*
X34063553Y8794342D01*
X34075799Y8780536D01*
X34091565Y8763980D01*
X34106237Y8745302D01*
X34144066Y8712476D01*
X34169855Y8688447D01*
X35329375Y7528927D01*
X35332520Y7525543D01*
X35339126Y7516230D01*
X35393164Y7464500D01*
X35404202Y7453933D01*
X35411982Y7446320D01*
X35437097Y7421205D01*
X35445354Y7414386D01*
X35451613Y7408546D01*
X35494265Y7367716D01*
X35514222Y7354830D01*
X35528130Y7343846D01*
X35542814Y7333904D01*
X35561130Y7318779D01*
X35581977Y7307389D01*
X35603082Y7295858D01*
X35634503Y7277165D01*
X35654739Y7264099D01*
X35654742Y7264097D01*
X35674689Y7251218D01*
X35696711Y7242343D01*
X35712445Y7234187D01*
X35728753Y7227197D01*
X35749601Y7215807D01*
X35795151Y7201226D01*
X35829534Y7188814D01*
X35873887Y7170939D01*
X35897186Y7166389D01*
X35914196Y7161350D01*
X35931528Y7157571D01*
X35954144Y7150332D01*
X35977723Y7147500D01*
X35977731Y7147498D01*
X36001632Y7144627D01*
X36037754Y7138938D01*
X36067033Y7133220D01*
X36067040Y7133219D01*
X36084671Y7129776D01*
X36090314Y7129500D01*
X36097707Y7129500D01*
X36098598Y7129447D01*
X36102511Y7129351D01*
X36102508Y7129213D01*
X36120943Y7128109D01*
X36143798Y7127550D01*
X36167377Y7124718D01*
X36191064Y7126395D01*
X36191068Y7126395D01*
X36217319Y7128254D01*
X36252561Y7129500D01*
X39271321Y7129500D01*
X39275934Y7129331D01*
X39287195Y7127416D01*
X39310940Y7127934D01*
X39310942Y7127934D01*
X39377251Y7129381D01*
X39388136Y7129500D01*
X39423664Y7129500D01*
X39434317Y7130517D01*
X39442837Y7130812D01*
X39501910Y7132101D01*
X39525132Y7137101D01*
X39542738Y7139169D01*
X39560151Y7142522D01*
X39583795Y7144778D01*
X39612145Y7153095D01*
X39629682Y7158239D01*
X39665115Y7167238D01*
X39688648Y7172305D01*
X39688650Y7172306D01*
X39711866Y7177304D01*
X39733715Y7186600D01*
X39750614Y7191961D01*
X39767082Y7198548D01*
X39789876Y7205235D01*
X39832398Y7227135D01*
X39865490Y7242671D01*
X39887630Y7252092D01*
X39887631Y7252093D01*
X39909486Y7261392D01*
X39929186Y7274655D01*
X39944770Y7283116D01*
X39959694Y7292697D01*
X39980807Y7303571D01*
X40018417Y7333114D01*
X40047980Y7354632D01*
X40087639Y7381332D01*
X40091825Y7385127D01*
X40097049Y7390351D01*
X40097696Y7390925D01*
X40100562Y7393654D01*
X40100658Y7393553D01*
X40114464Y7405799D01*
X40131020Y7421565D01*
X40149698Y7436237D01*
X40182524Y7474066D01*
X40206553Y7499855D01*
X43598154Y10891456D01*
X43711855Y10976572D01*
X43844930Y11026206D01*
X43986598Y11036339D01*
X44125383Y11006148D01*
X44250040Y10938080D01*
X44350470Y10837650D01*
X44418538Y10712993D01*
X44448729Y10574208D01*
X44450000Y10538610D01*
X44450000Y1499500D01*
X44429787Y1358915D01*
X44370786Y1229720D01*
X44277776Y1122381D01*
X44158292Y1045594D01*
X44022015Y1005579D01*
X43951000Y1000500D01*
X2792959Y1000500D01*
X2652374Y1020713D01*
X2523179Y1079714D01*
X2415840Y1172724D01*
X2365460Y1242119D01*
X2202099Y1513461D01*
X2004328Y1767052D01*
X1983545Y1787944D01*
X1788118Y1984398D01*
X1788112Y1984403D01*
X1777523Y1995048D01*
X1721366Y2039318D01*
X1536768Y2184844D01*
X1536760Y2184850D01*
X1524970Y2194144D01*
X1250328Y2361458D01*
X1251214Y2362913D01*
X1151224Y2435776D01*
X1064652Y2548373D01*
X1013309Y2680798D01*
X1000500Y2793134D01*
X1000500Y26790196D01*
X1020713Y26930781D01*
X1079714Y27059976D01*
X1172724Y27167315D01*
X1292208Y27244102D01*
X1428485Y27284117D01*
X1570515Y27284117D01*
X1706792Y27244102D01*
X1826276Y27167315D01*
X1919286Y27059976D01*
X1974076Y26944400D01*
X1975935Y26938680D01*
X1980897Y26917013D01*
X1989619Y26896567D01*
X1989660Y26896439D01*
X1990803Y26892618D01*
X1992286Y26888900D01*
X1992326Y26888792D01*
X1998192Y26867349D01*
X2007761Y26847288D01*
X2030464Y26799691D01*
X2039060Y26780653D01*
X2068476Y26711687D01*
X2080681Y26693107D01*
X2080739Y26692999D01*
X2082542Y26689437D01*
X2084651Y26686056D01*
X2084721Y26685938D01*
X2094292Y26665871D01*
X2136372Y26607311D01*
X2138036Y26604995D01*
X2149873Y26587772D01*
X2180987Y26540405D01*
X2180994Y26540396D01*
X2191031Y26525116D01*
X2212342Y26501197D01*
X2213792Y26499569D01*
X2213576Y26499377D01*
X2214794Y26498174D01*
X2224552Y26484595D01*
X2261218Y26449063D01*
X2298657Y26412782D01*
X2304242Y26407284D01*
X4117851Y24593675D01*
X4132315Y24578593D01*
X4142262Y24567776D01*
X4155790Y24550146D01*
X4172228Y24535189D01*
X4209159Y24501584D01*
X4226172Y24485354D01*
X4235807Y24475719D01*
X4244314Y24468606D01*
X4244325Y24468596D01*
X4249716Y24464089D01*
X4265453Y24450360D01*
X4320893Y24399914D01*
X4339724Y24388101D01*
X4339845Y24388009D01*
X4342951Y24385534D01*
X4346258Y24383349D01*
X4346387Y24383259D01*
X4363438Y24369003D01*
X4382740Y24357993D01*
X4382749Y24357987D01*
X4428553Y24331861D01*
X4446489Y24321127D01*
X4491165Y24293101D01*
X4491173Y24293097D01*
X4509990Y24281293D01*
X4530608Y24273005D01*
X4530747Y24272934D01*
X4534241Y24271049D01*
X4537925Y24269466D01*
X4538028Y24269419D01*
X4557337Y24258405D01*
X4628034Y24233370D01*
X4647513Y24226010D01*
X4717105Y24198034D01*
X4738866Y24193527D01*
X4738993Y24193489D01*
X4742787Y24192245D01*
X4746641Y24191352D01*
X4746810Y24191309D01*
X4767757Y24183891D01*
X4789687Y24180300D01*
X4789691Y24180299D01*
X4841755Y24171774D01*
X4862272Y24167972D01*
X4935690Y24152767D01*
X4969853Y24150797D01*
X4969837Y24150516D01*
X4971512Y24150525D01*
X4988046Y24147818D01*
X5010270Y24148167D01*
X5010271Y24148167D01*
X5091177Y24149438D01*
X5099014Y24149500D01*
X6895334Y24149500D01*
X7035919Y24129287D01*
X7165114Y24070286D01*
X7248180Y24003346D01*
X8952158Y22299368D01*
X9037274Y22185667D01*
X9086908Y22052592D01*
X9097041Y21910924D01*
X9066850Y21772139D01*
X8998782Y21647482D01*
X8898352Y21547052D01*
X8773695Y21478984D01*
X8634910Y21448793D01*
X8592785Y21447565D01*
X8550533Y21448118D01*
X8490612Y21448903D01*
X8490608Y21448903D01*
X8472100Y21449145D01*
X8212528Y21413819D01*
X7961029Y21340514D01*
X7723127Y21230840D01*
X7504049Y21087206D01*
X7490241Y21074882D01*
X7490236Y21074878D01*
X7382311Y20978550D01*
X7308609Y20912768D01*
X7141098Y20711359D01*
X7005198Y20487402D01*
X6998039Y20470331D01*
X6998038Y20470328D01*
X6918930Y20281677D01*
X6903893Y20245818D01*
X6877530Y20142015D01*
X6843968Y20009866D01*
X6843967Y20009859D01*
X6839409Y19991913D01*
X6837553Y19973482D01*
X6837553Y19973481D01*
X6815371Y19753180D01*
X6813164Y19731266D01*
X6825732Y19469603D01*
X6876839Y19212672D01*
X6883094Y19195249D01*
X6883095Y19195247D01*
X6930681Y19062710D01*
X6965361Y18966117D01*
X6974126Y18949805D01*
X6974128Y18949800D01*
X7070255Y18770901D01*
X7089355Y18735354D01*
X7103643Y18716221D01*
X7105328Y18713964D01*
X7109552Y18706206D01*
X7110381Y18704905D01*
X7110292Y18704848D01*
X7173247Y18589226D01*
X7203272Y18450405D01*
X7192970Y18308749D01*
X7143177Y18175733D01*
X7132103Y18156536D01*
X7005198Y17947402D01*
X6998039Y17930331D01*
X6998038Y17930328D01*
X6922422Y17750005D01*
X6903893Y17705818D01*
X6875433Y17593758D01*
X6843968Y17469866D01*
X6843967Y17469859D01*
X6839409Y17451913D01*
X6837553Y17433482D01*
X6837553Y17433481D01*
X6816101Y17220432D01*
X6813164Y17191266D01*
X6825732Y16929603D01*
X6876839Y16672672D01*
X6883094Y16655249D01*
X6883095Y16655247D01*
X6930764Y16522479D01*
X6965361Y16426117D01*
X6974126Y16409805D01*
X6974128Y16409800D01*
X7039003Y16289063D01*
X7089355Y16195354D01*
X7100436Y16180515D01*
X7105328Y16173964D01*
X7109552Y16166206D01*
X7110381Y16164905D01*
X7110292Y16164848D01*
X7173247Y16049226D01*
X7203272Y15910405D01*
X7192970Y15768749D01*
X7143177Y15635733D01*
X7132103Y15616536D01*
X7005198Y15407402D01*
X6998039Y15390331D01*
X6998038Y15390328D01*
X6911053Y15182893D01*
X6903893Y15165818D01*
X6877335Y15061247D01*
X6843968Y14929866D01*
X6843967Y14929859D01*
X6839409Y14911913D01*
X6837553Y14893482D01*
X6837553Y14893481D01*
X6817934Y14698634D01*
X6813164Y14651266D01*
X6825732Y14389603D01*
X6876839Y14132672D01*
X6883094Y14115249D01*
X6883095Y14115247D01*
X6930681Y13982710D01*
X6965361Y13886117D01*
X6974126Y13869805D01*
X6974128Y13869800D01*
X7039003Y13749063D01*
X7089355Y13655354D01*
X7100436Y13640515D01*
X7105328Y13633964D01*
X7109552Y13626206D01*
X7110381Y13624905D01*
X7110292Y13624848D01*
X7173247Y13509226D01*
X7203272Y13370405D01*
X7192970Y13228749D01*
X7143177Y13095733D01*
X7132103Y13076536D01*
X7005198Y12867402D01*
X6998039Y12850331D01*
X6998038Y12850328D01*
X6915488Y12653470D01*
X6903893Y12625818D01*
X6885347Y12552792D01*
X6843968Y12389866D01*
X6843967Y12389859D01*
X6839409Y12371913D01*
X6837553Y12353482D01*
X6837553Y12353481D01*
X6815877Y12138208D01*
X6813164Y12111266D01*
X6825732Y11849603D01*
X6876839Y11592672D01*
X6883094Y11575249D01*
X6883095Y11575247D01*
X6930681Y11442710D01*
X6965361Y11346117D01*
X6974126Y11329805D01*
X6974128Y11329800D01*
X7039003Y11209063D01*
X7089355Y11115354D01*
X7100436Y11100515D01*
X7105328Y11093964D01*
X7109552Y11086206D01*
X7110381Y11084905D01*
X7110292Y11084848D01*
X7173247Y10969226D01*
X7203272Y10830405D01*
X7192970Y10688749D01*
X7143177Y10555733D01*
X7132103Y10536536D01*
X7005198Y10327402D01*
X6998039Y10310331D01*
X6998038Y10310328D01*
X6931909Y10152629D01*
X6903893Y10085818D01*
X6875795Y9975184D01*
X6843968Y9849866D01*
X6843967Y9849859D01*
X6839409Y9831913D01*
X6837553Y9813482D01*
X6837553Y9813481D01*
X6815074Y9590234D01*
X6813164Y9571266D01*
X6825732Y9309603D01*
X6876839Y9052672D01*
X6883094Y9035249D01*
X6883095Y9035247D01*
X6922020Y8926833D01*
X6965361Y8806117D01*
X6981096Y8776833D01*
X6981331Y8776396D01*
X7030068Y8642990D01*
X7039246Y8501257D01*
X7008121Y8362679D01*
X6976768Y8301464D01*
X6978427Y8300596D01*
X6884259Y8120470D01*
X6828234Y7925087D01*
X6817500Y7804816D01*
X6817500Y6165184D01*
X6828234Y6044913D01*
X6884259Y5849530D01*
X6978427Y5669404D01*
X7106891Y5511891D01*
X7264404Y5383427D01*
X7444530Y5289259D01*
X7639913Y5233234D01*
X7760184Y5222500D01*
X8042334Y5222500D01*
X8182919Y5202287D01*
X8312114Y5143286D01*
X8395180Y5076346D01*
X8562851Y4908675D01*
X8577315Y4893593D01*
X8587262Y4882776D01*
X8600790Y4865146D01*
X8629901Y4838657D01*
X8654159Y4816584D01*
X8671172Y4800354D01*
X8680807Y4790719D01*
X8689314Y4783606D01*
X8689325Y4783596D01*
X8694716Y4779089D01*
X8710453Y4765360D01*
X8749453Y4729873D01*
X8765893Y4714914D01*
X8784724Y4703101D01*
X8784845Y4703009D01*
X8787951Y4700534D01*
X8791258Y4698349D01*
X8791387Y4698259D01*
X8808438Y4684003D01*
X8827740Y4672993D01*
X8827749Y4672987D01*
X8873553Y4646861D01*
X8891489Y4636127D01*
X8936165Y4608101D01*
X8936173Y4608097D01*
X8954990Y4596293D01*
X8975608Y4588005D01*
X8975747Y4587934D01*
X8979241Y4586049D01*
X8982925Y4584466D01*
X8983028Y4584419D01*
X9002337Y4573405D01*
X9073034Y4548370D01*
X9092513Y4541010D01*
X9162105Y4513034D01*
X9183866Y4508527D01*
X9183993Y4508489D01*
X9187787Y4507245D01*
X9191641Y4506352D01*
X9191810Y4506309D01*
X9212757Y4498891D01*
X9234687Y4495300D01*
X9234691Y4495299D01*
X9286755Y4486774D01*
X9307272Y4482972D01*
X9380690Y4467767D01*
X9414853Y4465797D01*
X9414837Y4465516D01*
X9416512Y4465525D01*
X9433046Y4462818D01*
X9455270Y4463167D01*
X9455271Y4463167D01*
X9536177Y4464438D01*
X9544014Y4464500D01*
X19574827Y4464500D01*
X19595722Y4464062D01*
X19610394Y4463447D01*
X19632422Y4460547D01*
X19704493Y4463946D01*
X19728000Y4464500D01*
X19741630Y4464500D01*
X19759695Y4466112D01*
X19780505Y4467531D01*
X19804075Y4468642D01*
X19833204Y4470016D01*
X19833206Y4470016D01*
X19855398Y4471063D01*
X19877059Y4476024D01*
X19877175Y4476040D01*
X19881151Y4476489D01*
X19885043Y4477285D01*
X19885201Y4477313D01*
X19907339Y4479289D01*
X19928778Y4485154D01*
X19979651Y4499071D01*
X19999917Y4504161D01*
X20051318Y4515934D01*
X20051320Y4515935D01*
X20072987Y4520897D01*
X20093430Y4529617D01*
X20093562Y4529660D01*
X20097380Y4530802D01*
X20101100Y4532286D01*
X20101208Y4532326D01*
X20122651Y4538192D01*
X20190322Y4570470D01*
X20209347Y4579060D01*
X20278313Y4608476D01*
X20296893Y4620681D01*
X20297001Y4620739D01*
X20300563Y4622542D01*
X20303944Y4624651D01*
X20304062Y4624721D01*
X20324129Y4634292D01*
X20385005Y4678036D01*
X20402228Y4689873D01*
X20449595Y4720987D01*
X20449604Y4720994D01*
X20464884Y4731031D01*
X20490431Y4753792D01*
X20490623Y4753576D01*
X20491826Y4754794D01*
X20505405Y4764552D01*
X20577218Y4838657D01*
X20582716Y4844242D01*
X23666325Y7927851D01*
X23681407Y7942315D01*
X23692224Y7952262D01*
X23709854Y7965790D01*
X23758416Y8019159D01*
X23774646Y8036172D01*
X23784280Y8045806D01*
X23795878Y8059677D01*
X23809622Y8075433D01*
X23845130Y8114456D01*
X23845133Y8114460D01*
X23860086Y8130893D01*
X23871897Y8149720D01*
X23871990Y8149843D01*
X23874464Y8152947D01*
X23876651Y8156258D01*
X23876741Y8156387D01*
X23890997Y8173438D01*
X23902007Y8192740D01*
X23902013Y8192749D01*
X23928139Y8238553D01*
X23938873Y8256489D01*
X23966899Y8301165D01*
X23966903Y8301173D01*
X23978707Y8319990D01*
X23986995Y8340608D01*
X23987066Y8340747D01*
X23988954Y8344246D01*
X23990533Y8347921D01*
X23990585Y8348035D01*
X24001595Y8367337D01*
X24009012Y8388281D01*
X24009014Y8388286D01*
X24026623Y8438012D01*
X24034008Y8457557D01*
X24034230Y8458109D01*
X24061966Y8527105D01*
X24066471Y8548858D01*
X24066524Y8549033D01*
X24067753Y8552783D01*
X24068655Y8556675D01*
X24068686Y8556797D01*
X24076108Y8577756D01*
X24088221Y8651728D01*
X24092031Y8672282D01*
X24103522Y8727769D01*
X24103523Y8727773D01*
X24107233Y8745690D01*
X24109203Y8779854D01*
X24109485Y8779838D01*
X24109475Y8781517D01*
X24112182Y8798046D01*
X24111782Y8823549D01*
X24110562Y8901177D01*
X24110500Y8909014D01*
X24110500Y9859758D01*
X24130713Y10000343D01*
X24189714Y10129538D01*
X24227524Y10180842D01*
X24349552Y10326012D01*
X24349558Y10326020D01*
X24360910Y10339525D01*
X24499586Y10561884D01*
X24546922Y10668957D01*
X24598410Y10785420D01*
X24598411Y10785422D01*
X24605547Y10801564D01*
X24610927Y10820638D01*
X24671893Y11036807D01*
X24671893Y11036808D01*
X24676681Y11053784D01*
X24691532Y11164352D01*
X24709871Y11300888D01*
X24709871Y11300892D01*
X24711566Y11313509D01*
X24713139Y11363549D01*
X24714827Y11417266D01*
X24714827Y11417270D01*
X24715227Y11430000D01*
X24704619Y11579828D01*
X24697966Y11673797D01*
X24697965Y11673802D01*
X24696719Y11691404D01*
X24641563Y11947592D01*
X24550860Y12193453D01*
X24426420Y12424080D01*
X24417179Y12436592D01*
X24359342Y12565174D01*
X24339931Y12705871D01*
X24360946Y12846338D01*
X24415514Y12967079D01*
X24499586Y13101884D01*
X24506721Y13118023D01*
X24598410Y13325420D01*
X24598411Y13325422D01*
X24605547Y13341564D01*
X24610927Y13360638D01*
X24671893Y13576807D01*
X24671893Y13576808D01*
X24676681Y13593784D01*
X24711566Y13853509D01*
X24713139Y13903549D01*
X24714827Y13957266D01*
X24714827Y13957270D01*
X24715227Y13970000D01*
X24704943Y14115247D01*
X24697966Y14213797D01*
X24697965Y14213802D01*
X24696719Y14231404D01*
X24641563Y14487592D01*
X24550860Y14733453D01*
X24426420Y14964080D01*
X24417179Y14976592D01*
X24359342Y15105174D01*
X24339931Y15245871D01*
X24360946Y15386338D01*
X24415514Y15507079D01*
X24499586Y15641884D01*
X24605547Y15881564D01*
X24634848Y15985454D01*
X24671893Y16116807D01*
X24671893Y16116808D01*
X24676681Y16133784D01*
X24711566Y16393509D01*
X24715227Y16510000D01*
X24708650Y16602888D01*
X24697966Y16753797D01*
X24697965Y16753802D01*
X24696719Y16771404D01*
X24646366Y17005283D01*
X24645276Y17010346D01*
X24641563Y17027592D01*
X24550860Y17273453D01*
X24426420Y17504080D01*
X24417179Y17516592D01*
X24359342Y17645174D01*
X24339931Y17785871D01*
X24360946Y17926338D01*
X24415514Y18047079D01*
X24499586Y18181884D01*
X24506721Y18198023D01*
X24598410Y18405420D01*
X24598411Y18405422D01*
X24605547Y18421564D01*
X24616745Y18461266D01*
X24671893Y18656807D01*
X24671893Y18656808D01*
X24676681Y18673784D01*
X24702238Y18864061D01*
X24709871Y18920888D01*
X24709871Y18920892D01*
X24711566Y18933509D01*
X24715227Y19050000D01*
X24704881Y19196123D01*
X24697966Y19293797D01*
X24697965Y19293802D01*
X24696719Y19311404D01*
X24641563Y19567592D01*
X24550860Y19813453D01*
X24426420Y20044080D01*
X24417179Y20056592D01*
X24359342Y20185174D01*
X24339931Y20325871D01*
X24360946Y20466338D01*
X24415514Y20587079D01*
X24499586Y20721884D01*
X24605547Y20961564D01*
X24611537Y20982800D01*
X24671893Y21196807D01*
X24671893Y21196808D01*
X24676681Y21213784D01*
X24705687Y21429740D01*
X24709871Y21460888D01*
X24709871Y21460892D01*
X24711566Y21473509D01*
X24714353Y21562200D01*
X24714827Y21577266D01*
X24714827Y21577270D01*
X24715227Y21590000D01*
X24706917Y21707370D01*
X24697966Y21833797D01*
X24697965Y21833802D01*
X24696719Y21851404D01*
X24641563Y22107592D01*
X24550860Y22353453D01*
X24426420Y22584080D01*
X24417179Y22596592D01*
X24359342Y22725174D01*
X24339931Y22865871D01*
X24360946Y23006338D01*
X24415514Y23127079D01*
X24499586Y23261884D01*
X24605547Y23501564D01*
X24650596Y23661292D01*
X24671893Y23736807D01*
X24671893Y23736808D01*
X24676681Y23753784D01*
X24711566Y24013509D01*
X24715227Y24130000D01*
X24708431Y24225992D01*
X24697966Y24373797D01*
X24697965Y24373802D01*
X24696719Y24391404D01*
X24641563Y24647592D01*
X24550860Y24893453D01*
X24426420Y25124080D01*
X24417179Y25136592D01*
X24359342Y25265174D01*
X24339931Y25405871D01*
X24360946Y25546338D01*
X24415514Y25667079D01*
X24499586Y25801884D01*
X24558709Y25935617D01*
X24598410Y26025420D01*
X24598411Y26025422D01*
X24605547Y26041564D01*
X24614957Y26074926D01*
X24671893Y26276807D01*
X24671893Y26276808D01*
X24676681Y26293784D01*
X24706892Y26518707D01*
X24709871Y26540888D01*
X24709871Y26540892D01*
X24711566Y26553509D01*
X24713967Y26629911D01*
X24714827Y26657266D01*
X24714827Y26657270D01*
X24715227Y26670000D01*
X24702675Y26847288D01*
X24697966Y26913797D01*
X24697965Y26913802D01*
X24696719Y26931404D01*
X24641563Y27187592D01*
X24550860Y27433453D01*
X24426420Y27664080D01*
X24417179Y27676592D01*
X24359342Y27805174D01*
X24339931Y27945871D01*
X24360946Y28086338D01*
X24415514Y28207079D01*
X24499586Y28341884D01*
X24555641Y28468678D01*
X24598410Y28565420D01*
X24598411Y28565422D01*
X24605547Y28581564D01*
X24611537Y28602800D01*
X24671893Y28816807D01*
X24671893Y28816808D01*
X24676681Y28833784D01*
X24689423Y28928654D01*
X24709871Y29080888D01*
X24709871Y29080892D01*
X24711566Y29093509D01*
X24715227Y29210000D01*
X24708354Y29307078D01*
X24697966Y29453797D01*
X24697965Y29453802D01*
X24696719Y29471404D01*
X24641563Y29727592D01*
X24550860Y29973453D01*
X24426420Y30204080D01*
X24417179Y30216592D01*
X24359342Y30345174D01*
X24339931Y30485871D01*
X24360946Y30626338D01*
X24415514Y30747079D01*
X24499586Y30881884D01*
X24542339Y30978589D01*
X24598410Y31105420D01*
X24598411Y31105422D01*
X24605547Y31121564D01*
X24623678Y31185849D01*
X24671893Y31356807D01*
X24671893Y31356808D01*
X24676681Y31373784D01*
X24693720Y31500642D01*
X24709871Y31620888D01*
X24709871Y31620892D01*
X24711566Y31633509D01*
X24712267Y31655823D01*
X24714827Y31737266D01*
X24714827Y31737270D01*
X24715227Y31750000D01*
X24698295Y31989145D01*
X24697966Y31993797D01*
X24697965Y31993802D01*
X24696719Y32011404D01*
X24641563Y32267592D01*
X24550860Y32513453D01*
X24426420Y32744080D01*
X24417179Y32756592D01*
X24359342Y32885174D01*
X24339931Y33025871D01*
X24360946Y33166338D01*
X24415514Y33287079D01*
X24499586Y33421884D01*
X24519850Y33467721D01*
X24598410Y33645420D01*
X24598411Y33645422D01*
X24605547Y33661564D01*
X24613127Y33688438D01*
X24671893Y33896807D01*
X24671893Y33896808D01*
X24676681Y33913784D01*
X24696060Y34058064D01*
X24709871Y34160888D01*
X24709871Y34160892D01*
X24711566Y34173509D01*
X24715227Y34290000D01*
X24706400Y34414666D01*
X24697966Y34533797D01*
X24697965Y34533802D01*
X24696719Y34551404D01*
X24641563Y34807592D01*
X24550860Y35053453D01*
X24426420Y35284080D01*
X24417179Y35296592D01*
X24359342Y35425174D01*
X24339931Y35565871D01*
X24360946Y35706338D01*
X24415514Y35827079D01*
X24499586Y35961884D01*
X24605547Y36201564D01*
X24657557Y36385974D01*
X24671893Y36436807D01*
X24671893Y36436808D01*
X24676681Y36453784D01*
X24711566Y36713509D01*
X24713386Y36771420D01*
X24714827Y36817266D01*
X24714827Y36817270D01*
X24715227Y36830000D01*
X24704204Y36985689D01*
X24697966Y37073797D01*
X24697965Y37073802D01*
X24696719Y37091404D01*
X24641563Y37347592D01*
X24550860Y37593453D01*
X24541050Y37611635D01*
X24531111Y37630054D01*
X24426420Y37824080D01*
X24417179Y37836592D01*
X24359342Y37965174D01*
X24339931Y38105871D01*
X24360946Y38246338D01*
X24415514Y38367079D01*
X24499586Y38501884D01*
X24520939Y38550184D01*
X24598410Y38725420D01*
X24598413Y38725427D01*
X24605547Y38741564D01*
X24612298Y38765499D01*
X24671893Y38976807D01*
X24671893Y38976808D01*
X24676681Y38993784D01*
X24707856Y39225888D01*
X24709871Y39240888D01*
X24709871Y39240892D01*
X24711566Y39253509D01*
X24714058Y39332792D01*
X24714827Y39357266D01*
X24714827Y39357270D01*
X24715227Y39370000D01*
X24708310Y39467695D01*
X24697966Y39613797D01*
X24697965Y39613802D01*
X24696719Y39631404D01*
X24641563Y39887592D01*
X24550860Y40133453D01*
X24426420Y40364080D01*
X24417179Y40376592D01*
X24359342Y40505174D01*
X24339931Y40645871D01*
X24360946Y40786338D01*
X24415514Y40907079D01*
X24499586Y41041884D01*
X24506721Y41058023D01*
X24598410Y41265420D01*
X24598411Y41265422D01*
X24605547Y41281564D01*
X24649575Y41437672D01*
X24671893Y41516807D01*
X24671893Y41516808D01*
X24676681Y41533784D01*
X24697537Y41689063D01*
X24709871Y41780888D01*
X24709871Y41780892D01*
X24711566Y41793509D01*
X24715227Y41910000D01*
X24704441Y42062336D01*
X24697966Y42153797D01*
X24697965Y42153802D01*
X24696719Y42171404D01*
X24641563Y42427592D01*
X24550860Y42673453D01*
X24541425Y42690940D01*
X24495944Y42775229D01*
X24426420Y42904080D01*
X24417179Y42916592D01*
X24359342Y43045174D01*
X24339931Y43185871D01*
X24360946Y43326338D01*
X24415514Y43447079D01*
X24499586Y43581884D01*
X24546244Y43687423D01*
X24598410Y43805420D01*
X24598411Y43805422D01*
X24605547Y43821564D01*
X24612298Y43845499D01*
X24671893Y44056807D01*
X24671893Y44056808D01*
X24676681Y44073784D01*
X24697537Y44229063D01*
X24709871Y44320888D01*
X24709871Y44320892D01*
X24711566Y44333509D01*
X24715227Y44450000D01*
X24696719Y44711404D01*
X24641563Y44967592D01*
X24550860Y45213453D01*
X24426420Y45444080D01*
X24417179Y45456592D01*
X24359342Y45585174D01*
X24339931Y45725871D01*
X24360946Y45866338D01*
X24415514Y45987079D01*
X24499586Y46121884D01*
X24511323Y46148432D01*
X24598410Y46345420D01*
X24598411Y46345422D01*
X24605547Y46361564D01*
X24612298Y46385499D01*
X24671893Y46596807D01*
X24671893Y46596808D01*
X24676681Y46613784D01*
X24697537Y46769063D01*
X24709871Y46860888D01*
X24709871Y46860892D01*
X24711566Y46873509D01*
X24715227Y46990000D01*
X24696719Y47251404D01*
X24641563Y47507592D01*
X24550860Y47753453D01*
X24426420Y47984080D01*
X24417179Y47996592D01*
X24359342Y48125174D01*
X24339931Y48265871D01*
X24360946Y48406338D01*
X24415514Y48527079D01*
X24499586Y48661884D01*
X24552615Y48781833D01*
X24598410Y48885420D01*
X24598411Y48885422D01*
X24605547Y48901564D01*
X24612298Y48925499D01*
X24671893Y49136807D01*
X24671893Y49136808D01*
X24676681Y49153784D01*
X24711566Y49413509D01*
X24715227Y49530000D01*
X24708924Y49619017D01*
X24697966Y49773797D01*
X24697965Y49773802D01*
X24696719Y49791404D01*
X24641563Y50047592D01*
X24550860Y50293453D01*
X24426420Y50524080D01*
X24417179Y50536592D01*
X24359342Y50665174D01*
X24339931Y50805871D01*
X24360946Y50946338D01*
X24415514Y51067079D01*
X24499586Y51201884D01*
X24547383Y51310000D01*
X24598410Y51425420D01*
X24598411Y51425422D01*
X24605547Y51441564D01*
X24612298Y51465499D01*
X24671893Y51676807D01*
X24671893Y51676808D01*
X24676681Y51693784D01*
X24696283Y51839724D01*
X24709871Y51940888D01*
X24709871Y51940892D01*
X24711566Y51953509D01*
X24714697Y52053143D01*
X24714827Y52057266D01*
X24714827Y52057270D01*
X24715227Y52070000D01*
X24708890Y52159502D01*
X24697966Y52313797D01*
X24697965Y52313802D01*
X24696719Y52331404D01*
X24641563Y52587592D01*
X24550860Y52833453D01*
X24426420Y53064080D01*
X24417179Y53076592D01*
X24359342Y53205174D01*
X24339931Y53345871D01*
X24360946Y53486338D01*
X24415514Y53607079D01*
X24499586Y53741884D01*
X24550909Y53857974D01*
X24598410Y53965420D01*
X24598411Y53965422D01*
X24605547Y53981564D01*
X24628371Y54062489D01*
X24671893Y54216807D01*
X24671893Y54216808D01*
X24676681Y54233784D01*
X24705789Y54450500D01*
X24709871Y54480888D01*
X24709871Y54480892D01*
X24711566Y54493509D01*
X24715227Y54610000D01*
X24703014Y54782497D01*
X24697966Y54853797D01*
X24697965Y54853802D01*
X24696719Y54871404D01*
X24641563Y55127592D01*
X24550860Y55373453D01*
X24426420Y55604080D01*
X24417179Y55616592D01*
X24359342Y55745174D01*
X24339931Y55885871D01*
X24360946Y56026338D01*
X24415514Y56147079D01*
X24499586Y56281884D01*
X24605547Y56521564D01*
X24628985Y56604666D01*
X24671893Y56756807D01*
X24671893Y56756808D01*
X24676681Y56773784D01*
X24705918Y56991459D01*
X24709871Y57020888D01*
X24709871Y57020892D01*
X24711566Y57033509D01*
X24715227Y57150000D01*
X24702341Y57331999D01*
X24697966Y57393797D01*
X24697965Y57393802D01*
X24696719Y57411404D01*
X24641563Y57667592D01*
X24550860Y57913453D01*
X24426420Y58144080D01*
X24417179Y58156592D01*
X24359342Y58285174D01*
X24339931Y58425871D01*
X24360946Y58566338D01*
X24415514Y58687079D01*
X24499586Y58821884D01*
X24580577Y59005083D01*
X24598410Y59045420D01*
X24598411Y59045422D01*
X24605547Y59061564D01*
X24618315Y59106833D01*
X24671893Y59296807D01*
X24671893Y59296808D01*
X24676681Y59313784D01*
X24697537Y59469063D01*
X24709871Y59560888D01*
X24709871Y59560892D01*
X24711566Y59573509D01*
X24713878Y59647060D01*
X24714827Y59677266D01*
X24714827Y59677270D01*
X24715227Y59690000D01*
X24709090Y59776676D01*
X24697966Y59933797D01*
X24697965Y59933802D01*
X24696719Y59951404D01*
X24641563Y60207592D01*
X24550860Y60453453D01*
X24426420Y60684080D01*
X24380209Y60746646D01*
X24281212Y60880677D01*
X24270726Y60894874D01*
X24086884Y61081626D01*
X23878562Y61240612D01*
X23745510Y61315125D01*
X23632727Y61401453D01*
X23548835Y61516060D01*
X23500629Y61649659D01*
X23492014Y61791428D01*
X23523690Y61929881D01*
X23593089Y62053801D01*
X23694590Y62153150D01*
X23819968Y62219879D01*
X23959068Y62248581D01*
X23989333Y62249500D01*
X36969616Y62249500D01*
X37110201Y62229287D01*
G37*
%TD.AperFunction*%
%TA.AperFunction,NonConductor*%
G36*
X72440919Y64769287D02*
G01*
X72570114Y64710286D01*
X72653180Y64643346D01*
X72799410Y64497116D01*
X72884526Y64383415D01*
X72934160Y64250340D01*
X72944293Y64108672D01*
X72914102Y63969887D01*
X72846034Y63845230D01*
X72745604Y63744800D01*
X72620947Y63676732D01*
X72482162Y63646541D01*
X72443952Y63645277D01*
X72303477Y63646012D01*
X72260947Y63646235D01*
X72244108Y63644018D01*
X72244106Y63644018D01*
X72000604Y63611961D01*
X72000603Y63611961D01*
X71983757Y63609743D01*
X71967373Y63605261D01*
X71967369Y63605260D01*
X71730466Y63540450D01*
X71714083Y63535968D01*
X71456917Y63426278D01*
X71217018Y63282701D01*
X71203771Y63272088D01*
X71203765Y63272084D01*
X71056635Y63154210D01*
X70998823Y63107894D01*
X70806371Y62905092D01*
X70732203Y62801877D01*
X70661021Y62702816D01*
X70643223Y62678048D01*
X70512398Y62430962D01*
X70506562Y62415014D01*
X70506561Y62415012D01*
X70423656Y62188462D01*
X70416317Y62168408D01*
X70412701Y62151825D01*
X70412699Y62151817D01*
X70366200Y61938554D01*
X70356757Y61895243D01*
X70334822Y61616523D01*
X70350916Y61337404D01*
X70354187Y61320730D01*
X70354188Y61320724D01*
X70373674Y61221404D01*
X70404741Y61063052D01*
X70410247Y61046971D01*
X70489798Y60814620D01*
X70489801Y60814612D01*
X70495303Y60798543D01*
X70620925Y60548772D01*
X70630541Y60534780D01*
X70630542Y60534779D01*
X70769660Y60332360D01*
X70769666Y60332353D01*
X70779282Y60318361D01*
X70790715Y60305796D01*
X70790716Y60305795D01*
X70875459Y60212663D01*
X70967444Y60111573D01*
X71181930Y59932235D01*
X71258029Y59884498D01*
X71404385Y59792689D01*
X71404388Y59792687D01*
X71418771Y59783665D01*
X71673583Y59668613D01*
X71689868Y59663789D01*
X71689871Y59663788D01*
X71807618Y59628910D01*
X71941652Y59589207D01*
X72218018Y59546917D01*
X72235012Y59546650D01*
X72235013Y59546650D01*
X72290054Y59545785D01*
X72497566Y59542526D01*
X72775123Y59576114D01*
X72815235Y59586637D01*
X73045554Y59647060D01*
X73046174Y59644697D01*
X73161046Y59665814D01*
X73302311Y59651097D01*
X73433709Y59597177D01*
X73544592Y59508423D01*
X73625980Y59392024D01*
X73671277Y59257411D01*
X73679500Y59167193D01*
X73679500Y57895173D01*
X73679062Y57874278D01*
X73678447Y57859606D01*
X73675547Y57837578D01*
X73678374Y57777629D01*
X73678946Y57765508D01*
X73679500Y57742000D01*
X73679500Y57728370D01*
X73681112Y57710305D01*
X73682531Y57689488D01*
X73684860Y57640116D01*
X73686063Y57614602D01*
X73691024Y57592941D01*
X73691040Y57592825D01*
X73691489Y57588849D01*
X73692285Y57584957D01*
X73692313Y57584799D01*
X73694289Y57562661D01*
X73700154Y57541223D01*
X73700154Y57541222D01*
X73714071Y57490349D01*
X73719161Y57470083D01*
X73728648Y57428662D01*
X73735897Y57397013D01*
X73744617Y57376570D01*
X73744660Y57376438D01*
X73745802Y57372620D01*
X73747286Y57368900D01*
X73747326Y57368792D01*
X73753192Y57347349D01*
X73781411Y57288189D01*
X73785464Y57279691D01*
X73794060Y57260653D01*
X73823476Y57191687D01*
X73835681Y57173107D01*
X73835739Y57172999D01*
X73837542Y57169437D01*
X73839651Y57166056D01*
X73839721Y57165938D01*
X73849292Y57145871D01*
X73874441Y57110873D01*
X73893036Y57084995D01*
X73904873Y57067772D01*
X73935987Y57020405D01*
X73935994Y57020396D01*
X73946031Y57005116D01*
X73958199Y56991459D01*
X73968792Y56979569D01*
X73968576Y56979377D01*
X73969794Y56978174D01*
X73979552Y56964595D01*
X74016218Y56929063D01*
X74053657Y56892782D01*
X74059242Y56887284D01*
X80518346Y50428180D01*
X80603462Y50314479D01*
X80653096Y50181404D01*
X80664500Y50075334D01*
X80664500Y20409666D01*
X80644287Y20269081D01*
X80585286Y20139886D01*
X80518346Y20056820D01*
X79203675Y18742149D01*
X79188593Y18727685D01*
X79177776Y18717738D01*
X79160146Y18704210D01*
X79145189Y18687772D01*
X79111584Y18650841D01*
X79095354Y18633828D01*
X79085720Y18624194D01*
X79078589Y18615665D01*
X79078585Y18615661D01*
X79074122Y18610323D01*
X79060378Y18594567D01*
X79024870Y18555544D01*
X79024867Y18555540D01*
X79009914Y18539107D01*
X78998103Y18520280D01*
X78998010Y18520157D01*
X78995536Y18517053D01*
X78993349Y18513742D01*
X78993259Y18513613D01*
X78979003Y18496562D01*
X78967993Y18477260D01*
X78967987Y18477251D01*
X78941861Y18431447D01*
X78931127Y18413511D01*
X78903101Y18368835D01*
X78903097Y18368827D01*
X78891293Y18350010D01*
X78883005Y18329392D01*
X78882934Y18329253D01*
X78881046Y18325754D01*
X78879467Y18322079D01*
X78879415Y18321965D01*
X78868405Y18302663D01*
X78860988Y18281719D01*
X78860986Y18281714D01*
X78843377Y18231988D01*
X78835997Y18212456D01*
X78808034Y18142895D01*
X78803529Y18121142D01*
X78803476Y18120967D01*
X78802247Y18117217D01*
X78801345Y18113325D01*
X78801314Y18113203D01*
X78793892Y18092244D01*
X78790300Y18070306D01*
X78790299Y18070304D01*
X78781779Y18018274D01*
X78777969Y17997718D01*
X78766570Y17942672D01*
X78762767Y17924310D01*
X78760797Y17890146D01*
X78760511Y17890162D01*
X78760521Y17888459D01*
X78757818Y17871954D01*
X78757907Y17866284D01*
X78729652Y17737654D01*
X78661332Y17613135D01*
X78577850Y17526285D01*
X78448891Y17421109D01*
X78320427Y17263596D01*
X78226259Y17083470D01*
X78170234Y16888087D01*
X78159500Y16767816D01*
X78159500Y14952184D01*
X78170234Y14831913D01*
X78226259Y14636530D01*
X78237971Y14614127D01*
X78299819Y14495823D01*
X78347039Y14361872D01*
X78354607Y14220044D01*
X78320105Y14077305D01*
X78245574Y13893297D01*
X78182399Y13638968D01*
X78155688Y13378274D01*
X78165977Y13116418D01*
X78173261Y13076536D01*
X78209241Y12879525D01*
X78213058Y12858624D01*
X78295994Y12610035D01*
X78303876Y12594260D01*
X78303878Y12594256D01*
X78382495Y12436919D01*
X78413128Y12375613D01*
X78423158Y12361101D01*
X78423162Y12361094D01*
X78441484Y12334585D01*
X78504787Y12207442D01*
X78529706Y12067615D01*
X78514222Y11926432D01*
X78462479Y11800241D01*
X78447284Y11774080D01*
X78343955Y11596187D01*
X78245574Y11353297D01*
X78182399Y11098968D01*
X78155688Y10838274D01*
X78165977Y10576418D01*
X78169755Y10555733D01*
X78209241Y10339525D01*
X78213058Y10318624D01*
X78295994Y10070035D01*
X78303876Y10054260D01*
X78303878Y10054256D01*
X78387337Y9887228D01*
X78413128Y9835613D01*
X78562124Y9620033D01*
X78740010Y9427598D01*
X78943235Y9262147D01*
X78958346Y9253050D01*
X78958348Y9253048D01*
X79138835Y9144386D01*
X79167745Y9126981D01*
X79183983Y9120105D01*
X79183987Y9120103D01*
X79261082Y9087458D01*
X79409060Y9024797D01*
X79426102Y9020278D01*
X79426109Y9020276D01*
X79542590Y8989392D01*
X79662365Y8957634D01*
X79679879Y8955561D01*
X79679885Y8955560D01*
X79905083Y8928907D01*
X79922607Y8926833D01*
X80184592Y8933007D01*
X80288069Y8950230D01*
X80425679Y8973134D01*
X80425684Y8973135D01*
X80443094Y8976033D01*
X80692955Y9055054D01*
X80929188Y9168491D01*
X81068865Y9261820D01*
X81132404Y9304275D01*
X81132408Y9304278D01*
X81147082Y9314083D01*
X81288277Y9440548D01*
X81329140Y9477148D01*
X81329144Y9477152D01*
X81342287Y9488924D01*
X81361933Y9512295D01*
X81499557Y9676019D01*
X81510910Y9689525D01*
X81649586Y9911884D01*
X81670566Y9959339D01*
X81748410Y10135420D01*
X81748411Y10135422D01*
X81755547Y10151564D01*
X81763805Y10180842D01*
X81821893Y10386807D01*
X81821893Y10386808D01*
X81826681Y10403784D01*
X81829029Y10421267D01*
X81831868Y10434975D01*
X81880169Y10568539D01*
X81964144Y10683085D01*
X82076989Y10769333D01*
X82088365Y10773706D01*
X81993724Y10834528D01*
X81900714Y10941867D01*
X81841713Y11071062D01*
X81832678Y11106622D01*
X81795277Y11280343D01*
X81795276Y11280348D01*
X81791563Y11297592D01*
X81700860Y11543453D01*
X81576420Y11774080D01*
X81567179Y11786592D01*
X81509342Y11915174D01*
X81489931Y12055871D01*
X81510946Y12196338D01*
X81565514Y12317079D01*
X81649586Y12451884D01*
X81755547Y12691564D01*
X81762895Y12717615D01*
X81821893Y12926807D01*
X81821893Y12926808D01*
X81826681Y12943784D01*
X81829029Y12961267D01*
X81831868Y12974975D01*
X81880169Y13108539D01*
X81964144Y13223085D01*
X82076989Y13309333D01*
X82088365Y13313706D01*
X81993724Y13374528D01*
X81900714Y13481867D01*
X81841713Y13611062D01*
X81832678Y13646622D01*
X81795277Y13820343D01*
X81795276Y13820348D01*
X81791563Y13837592D01*
X81700860Y14083453D01*
X81702751Y14084151D01*
X81669675Y14198613D01*
X81670284Y14340642D01*
X81710884Y14476746D01*
X81721669Y14498669D01*
X81793741Y14636530D01*
X81830858Y14765974D01*
X81840830Y14800749D01*
X81899011Y14930316D01*
X81991338Y15038243D01*
X82110331Y15115788D01*
X82246351Y15156666D01*
X82388379Y15157568D01*
X82524907Y15118419D01*
X82644875Y15042391D01*
X82738565Y14935645D01*
X82798385Y14806826D01*
X82819500Y14663206D01*
X82819500Y13751647D01*
X82799287Y13611062D01*
X82740286Y13481867D01*
X82647276Y13374528D01*
X82549275Y13311547D01*
X82615531Y13276223D01*
X82716961Y13176802D01*
X82786271Y13052832D01*
X82817848Y12914356D01*
X82819500Y12873784D01*
X82819500Y11211647D01*
X82799287Y11071062D01*
X82740286Y10941867D01*
X82647276Y10834528D01*
X82549275Y10771547D01*
X82615531Y10736223D01*
X82716961Y10636802D01*
X82786271Y10512832D01*
X82817848Y10374356D01*
X82819500Y10333784D01*
X82819500Y1499500D01*
X82799287Y1358915D01*
X82740286Y1229720D01*
X82647276Y1122381D01*
X82527792Y1045594D01*
X82391515Y1005579D01*
X82320500Y1000500D01*
X61459000Y1000500D01*
X61318415Y1020713D01*
X61189220Y1079714D01*
X61081881Y1172724D01*
X61005094Y1292208D01*
X60965079Y1428485D01*
X60960000Y1499500D01*
X60960000Y10538610D01*
X60980213Y10679195D01*
X61039214Y10808390D01*
X61132224Y10915729D01*
X61251708Y10992516D01*
X61387985Y11032531D01*
X61530015Y11032531D01*
X61666292Y10992516D01*
X61785776Y10915729D01*
X61811846Y10891456D01*
X67714370Y4988933D01*
X67717519Y4985544D01*
X67724126Y4976230D01*
X67788952Y4914172D01*
X67789225Y4913911D01*
X67797005Y4906298D01*
X67822098Y4881205D01*
X67830346Y4874394D01*
X67836576Y4868582D01*
X67879265Y4827716D01*
X67899225Y4814828D01*
X67913142Y4803837D01*
X67927821Y4793898D01*
X67946131Y4778778D01*
X67966966Y4767394D01*
X67966970Y4767392D01*
X67988099Y4755848D01*
X68019511Y4737160D01*
X68059689Y4711218D01*
X68081719Y4702340D01*
X68097465Y4694178D01*
X68113757Y4687195D01*
X68134601Y4675807D01*
X68180151Y4661226D01*
X68214534Y4648814D01*
X68258887Y4630939D01*
X68282192Y4626388D01*
X68299199Y4621350D01*
X68316524Y4617573D01*
X68339144Y4610332D01*
X68362724Y4607499D01*
X68362726Y4607499D01*
X68386619Y4604629D01*
X68422745Y4598940D01*
X68452038Y4593219D01*
X68452045Y4593218D01*
X68469671Y4589776D01*
X68475314Y4589500D01*
X68482697Y4589500D01*
X68483581Y4589447D01*
X68487511Y4589351D01*
X68487508Y4589212D01*
X68505958Y4588108D01*
X68528797Y4587550D01*
X68552377Y4584717D01*
X68576062Y4586394D01*
X68576066Y4586394D01*
X68602329Y4588254D01*
X68637574Y4589500D01*
X72926321Y4589500D01*
X72930934Y4589331D01*
X72942195Y4587416D01*
X72965940Y4587934D01*
X72965942Y4587934D01*
X73032251Y4589381D01*
X73043136Y4589500D01*
X73078664Y4589500D01*
X73089317Y4590517D01*
X73097837Y4590812D01*
X73156910Y4592101D01*
X73180132Y4597101D01*
X73197738Y4599169D01*
X73215151Y4602522D01*
X73238795Y4604778D01*
X73267145Y4613095D01*
X73284682Y4618239D01*
X73320115Y4627238D01*
X73343648Y4632305D01*
X73343650Y4632306D01*
X73366866Y4637304D01*
X73388715Y4646600D01*
X73405614Y4651961D01*
X73422082Y4658548D01*
X73444876Y4665235D01*
X73481317Y4684003D01*
X73487398Y4687135D01*
X73520490Y4702671D01*
X73542630Y4712092D01*
X73542631Y4712093D01*
X73564486Y4721392D01*
X73584186Y4734655D01*
X73599770Y4743116D01*
X73614694Y4752697D01*
X73635807Y4763571D01*
X73655167Y4778778D01*
X73673417Y4793114D01*
X73702980Y4814632D01*
X73742639Y4841332D01*
X73746825Y4845127D01*
X73752049Y4850351D01*
X73752696Y4850925D01*
X73755562Y4853654D01*
X73755658Y4853553D01*
X73769464Y4865799D01*
X73786020Y4881565D01*
X73804698Y4896237D01*
X73837524Y4934066D01*
X73861553Y4959855D01*
X76291073Y7389375D01*
X76294457Y7392520D01*
X76303770Y7399126D01*
X76366068Y7464203D01*
X76373680Y7471982D01*
X76398795Y7497097D01*
X76405614Y7505354D01*
X76411454Y7511613D01*
X76435855Y7537103D01*
X76452284Y7554265D01*
X76465170Y7574222D01*
X76476154Y7588130D01*
X76486096Y7602814D01*
X76501221Y7621130D01*
X76524142Y7663082D01*
X76542835Y7694503D01*
X76555901Y7714739D01*
X76555903Y7714742D01*
X76568782Y7734689D01*
X76577658Y7756712D01*
X76585815Y7772449D01*
X76592803Y7788754D01*
X76604193Y7809601D01*
X76618770Y7855140D01*
X76631189Y7889539D01*
X76640180Y7911848D01*
X76640183Y7911858D01*
X76649061Y7933887D01*
X76653614Y7957199D01*
X76658651Y7974205D01*
X76662428Y7991529D01*
X76669667Y8014144D01*
X76675369Y8061613D01*
X76681060Y8097747D01*
X76684323Y8114456D01*
X76690224Y8144671D01*
X76690500Y8150314D01*
X76690500Y8157706D01*
X76690553Y8158596D01*
X76690649Y8162511D01*
X76690787Y8162508D01*
X76691891Y8180943D01*
X76692450Y8203799D01*
X76695282Y8227377D01*
X76693343Y8254769D01*
X76691746Y8277315D01*
X76690500Y8312560D01*
X76690500Y20221333D01*
X76690669Y20225938D01*
X76692583Y20237195D01*
X76690619Y20327225D01*
X76690500Y20338108D01*
X76690500Y20373664D01*
X76689484Y20384316D01*
X76689187Y20392875D01*
X76688417Y20428159D01*
X76687899Y20451910D01*
X76682898Y20475139D01*
X76680830Y20492739D01*
X76677478Y20510144D01*
X76675222Y20533795D01*
X76666905Y20562145D01*
X76661761Y20579682D01*
X76652762Y20615115D01*
X76647695Y20638648D01*
X76647694Y20638650D01*
X76642696Y20661866D01*
X76633400Y20683715D01*
X76628039Y20700614D01*
X76621452Y20717082D01*
X76614765Y20739876D01*
X76592865Y20782398D01*
X76577329Y20815490D01*
X76567908Y20837630D01*
X76567907Y20837631D01*
X76558608Y20859486D01*
X76545345Y20879186D01*
X76536884Y20894770D01*
X76527303Y20909694D01*
X76516429Y20930807D01*
X76486886Y20968417D01*
X76465368Y20997980D01*
X76448695Y21022745D01*
X76438668Y21037639D01*
X76434873Y21041825D01*
X76429649Y21047049D01*
X76429075Y21047696D01*
X76426346Y21050562D01*
X76426447Y21050658D01*
X76414201Y21064464D01*
X76398435Y21081020D01*
X76383763Y21099698D01*
X76345934Y21132524D01*
X76320145Y21156553D01*
X75324044Y22152654D01*
X75238928Y22266355D01*
X75189294Y22399430D01*
X75179161Y22541098D01*
X75209352Y22679883D01*
X75277420Y22804540D01*
X75377850Y22904970D01*
X75502507Y22973038D01*
X75641292Y23003229D01*
X75676890Y23004500D01*
X76101321Y23004500D01*
X76105934Y23004331D01*
X76117195Y23002416D01*
X76140940Y23002934D01*
X76140942Y23002934D01*
X76207251Y23004381D01*
X76218136Y23004500D01*
X76253664Y23004500D01*
X76264317Y23005517D01*
X76272837Y23005812D01*
X76331910Y23007101D01*
X76355132Y23012101D01*
X76372738Y23014169D01*
X76390151Y23017522D01*
X76413795Y23019778D01*
X76442145Y23028095D01*
X76459682Y23033239D01*
X76495115Y23042238D01*
X76518648Y23047305D01*
X76518650Y23047306D01*
X76541866Y23052304D01*
X76563715Y23061600D01*
X76580614Y23066961D01*
X76597082Y23073548D01*
X76619876Y23080235D01*
X76662398Y23102135D01*
X76695490Y23117671D01*
X76717630Y23127092D01*
X76717631Y23127093D01*
X76739486Y23136392D01*
X76759186Y23149655D01*
X76774770Y23158116D01*
X76789694Y23167697D01*
X76810807Y23178571D01*
X76837020Y23199161D01*
X76848417Y23208114D01*
X76877980Y23229632D01*
X76917639Y23256332D01*
X76921825Y23260127D01*
X76927049Y23265351D01*
X76927696Y23265925D01*
X76930562Y23268654D01*
X76930658Y23268553D01*
X76944479Y23280812D01*
X76961027Y23296570D01*
X76979698Y23311237D01*
X77012513Y23349053D01*
X77036553Y23374855D01*
X78831067Y25169370D01*
X78834456Y25172519D01*
X78843770Y25179126D01*
X78906090Y25244226D01*
X78913702Y25252005D01*
X78938795Y25277098D01*
X78945606Y25285346D01*
X78951424Y25291583D01*
X78969136Y25310085D01*
X78992284Y25334265D01*
X79005172Y25354225D01*
X79016163Y25368142D01*
X79026102Y25382821D01*
X79041222Y25401131D01*
X79053043Y25422767D01*
X79064152Y25443099D01*
X79082840Y25474511D01*
X79108782Y25514689D01*
X79117660Y25536719D01*
X79125822Y25552465D01*
X79132805Y25568757D01*
X79144193Y25589601D01*
X79158774Y25635151D01*
X79171187Y25669536D01*
X79180186Y25691865D01*
X79180186Y25691866D01*
X79189061Y25713887D01*
X79193612Y25737192D01*
X79198650Y25754199D01*
X79202427Y25771524D01*
X79209668Y25794144D01*
X79212537Y25818023D01*
X79215371Y25841619D01*
X79221060Y25877745D01*
X79226781Y25907038D01*
X79226782Y25907045D01*
X79230224Y25924671D01*
X79230500Y25930314D01*
X79230500Y25937697D01*
X79230553Y25938581D01*
X79230649Y25942511D01*
X79230788Y25942508D01*
X79231892Y25960958D01*
X79232450Y25983797D01*
X79235283Y26007377D01*
X79233286Y26035590D01*
X79231746Y26057329D01*
X79230500Y26092574D01*
X79230500Y27841333D01*
X79230669Y27845938D01*
X79232583Y27857195D01*
X79231872Y27889811D01*
X79230619Y27947225D01*
X79230500Y27958108D01*
X79230500Y27993664D01*
X79229484Y28004316D01*
X79229187Y28012875D01*
X79228417Y28048159D01*
X79227899Y28071910D01*
X79222898Y28095139D01*
X79220830Y28112739D01*
X79217478Y28130144D01*
X79215222Y28153795D01*
X79206905Y28182145D01*
X79201761Y28199682D01*
X79192762Y28235115D01*
X79187695Y28258648D01*
X79187694Y28258650D01*
X79182696Y28281866D01*
X79173400Y28303715D01*
X79168039Y28320614D01*
X79161452Y28337082D01*
X79154765Y28359876D01*
X79132865Y28402398D01*
X79117329Y28435490D01*
X79107908Y28457630D01*
X79107907Y28457631D01*
X79098608Y28479486D01*
X79085345Y28499186D01*
X79076884Y28514770D01*
X79067303Y28529694D01*
X79056429Y28550807D01*
X79027119Y28588121D01*
X79026886Y28588417D01*
X79005368Y28617980D01*
X78991628Y28638389D01*
X78978668Y28657639D01*
X78974873Y28661825D01*
X78969649Y28667049D01*
X78969075Y28667696D01*
X78966346Y28670562D01*
X78966447Y28670658D01*
X78954201Y28684464D01*
X78938435Y28701020D01*
X78923763Y28719698D01*
X78885934Y28752524D01*
X78860145Y28776553D01*
X77700625Y29936073D01*
X77697480Y29939457D01*
X77690874Y29948770D01*
X77625797Y30011068D01*
X77618018Y30018680D01*
X77592903Y30043795D01*
X77584646Y30050614D01*
X77578387Y30056454D01*
X77552897Y30080855D01*
X77535735Y30097284D01*
X77515778Y30110170D01*
X77501870Y30121154D01*
X77487186Y30131096D01*
X77468870Y30146221D01*
X77426918Y30169142D01*
X77395497Y30187835D01*
X77375261Y30200901D01*
X77375258Y30200903D01*
X77355311Y30213782D01*
X77333289Y30222657D01*
X77317555Y30230813D01*
X77301247Y30237803D01*
X77280399Y30249193D01*
X77234849Y30263774D01*
X77200464Y30276187D01*
X77178135Y30285186D01*
X77178134Y30285186D01*
X77156113Y30294061D01*
X77132808Y30298612D01*
X77115801Y30303650D01*
X77098476Y30307427D01*
X77075856Y30314668D01*
X77052276Y30317501D01*
X77052274Y30317501D01*
X77028381Y30320371D01*
X76992255Y30326060D01*
X76962962Y30331781D01*
X76962955Y30331782D01*
X76945329Y30335224D01*
X76939686Y30335500D01*
X76932303Y30335500D01*
X76931419Y30335553D01*
X76927489Y30335649D01*
X76927492Y30335788D01*
X76909042Y30336892D01*
X76886203Y30337450D01*
X76862623Y30340283D01*
X76838938Y30338606D01*
X76838934Y30338606D01*
X76812671Y30336746D01*
X76777426Y30335500D01*
X76488666Y30335500D01*
X76348081Y30355713D01*
X76218886Y30414714D01*
X76111547Y30507724D01*
X76034760Y30627208D01*
X75994745Y30763485D01*
X75994745Y30905515D01*
X76034760Y31041792D01*
X76111547Y31161276D01*
X76135820Y31187346D01*
X78276325Y33327851D01*
X78291407Y33342315D01*
X78302224Y33352262D01*
X78319854Y33365790D01*
X78368416Y33419159D01*
X78384646Y33436172D01*
X78394280Y33445806D01*
X78401405Y33454328D01*
X78401412Y33454335D01*
X78405915Y33459720D01*
X78419648Y33475462D01*
X78455129Y33514455D01*
X78455131Y33514458D01*
X78470086Y33530893D01*
X78481897Y33549720D01*
X78481983Y33549834D01*
X78484466Y33552950D01*
X78486654Y33556262D01*
X78486739Y33556385D01*
X78500997Y33573437D01*
X78512008Y33592741D01*
X78538150Y33638572D01*
X78548868Y33656480D01*
X78588707Y33719990D01*
X78597000Y33740620D01*
X78597060Y33740737D01*
X78598953Y33744245D01*
X78600519Y33747890D01*
X78600584Y33748033D01*
X78611595Y33767337D01*
X78622814Y33799018D01*
X78636623Y33838012D01*
X78644008Y33857557D01*
X78659786Y33896807D01*
X78671966Y33927105D01*
X78676471Y33948858D01*
X78676524Y33949033D01*
X78677756Y33952792D01*
X78678655Y33956669D01*
X78678692Y33956813D01*
X78686108Y33977756D01*
X78698221Y34051724D01*
X78702029Y34072271D01*
X78713522Y34127771D01*
X78717233Y34145690D01*
X78719203Y34179852D01*
X78719484Y34179836D01*
X78719475Y34181511D01*
X78722182Y34198045D01*
X78721469Y34243470D01*
X78720562Y34301176D01*
X78720500Y34309013D01*
X78720500Y48149828D01*
X78720938Y48170723D01*
X78721553Y48185395D01*
X78724453Y48207423D01*
X78721054Y48279500D01*
X78720500Y48303001D01*
X78720500Y48316630D01*
X78718890Y48334676D01*
X78717469Y48355514D01*
X78714984Y48408204D01*
X78714984Y48408206D01*
X78713937Y48430398D01*
X78708976Y48452059D01*
X78708960Y48452175D01*
X78708510Y48456159D01*
X78707716Y48460042D01*
X78707686Y48460210D01*
X78705711Y48482339D01*
X78696528Y48515909D01*
X78685932Y48554639D01*
X78680840Y48574910D01*
X78669064Y48626329D01*
X78669062Y48626334D01*
X78664103Y48647988D01*
X78655384Y48668430D01*
X78655336Y48668578D01*
X78654198Y48672381D01*
X78652726Y48676072D01*
X78652672Y48676217D01*
X78646808Y48697651D01*
X78614541Y48765301D01*
X78605941Y48784346D01*
X78585243Y48832872D01*
X78585242Y48832873D01*
X78576524Y48853313D01*
X78564322Y48871888D01*
X78564260Y48872004D01*
X78562460Y48875560D01*
X78560349Y48878944D01*
X78560279Y48879062D01*
X78550708Y48899129D01*
X78506964Y48960005D01*
X78495127Y48977228D01*
X78464013Y49024595D01*
X78464006Y49024604D01*
X78453969Y49039884D01*
X78431208Y49065431D01*
X78431424Y49065623D01*
X78430206Y49066826D01*
X78420448Y49080405D01*
X78346343Y49152218D01*
X78340758Y49157716D01*
X77162149Y50336325D01*
X77147685Y50351407D01*
X77137738Y50362224D01*
X77124210Y50379854D01*
X77070841Y50428416D01*
X77053828Y50444646D01*
X77044194Y50454280D01*
X77030323Y50465878D01*
X77014567Y50479622D01*
X76975544Y50515130D01*
X76975540Y50515133D01*
X76959107Y50530086D01*
X76940280Y50541897D01*
X76940157Y50541990D01*
X76937053Y50544464D01*
X76933742Y50546651D01*
X76933613Y50546741D01*
X76916562Y50560997D01*
X76897260Y50572007D01*
X76897251Y50572013D01*
X76851447Y50598139D01*
X76833511Y50608873D01*
X76788835Y50636899D01*
X76788827Y50636903D01*
X76770010Y50648707D01*
X76749392Y50656995D01*
X76749253Y50657066D01*
X76745754Y50658954D01*
X76742079Y50660533D01*
X76741965Y50660585D01*
X76722663Y50671595D01*
X76701718Y50679012D01*
X76681506Y50688266D01*
X76682409Y50690238D01*
X76582377Y50742716D01*
X76480288Y50841460D01*
X76410153Y50964966D01*
X76377654Y51103228D01*
X76385426Y51245045D01*
X76419752Y51352060D01*
X76463248Y51448618D01*
X76463250Y51448622D01*
X76470852Y51465499D01*
X76488277Y51527285D01*
X76536933Y51699803D01*
X76536934Y51699809D01*
X76541960Y51717629D01*
X76559386Y51854603D01*
X76573438Y51965065D01*
X76575020Y51977499D01*
X76577442Y52070000D01*
X76576498Y52082710D01*
X76559400Y52312781D01*
X76558028Y52331245D01*
X76500213Y52586750D01*
X76405267Y52830903D01*
X76275276Y53058341D01*
X76263819Y53072875D01*
X76263815Y53072880D01*
X76124558Y53249526D01*
X76113095Y53264067D01*
X75922287Y53443560D01*
X75907071Y53454116D01*
X75907070Y53454117D01*
X75722257Y53582327D01*
X75707045Y53592880D01*
X75690442Y53601068D01*
X75690438Y53601070D01*
X75488701Y53700555D01*
X75488699Y53700556D01*
X75472095Y53708744D01*
X75222601Y53788607D01*
X75204332Y53791582D01*
X75204325Y53791584D01*
X74982317Y53827740D01*
X74982315Y53827740D01*
X74964043Y53830716D01*
X74828827Y53832486D01*
X74720612Y53833903D01*
X74720608Y53833903D01*
X74702100Y53834145D01*
X74442528Y53798819D01*
X74424750Y53793637D01*
X74424749Y53793637D01*
X74407492Y53788607D01*
X74191029Y53725514D01*
X73953127Y53615840D01*
X73930599Y53601070D01*
X73815109Y53525351D01*
X73734049Y53472206D01*
X73720241Y53459882D01*
X73720236Y53459878D01*
X73552421Y53310096D01*
X73538609Y53297768D01*
X73371098Y53096359D01*
X73235198Y52872402D01*
X73228039Y52855331D01*
X73228038Y52855328D01*
X73145984Y52659652D01*
X73133893Y52630818D01*
X73118535Y52570346D01*
X73073968Y52394866D01*
X73073967Y52394859D01*
X73069409Y52376913D01*
X73067553Y52358482D01*
X73067553Y52358481D01*
X73046221Y52146625D01*
X73043164Y52116266D01*
X73055732Y51854603D01*
X73106839Y51597672D01*
X73113093Y51580254D01*
X73113096Y51580242D01*
X73160533Y51448119D01*
X73189015Y51308973D01*
X73177141Y51167440D01*
X73125873Y51034986D01*
X73039366Y50922340D01*
X72924626Y50838630D01*
X72790951Y50790636D01*
X72690886Y50780500D01*
X66764666Y50780500D01*
X66624081Y50800713D01*
X66494886Y50859714D01*
X66411820Y50926654D01*
X63083206Y54255268D01*
X62998090Y54368969D01*
X62948456Y54502044D01*
X62938323Y54643712D01*
X62968514Y54782497D01*
X63036582Y54907154D01*
X63080231Y54955447D01*
X63079854Y54955790D01*
X63128416Y55009159D01*
X63144646Y55026172D01*
X63154280Y55035806D01*
X63164187Y55047654D01*
X63165878Y55049677D01*
X63179622Y55065433D01*
X63215130Y55104456D01*
X63215133Y55104460D01*
X63230086Y55120893D01*
X63241897Y55139720D01*
X63241990Y55139843D01*
X63244464Y55142947D01*
X63246651Y55146258D01*
X63246741Y55146387D01*
X63260997Y55163438D01*
X63272007Y55182740D01*
X63272013Y55182749D01*
X63298139Y55228553D01*
X63308873Y55246489D01*
X63336899Y55291165D01*
X63336903Y55291173D01*
X63348707Y55309990D01*
X63356995Y55330608D01*
X63357066Y55330747D01*
X63358954Y55334246D01*
X63360533Y55337921D01*
X63360585Y55338035D01*
X63371595Y55357337D01*
X63379012Y55378281D01*
X63379014Y55378286D01*
X63396623Y55428012D01*
X63404008Y55447557D01*
X63404067Y55447703D01*
X63431966Y55517105D01*
X63436471Y55538858D01*
X63436524Y55539033D01*
X63437753Y55542783D01*
X63438655Y55546675D01*
X63438686Y55546797D01*
X63446108Y55567756D01*
X63458221Y55641728D01*
X63462031Y55662282D01*
X63473522Y55717769D01*
X63473523Y55717773D01*
X63477233Y55735690D01*
X63479203Y55769854D01*
X63479485Y55769838D01*
X63479475Y55771517D01*
X63482182Y55788046D01*
X63480562Y55891177D01*
X63480500Y55899014D01*
X63480500Y58743578D01*
X63500713Y58884163D01*
X63559714Y59013358D01*
X63652724Y59120697D01*
X63772208Y59197484D01*
X63908485Y59237499D01*
X64050515Y59237499D01*
X64141130Y59215676D01*
X64152819Y59211674D01*
X64169060Y59204797D01*
X64422365Y59137634D01*
X64439879Y59135561D01*
X64439885Y59135560D01*
X64665083Y59108907D01*
X64682607Y59106833D01*
X64944592Y59113007D01*
X65042996Y59129386D01*
X65185679Y59153134D01*
X65185684Y59153135D01*
X65203094Y59156033D01*
X65452955Y59235054D01*
X65626065Y59318180D01*
X65673278Y59340851D01*
X65673280Y59340852D01*
X65689188Y59348491D01*
X65756309Y59393340D01*
X65892404Y59484275D01*
X65892408Y59484278D01*
X65907082Y59494083D01*
X66067116Y59637422D01*
X66089140Y59657148D01*
X66089144Y59657152D01*
X66102287Y59668924D01*
X66136518Y59709646D01*
X66259557Y59856019D01*
X66270910Y59869525D01*
X66409586Y60091884D01*
X66425398Y60127651D01*
X66508410Y60315420D01*
X66508411Y60315422D01*
X66515547Y60331564D01*
X66523198Y60358690D01*
X66581893Y60566807D01*
X66581893Y60566808D01*
X66586681Y60583784D01*
X66613488Y60783365D01*
X66619871Y60830888D01*
X66619871Y60830892D01*
X66621566Y60843509D01*
X66623180Y60894874D01*
X66624827Y60947266D01*
X66624827Y60947270D01*
X66625227Y60960000D01*
X66613936Y61119477D01*
X66607966Y61203797D01*
X66607965Y61203802D01*
X66606719Y61221404D01*
X66551563Y61477592D01*
X66460860Y61723453D01*
X66336420Y61954080D01*
X66294444Y62010912D01*
X66191212Y62150677D01*
X66180726Y62164874D01*
X65996884Y62351626D01*
X65788562Y62510612D01*
X65595712Y62618614D01*
X65575310Y62630040D01*
X65575304Y62630043D01*
X65559917Y62638660D01*
X65493947Y62664182D01*
X65331965Y62726848D01*
X65331963Y62726849D01*
X65315512Y62733213D01*
X65060221Y62792386D01*
X64799141Y62814998D01*
X64781533Y62814029D01*
X64781530Y62814029D01*
X64699436Y62809511D01*
X64537478Y62800598D01*
X64280456Y62749473D01*
X64263811Y62743628D01*
X64263805Y62743626D01*
X64049859Y62668493D01*
X64033201Y62662643D01*
X63800647Y62541841D01*
X63786291Y62531582D01*
X63771245Y62522362D01*
X63770183Y62524096D01*
X63664483Y62469380D01*
X63525065Y62442268D01*
X63383655Y62455533D01*
X63252006Y62507983D01*
X63248562Y62510612D01*
X63233168Y62519233D01*
X63035310Y62630040D01*
X63035304Y62630043D01*
X63019917Y62638660D01*
X62953947Y62664182D01*
X62791965Y62726848D01*
X62791963Y62726849D01*
X62775512Y62733213D01*
X62520221Y62792386D01*
X62259141Y62814998D01*
X62241533Y62814029D01*
X62241530Y62814029D01*
X62159436Y62809511D01*
X61997478Y62800598D01*
X61740456Y62749473D01*
X61723811Y62743628D01*
X61723805Y62743626D01*
X61509853Y62668491D01*
X61509850Y62668490D01*
X61493201Y62662643D01*
X61479624Y62655591D01*
X61343702Y62618614D01*
X61201700Y62621452D01*
X61066250Y62664182D01*
X61051386Y62671640D01*
X60935873Y62732029D01*
X60913470Y62743741D01*
X60718087Y62799766D01*
X60597816Y62810500D01*
X58782184Y62810500D01*
X58661913Y62799766D01*
X58466530Y62743741D01*
X58286404Y62649573D01*
X58128891Y62521109D01*
X58000427Y62363596D01*
X57906259Y62183470D01*
X57850234Y61988087D01*
X57839500Y61867816D01*
X57839500Y60052184D01*
X57850234Y59931913D01*
X57906259Y59736530D01*
X58000427Y59556404D01*
X58128891Y59398891D01*
X58148476Y59382918D01*
X58163614Y59367780D01*
X58248730Y59254079D01*
X58298364Y59121004D01*
X58308497Y58979336D01*
X58278306Y58840551D01*
X58210238Y58715894D01*
X58163614Y58662088D01*
X58048180Y58546654D01*
X57934479Y58461538D01*
X57801404Y58411904D01*
X57695334Y58400500D01*
X53206655Y58400500D01*
X53066070Y58420713D01*
X52936875Y58479714D01*
X52829536Y58572724D01*
X52752749Y58692208D01*
X52712734Y58828485D01*
X52712734Y58970515D01*
X52752749Y59106792D01*
X52829536Y59226276D01*
X52936875Y59319286D01*
X52959419Y59332946D01*
X52973278Y59340851D01*
X52989188Y59348491D01*
X53056309Y59393340D01*
X53192404Y59484275D01*
X53192408Y59484278D01*
X53207082Y59494083D01*
X53367116Y59637422D01*
X53389140Y59657148D01*
X53389144Y59657152D01*
X53402287Y59668924D01*
X53436518Y59709646D01*
X53559557Y59856019D01*
X53570910Y59869525D01*
X53709586Y60091884D01*
X53725398Y60127651D01*
X53808410Y60315420D01*
X53808411Y60315422D01*
X53815547Y60331564D01*
X53823198Y60358690D01*
X53881893Y60566807D01*
X53881893Y60566808D01*
X53886681Y60583784D01*
X53913488Y60783365D01*
X53919871Y60830888D01*
X53919871Y60830892D01*
X53921566Y60843509D01*
X53923180Y60894874D01*
X53924827Y60947266D01*
X53924827Y60947270D01*
X53925227Y60960000D01*
X53913936Y61119477D01*
X53907966Y61203797D01*
X53907965Y61203802D01*
X53906719Y61221404D01*
X53851563Y61477592D01*
X53760860Y61723453D01*
X53636420Y61954080D01*
X53594444Y62010912D01*
X53491212Y62150677D01*
X53480726Y62164874D01*
X53296884Y62351626D01*
X53088562Y62510612D01*
X52895712Y62618614D01*
X52875310Y62630040D01*
X52875304Y62630043D01*
X52859917Y62638660D01*
X52793947Y62664182D01*
X52631965Y62726848D01*
X52631963Y62726849D01*
X52615512Y62733213D01*
X52360221Y62792386D01*
X52099141Y62814998D01*
X52081533Y62814029D01*
X52081530Y62814029D01*
X51999436Y62809511D01*
X51837478Y62800598D01*
X51580456Y62749473D01*
X51563811Y62743628D01*
X51563805Y62743626D01*
X51349859Y62668493D01*
X51333201Y62662643D01*
X51100647Y62541841D01*
X51086291Y62531582D01*
X51071245Y62522362D01*
X51070183Y62524096D01*
X50964483Y62469380D01*
X50825065Y62442268D01*
X50683655Y62455533D01*
X50552006Y62507983D01*
X50548562Y62510612D01*
X50533168Y62519233D01*
X50335310Y62630040D01*
X50335304Y62630043D01*
X50319917Y62638660D01*
X50203286Y62683781D01*
X50079467Y62753356D01*
X49980263Y62854998D01*
X49913713Y62980472D01*
X49885209Y63119613D01*
X49897060Y63261148D01*
X49948306Y63393611D01*
X50030487Y63502013D01*
X51171820Y64643346D01*
X51285521Y64728462D01*
X51418596Y64778096D01*
X51524666Y64789500D01*
X72300334Y64789500D01*
X72440919Y64769287D01*
G37*
%TD.AperFunction*%
M02*
