%TF.GenerationSoftware,KiCad,Pcbnew,(6.0.4)*%
%TF.CreationDate,2023-07-19T00:07:21+07:00*%
%TF.ProjectId,05-Prototype-UpdatedComponents,30352d50-726f-4746-9f74-7970652d5570,rev?*%
%TF.SameCoordinates,PX66ff300PY8b3c880*%
%TF.FileFunction,AssemblyDrawing,Bot*%
%FSLAX46Y46*%
G04 Gerber Fmt 4.6, Leading zero omitted, Abs format (unit mm)*
G04 Created by KiCad (PCBNEW (6.0.4)) date 2023-07-19 00:07:21*
%MOMM*%
%LPD*%
G01*
G04 APERTURE LIST*
%TA.AperFunction,Profile*%
%ADD10C,0.100000*%
%TD*%
%ADD11C,0.150000*%
%ADD12C,0.100000*%
G04 APERTURE END LIST*
D10*
X1666666Y0D02*
G75*
G03*
X1666666Y0I-1666666J0D01*
G01*
X-2500000Y0D02*
X2500000Y0D01*
X0Y2500000D02*
X0Y-2500000D01*
X0Y92000000D02*
X73000000Y92000000D01*
X73000000Y92000000D02*
X73000000Y0D01*
X73000000Y0D02*
X0Y0D01*
X0Y0D02*
X0Y92000000D01*
D11*
%TO.C,U4*%
X22357380Y30532858D02*
X21357380Y30532858D01*
X21357380Y30294762D01*
X21405000Y30151905D01*
X21500238Y30056667D01*
X21595476Y30009048D01*
X21785952Y29961429D01*
X21928809Y29961429D01*
X22119285Y30009048D01*
X22214523Y30056667D01*
X22309761Y30151905D01*
X22357380Y30294762D01*
X22357380Y30532858D01*
X22309761Y29580477D02*
X22357380Y29437620D01*
X22357380Y29199524D01*
X22309761Y29104286D01*
X22262142Y29056667D01*
X22166904Y29009048D01*
X22071666Y29009048D01*
X21976428Y29056667D01*
X21928809Y29104286D01*
X21881190Y29199524D01*
X21833571Y29390000D01*
X21785952Y29485239D01*
X21738333Y29532858D01*
X21643095Y29580477D01*
X21547857Y29580477D01*
X21452619Y29532858D01*
X21405000Y29485239D01*
X21357380Y29390000D01*
X21357380Y29151905D01*
X21405000Y29009048D01*
X21357380Y28675715D02*
X21357380Y28056667D01*
X21738333Y28390000D01*
X21738333Y28247143D01*
X21785952Y28151905D01*
X21833571Y28104286D01*
X21928809Y28056667D01*
X22166904Y28056667D01*
X22262142Y28104286D01*
X22309761Y28151905D01*
X22357380Y28247143D01*
X22357380Y28532858D01*
X22309761Y28628096D01*
X22262142Y28675715D01*
X21452619Y27675715D02*
X21405000Y27628096D01*
X21357380Y27532858D01*
X21357380Y27294762D01*
X21405000Y27199524D01*
X21452619Y27151905D01*
X21547857Y27104286D01*
X21643095Y27104286D01*
X21785952Y27151905D01*
X22357380Y27723334D01*
X22357380Y27104286D01*
X21357380Y26770953D02*
X21357380Y26151905D01*
X21738333Y26485239D01*
X21738333Y26342381D01*
X21785952Y26247143D01*
X21833571Y26199524D01*
X21928809Y26151905D01*
X22166904Y26151905D01*
X22262142Y26199524D01*
X22309761Y26247143D01*
X22357380Y26342381D01*
X22357380Y26628096D01*
X22309761Y26723334D01*
X22262142Y26770953D01*
X22357380Y25199524D02*
X22357380Y25770953D01*
X22357380Y25485239D02*
X21357380Y25485239D01*
X21500238Y25580477D01*
X21595476Y25675715D01*
X21643095Y25770953D01*
D12*
%TO.C,R9*%
X14555000Y55195000D02*
X15295000Y55195000D01*
X15295000Y55995000D02*
X18895000Y55995000D01*
X18895000Y54395000D02*
X15295000Y54395000D01*
X18895000Y55995000D02*
X18895000Y54395000D01*
X19635000Y55195000D02*
X18895000Y55195000D01*
X15295000Y54395000D02*
X15295000Y55995000D01*
%TO.C,R8*%
X54395000Y37945000D02*
X55995000Y37945000D01*
X55195000Y33605000D02*
X55195000Y34345000D01*
X55995000Y34345000D02*
X54395000Y34345000D01*
X54395000Y34345000D02*
X54395000Y37945000D01*
X55995000Y37945000D02*
X55995000Y34345000D01*
X55195000Y38685000D02*
X55195000Y37945000D01*
%TO.C,R7*%
X41390000Y55300000D02*
X39790000Y55300000D01*
X40590000Y59640000D02*
X40590000Y58900000D01*
X39790000Y58900000D02*
X41390000Y58900000D01*
X41390000Y58900000D02*
X41390000Y55300000D01*
X39790000Y55300000D02*
X39790000Y58900000D01*
X40590000Y54560000D02*
X40590000Y55300000D01*
%TO.C,R6*%
X63615000Y50855000D02*
X62015000Y50855000D01*
X62815000Y55195000D02*
X62815000Y54455000D01*
X62015000Y54455000D02*
X63615000Y54455000D01*
X63615000Y54455000D02*
X63615000Y50855000D01*
X62015000Y50855000D02*
X62015000Y54455000D01*
X62815000Y50115000D02*
X62815000Y50855000D01*
%TO.C,R5*%
X55090000Y68695000D02*
X55090000Y67095000D01*
X50750000Y67895000D02*
X51490000Y67895000D01*
X51490000Y67095000D02*
X51490000Y68695000D01*
X51490000Y68695000D02*
X55090000Y68695000D01*
X55090000Y67095000D02*
X51490000Y67095000D01*
X55830000Y67895000D02*
X55090000Y67895000D01*
%TO.C,R4*%
X55090000Y66155000D02*
X55090000Y64555000D01*
X50750000Y65355000D02*
X51490000Y65355000D01*
X51490000Y64555000D02*
X51490000Y66155000D01*
X51490000Y66155000D02*
X55090000Y66155000D01*
X55090000Y64555000D02*
X51490000Y64555000D01*
X55830000Y65355000D02*
X55090000Y65355000D01*
%TO.C,R3*%
X34875000Y76460000D02*
X34135000Y76460000D01*
X34135000Y75660000D02*
X30535000Y75660000D01*
X30535000Y77260000D02*
X34135000Y77260000D01*
X30535000Y75660000D02*
X30535000Y77260000D01*
X29795000Y76460000D02*
X30535000Y76460000D01*
X34135000Y77260000D02*
X34135000Y75660000D01*
%TO.C,R2*%
X30535000Y84550000D02*
X30535000Y86150000D01*
X34875000Y85350000D02*
X34135000Y85350000D01*
X34135000Y86150000D02*
X34135000Y84550000D01*
X34135000Y84550000D02*
X30535000Y84550000D01*
X30535000Y86150000D02*
X34135000Y86150000D01*
X29795000Y85350000D02*
X30535000Y85350000D01*
%TO.C,R1*%
X46940000Y76460000D02*
X46200000Y76460000D01*
X46200000Y75660000D02*
X42600000Y75660000D01*
X42600000Y77260000D02*
X46200000Y77260000D01*
X42600000Y75660000D02*
X42600000Y77260000D01*
X41860000Y76460000D02*
X42600000Y76460000D01*
X46200000Y77260000D02*
X46200000Y75660000D01*
%TO.C,R0*%
X41860000Y85350000D02*
X42600000Y85350000D01*
X42600000Y86150000D02*
X46200000Y86150000D01*
X46200000Y84550000D02*
X42600000Y84550000D01*
X46200000Y86150000D02*
X46200000Y84550000D01*
X46940000Y85350000D02*
X46200000Y85350000D01*
X42600000Y84550000D02*
X42600000Y86150000D01*
%TO.C,C1*%
X5847500Y73793717D02*
X5847500Y73293717D01*
X5597500Y73543717D02*
X6097500Y73543717D01*
X9435000Y71660112D02*
G75*
G03*
X9435000Y71660112I-2500000J0D01*
G01*
%TO.C,C0*%
X41820000Y66034887D02*
G75*
G03*
X41820000Y66034887I-2500000J0D01*
G01*
X40657500Y64151282D02*
X40157500Y64151282D01*
X40407500Y63901282D02*
X40407500Y64401282D01*
%TD*%
M02*
