%TF.GenerationSoftware,KiCad,Pcbnew,(6.0.4)*%
%TF.CreationDate,2023-07-21T11:31:22+07:00*%
%TF.ProjectId,05-Prototype-UpdatedComponents,30352d50-726f-4746-9f74-7970652d5570,rev?*%
%TF.SameCoordinates,PX66ff300PY8b3c880*%
%TF.FileFunction,Plated,1,2,PTH,Mixed*%
%TF.FilePolarity,Positive*%
%FSLAX46Y46*%
G04 Gerber Fmt 4.6, Leading zero omitted, Abs format (unit mm)*
G04 Created by KiCad (PCBNEW (6.0.4)) date 2023-07-21 11:31:22*
%MOMM*%
%LPD*%
G01*
G04 APERTURE LIST*
%TA.AperFunction,ComponentDrill*%
%ADD10C,0.700000*%
%TD*%
%TA.AperFunction,ComponentDrill*%
%ADD11C,0.762000*%
%TD*%
%TA.AperFunction,ComponentDrill*%
%ADD12C,0.800000*%
%TD*%
%TA.AperFunction,ComponentDrill*%
%ADD13C,0.890000*%
%TD*%
%TA.AperFunction,ComponentDrill*%
%ADD14C,1.000000*%
%TD*%
G04 aperture for slot hole*
%TA.AperFunction,ComponentDrill*%
%ADD15O,1.000000X3.000000*%
%TD*%
G04 aperture for slot hole*
%TA.AperFunction,ComponentDrill*%
%ADD16O,3.000000X1.000000*%
%TD*%
%TA.AperFunction,ComponentDrill*%
%ADD17C,1.100000*%
%TD*%
%TA.AperFunction,ViaDrill*%
%ADD18C,2.000000*%
%TD*%
G04 APERTURE END LIST*
D10*
%TO.C,R9*%
X14555000Y55195000D03*
X19635000Y55195000D03*
%TO.C,R2*%
X29795000Y85350000D03*
%TO.C,R3*%
X29795000Y76460000D03*
%TO.C,R2*%
X34875000Y85350000D03*
%TO.C,R3*%
X34875000Y76460000D03*
%TO.C,R7*%
X40590000Y59640000D03*
X40590000Y54560000D03*
%TO.C,R0*%
X41860000Y85350000D03*
%TO.C,R1*%
X41860000Y76460000D03*
%TO.C,R0*%
X46940000Y85350000D03*
%TO.C,R1*%
X46940000Y76460000D03*
%TO.C,R5*%
X50750000Y67895000D03*
%TO.C,R4*%
X50750000Y65355000D03*
%TO.C,R8*%
X55195000Y38685000D03*
X55195000Y33605000D03*
%TO.C,R5*%
X55830000Y67895000D03*
%TO.C,R4*%
X55830000Y65355000D03*
%TO.C,R6*%
X62815000Y55195000D03*
X62815000Y50115000D03*
D11*
%TO.C,U5*%
X11507000Y72910000D03*
X11507000Y70370000D03*
%TO.C,U7*%
X13465000Y41733000D03*
X13465000Y39193000D03*
X13465000Y36653000D03*
X13465000Y34113000D03*
X13465000Y31573000D03*
X13465000Y29033000D03*
%TO.C,U5*%
X14047000Y72910000D03*
X14047000Y70370000D03*
%TO.C,U4*%
X14555000Y10160000D03*
%TO.C,U5*%
X16587000Y72910000D03*
X16587000Y70370000D03*
%TO.C,U4*%
X17095000Y45620000D03*
X17175000Y10160000D03*
%TO.C,U5*%
X19127000Y72910000D03*
X19127000Y70370000D03*
%TO.C,U4*%
X19635000Y45620000D03*
X19715000Y10160000D03*
X22175000Y45620000D03*
X22255000Y10160000D03*
X24715000Y45620000D03*
X24795000Y10160000D03*
X27335000Y10160000D03*
%TO.C,U3*%
X50650000Y28525000D03*
X50650000Y25985000D03*
X50650000Y23445000D03*
X50650000Y20905000D03*
X50650000Y18365000D03*
X50650000Y15825000D03*
%TO.C,C5*%
X51385000Y51630000D03*
X51385000Y47330000D03*
%TO.C,C2*%
X51385000Y44645000D03*
X51385000Y40345000D03*
%TO.C,C7*%
X51385000Y37660000D03*
X51385000Y33360000D03*
%TO.C,C4*%
X54696000Y44400000D03*
%TO.C,C6*%
X55195000Y51630000D03*
X55195000Y47330000D03*
%TO.C,C4*%
X58996000Y44400000D03*
%TO.C,C3*%
X59005000Y51630000D03*
X59005000Y47330000D03*
D12*
%TO.C,C1*%
X6935000Y72660112D03*
X6935000Y70660112D03*
%TO.C,C0*%
X39320000Y67034887D03*
X39320000Y65034887D03*
%TO.C,U6*%
X50125000Y62165000D03*
X50125000Y54545000D03*
X52665000Y62165000D03*
X52665000Y54545000D03*
X55205000Y62165000D03*
X55205000Y54545000D03*
X57745000Y62165000D03*
X57745000Y54545000D03*
D13*
%TO.C,J4*%
X62132600Y40160200D03*
X62132600Y38125200D03*
%TO.C,J3*%
X62158000Y60251600D03*
X62158000Y58216600D03*
%TO.C,J4*%
X64572600Y39140200D03*
%TO.C,J3*%
X64598000Y59231600D03*
%TO.C,J4*%
X64672600Y41175200D03*
%TO.C,J3*%
X64698000Y61266600D03*
D14*
%TO.C,J1*%
X12015000Y13920000D03*
X14555000Y13920000D03*
%TO.C,J2*%
X14570000Y60935000D03*
%TO.C,J5*%
X14570000Y51410000D03*
%TO.C,J1*%
X17095000Y13920000D03*
%TO.C,J2*%
X17110000Y60935000D03*
%TO.C,J5*%
X17110000Y51410000D03*
%TO.C,J2*%
X19650000Y60935000D03*
%TO.C,J5*%
X19650000Y51410000D03*
%TO.C,U0*%
X28880000Y69630000D03*
X28880000Y67090000D03*
X28880000Y64550000D03*
X28880000Y62010000D03*
X28880000Y59470000D03*
X28880000Y56930000D03*
X28880000Y54390000D03*
X28880000Y51850000D03*
X28880000Y49310000D03*
X28880000Y46770000D03*
X28880000Y44230000D03*
X28880000Y41690000D03*
X28880000Y39150000D03*
X28880000Y36610000D03*
X28880000Y34070000D03*
X28880000Y31530000D03*
X28880000Y28990000D03*
X28880000Y26450000D03*
X28880000Y23910000D03*
X28880000Y21370000D03*
X44120000Y69630000D03*
X44120000Y67090000D03*
X44120000Y64550000D03*
X44120000Y62010000D03*
X44120000Y59470000D03*
X44120000Y56930000D03*
X44120000Y54390000D03*
X44120000Y51850000D03*
X44120000Y49310000D03*
X44120000Y46770000D03*
X44120000Y44230000D03*
X44120000Y41690000D03*
X44120000Y39150000D03*
X44120000Y36610000D03*
X44120000Y34070000D03*
X44120000Y31530000D03*
X44120000Y28990000D03*
X44120000Y26450000D03*
X44120000Y23910000D03*
X44120000Y21370000D03*
D15*
%TO.C,J0*%
X63165000Y73922500D03*
D16*
X66165000Y78622500D03*
D15*
X69165000Y73922500D03*
D17*
%TO.C,U2*%
X29795000Y79960000D03*
X32335000Y79960000D03*
X34875000Y79960000D03*
%TO.C,U1*%
X41860000Y79960000D03*
X44400000Y79960000D03*
X46940000Y79960000D03*
%TD*%
D18*
X4500000Y85000000D03*
X4500000Y7000000D03*
X68500000Y85000000D03*
X68530000Y6935000D03*
M02*
