%TF.GenerationSoftware,KiCad,Pcbnew,(6.0.4)*%
%TF.CreationDate,2023-07-21T11:21:04+07:00*%
%TF.ProjectId,05-Prototype-UpdatedComponents,30352d50-726f-4746-9f74-7970652d5570,rev?*%
%TF.SameCoordinates,PX66ff300PY8b3c880*%
%TF.FileFunction,Legend,Bot*%
%TF.FilePolarity,Positive*%
%FSLAX46Y46*%
G04 Gerber Fmt 4.6, Leading zero omitted, Abs format (unit mm)*
G04 Created by KiCad (PCBNEW (6.0.4)) date 2023-07-21 11:21:04*
%MOMM*%
%LPD*%
G01*
G04 APERTURE LIST*
%TA.AperFunction,Profile*%
%ADD10C,0.100000*%
%TD*%
%ADD11C,0.150000*%
%ADD12C,0.120000*%
G04 APERTURE END LIST*
D10*
X0Y92000000D02*
X73000000Y92000000D01*
X73000000Y92000000D02*
X73000000Y0D01*
X73000000Y0D02*
X0Y0D01*
X0Y0D02*
X0Y92000000D01*
X1666666Y0D02*
G75*
G03*
X1666666Y0I-1666666J0D01*
G01*
X-2500000Y0D02*
X2500000Y0D01*
X0Y2500000D02*
X0Y-2500000D01*
D11*
%TO.C,R6*%
X63267380Y52821667D02*
X62791190Y53155000D01*
X63267380Y53393096D02*
X62267380Y53393096D01*
X62267380Y53012143D01*
X62315000Y52916905D01*
X62362619Y52869286D01*
X62457857Y52821667D01*
X62600714Y52821667D01*
X62695952Y52869286D01*
X62743571Y52916905D01*
X62791190Y53012143D01*
X62791190Y53393096D01*
X62267380Y51964524D02*
X62267380Y52155000D01*
X62315000Y52250239D01*
X62362619Y52297858D01*
X62505476Y52393096D01*
X62695952Y52440715D01*
X63076904Y52440715D01*
X63172142Y52393096D01*
X63219761Y52345477D01*
X63267380Y52250239D01*
X63267380Y52059762D01*
X63219761Y51964524D01*
X63172142Y51916905D01*
X63076904Y51869286D01*
X62838809Y51869286D01*
X62743571Y51916905D01*
X62695952Y51964524D01*
X62648333Y52059762D01*
X62648333Y52250239D01*
X62695952Y52345477D01*
X62743571Y52393096D01*
X62838809Y52440715D01*
%TO.C,R5*%
X53456666Y67442620D02*
X53790000Y67918810D01*
X54028095Y67442620D02*
X54028095Y68442620D01*
X53647142Y68442620D01*
X53551904Y68395000D01*
X53504285Y68347381D01*
X53456666Y68252143D01*
X53456666Y68109286D01*
X53504285Y68014048D01*
X53551904Y67966429D01*
X53647142Y67918810D01*
X54028095Y67918810D01*
X52551904Y68442620D02*
X53028095Y68442620D01*
X53075714Y67966429D01*
X53028095Y68014048D01*
X52932857Y68061667D01*
X52694761Y68061667D01*
X52599523Y68014048D01*
X52551904Y67966429D01*
X52504285Y67871191D01*
X52504285Y67633096D01*
X52551904Y67537858D01*
X52599523Y67490239D01*
X52694761Y67442620D01*
X52932857Y67442620D01*
X53028095Y67490239D01*
X53075714Y67537858D01*
%TO.C,R7*%
X41042380Y57266667D02*
X40566190Y57600000D01*
X41042380Y57838096D02*
X40042380Y57838096D01*
X40042380Y57457143D01*
X40090000Y57361905D01*
X40137619Y57314286D01*
X40232857Y57266667D01*
X40375714Y57266667D01*
X40470952Y57314286D01*
X40518571Y57361905D01*
X40566190Y57457143D01*
X40566190Y57838096D01*
X40042380Y56933334D02*
X40042380Y56266667D01*
X41042380Y56695239D01*
%TO.C,C7*%
X51742142Y35676667D02*
X51789761Y35724286D01*
X51837380Y35867143D01*
X51837380Y35962381D01*
X51789761Y36105239D01*
X51694523Y36200477D01*
X51599285Y36248096D01*
X51408809Y36295715D01*
X51265952Y36295715D01*
X51075476Y36248096D01*
X50980238Y36200477D01*
X50885000Y36105239D01*
X50837380Y35962381D01*
X50837380Y35867143D01*
X50885000Y35724286D01*
X50932619Y35676667D01*
X50837380Y35343334D02*
X50837380Y34676667D01*
X51837380Y35105239D01*
%TO.C,C2*%
X51742142Y42661667D02*
X51789761Y42709286D01*
X51837380Y42852143D01*
X51837380Y42947381D01*
X51789761Y43090239D01*
X51694523Y43185477D01*
X51599285Y43233096D01*
X51408809Y43280715D01*
X51265952Y43280715D01*
X51075476Y43233096D01*
X50980238Y43185477D01*
X50885000Y43090239D01*
X50837380Y42947381D01*
X50837380Y42852143D01*
X50885000Y42709286D01*
X50932619Y42661667D01*
X50932619Y42280715D02*
X50885000Y42233096D01*
X50837380Y42137858D01*
X50837380Y41899762D01*
X50885000Y41804524D01*
X50932619Y41756905D01*
X51027857Y41709286D01*
X51123095Y41709286D01*
X51265952Y41756905D01*
X51837380Y42328334D01*
X51837380Y41709286D01*
%TO.C,R3*%
X32501666Y76007620D02*
X32835000Y76483810D01*
X33073095Y76007620D02*
X33073095Y77007620D01*
X32692142Y77007620D01*
X32596904Y76960000D01*
X32549285Y76912381D01*
X32501666Y76817143D01*
X32501666Y76674286D01*
X32549285Y76579048D01*
X32596904Y76531429D01*
X32692142Y76483810D01*
X33073095Y76483810D01*
X32168333Y77007620D02*
X31549285Y77007620D01*
X31882619Y76626667D01*
X31739761Y76626667D01*
X31644523Y76579048D01*
X31596904Y76531429D01*
X31549285Y76436191D01*
X31549285Y76198096D01*
X31596904Y76102858D01*
X31644523Y76055239D01*
X31739761Y76007620D01*
X32025476Y76007620D01*
X32120714Y76055239D01*
X32168333Y76102858D01*
%TO.C,C5*%
X51742142Y49646667D02*
X51789761Y49694286D01*
X51837380Y49837143D01*
X51837380Y49932381D01*
X51789761Y50075239D01*
X51694523Y50170477D01*
X51599285Y50218096D01*
X51408809Y50265715D01*
X51265952Y50265715D01*
X51075476Y50218096D01*
X50980238Y50170477D01*
X50885000Y50075239D01*
X50837380Y49932381D01*
X50837380Y49837143D01*
X50885000Y49694286D01*
X50932619Y49646667D01*
X50837380Y48741905D02*
X50837380Y49218096D01*
X51313571Y49265715D01*
X51265952Y49218096D01*
X51218333Y49122858D01*
X51218333Y48884762D01*
X51265952Y48789524D01*
X51313571Y48741905D01*
X51408809Y48694286D01*
X51646904Y48694286D01*
X51742142Y48741905D01*
X51789761Y48789524D01*
X51837380Y48884762D01*
X51837380Y49122858D01*
X51789761Y49218096D01*
X51742142Y49265715D01*
%TO.C,R0*%
X44566666Y84897620D02*
X44900000Y85373810D01*
X45138095Y84897620D02*
X45138095Y85897620D01*
X44757142Y85897620D01*
X44661904Y85850000D01*
X44614285Y85802381D01*
X44566666Y85707143D01*
X44566666Y85564286D01*
X44614285Y85469048D01*
X44661904Y85421429D01*
X44757142Y85373810D01*
X45138095Y85373810D01*
X43947619Y85897620D02*
X43852380Y85897620D01*
X43757142Y85850000D01*
X43709523Y85802381D01*
X43661904Y85707143D01*
X43614285Y85516667D01*
X43614285Y85278572D01*
X43661904Y85088096D01*
X43709523Y84992858D01*
X43757142Y84945239D01*
X43852380Y84897620D01*
X43947619Y84897620D01*
X44042857Y84945239D01*
X44090476Y84992858D01*
X44138095Y85088096D01*
X44185714Y85278572D01*
X44185714Y85516667D01*
X44138095Y85707143D01*
X44090476Y85802381D01*
X44042857Y85850000D01*
X43947619Y85897620D01*
%TO.C,C0*%
X43427142Y66201554D02*
X43474761Y66249173D01*
X43522380Y66392030D01*
X43522380Y66487268D01*
X43474761Y66630126D01*
X43379523Y66725364D01*
X43284285Y66772983D01*
X43093809Y66820602D01*
X42950952Y66820602D01*
X42760476Y66772983D01*
X42665238Y66725364D01*
X42570000Y66630126D01*
X42522380Y66487268D01*
X42522380Y66392030D01*
X42570000Y66249173D01*
X42617619Y66201554D01*
X42522380Y65582507D02*
X42522380Y65487268D01*
X42570000Y65392030D01*
X42617619Y65344411D01*
X42712857Y65296792D01*
X42903333Y65249173D01*
X43141428Y65249173D01*
X43331904Y65296792D01*
X43427142Y65344411D01*
X43474761Y65392030D01*
X43522380Y65487268D01*
X43522380Y65582507D01*
X43474761Y65677745D01*
X43427142Y65725364D01*
X43331904Y65772983D01*
X43141428Y65820602D01*
X42903333Y65820602D01*
X42712857Y65772983D01*
X42617619Y65725364D01*
X42570000Y65677745D01*
X42522380Y65582507D01*
%TO.C,C4*%
X57012666Y44042858D02*
X57060285Y43995239D01*
X57203142Y43947620D01*
X57298380Y43947620D01*
X57441238Y43995239D01*
X57536476Y44090477D01*
X57584095Y44185715D01*
X57631714Y44376191D01*
X57631714Y44519048D01*
X57584095Y44709524D01*
X57536476Y44804762D01*
X57441238Y44900000D01*
X57298380Y44947620D01*
X57203142Y44947620D01*
X57060285Y44900000D01*
X57012666Y44852381D01*
X56155523Y44614286D02*
X56155523Y43947620D01*
X56393619Y44995239D02*
X56631714Y44280953D01*
X56012666Y44280953D01*
%TO.C,U4*%
X19857380Y28651905D02*
X20666904Y28651905D01*
X20762142Y28604286D01*
X20809761Y28556667D01*
X20857380Y28461429D01*
X20857380Y28270953D01*
X20809761Y28175715D01*
X20762142Y28128096D01*
X20666904Y28080477D01*
X19857380Y28080477D01*
X20190714Y27175715D02*
X20857380Y27175715D01*
X19809761Y27413810D02*
X20524047Y27651905D01*
X20524047Y27032858D01*
%TO.C,R4*%
X53456666Y64902620D02*
X53790000Y65378810D01*
X54028095Y64902620D02*
X54028095Y65902620D01*
X53647142Y65902620D01*
X53551904Y65855000D01*
X53504285Y65807381D01*
X53456666Y65712143D01*
X53456666Y65569286D01*
X53504285Y65474048D01*
X53551904Y65426429D01*
X53647142Y65378810D01*
X54028095Y65378810D01*
X52599523Y65569286D02*
X52599523Y64902620D01*
X52837619Y65950239D02*
X53075714Y65235953D01*
X52456666Y65235953D01*
%TO.C,R9*%
X17261666Y54742620D02*
X17595000Y55218810D01*
X17833095Y54742620D02*
X17833095Y55742620D01*
X17452142Y55742620D01*
X17356904Y55695000D01*
X17309285Y55647381D01*
X17261666Y55552143D01*
X17261666Y55409286D01*
X17309285Y55314048D01*
X17356904Y55266429D01*
X17452142Y55218810D01*
X17833095Y55218810D01*
X16785476Y54742620D02*
X16595000Y54742620D01*
X16499761Y54790239D01*
X16452142Y54837858D01*
X16356904Y54980715D01*
X16309285Y55171191D01*
X16309285Y55552143D01*
X16356904Y55647381D01*
X16404523Y55695000D01*
X16499761Y55742620D01*
X16690238Y55742620D01*
X16785476Y55695000D01*
X16833095Y55647381D01*
X16880714Y55552143D01*
X16880714Y55314048D01*
X16833095Y55218810D01*
X16785476Y55171191D01*
X16690238Y55123572D01*
X16499761Y55123572D01*
X16404523Y55171191D01*
X16356904Y55218810D01*
X16309285Y55314048D01*
%TO.C,C3*%
X58647857Y49313334D02*
X58600238Y49265715D01*
X58552619Y49122858D01*
X58552619Y49027620D01*
X58600238Y48884762D01*
X58695476Y48789524D01*
X58790714Y48741905D01*
X58981190Y48694286D01*
X59124047Y48694286D01*
X59314523Y48741905D01*
X59409761Y48789524D01*
X59505000Y48884762D01*
X59552619Y49027620D01*
X59552619Y49122858D01*
X59505000Y49265715D01*
X59457380Y49313334D01*
X59552619Y49646667D02*
X59552619Y50265715D01*
X59171666Y49932381D01*
X59171666Y50075239D01*
X59124047Y50170477D01*
X59076428Y50218096D01*
X58981190Y50265715D01*
X58743095Y50265715D01*
X58647857Y50218096D01*
X58600238Y50170477D01*
X58552619Y50075239D01*
X58552619Y49789524D01*
X58600238Y49694286D01*
X58647857Y49646667D01*
%TO.C,R8*%
X55647380Y36311667D02*
X55171190Y36645000D01*
X55647380Y36883096D02*
X54647380Y36883096D01*
X54647380Y36502143D01*
X54695000Y36406905D01*
X54742619Y36359286D01*
X54837857Y36311667D01*
X54980714Y36311667D01*
X55075952Y36359286D01*
X55123571Y36406905D01*
X55171190Y36502143D01*
X55171190Y36883096D01*
X55075952Y35740239D02*
X55028333Y35835477D01*
X54980714Y35883096D01*
X54885476Y35930715D01*
X54837857Y35930715D01*
X54742619Y35883096D01*
X54695000Y35835477D01*
X54647380Y35740239D01*
X54647380Y35549762D01*
X54695000Y35454524D01*
X54742619Y35406905D01*
X54837857Y35359286D01*
X54885476Y35359286D01*
X54980714Y35406905D01*
X55028333Y35454524D01*
X55075952Y35549762D01*
X55075952Y35740239D01*
X55123571Y35835477D01*
X55171190Y35883096D01*
X55266428Y35930715D01*
X55456904Y35930715D01*
X55552142Y35883096D01*
X55599761Y35835477D01*
X55647380Y35740239D01*
X55647380Y35549762D01*
X55599761Y35454524D01*
X55552142Y35406905D01*
X55456904Y35359286D01*
X55266428Y35359286D01*
X55171190Y35406905D01*
X55123571Y35454524D01*
X55075952Y35549762D01*
%TO.C,R1*%
X44566666Y76007620D02*
X44900000Y76483810D01*
X45138095Y76007620D02*
X45138095Y77007620D01*
X44757142Y77007620D01*
X44661904Y76960000D01*
X44614285Y76912381D01*
X44566666Y76817143D01*
X44566666Y76674286D01*
X44614285Y76579048D01*
X44661904Y76531429D01*
X44757142Y76483810D01*
X45138095Y76483810D01*
X43614285Y76007620D02*
X44185714Y76007620D01*
X43900000Y76007620D02*
X43900000Y77007620D01*
X43995238Y76864762D01*
X44090476Y76769524D01*
X44185714Y76721905D01*
%TO.C,C1*%
X3542142Y71826779D02*
X3589761Y71874398D01*
X3637380Y72017255D01*
X3637380Y72112493D01*
X3589761Y72255351D01*
X3494523Y72350589D01*
X3399285Y72398208D01*
X3208809Y72445827D01*
X3065952Y72445827D01*
X2875476Y72398208D01*
X2780238Y72350589D01*
X2685000Y72255351D01*
X2637380Y72112493D01*
X2637380Y72017255D01*
X2685000Y71874398D01*
X2732619Y71826779D01*
X3637380Y70874398D02*
X3637380Y71445827D01*
X3637380Y71160112D02*
X2637380Y71160112D01*
X2780238Y71255351D01*
X2875476Y71350589D01*
X2923095Y71445827D01*
%TO.C,C6*%
X55552142Y49646667D02*
X55599761Y49694286D01*
X55647380Y49837143D01*
X55647380Y49932381D01*
X55599761Y50075239D01*
X55504523Y50170477D01*
X55409285Y50218096D01*
X55218809Y50265715D01*
X55075952Y50265715D01*
X54885476Y50218096D01*
X54790238Y50170477D01*
X54695000Y50075239D01*
X54647380Y49932381D01*
X54647380Y49837143D01*
X54695000Y49694286D01*
X54742619Y49646667D01*
X54647380Y48789524D02*
X54647380Y48980000D01*
X54695000Y49075239D01*
X54742619Y49122858D01*
X54885476Y49218096D01*
X55075952Y49265715D01*
X55456904Y49265715D01*
X55552142Y49218096D01*
X55599761Y49170477D01*
X55647380Y49075239D01*
X55647380Y48884762D01*
X55599761Y48789524D01*
X55552142Y48741905D01*
X55456904Y48694286D01*
X55218809Y48694286D01*
X55123571Y48741905D01*
X55075952Y48789524D01*
X55028333Y48884762D01*
X55028333Y49075239D01*
X55075952Y49170477D01*
X55123571Y49218096D01*
X55218809Y49265715D01*
%TO.C,R2*%
X32501666Y84897620D02*
X32835000Y85373810D01*
X33073095Y84897620D02*
X33073095Y85897620D01*
X32692142Y85897620D01*
X32596904Y85850000D01*
X32549285Y85802381D01*
X32501666Y85707143D01*
X32501666Y85564286D01*
X32549285Y85469048D01*
X32596904Y85421429D01*
X32692142Y85373810D01*
X33073095Y85373810D01*
X32120714Y85802381D02*
X32073095Y85850000D01*
X31977857Y85897620D01*
X31739761Y85897620D01*
X31644523Y85850000D01*
X31596904Y85802381D01*
X31549285Y85707143D01*
X31549285Y85611905D01*
X31596904Y85469048D01*
X32168333Y84897620D01*
X31549285Y84897620D01*
D12*
%TO.C,R6*%
X63735000Y54575000D02*
X63735000Y50735000D01*
X61895000Y54575000D02*
X61895000Y50735000D01*
%TO.C,R5*%
X51370000Y68815000D02*
X55210000Y68815000D01*
X51370000Y66975000D02*
X55210000Y66975000D01*
%TO.C,R7*%
X39670000Y59020000D02*
X39670000Y55180000D01*
X41510000Y59020000D02*
X41510000Y55180000D01*
%TO.C,C7*%
X49885000Y38010000D02*
X52885000Y38010000D01*
X52885000Y38010000D02*
X52885000Y33010000D01*
X52885000Y33010000D02*
X49885000Y33010000D01*
X49885000Y33010000D02*
X49885000Y38010000D01*
%TO.C,C2*%
X49885000Y44995000D02*
X52885000Y44995000D01*
X52885000Y44995000D02*
X52885000Y39995000D01*
X52885000Y39995000D02*
X49885000Y39995000D01*
X49885000Y39995000D02*
X49885000Y44995000D01*
%TO.C,R3*%
X30415000Y75540000D02*
X34255000Y75540000D01*
X30415000Y77380000D02*
X34255000Y77380000D01*
%TO.C,C5*%
X49885000Y51980000D02*
X52885000Y51980000D01*
X52885000Y51980000D02*
X52885000Y46980000D01*
X52885000Y46980000D02*
X49885000Y46980000D01*
X49885000Y46980000D02*
X49885000Y51980000D01*
%TO.C,R0*%
X46320000Y84430000D02*
X42480000Y84430000D01*
X46320000Y86270000D02*
X42480000Y86270000D01*
%TO.C,C0*%
X41748000Y66915887D02*
X40360000Y66915887D01*
X41063000Y67955887D02*
X40360000Y67955887D01*
X41896000Y66194887D02*
X40360000Y66194887D01*
X39997000Y68555887D02*
X38643000Y68555887D01*
X38280000Y66394887D02*
X36764000Y66394887D01*
X41415000Y67555887D02*
X40360000Y67555887D01*
X38280000Y67795887D02*
X37419000Y67795887D01*
X38280000Y66434887D02*
X36770000Y66434887D01*
X41856000Y66514887D02*
X40360000Y66514887D01*
X41863000Y66474887D02*
X40360000Y66474887D01*
X41876000Y66394887D02*
X40360000Y66394887D01*
X38280000Y66234887D02*
X36747000Y66234887D01*
X41734000Y66955887D02*
X40360000Y66955887D01*
X41893000Y66234887D02*
X40360000Y66234887D01*
X38280000Y67315887D02*
X37073000Y67315887D01*
X38280000Y66714887D02*
X36829000Y66714887D01*
X39838000Y68595887D02*
X38802000Y68595887D01*
X40795000Y63230112D02*
X40795000Y63730112D01*
X38280000Y66194887D02*
X36744000Y66194887D01*
X41520000Y67395887D02*
X40360000Y67395887D01*
X41257000Y67755887D02*
X40360000Y67755887D01*
X38280000Y67955887D02*
X37577000Y67955887D01*
X38280000Y66594887D02*
X36800000Y66594887D01*
X38280000Y67035887D02*
X36938000Y67035887D01*
X41649000Y67155887D02*
X40360000Y67155887D01*
X40125000Y68515887D02*
X38515000Y68515887D01*
X41442000Y67515887D02*
X40360000Y67515887D01*
X41881000Y66354887D02*
X40360000Y66354887D01*
X38280000Y66634887D02*
X36809000Y66634887D01*
X38280000Y67715887D02*
X37349000Y67715887D01*
X40498000Y68355887D02*
X38142000Y68355887D01*
X38280000Y67835887D02*
X37456000Y67835887D01*
X40331000Y68435887D02*
X38309000Y68435887D01*
X41544000Y67355887D02*
X40360000Y67355887D01*
X41146000Y67875887D02*
X40360000Y67875887D01*
X40703000Y68235887D02*
X37937000Y68235887D01*
X38280000Y66835887D02*
X36865000Y66835887D01*
X41291000Y67715887D02*
X40360000Y67715887D01*
X41469000Y67475887D02*
X40360000Y67475887D01*
X38280000Y66875887D02*
X36878000Y66875887D01*
X38280000Y67755887D02*
X37383000Y67755887D01*
X38280000Y67395887D02*
X37120000Y67395887D01*
X38280000Y67995887D02*
X37621000Y67995887D01*
X38280000Y66955887D02*
X36906000Y66955887D01*
X41840000Y66594887D02*
X40360000Y66594887D01*
X38280000Y67195887D02*
X37010000Y67195887D01*
X41775000Y66835887D02*
X40360000Y66835887D01*
X41184000Y67835887D02*
X40360000Y67835887D01*
X38280000Y67515887D02*
X37198000Y67515887D01*
X39604000Y68635887D02*
X39036000Y68635887D01*
X41668000Y67115887D02*
X40360000Y67115887D01*
X38280000Y66795887D02*
X36852000Y66795887D01*
X41848000Y66554887D02*
X40360000Y66554887D01*
X38280000Y66034887D02*
X36740000Y66034887D01*
X41788000Y66795887D02*
X40360000Y66795887D01*
X41610000Y67235887D02*
X40360000Y67235887D01*
X38280000Y66554887D02*
X36792000Y66554887D01*
X38280000Y66674887D02*
X36819000Y66674887D01*
X41898000Y66154887D02*
X40360000Y66154887D01*
X38280000Y66755887D02*
X36840000Y66755887D01*
X41800000Y66755887D02*
X40360000Y66755887D01*
X41702000Y67035887D02*
X40360000Y67035887D01*
X41019000Y67995887D02*
X40360000Y67995887D01*
X41495000Y67435887D02*
X40360000Y67435887D01*
X40235000Y68475887D02*
X38405000Y68475887D01*
X41324000Y67675887D02*
X40360000Y67675887D01*
X38280000Y67595887D02*
X37255000Y67595887D01*
X40418000Y68395887D02*
X38222000Y68395887D01*
X41355000Y67635887D02*
X40360000Y67635887D01*
X38280000Y66314887D02*
X36755000Y66314887D01*
X38280000Y66915887D02*
X36892000Y66915887D01*
X38280000Y67675887D02*
X37316000Y67675887D01*
X38280000Y67275887D02*
X37052000Y67275887D01*
X41718000Y66995887D02*
X40360000Y66995887D01*
X38280000Y66074887D02*
X36740000Y66074887D01*
X41900000Y66034887D02*
X40360000Y66034887D01*
X38280000Y67235887D02*
X37030000Y67235887D01*
X38280000Y67915887D02*
X37535000Y67915887D01*
X41588000Y67275887D02*
X40360000Y67275887D01*
X41811000Y66714887D02*
X40360000Y66714887D01*
X41685000Y67075887D02*
X40360000Y67075887D01*
X41885000Y66314887D02*
X40360000Y66314887D01*
X38280000Y66995887D02*
X36922000Y66995887D01*
X40571000Y68315887D02*
X38069000Y68315887D01*
X40925000Y68075887D02*
X37715000Y68075887D01*
X38280000Y67355887D02*
X37096000Y67355887D01*
X41831000Y66634887D02*
X40360000Y66634887D01*
X41889000Y66274887D02*
X40360000Y66274887D01*
X38280000Y67115887D02*
X36972000Y67115887D01*
X40874000Y68115887D02*
X37766000Y68115887D01*
X38280000Y67435887D02*
X37145000Y67435887D01*
X41630000Y67195887D02*
X40360000Y67195887D01*
X41567000Y67315887D02*
X40360000Y67315887D01*
X38280000Y66354887D02*
X36759000Y66354887D01*
X38280000Y67075887D02*
X36955000Y67075887D01*
X38280000Y67635887D02*
X37285000Y67635887D01*
X38280000Y66514887D02*
X36784000Y66514887D01*
X38280000Y66474887D02*
X36777000Y66474887D01*
X38280000Y66274887D02*
X36751000Y66274887D01*
X41821000Y66674887D02*
X40360000Y66674887D01*
X41762000Y66875887D02*
X40360000Y66875887D01*
X41899000Y66114887D02*
X40360000Y66114887D01*
X40973000Y68035887D02*
X40360000Y68035887D01*
X41045000Y63480112D02*
X40545000Y63480112D01*
X38280000Y68035887D02*
X37667000Y68035887D01*
X38280000Y67555887D02*
X37225000Y67555887D01*
X40820000Y68155887D02*
X37820000Y68155887D01*
X41385000Y67595887D02*
X40360000Y67595887D01*
X41221000Y67795887D02*
X40360000Y67795887D01*
X41870000Y66434887D02*
X40360000Y66434887D01*
X38280000Y67875887D02*
X37494000Y67875887D01*
X41900000Y66074887D02*
X40360000Y66074887D01*
X40639000Y68275887D02*
X38001000Y68275887D01*
X41105000Y67915887D02*
X40360000Y67915887D01*
X38280000Y67155887D02*
X36991000Y67155887D01*
X38280000Y67475887D02*
X37171000Y67475887D01*
X38280000Y66154887D02*
X36742000Y66154887D01*
X40763000Y68195887D02*
X37877000Y68195887D01*
X38280000Y66114887D02*
X36741000Y66114887D01*
X41940000Y66034887D02*
G75*
G03*
X41940000Y66034887I-2620000J0D01*
G01*
%TO.C,C4*%
X59346000Y45900000D02*
X54346000Y45900000D01*
X54346000Y45900000D02*
X54346000Y42900000D01*
X54346000Y42900000D02*
X59346000Y42900000D01*
X59346000Y42900000D02*
X59346000Y45900000D01*
%TO.C,R4*%
X51370000Y64435000D02*
X55210000Y64435000D01*
X51370000Y66275000D02*
X55210000Y66275000D01*
%TO.C,R9*%
X19015000Y56115000D02*
X15175000Y56115000D01*
X19015000Y54275000D02*
X15175000Y54275000D01*
%TO.C,C3*%
X60505000Y46980000D02*
X57505000Y46980000D01*
X57505000Y46980000D02*
X57505000Y51980000D01*
X57505000Y51980000D02*
X60505000Y51980000D01*
X60505000Y51980000D02*
X60505000Y46980000D01*
%TO.C,R8*%
X56115000Y34225000D02*
X56115000Y38065000D01*
X54275000Y34225000D02*
X54275000Y38065000D01*
%TO.C,R1*%
X42480000Y77380000D02*
X46320000Y77380000D01*
X42480000Y75540000D02*
X46320000Y75540000D01*
%TO.C,C1*%
X7975000Y71620112D02*
X9515000Y71620112D01*
X4570000Y70619112D02*
X5895000Y70619112D01*
X4521000Y70739112D02*
X5895000Y70739112D01*
X5757000Y69339112D02*
X8113000Y69339112D01*
X7975000Y70539112D02*
X9264000Y70539112D01*
X7975000Y70059112D02*
X8970000Y70059112D01*
X4813000Y70179112D02*
X5895000Y70179112D01*
X7975000Y69819112D02*
X8761000Y69819112D01*
X4415000Y71100112D02*
X5895000Y71100112D01*
X7975000Y71140112D02*
X9463000Y71140112D01*
X5684000Y69379112D02*
X8186000Y69379112D01*
X4359000Y71500112D02*
X5895000Y71500112D01*
X5381000Y69579112D02*
X8489000Y69579112D01*
X7975000Y69939112D02*
X8872000Y69939112D01*
X4379000Y71300112D02*
X5895000Y71300112D01*
X4399000Y71180112D02*
X5895000Y71180112D01*
X6020000Y69219112D02*
X7850000Y69219112D01*
X7975000Y71260112D02*
X9485000Y71260112D01*
X7975000Y71020112D02*
X9436000Y71020112D01*
X7975000Y70859112D02*
X9390000Y70859112D01*
X7975000Y70619112D02*
X9300000Y70619112D01*
X5924000Y69259112D02*
X7946000Y69259112D01*
X4786000Y70219112D02*
X5895000Y70219112D01*
X5616000Y69419112D02*
X8254000Y69419112D01*
X7975000Y69699112D02*
X8634000Y69699112D01*
X4407000Y71140112D02*
X5895000Y71140112D01*
X5435000Y69539112D02*
X8435000Y69539112D01*
X4455000Y70939112D02*
X5895000Y70939112D01*
X5837000Y69299112D02*
X8033000Y69299112D01*
X7975000Y71580112D02*
X9514000Y71580112D01*
X7975000Y70659112D02*
X9317000Y70659112D01*
X4362000Y71460112D02*
X5895000Y71460112D01*
X7975000Y70139112D02*
X9030000Y70139112D01*
X4366000Y71420112D02*
X5895000Y71420112D01*
X4998000Y69939112D02*
X5895000Y69939112D01*
X7975000Y70099112D02*
X9000000Y70099112D01*
X7975000Y71420112D02*
X9504000Y71420112D01*
X7975000Y70939112D02*
X9415000Y70939112D01*
X7975000Y70219112D02*
X9084000Y70219112D01*
X4870000Y70099112D02*
X5895000Y70099112D01*
X5236000Y69699112D02*
X5895000Y69699112D01*
X7975000Y71660112D02*
X9515000Y71660112D01*
X7975000Y71100112D02*
X9455000Y71100112D01*
X7975000Y69979112D02*
X8906000Y69979112D01*
X7975000Y71220112D02*
X9478000Y71220112D01*
X4625000Y70499112D02*
X5895000Y70499112D01*
X5150000Y69779112D02*
X5895000Y69779112D01*
X7975000Y69779112D02*
X8720000Y69779112D01*
X7975000Y70579112D02*
X9283000Y70579112D01*
X5071000Y69859112D02*
X5895000Y69859112D01*
X7975000Y71460112D02*
X9508000Y71460112D01*
X7975000Y70499112D02*
X9245000Y70499112D01*
X7975000Y69899112D02*
X8836000Y69899112D01*
X7975000Y70019112D02*
X8939000Y70019112D01*
X7975000Y71340112D02*
X9496000Y71340112D01*
X4374000Y71340112D02*
X5895000Y71340112D01*
X7975000Y70699112D02*
X9333000Y70699112D01*
X7975000Y70419112D02*
X9203000Y70419112D01*
X5552000Y69459112D02*
X8318000Y69459112D01*
X7975000Y71060112D02*
X9446000Y71060112D01*
X7975000Y70980112D02*
X9426000Y70980112D01*
X4688000Y70379112D02*
X5895000Y70379112D01*
X4385000Y71260112D02*
X5895000Y71260112D01*
X4444000Y70980112D02*
X5895000Y70980112D01*
X6417000Y69099112D02*
X7453000Y69099112D01*
X7975000Y70779112D02*
X9363000Y70779112D01*
X7975000Y71540112D02*
X9513000Y71540112D01*
X4480000Y70859112D02*
X5895000Y70859112D01*
X4553000Y70659112D02*
X5895000Y70659112D01*
X4667000Y70419112D02*
X5895000Y70419112D01*
X5210000Y74214887D02*
X5710000Y74214887D01*
X4711000Y70339112D02*
X5895000Y70339112D01*
X7975000Y70179112D02*
X9057000Y70179112D01*
X4424000Y71060112D02*
X5895000Y71060112D01*
X4840000Y70139112D02*
X5895000Y70139112D01*
X7975000Y70819112D02*
X9377000Y70819112D01*
X7975000Y69659112D02*
X8588000Y69659112D01*
X6258000Y69139112D02*
X7612000Y69139112D01*
X4370000Y71380112D02*
X5895000Y71380112D01*
X7975000Y70459112D02*
X9225000Y70459112D01*
X4735000Y70299112D02*
X5895000Y70299112D01*
X7975000Y70299112D02*
X9135000Y70299112D01*
X5282000Y69659112D02*
X5895000Y69659112D01*
X4356000Y71580112D02*
X5895000Y71580112D01*
X4493000Y70819112D02*
X5895000Y70819112D01*
X7975000Y70379112D02*
X9182000Y70379112D01*
X7975000Y70899112D02*
X9403000Y70899112D01*
X5192000Y69739112D02*
X5895000Y69739112D01*
X7975000Y70259112D02*
X9110000Y70259112D01*
X4587000Y70579112D02*
X5895000Y70579112D01*
X7975000Y69859112D02*
X8799000Y69859112D01*
X4931000Y70019112D02*
X5895000Y70019112D01*
X4645000Y70459112D02*
X5895000Y70459112D01*
X4357000Y71540112D02*
X5895000Y71540112D01*
X4355000Y71660112D02*
X5895000Y71660112D01*
X5460000Y74464887D02*
X5460000Y73964887D01*
X7975000Y70739112D02*
X9349000Y70739112D01*
X4434000Y71020112D02*
X5895000Y71020112D01*
X4964000Y69979112D02*
X5895000Y69979112D01*
X6130000Y69179112D02*
X7740000Y69179112D01*
X4537000Y70699112D02*
X5895000Y70699112D01*
X5492000Y69499112D02*
X8378000Y69499112D01*
X7975000Y71180112D02*
X9471000Y71180112D01*
X4355000Y71620112D02*
X5895000Y71620112D01*
X7975000Y71500112D02*
X9511000Y71500112D01*
X4467000Y70899112D02*
X5895000Y70899112D01*
X4760000Y70259112D02*
X5895000Y70259112D01*
X5330000Y69619112D02*
X8540000Y69619112D01*
X7975000Y71380112D02*
X9500000Y71380112D01*
X5034000Y69899112D02*
X5895000Y69899112D01*
X4392000Y71220112D02*
X5895000Y71220112D01*
X4507000Y70779112D02*
X5895000Y70779112D01*
X7975000Y71300112D02*
X9491000Y71300112D01*
X4606000Y70539112D02*
X5895000Y70539112D01*
X5109000Y69819112D02*
X5895000Y69819112D01*
X7975000Y70339112D02*
X9159000Y70339112D01*
X4900000Y70059112D02*
X5895000Y70059112D01*
X6651000Y69059112D02*
X7219000Y69059112D01*
X7975000Y69739112D02*
X8678000Y69739112D01*
X9555000Y71660112D02*
G75*
G03*
X9555000Y71660112I-2620000J0D01*
G01*
%TO.C,C6*%
X53695000Y51980000D02*
X56695000Y51980000D01*
X56695000Y51980000D02*
X56695000Y46980000D01*
X56695000Y46980000D02*
X53695000Y46980000D01*
X53695000Y46980000D02*
X53695000Y51980000D01*
%TO.C,R2*%
X34255000Y84430000D02*
X30415000Y84430000D01*
X34255000Y86270000D02*
X30415000Y86270000D01*
%TD*%
M02*
