%TF.GenerationSoftware,KiCad,Pcbnew,(6.0.4)*%
%TF.CreationDate,2023-07-19T00:07:21+07:00*%
%TF.ProjectId,05-Prototype-UpdatedComponents,30352d50-726f-4746-9f74-7970652d5570,rev?*%
%TF.SameCoordinates,PX66ff300PY8b3c880*%
%TF.FileFunction,Soldermask,Top*%
%TF.FilePolarity,Negative*%
%FSLAX46Y46*%
G04 Gerber Fmt 4.6, Leading zero omitted, Abs format (unit mm)*
G04 Created by KiCad (PCBNEW (6.0.4)) date 2023-07-19 00:07:21*
%MOMM*%
%LPD*%
G01*
G04 APERTURE LIST*
G04 Aperture macros list*
%AMRoundRect*
0 Rectangle with rounded corners*
0 $1 Rounding radius*
0 $2 $3 $4 $5 $6 $7 $8 $9 X,Y pos of 4 corners*
0 Add a 4 corners polygon primitive as box body*
4,1,4,$2,$3,$4,$5,$6,$7,$8,$9,$2,$3,0*
0 Add four circle primitives for the rounded corners*
1,1,$1+$1,$2,$3*
1,1,$1+$1,$4,$5*
1,1,$1+$1,$6,$7*
1,1,$1+$1,$8,$9*
0 Add four rect primitives between the rounded corners*
20,1,$1+$1,$2,$3,$4,$5,0*
20,1,$1+$1,$4,$5,$6,$7,0*
20,1,$1+$1,$6,$7,$8,$9,0*
20,1,$1+$1,$8,$9,$2,$3,0*%
G04 Aperture macros list end*
%TA.AperFunction,Profile*%
%ADD10C,0.100000*%
%TD*%
%ADD11C,0.120000*%
%ADD12C,3.500000*%
%ADD13R,1.524000X1.524000*%
%ADD14C,1.524000*%
%ADD15R,1.600000X2.400000*%
%ADD16O,1.600000X2.400000*%
%ADD17O,1.905000X2.000000*%
%ADD18R,1.905000X2.000000*%
%ADD19C,1.700000*%
%ADD20R,1.700000X1.700000*%
%ADD21O,1.400000X1.400000*%
%ADD22C,1.400000*%
%ADD23O,1.700000X1.700000*%
%ADD24C,2.360000*%
%ADD25C,1.300000*%
%ADD26RoundRect,0.875000X0.875000X0.875000X-0.875000X0.875000X-0.875000X-0.875000X0.875000X-0.875000X0*%
%ADD27RoundRect,0.750000X0.750000X1.000000X-0.750000X1.000000X-0.750000X-1.000000X0.750000X-1.000000X0*%
%ADD28R,3.500000X3.500000*%
%ADD29R,1.600000X1.600000*%
%ADD30C,1.600000*%
G04 APERTURE END LIST*
D10*
X1666666Y0D02*
G75*
G03*
X1666666Y0I-1666666J0D01*
G01*
X-2500000Y0D02*
X2500000Y0D01*
X0Y2500000D02*
X0Y-2500000D01*
X0Y92000000D02*
X73000000Y92000000D01*
X73000000Y92000000D02*
X73000000Y0D01*
X73000000Y0D02*
X0Y0D01*
X0Y0D02*
X0Y92000000D01*
D11*
%TO.C,U5*%
X6217000Y91900000D02*
X24417000Y91900000D01*
X24417000Y91900000D02*
X24417000Y69100000D01*
X24417000Y69100000D02*
X6217000Y69100000D01*
X6217000Y69100000D02*
X6217000Y91900000D01*
%TO.C,U4*%
X13285000Y8890000D02*
X28525000Y8890000D01*
X28525000Y8890000D02*
X28525000Y11430000D01*
X28525000Y11430000D02*
X13285000Y11430000D01*
X13285000Y11430000D02*
X13285000Y8890000D01*
X15825000Y46890000D02*
X18365000Y46890000D01*
X18365000Y46890000D02*
X18365000Y44350000D01*
X18365000Y44350000D02*
X15825000Y44350000D01*
X15825000Y44350000D02*
X15825000Y46890000D01*
X18365000Y46890000D02*
X25985000Y46890000D01*
X25985000Y46890000D02*
X25985000Y44350000D01*
X25985000Y44350000D02*
X18365000Y44350000D01*
X18365000Y44350000D02*
X18365000Y46890000D01*
%TO.C,J4*%
X59490000Y33855000D02*
X72490000Y33855000D01*
X72490000Y33855000D02*
X72490000Y46055000D01*
X72490000Y46055000D02*
X59490000Y46055000D01*
X59490000Y46055000D02*
X59490000Y33855000D01*
X67670000Y33855000D02*
G75*
G03*
X67670000Y33855000I-1180000J0D01*
G01*
X67670000Y46055000D02*
G75*
G03*
X67670000Y46055000I-1180000J0D01*
G01*
%TO.C,J3*%
X59490000Y53540000D02*
X72490000Y53540000D01*
X72490000Y53540000D02*
X72490000Y65740000D01*
X72490000Y65740000D02*
X59490000Y65740000D01*
X59490000Y65740000D02*
X59490000Y53540000D01*
X67670000Y53540000D02*
G75*
G03*
X67670000Y53540000I-1180000J0D01*
G01*
X67670000Y65740000D02*
G75*
G03*
X67670000Y65740000I-1180000J0D01*
G01*
%TD*%
D12*
%TO.C,U7*%
X21615000Y30263000D03*
X21615000Y40503000D03*
D13*
X13465000Y41733000D03*
D14*
X13465000Y31573000D03*
X13465000Y39193000D03*
X13465000Y36653000D03*
X13465000Y34113000D03*
X13465000Y29033000D03*
%TD*%
D15*
%TO.C,U6*%
X50125000Y54545000D03*
D16*
X52665000Y54545000D03*
X55205000Y54545000D03*
X57745000Y54545000D03*
X57745000Y62165000D03*
X55205000Y62165000D03*
X52665000Y62165000D03*
X50125000Y62165000D03*
%TD*%
D14*
%TO.C,U5*%
X19127000Y72910000D03*
X19127000Y70370000D03*
X16587000Y72910000D03*
X16587000Y70370000D03*
X14047000Y72910000D03*
X14047000Y70370000D03*
X11507000Y72910000D03*
D13*
X11507000Y70370000D03*
%TD*%
D14*
%TO.C,U4*%
X19715000Y10160000D03*
D13*
X17095000Y45620000D03*
D14*
X22255000Y10160000D03*
X19635000Y45620000D03*
X24795000Y10160000D03*
X22175000Y45620000D03*
X24715000Y45620000D03*
X27335000Y10160000D03*
D13*
X14555000Y10160000D03*
D14*
X17175000Y10160000D03*
%TD*%
%TO.C,U3*%
X50650000Y15825000D03*
X50650000Y18365000D03*
X50650000Y20905000D03*
X50650000Y23445000D03*
X50650000Y25985000D03*
D13*
X50650000Y28525000D03*
%TD*%
D17*
%TO.C,U2*%
X34875000Y79960000D03*
X32335000Y79960000D03*
D18*
X29795000Y79960000D03*
%TD*%
%TO.C,U1*%
X41860000Y79960000D03*
D17*
X44400000Y79960000D03*
X46940000Y79960000D03*
%TD*%
D19*
%TO.C,U0*%
X44120000Y69630000D03*
D20*
X28880000Y69630000D03*
D19*
X44120000Y67090000D03*
X28880000Y67090000D03*
X44120000Y64550000D03*
X28880000Y64550000D03*
X44120000Y62010000D03*
X28880000Y62010000D03*
X44120000Y59470000D03*
X28880000Y59470000D03*
X44120000Y56930000D03*
X28880000Y56930000D03*
X44120000Y54390000D03*
X28880000Y54390000D03*
X44120000Y51850000D03*
X28880000Y51850000D03*
X44120000Y49310000D03*
X28880000Y49310000D03*
X44120000Y46770000D03*
X28880000Y46770000D03*
X44120000Y44230000D03*
X28880000Y44230000D03*
X44120000Y41690000D03*
X28880000Y41690000D03*
X44120000Y39150000D03*
X28880000Y39150000D03*
X44120000Y36610000D03*
X28880000Y36610000D03*
X44120000Y34070000D03*
X28880000Y34070000D03*
X44120000Y31530000D03*
X28880000Y31530000D03*
X44120000Y28990000D03*
X28880000Y28990000D03*
X44120000Y26450000D03*
X28880000Y26450000D03*
X44120000Y23910000D03*
X28880000Y23910000D03*
X44120000Y21370000D03*
X28880000Y21370000D03*
%TD*%
D21*
%TO.C,R9*%
X14555000Y55195000D03*
D22*
X19635000Y55195000D03*
%TD*%
%TO.C,R8*%
X55195000Y33605000D03*
D21*
X55195000Y38685000D03*
%TD*%
D22*
%TO.C,R7*%
X40590000Y59640000D03*
D21*
X40590000Y54560000D03*
%TD*%
D22*
%TO.C,R6*%
X62815000Y55195000D03*
D21*
X62815000Y50115000D03*
%TD*%
D22*
%TO.C,R5*%
X50750000Y67895000D03*
D21*
X55830000Y67895000D03*
%TD*%
D22*
%TO.C,R4*%
X50750000Y65355000D03*
D21*
X55830000Y65355000D03*
%TD*%
%TO.C,R3*%
X34875000Y76460000D03*
D22*
X29795000Y76460000D03*
%TD*%
%TO.C,R2*%
X34875000Y85350000D03*
D21*
X29795000Y85350000D03*
%TD*%
%TO.C,R1*%
X46940000Y76460000D03*
D22*
X41860000Y76460000D03*
%TD*%
D21*
%TO.C,R0*%
X41860000Y85350000D03*
D22*
X46940000Y85350000D03*
%TD*%
D20*
%TO.C,J5*%
X14570000Y51410000D03*
D23*
X17110000Y51410000D03*
X19650000Y51410000D03*
%TD*%
D24*
%TO.C,J4*%
X66490000Y33855000D03*
X66490000Y46055000D03*
D25*
X61650000Y38430000D03*
X61650000Y40465000D03*
X64090000Y39445000D03*
X64190000Y41480000D03*
%TD*%
D24*
%TO.C,J3*%
X66490000Y53540000D03*
X66490000Y65740000D03*
D25*
X61650000Y58115000D03*
X61650000Y60150000D03*
X64090000Y59130000D03*
X64190000Y61165000D03*
%TD*%
D23*
%TO.C,J2*%
X19650000Y60935000D03*
X17110000Y60935000D03*
D20*
X14570000Y60935000D03*
%TD*%
%TO.C,J1*%
X12015000Y13920000D03*
D23*
X14555000Y13920000D03*
X17095000Y13920000D03*
%TD*%
D26*
%TO.C,J0*%
X66165000Y78622500D03*
D27*
X69165000Y73922500D03*
D28*
X63165000Y73922500D03*
%TD*%
D14*
%TO.C,C7*%
X51385000Y33360000D03*
X51385000Y37660000D03*
%TD*%
%TO.C,C6*%
X55195000Y51630000D03*
X55195000Y47330000D03*
%TD*%
%TO.C,C5*%
X51385000Y51630000D03*
X51385000Y47330000D03*
%TD*%
%TO.C,C4*%
X58996000Y44400000D03*
X54696000Y44400000D03*
%TD*%
%TO.C,C3*%
X59005000Y47330000D03*
X59005000Y51630000D03*
%TD*%
%TO.C,C2*%
X51385000Y44645000D03*
X51385000Y40345000D03*
%TD*%
D29*
%TO.C,C1*%
X6935000Y72660112D03*
D30*
X6935000Y70660112D03*
%TD*%
%TO.C,C0*%
X39320000Y67034887D03*
D29*
X39320000Y65034887D03*
%TD*%
M02*
