M48
; DRILL file {KiCad (6.0.4)} date Fri Jul 21 11:29:49 2023
; FORMAT={-:-/ absolute / metric / decimal}
; #@! TF.CreationDate,2023-07-21T11:29:49+07:00
; #@! TF.GenerationSoftware,Kicad,Pcbnew,(6.0.4)
; #@! TF.FileFunction,Plated,1,2,PTH
FMAT,2
METRIC
; #@! TA.AperFunction,Plated,PTH,ComponentDrill
T1C0.700
; #@! TA.AperFunction,Plated,PTH,ComponentDrill
T2C0.762
; #@! TA.AperFunction,Plated,PTH,ComponentDrill
T3C0.800
; #@! TA.AperFunction,Plated,PTH,ComponentDrill
T4C0.890
; #@! TA.AperFunction,Plated,PTH,ComponentDrill
T5C1.000
; #@! TA.AperFunction,Plated,PTH,ComponentDrill
T6C1.100
; #@! TA.AperFunction,Plated,PTH,ViaDrill
T7C2.000
%
G90
G05
T1
X14.555Y55.195
X19.635Y55.195
X29.795Y85.35
X29.795Y76.46
X34.875Y85.35
X34.875Y76.46
X40.59Y59.64
X40.59Y54.56
X41.86Y85.35
X41.86Y76.46
X46.94Y85.35
X46.94Y76.46
X50.75Y67.895
X50.75Y65.355
X55.195Y38.685
X55.195Y33.605
X55.83Y67.895
X55.83Y65.355
X62.815Y55.195
X62.815Y50.115
T2
X11.507Y72.91
X11.507Y70.37
X13.465Y41.733
X13.465Y39.193
X13.465Y36.653
X13.465Y34.113
X13.465Y31.573
X13.465Y29.033
X14.047Y72.91
X14.047Y70.37
X14.555Y10.16
X16.587Y72.91
X16.587Y70.37
X17.095Y45.62
X17.175Y10.16
X19.127Y72.91
X19.127Y70.37
X19.635Y45.62
X19.715Y10.16
X22.175Y45.62
X22.255Y10.16
X24.715Y45.62
X24.795Y10.16
X27.335Y10.16
X50.65Y28.525
X50.65Y25.985
X50.65Y23.445
X50.65Y20.905
X50.65Y18.365
X50.65Y15.825
X51.385Y51.63
X51.385Y47.33
X51.385Y44.645
X51.385Y40.345
X51.385Y37.66
X51.385Y33.36
X54.696Y44.4
X55.195Y51.63
X55.195Y47.33
X58.996Y44.4
X59.005Y51.63
X59.005Y47.33
T3
X6.935Y72.66
X6.935Y70.66
X39.32Y67.035
X39.32Y65.035
X50.125Y62.165
X50.125Y54.545
X52.665Y62.165
X52.665Y54.545
X55.205Y62.165
X55.205Y54.545
X57.745Y62.165
X57.745Y54.545
T4
X62.133Y40.16
X62.133Y38.125
X62.158Y60.252
X62.158Y58.217
X64.573Y39.14
X64.598Y59.232
X64.673Y41.175
X64.698Y61.267
T5
X12.015Y13.92
X14.555Y13.92
X14.57Y60.935
X14.57Y51.41
X17.095Y13.92
X17.11Y60.935
X17.11Y51.41
X19.65Y60.935
X19.65Y51.41
X28.88Y69.63
X28.88Y67.09
X28.88Y64.55
X28.88Y62.01
X28.88Y59.47
X28.88Y56.93
X28.88Y54.39
X28.88Y51.85
X28.88Y49.31
X28.88Y46.77
X28.88Y44.23
X28.88Y41.69
X28.88Y39.15
X28.88Y36.61
X28.88Y34.07
X28.88Y31.53
X28.88Y28.99
X28.88Y26.45
X28.88Y23.91
X28.88Y21.37
X44.12Y69.63
X44.12Y67.09
X44.12Y64.55
X44.12Y62.01
X44.12Y59.47
X44.12Y56.93
X44.12Y54.39
X44.12Y51.85
X44.12Y49.31
X44.12Y46.77
X44.12Y44.23
X44.12Y41.69
X44.12Y39.15
X44.12Y36.61
X44.12Y34.07
X44.12Y31.53
X44.12Y28.99
X44.12Y26.45
X44.12Y23.91
X44.12Y21.37
T6
X29.795Y79.96
X32.335Y79.96
X34.875Y79.96
X41.86Y79.96
X44.4Y79.96
X46.94Y79.96
T7
X4.5Y85.0
X4.5Y7.0
X68.5Y85.0
X68.53Y6.935
T5
G00X63.165Y72.922
M15
G01X63.165Y74.922
M16
G05
G00X67.165Y78.623
M15
G01X65.165Y78.623
M16
G05
G00X69.165Y72.922
M15
G01X69.165Y74.922
M16
G05
T0
M30
