%TF.GenerationSoftware,KiCad,Pcbnew,(6.0.4)*%
%TF.CreationDate,2023-07-19T00:07:21+07:00*%
%TF.ProjectId,05-Prototype-UpdatedComponents,30352d50-726f-4746-9f74-7970652d5570,rev?*%
%TF.SameCoordinates,PX66ff300PY8b3c880*%
%TF.FileFunction,AssemblyDrawing,Top*%
%FSLAX46Y46*%
G04 Gerber Fmt 4.6, Leading zero omitted, Abs format (unit mm)*
G04 Created by KiCad (PCBNEW (6.0.4)) date 2023-07-19 00:07:21*
%MOMM*%
%LPD*%
G01*
G04 APERTURE LIST*
%TA.AperFunction,Profile*%
%ADD10C,0.100000*%
%TD*%
%ADD11C,0.150000*%
%ADD12C,0.120000*%
%ADD13C,0.100000*%
G04 APERTURE END LIST*
D10*
X1666666Y0D02*
G75*
G03*
X1666666Y0I-1666666J0D01*
G01*
X-2500000Y0D02*
X2500000Y0D01*
X0Y2500000D02*
X0Y-2500000D01*
X0Y92000000D02*
X73000000Y92000000D01*
X73000000Y92000000D02*
X73000000Y0D01*
X73000000Y0D02*
X0Y0D01*
X0Y0D02*
X0Y92000000D01*
D11*
%TO.C,U7*%
X17436428Y37763953D02*
X17388809Y37621096D01*
X17341190Y37573477D01*
X17245952Y37525858D01*
X17103095Y37525858D01*
X17007857Y37573477D01*
X16960238Y37621096D01*
X16912619Y37716334D01*
X16912619Y38097286D01*
X17912619Y38097286D01*
X17912619Y37763953D01*
X17865000Y37668715D01*
X17817380Y37621096D01*
X17722142Y37573477D01*
X17626904Y37573477D01*
X17531666Y37621096D01*
X17484047Y37668715D01*
X17436428Y37763953D01*
X17436428Y38097286D01*
X16912619Y37097286D02*
X17912619Y37097286D01*
X17198333Y36763953D01*
X17912619Y36430620D01*
X16912619Y36430620D01*
X17436428Y35954429D02*
X17436428Y35621096D01*
X16912619Y35478239D02*
X16912619Y35954429D01*
X17912619Y35954429D01*
X17912619Y35478239D01*
X17817380Y35097286D02*
X17865000Y35049667D01*
X17912619Y34954429D01*
X17912619Y34716334D01*
X17865000Y34621096D01*
X17817380Y34573477D01*
X17722142Y34525858D01*
X17626904Y34525858D01*
X17484047Y34573477D01*
X16912619Y35144905D01*
X16912619Y34525858D01*
X17484047Y33954429D02*
X17531666Y34049667D01*
X17579285Y34097286D01*
X17674523Y34144905D01*
X17722142Y34144905D01*
X17817380Y34097286D01*
X17865000Y34049667D01*
X17912619Y33954429D01*
X17912619Y33763953D01*
X17865000Y33668715D01*
X17817380Y33621096D01*
X17722142Y33573477D01*
X17674523Y33573477D01*
X17579285Y33621096D01*
X17531666Y33668715D01*
X17484047Y33763953D01*
X17484047Y33954429D01*
X17436428Y34049667D01*
X17388809Y34097286D01*
X17293571Y34144905D01*
X17103095Y34144905D01*
X17007857Y34097286D01*
X16960238Y34049667D01*
X16912619Y33954429D01*
X16912619Y33763953D01*
X16960238Y33668715D01*
X17007857Y33621096D01*
X17103095Y33573477D01*
X17293571Y33573477D01*
X17388809Y33621096D01*
X17436428Y33668715D01*
X17484047Y33763953D01*
X17912619Y32954429D02*
X17912619Y32859191D01*
X17865000Y32763953D01*
X17817380Y32716334D01*
X17722142Y32668715D01*
X17531666Y32621096D01*
X17293571Y32621096D01*
X17103095Y32668715D01*
X17007857Y32716334D01*
X16960238Y32763953D01*
X16912619Y32859191D01*
X16912619Y32954429D01*
X16960238Y33049667D01*
X17007857Y33097286D01*
X17103095Y33144905D01*
X17293571Y33192524D01*
X17531666Y33192524D01*
X17722142Y33144905D01*
X17817380Y33097286D01*
X17865000Y33049667D01*
X17912619Y32954429D01*
%TO.C,U5*%
X13642238Y83166667D02*
X13594619Y83023810D01*
X13594619Y82785715D01*
X13642238Y82690477D01*
X13689857Y82642858D01*
X13785095Y82595239D01*
X13880333Y82595239D01*
X13975571Y82642858D01*
X14023190Y82690477D01*
X14070809Y82785715D01*
X14118428Y82976191D01*
X14166047Y83071429D01*
X14213666Y83119048D01*
X14308904Y83166667D01*
X14404142Y83166667D01*
X14499380Y83119048D01*
X14547000Y83071429D01*
X14594619Y82976191D01*
X14594619Y82738096D01*
X14547000Y82595239D01*
X14594619Y82261905D02*
X13594619Y81595239D01*
X14594619Y81595239D02*
X13594619Y82261905D01*
X13594619Y80690477D02*
X13594619Y81261905D01*
X13594619Y80976191D02*
X14594619Y80976191D01*
X14451761Y81071429D01*
X14356523Y81166667D01*
X14308904Y81261905D01*
X14499380Y80309524D02*
X14547000Y80261905D01*
X14594619Y80166667D01*
X14594619Y79928572D01*
X14547000Y79833334D01*
X14499380Y79785715D01*
X14404142Y79738096D01*
X14308904Y79738096D01*
X14166047Y79785715D01*
X13594619Y80357143D01*
X13594619Y79738096D01*
X14594619Y79404762D02*
X14594619Y78738096D01*
X13594619Y79166667D01*
X14166047Y78214286D02*
X14213666Y78309524D01*
X14261285Y78357143D01*
X14356523Y78404762D01*
X14404142Y78404762D01*
X14499380Y78357143D01*
X14547000Y78309524D01*
X14594619Y78214286D01*
X14594619Y78023810D01*
X14547000Y77928572D01*
X14499380Y77880953D01*
X14404142Y77833334D01*
X14356523Y77833334D01*
X14261285Y77880953D01*
X14213666Y77928572D01*
X14166047Y78023810D01*
X14166047Y78214286D01*
X14118428Y78309524D01*
X14070809Y78357143D01*
X13975571Y78404762D01*
X13785095Y78404762D01*
X13689857Y78357143D01*
X13642238Y78309524D01*
X13594619Y78214286D01*
X13594619Y78023810D01*
X13642238Y77928572D01*
X13689857Y77880953D01*
X13785095Y77833334D01*
X13975571Y77833334D01*
X14070809Y77880953D01*
X14118428Y77928572D01*
X14166047Y78023810D01*
%TO.C,U3*%
X59822619Y28008334D02*
X60489285Y28008334D01*
X60394047Y28008334D02*
X60441666Y27960715D01*
X60489285Y27865477D01*
X60489285Y27722620D01*
X60441666Y27627381D01*
X60346428Y27579762D01*
X59822619Y27579762D01*
X60346428Y27579762D02*
X60441666Y27532143D01*
X60489285Y27436905D01*
X60489285Y27294048D01*
X60441666Y27198810D01*
X60346428Y27151191D01*
X59822619Y27151191D01*
X59822619Y26675000D02*
X60489285Y26675000D01*
X60822619Y26675000D02*
X60775000Y26722620D01*
X60727380Y26675000D01*
X60775000Y26627381D01*
X60822619Y26675000D01*
X60727380Y26675000D01*
X59870238Y25770239D02*
X59822619Y25865477D01*
X59822619Y26055953D01*
X59870238Y26151191D01*
X59917857Y26198810D01*
X60013095Y26246429D01*
X60298809Y26246429D01*
X60394047Y26198810D01*
X60441666Y26151191D01*
X60489285Y26055953D01*
X60489285Y25865477D01*
X60441666Y25770239D01*
X59822619Y25341667D02*
X60489285Y25341667D01*
X60298809Y25341667D02*
X60394047Y25294048D01*
X60441666Y25246429D01*
X60489285Y25151191D01*
X60489285Y25055953D01*
X59822619Y24579762D02*
X59870238Y24675000D01*
X59917857Y24722620D01*
X60013095Y24770239D01*
X60298809Y24770239D01*
X60394047Y24722620D01*
X60441666Y24675000D01*
X60489285Y24579762D01*
X60489285Y24436905D01*
X60441666Y24341667D01*
X60394047Y24294048D01*
X60298809Y24246429D01*
X60013095Y24246429D01*
X59917857Y24294048D01*
X59870238Y24341667D01*
X59822619Y24436905D01*
X59822619Y24579762D01*
X59870238Y23865477D02*
X59822619Y23722620D01*
X59822619Y23484524D01*
X59870238Y23389286D01*
X59917857Y23341667D01*
X60013095Y23294048D01*
X60108333Y23294048D01*
X60203571Y23341667D01*
X60251190Y23389286D01*
X60298809Y23484524D01*
X60346428Y23675000D01*
X60394047Y23770239D01*
X60441666Y23817858D01*
X60536904Y23865477D01*
X60632142Y23865477D01*
X60727380Y23817858D01*
X60775000Y23770239D01*
X60822619Y23675000D01*
X60822619Y23436905D01*
X60775000Y23294048D01*
X59822619Y22865477D02*
X60822619Y22865477D01*
X60822619Y22627381D01*
X60775000Y22484524D01*
X60679761Y22389286D01*
X60584523Y22341667D01*
X60394047Y22294048D01*
X60251190Y22294048D01*
X60060714Y22341667D01*
X59965476Y22389286D01*
X59870238Y22484524D01*
X59822619Y22627381D01*
X59822619Y22865477D01*
X59727380Y22103572D02*
X59727380Y21341667D01*
X59822619Y21103572D02*
X60822619Y21103572D01*
X60108333Y20770239D01*
X60822619Y20436905D01*
X59822619Y20436905D01*
X59822619Y19817858D02*
X59870238Y19913096D01*
X59917857Y19960715D01*
X60013095Y20008334D01*
X60298809Y20008334D01*
X60394047Y19960715D01*
X60441666Y19913096D01*
X60489285Y19817858D01*
X60489285Y19675000D01*
X60441666Y19579762D01*
X60394047Y19532143D01*
X60298809Y19484524D01*
X60013095Y19484524D01*
X59917857Y19532143D01*
X59870238Y19579762D01*
X59822619Y19675000D01*
X59822619Y19817858D01*
X59822619Y18627381D02*
X60822619Y18627381D01*
X59870238Y18627381D02*
X59822619Y18722620D01*
X59822619Y18913096D01*
X59870238Y19008334D01*
X59917857Y19055953D01*
X60013095Y19103572D01*
X60298809Y19103572D01*
X60394047Y19055953D01*
X60441666Y19008334D01*
X60489285Y18913096D01*
X60489285Y18722620D01*
X60441666Y18627381D01*
X60489285Y17722620D02*
X59822619Y17722620D01*
X60489285Y18151191D02*
X59965476Y18151191D01*
X59870238Y18103572D01*
X59822619Y18008334D01*
X59822619Y17865477D01*
X59870238Y17770239D01*
X59917857Y17722620D01*
X59822619Y17103572D02*
X59870238Y17198810D01*
X59965476Y17246429D01*
X60822619Y17246429D01*
X59870238Y16341667D02*
X59822619Y16436905D01*
X59822619Y16627381D01*
X59870238Y16722620D01*
X59965476Y16770239D01*
X60346428Y16770239D01*
X60441666Y16722620D01*
X60489285Y16627381D01*
X60489285Y16436905D01*
X60441666Y16341667D01*
X60346428Y16294048D01*
X60251190Y16294048D01*
X60155952Y16770239D01*
%TO.C,U2*%
X23024523Y79817620D02*
X22548333Y79817620D01*
X22548333Y80817620D01*
X23357857Y79817620D02*
X23357857Y80817620D01*
X23691190Y80103334D01*
X24024523Y80817620D01*
X24024523Y79817620D01*
X24405476Y80817620D02*
X25024523Y80817620D01*
X24691190Y80436667D01*
X24834047Y80436667D01*
X24929285Y80389048D01*
X24976904Y80341429D01*
X25024523Y80246191D01*
X25024523Y80008096D01*
X24976904Y79912858D01*
X24929285Y79865239D01*
X24834047Y79817620D01*
X24548333Y79817620D01*
X24453095Y79865239D01*
X24405476Y79912858D01*
X25976904Y79817620D02*
X25405476Y79817620D01*
X25691190Y79817620D02*
X25691190Y80817620D01*
X25595952Y80674762D01*
X25500714Y80579524D01*
X25405476Y80531905D01*
X26310238Y80817620D02*
X26976904Y80817620D01*
X26548333Y79817620D01*
%TO.C,U1*%
X50329523Y79817620D02*
X49853333Y79817620D01*
X49853333Y80817620D01*
X50662857Y79817620D02*
X50662857Y80817620D01*
X50996190Y80103334D01*
X51329523Y80817620D01*
X51329523Y79817620D01*
X51710476Y80817620D02*
X52329523Y80817620D01*
X51996190Y80436667D01*
X52139047Y80436667D01*
X52234285Y80389048D01*
X52281904Y80341429D01*
X52329523Y80246191D01*
X52329523Y80008096D01*
X52281904Y79912858D01*
X52234285Y79865239D01*
X52139047Y79817620D01*
X51853333Y79817620D01*
X51758095Y79865239D01*
X51710476Y79912858D01*
X53281904Y79817620D02*
X52710476Y79817620D01*
X52996190Y79817620D02*
X52996190Y80817620D01*
X52900952Y80674762D01*
X52805714Y80579524D01*
X52710476Y80531905D01*
X53615238Y80817620D02*
X54281904Y80817620D01*
X53853333Y79817620D01*
%TO.C,U0*%
X36952380Y44166667D02*
X36476190Y43833334D01*
X36952380Y43595239D02*
X35952380Y43595239D01*
X35952380Y43976191D01*
X36000000Y44071429D01*
X36047619Y44119048D01*
X36142857Y44166667D01*
X36285714Y44166667D01*
X36380952Y44119048D01*
X36428571Y44071429D01*
X36476190Y43976191D01*
X36476190Y43595239D01*
X36428571Y44595239D02*
X36428571Y44928572D01*
X36952380Y45071429D02*
X36952380Y44595239D01*
X35952380Y44595239D01*
X35952380Y45071429D01*
X36428571Y45833334D02*
X36428571Y45500000D01*
X36952380Y45500000D02*
X35952380Y45500000D01*
X35952380Y45976191D01*
X35952380Y46500000D02*
X36190476Y46500000D01*
X36095238Y46261905D02*
X36190476Y46500000D01*
X36095238Y46738096D01*
X36380952Y46357143D02*
X36190476Y46500000D01*
X36380952Y46642858D01*
X35952380Y47261905D02*
X36190476Y47261905D01*
X36095238Y47023810D02*
X36190476Y47261905D01*
X36095238Y47500000D01*
X36380952Y47119048D02*
X36190476Y47261905D01*
X36380952Y47404762D01*
%TO.C,J4*%
X66775714Y38669286D02*
X67442380Y38669286D01*
X66394761Y38431191D02*
X67109047Y38193096D01*
X67109047Y38812143D01*
X67442380Y39193096D02*
X66442380Y39193096D01*
X66442380Y39574048D01*
X66490000Y39669286D01*
X66537619Y39716905D01*
X66632857Y39764524D01*
X66775714Y39764524D01*
X66870952Y39716905D01*
X66918571Y39669286D01*
X66966190Y39574048D01*
X66966190Y39193096D01*
X66775714Y40621667D02*
X67442380Y40621667D01*
X66394761Y40383572D02*
X67109047Y40145477D01*
X67109047Y40764524D01*
X67347142Y41716905D02*
X67394761Y41669286D01*
X67442380Y41526429D01*
X67442380Y41431191D01*
X67394761Y41288334D01*
X67299523Y41193096D01*
X67204285Y41145477D01*
X67013809Y41097858D01*
X66870952Y41097858D01*
X66680476Y41145477D01*
X66585238Y41193096D01*
X66490000Y41288334D01*
X66442380Y41431191D01*
X66442380Y41526429D01*
X66490000Y41669286D01*
X66537619Y41716905D01*
X67942380Y39621667D02*
X68656666Y39621667D01*
X68799523Y39574048D01*
X68894761Y39478810D01*
X68942380Y39335953D01*
X68942380Y39240715D01*
X68275714Y40526429D02*
X68942380Y40526429D01*
X67894761Y40288334D02*
X68609047Y40050239D01*
X68609047Y40669286D01*
%TO.C,J3*%
X66775714Y58354286D02*
X67442380Y58354286D01*
X66394761Y58116191D02*
X67109047Y57878096D01*
X67109047Y58497143D01*
X67442380Y58878096D02*
X66442380Y58878096D01*
X66442380Y59259048D01*
X66490000Y59354286D01*
X66537619Y59401905D01*
X66632857Y59449524D01*
X66775714Y59449524D01*
X66870952Y59401905D01*
X66918571Y59354286D01*
X66966190Y59259048D01*
X66966190Y58878096D01*
X66775714Y60306667D02*
X67442380Y60306667D01*
X66394761Y60068572D02*
X67109047Y59830477D01*
X67109047Y60449524D01*
X67347142Y61401905D02*
X67394761Y61354286D01*
X67442380Y61211429D01*
X67442380Y61116191D01*
X67394761Y60973334D01*
X67299523Y60878096D01*
X67204285Y60830477D01*
X67013809Y60782858D01*
X66870952Y60782858D01*
X66680476Y60830477D01*
X66585238Y60878096D01*
X66490000Y60973334D01*
X66442380Y61116191D01*
X66442380Y61211429D01*
X66490000Y61354286D01*
X66537619Y61401905D01*
X67942380Y59306667D02*
X68656666Y59306667D01*
X68799523Y59259048D01*
X68894761Y59163810D01*
X68942380Y59020953D01*
X68942380Y58925715D01*
X67942380Y59687620D02*
X67942380Y60306667D01*
X68323333Y59973334D01*
X68323333Y60116191D01*
X68370952Y60211429D01*
X68418571Y60259048D01*
X68513809Y60306667D01*
X68751904Y60306667D01*
X68847142Y60259048D01*
X68894761Y60211429D01*
X68942380Y60116191D01*
X68942380Y59830477D01*
X68894761Y59735239D01*
X68847142Y59687620D01*
%TO.C,J0*%
X65626904Y68493929D02*
X65769761Y68446310D01*
X65817380Y68398691D01*
X65865000Y68303453D01*
X65865000Y68160596D01*
X65817380Y68065358D01*
X65769761Y68017739D01*
X65674523Y67970120D01*
X65293571Y67970120D01*
X65293571Y68970120D01*
X65626904Y68970120D01*
X65722142Y68922500D01*
X65769761Y68874881D01*
X65817380Y68779643D01*
X65817380Y68684405D01*
X65769761Y68589167D01*
X65722142Y68541548D01*
X65626904Y68493929D01*
X65293571Y68493929D01*
X66722142Y67970120D02*
X66722142Y68493929D01*
X66674523Y68589167D01*
X66579285Y68636786D01*
X66388809Y68636786D01*
X66293571Y68589167D01*
X66722142Y68017739D02*
X66626904Y67970120D01*
X66388809Y67970120D01*
X66293571Y68017739D01*
X66245952Y68112977D01*
X66245952Y68208215D01*
X66293571Y68303453D01*
X66388809Y68351072D01*
X66626904Y68351072D01*
X66722142Y68398691D01*
X67198333Y67970120D02*
X67198333Y68636786D01*
X67198333Y68446310D02*
X67245952Y68541548D01*
X67293571Y68589167D01*
X67388809Y68636786D01*
X67484047Y68636786D01*
X67817380Y67970120D02*
X67817380Y68636786D01*
X67817380Y68446310D02*
X67865000Y68541548D01*
X67912619Y68589167D01*
X68007857Y68636786D01*
X68103095Y68636786D01*
X68817380Y68017739D02*
X68722142Y67970120D01*
X68531666Y67970120D01*
X68436428Y68017739D01*
X68388809Y68112977D01*
X68388809Y68493929D01*
X68436428Y68589167D01*
X68531666Y68636786D01*
X68722142Y68636786D01*
X68817380Y68589167D01*
X68865000Y68493929D01*
X68865000Y68398691D01*
X68388809Y68303453D01*
X69436428Y67970120D02*
X69341190Y68017739D01*
X69293571Y68112977D01*
X69293571Y68970120D01*
X69579285Y67874881D02*
X70341190Y67874881D01*
X70865000Y68970120D02*
X70865000Y68255834D01*
X70817380Y68112977D01*
X70722142Y68017739D01*
X70579285Y67970120D01*
X70484047Y67970120D01*
X71769761Y67970120D02*
X71769761Y68493929D01*
X71722142Y68589167D01*
X71626904Y68636786D01*
X71436428Y68636786D01*
X71341190Y68589167D01*
X71769761Y68017739D02*
X71674523Y67970120D01*
X71436428Y67970120D01*
X71341190Y68017739D01*
X71293571Y68112977D01*
X71293571Y68208215D01*
X71341190Y68303453D01*
X71436428Y68351072D01*
X71674523Y68351072D01*
X71769761Y68398691D01*
X72674523Y68017739D02*
X72579285Y67970120D01*
X72388809Y67970120D01*
X72293571Y68017739D01*
X72245952Y68065358D01*
X72198333Y68160596D01*
X72198333Y68446310D01*
X72245952Y68541548D01*
X72293571Y68589167D01*
X72388809Y68636786D01*
X72579285Y68636786D01*
X72674523Y68589167D01*
X73103095Y67970120D02*
X73103095Y68970120D01*
X73198333Y68351072D02*
X73484047Y67970120D01*
X73484047Y68636786D02*
X73103095Y68255834D01*
X65831666Y71520120D02*
X65831666Y70805834D01*
X65784047Y70662977D01*
X65688809Y70567739D01*
X65545952Y70520120D01*
X65450714Y70520120D01*
X66498333Y71520120D02*
X66593571Y71520120D01*
X66688809Y71472500D01*
X66736428Y71424881D01*
X66784047Y71329643D01*
X66831666Y71139167D01*
X66831666Y70901072D01*
X66784047Y70710596D01*
X66736428Y70615358D01*
X66688809Y70567739D01*
X66593571Y70520120D01*
X66498333Y70520120D01*
X66403095Y70567739D01*
X66355476Y70615358D01*
X66307857Y70710596D01*
X66260238Y70901072D01*
X66260238Y71139167D01*
X66307857Y71329643D01*
X66355476Y71424881D01*
X66403095Y71472500D01*
X66498333Y71520120D01*
D12*
%TO.C,U7*%
X21625000Y36633000D02*
X19125000Y36633000D01*
X19125000Y36633000D02*
X19125000Y34133000D01*
X19125000Y34133000D02*
X21625000Y34133000D01*
X21625000Y34133000D02*
X21625000Y36633000D01*
X20516327Y36253000D02*
G75*
G03*
X20516327Y36253000I-151327J0D01*
G01*
D13*
%TO.C,U6*%
X49855000Y55180000D02*
X48855000Y56180000D01*
X59015000Y61530000D02*
X59015000Y55180000D01*
X48855000Y56180000D02*
X48855000Y61530000D01*
X59015000Y55180000D02*
X49855000Y55180000D01*
X48855000Y61530000D02*
X59015000Y61530000D01*
%TO.C,U3*%
X59050000Y24235000D02*
X57550000Y24235000D01*
X57550000Y24235000D02*
X57550000Y23435000D01*
X57550000Y23435000D02*
X59050000Y23435000D01*
X59050000Y23435000D02*
X59050000Y24235000D01*
G36*
X59050000Y24235000D02*
G01*
X57550000Y24235000D01*
X57550000Y23435000D01*
X59050000Y23435000D01*
X59050000Y24235000D01*
G37*
X67580000Y15065000D02*
X66800000Y15065000D01*
X66800000Y15065000D02*
X66800000Y13825000D01*
X66800000Y13825000D02*
X67580000Y13825000D01*
X67580000Y13825000D02*
X67580000Y15065000D01*
G36*
X67580000Y15065000D02*
G01*
X66800000Y15065000D01*
X66800000Y13825000D01*
X67580000Y13825000D01*
X67580000Y15065000D01*
G37*
X59050000Y18735000D02*
X57550000Y18735000D01*
X57550000Y18735000D02*
X57550000Y17935000D01*
X57550000Y17935000D02*
X59050000Y17935000D01*
X59050000Y17935000D02*
X59050000Y18735000D01*
G36*
X59050000Y18735000D02*
G01*
X57550000Y18735000D01*
X57550000Y17935000D01*
X59050000Y17935000D01*
X59050000Y18735000D01*
G37*
X59050000Y23135000D02*
X57550000Y23135000D01*
X57550000Y23135000D02*
X57550000Y22335000D01*
X57550000Y22335000D02*
X59050000Y22335000D01*
X59050000Y22335000D02*
X59050000Y23135000D01*
G36*
X59050000Y23135000D02*
G01*
X57550000Y23135000D01*
X57550000Y22335000D01*
X59050000Y22335000D01*
X59050000Y23135000D01*
G37*
X59040000Y25325000D02*
X57540000Y25325000D01*
X57540000Y25325000D02*
X57540000Y24525000D01*
X57540000Y24525000D02*
X59040000Y24525000D01*
X59040000Y24525000D02*
X59040000Y25325000D01*
G36*
X59040000Y25325000D02*
G01*
X57540000Y25325000D01*
X57540000Y24525000D01*
X59040000Y24525000D01*
X59040000Y25325000D01*
G37*
X59050000Y26435000D02*
X57550000Y26435000D01*
X57550000Y26435000D02*
X57550000Y25635000D01*
X57550000Y25635000D02*
X59050000Y25635000D01*
X59050000Y25635000D02*
X59050000Y26435000D01*
G36*
X59050000Y26435000D02*
G01*
X57550000Y26435000D01*
X57550000Y25635000D01*
X59050000Y25635000D01*
X59050000Y26435000D01*
G37*
X59050000Y17635000D02*
X57550000Y17635000D01*
X57550000Y17635000D02*
X57550000Y16835000D01*
X57550000Y16835000D02*
X59050000Y16835000D01*
X59050000Y16835000D02*
X59050000Y17635000D01*
G36*
X59050000Y17635000D02*
G01*
X57550000Y17635000D01*
X57550000Y16835000D01*
X59050000Y16835000D01*
X59050000Y17635000D01*
G37*
X59050000Y20935000D02*
X57550000Y20935000D01*
X57550000Y20935000D02*
X57550000Y20135000D01*
X57550000Y20135000D02*
X59050000Y20135000D01*
X59050000Y20135000D02*
X59050000Y20935000D01*
G36*
X59050000Y20935000D02*
G01*
X57550000Y20935000D01*
X57550000Y20135000D01*
X59050000Y20135000D01*
X59050000Y20935000D01*
G37*
X59050000Y19835000D02*
X57550000Y19835000D01*
X57550000Y19835000D02*
X57550000Y19035000D01*
X57550000Y19035000D02*
X59050000Y19035000D01*
X59050000Y19035000D02*
X59050000Y19835000D01*
G36*
X59050000Y19835000D02*
G01*
X57550000Y19835000D01*
X57550000Y19035000D01*
X59050000Y19035000D01*
X59050000Y19835000D01*
G37*
X59050000Y27535000D02*
X57550000Y27535000D01*
X57550000Y27535000D02*
X57550000Y26735000D01*
X57550000Y26735000D02*
X59050000Y26735000D01*
X59050000Y26735000D02*
X59050000Y27535000D01*
G36*
X59050000Y27535000D02*
G01*
X57550000Y27535000D01*
X57550000Y26735000D01*
X59050000Y26735000D01*
X59050000Y27535000D01*
G37*
X59050000Y22035000D02*
X57550000Y22035000D01*
X57550000Y22035000D02*
X57550000Y21235000D01*
X57550000Y21235000D02*
X59050000Y21235000D01*
X59050000Y21235000D02*
X59050000Y22035000D01*
G36*
X59050000Y22035000D02*
G01*
X57550000Y22035000D01*
X57550000Y21235000D01*
X59050000Y21235000D01*
X59050000Y22035000D01*
G37*
X67560000Y30525000D02*
X66780000Y30525000D01*
X66780000Y30525000D02*
X66780000Y29285000D01*
X66780000Y29285000D02*
X67560000Y29285000D01*
X67560000Y29285000D02*
X67560000Y30525000D01*
G36*
X67560000Y30525000D02*
G01*
X66780000Y30525000D01*
X66780000Y29285000D01*
X67560000Y29285000D01*
X67560000Y30525000D01*
G37*
%TO.C,U2*%
X27335000Y83110000D02*
X27335000Y78710000D01*
X30485000Y83110000D02*
X30485000Y81840000D01*
X27335000Y78710000D02*
X37335000Y78710000D01*
X37335000Y83110000D02*
X27335000Y83110000D01*
X27335000Y81840000D02*
X37335000Y81840000D01*
X34185000Y83110000D02*
X34185000Y81840000D01*
X37335000Y78710000D02*
X37335000Y83110000D01*
%TO.C,U1*%
X49400000Y78710000D02*
X49400000Y83110000D01*
X46250000Y83110000D02*
X46250000Y81840000D01*
X39400000Y81840000D02*
X49400000Y81840000D01*
X49400000Y83110000D02*
X39400000Y83110000D01*
X39400000Y78710000D02*
X49400000Y78710000D01*
X42550000Y83110000D02*
X42550000Y81840000D01*
X39400000Y83110000D02*
X39400000Y78710000D01*
D12*
%TO.C,U0*%
X25200000Y72000000D02*
X47800000Y72000000D01*
X25200000Y19000000D02*
X25200000Y71950000D01*
X25200000Y19000000D02*
X47800000Y19000000D01*
X47800000Y72000000D02*
X47800000Y19000000D01*
D13*
X32600000Y66150000D02*
X40400000Y66150000D01*
X32600000Y66150000D02*
X32600000Y71950000D01*
X40400000Y66150000D02*
X40400000Y71950000D01*
X27610000Y70265000D02*
X28245000Y70900000D01*
X28245000Y70900000D02*
X30150000Y70900000D01*
X30150000Y70900000D02*
X30150000Y20100000D01*
X30150000Y20100000D02*
X27610000Y20100000D01*
X27610000Y20100000D02*
X27610000Y70265000D01*
X42850000Y70900000D02*
X45390000Y70900000D01*
X45390000Y70900000D02*
X45390000Y20100000D01*
X45390000Y20100000D02*
X42850000Y20100000D01*
X42850000Y20100000D02*
X42850000Y70900000D01*
%TO.C,J5*%
X13300000Y52045000D02*
X13935000Y52680000D01*
X13935000Y52680000D02*
X20920000Y52680000D01*
X13300000Y50140000D02*
X13300000Y52045000D01*
X20920000Y52680000D02*
X20920000Y50140000D01*
X20920000Y50140000D02*
X13300000Y50140000D01*
%TO.C,J2*%
X20920000Y59665000D02*
X13300000Y59665000D01*
X20920000Y62205000D02*
X20920000Y59665000D01*
X13300000Y59665000D02*
X13300000Y61570000D01*
X13935000Y62205000D02*
X20920000Y62205000D01*
X13300000Y61570000D02*
X13935000Y62205000D01*
%TO.C,J1*%
X10745000Y14555000D02*
X11380000Y15190000D01*
X11380000Y15190000D02*
X18365000Y15190000D01*
X10745000Y12650000D02*
X10745000Y14555000D01*
X18365000Y15190000D02*
X18365000Y12650000D01*
X18365000Y12650000D02*
X10745000Y12650000D01*
%TO.C,J0*%
X73365000Y69422500D02*
X73365000Y78422500D01*
X76865000Y78422500D02*
X62365000Y78422500D01*
X63165000Y69422500D02*
X76865000Y69422500D01*
X63168213Y69417075D02*
X62365000Y70172500D01*
X62365000Y78422500D02*
X62365000Y70172500D01*
X76865000Y69422500D02*
X76865000Y78422500D01*
%TD*%
M02*
