G04 #@! TF.GenerationSoftware,KiCad,Pcbnew,(6.0.4)*
G04 #@! TF.CreationDate,2023-10-17T09:27:22+07:00*
G04 #@! TF.ProjectId,09-Prototype-Final-BugFixing,30392d50-726f-4746-9f74-7970652d4669,rev?*
G04 #@! TF.SameCoordinates,Original*
G04 #@! TF.FileFunction,Legend,Bot*
G04 #@! TF.FilePolarity,Positive*
%FSLAX46Y46*%
G04 Gerber Fmt 4.6, Leading zero omitted, Abs format (unit mm)*
G04 Created by KiCad (PCBNEW (6.0.4)) date 2023-10-17 09:27:22*
%MOMM*%
%LPD*%
G01*
G04 APERTURE LIST*
%ADD10C,0.150000*%
%ADD11C,0.120000*%
G04 APERTURE END LIST*
D10*
G04 #@! TO.C,C5*
X186916666Y-55197142D02*
X186964285Y-55244761D01*
X187107142Y-55292380D01*
X187202380Y-55292380D01*
X187345238Y-55244761D01*
X187440476Y-55149523D01*
X187488095Y-55054285D01*
X187535714Y-54863809D01*
X187535714Y-54720952D01*
X187488095Y-54530476D01*
X187440476Y-54435238D01*
X187345238Y-54340000D01*
X187202380Y-54292380D01*
X187107142Y-54292380D01*
X186964285Y-54340000D01*
X186916666Y-54387619D01*
X186011904Y-54292380D02*
X186488095Y-54292380D01*
X186535714Y-54768571D01*
X186488095Y-54720952D01*
X186392857Y-54673333D01*
X186154761Y-54673333D01*
X186059523Y-54720952D01*
X186011904Y-54768571D01*
X185964285Y-54863809D01*
X185964285Y-55101904D01*
X186011904Y-55197142D01*
X186059523Y-55244761D01*
X186154761Y-55292380D01*
X186392857Y-55292380D01*
X186488095Y-55244761D01*
X186535714Y-55197142D01*
G04 #@! TO.C,U4*
X196856904Y-52482380D02*
X196856904Y-53291904D01*
X196809285Y-53387142D01*
X196761666Y-53434761D01*
X196666428Y-53482380D01*
X196475952Y-53482380D01*
X196380714Y-53434761D01*
X196333095Y-53387142D01*
X196285476Y-53291904D01*
X196285476Y-52482380D01*
X195380714Y-52815714D02*
X195380714Y-53482380D01*
X195618809Y-52434761D02*
X195856904Y-53149047D01*
X195237857Y-53149047D01*
G04 #@! TO.C,C1*
X196046666Y-69227142D02*
X196094285Y-69274761D01*
X196237142Y-69322380D01*
X196332380Y-69322380D01*
X196475238Y-69274761D01*
X196570476Y-69179523D01*
X196618095Y-69084285D01*
X196665714Y-68893809D01*
X196665714Y-68750952D01*
X196618095Y-68560476D01*
X196570476Y-68465238D01*
X196475238Y-68370000D01*
X196332380Y-68322380D01*
X196237142Y-68322380D01*
X196094285Y-68370000D01*
X196046666Y-68417619D01*
X195094285Y-69322380D02*
X195665714Y-69322380D01*
X195380000Y-69322380D02*
X195380000Y-68322380D01*
X195475238Y-68465238D01*
X195570476Y-68560476D01*
X195665714Y-68608095D01*
G04 #@! TO.C,C4*
X186916666Y-51277142D02*
X186964285Y-51324761D01*
X187107142Y-51372380D01*
X187202380Y-51372380D01*
X187345238Y-51324761D01*
X187440476Y-51229523D01*
X187488095Y-51134285D01*
X187535714Y-50943809D01*
X187535714Y-50800952D01*
X187488095Y-50610476D01*
X187440476Y-50515238D01*
X187345238Y-50420000D01*
X187202380Y-50372380D01*
X187107142Y-50372380D01*
X186964285Y-50420000D01*
X186916666Y-50467619D01*
X186059523Y-50705714D02*
X186059523Y-51372380D01*
X186297619Y-50324761D02*
X186535714Y-51039047D01*
X185916666Y-51039047D01*
G04 #@! TO.C,C2*
X186926666Y-43437142D02*
X186974285Y-43484761D01*
X187117142Y-43532380D01*
X187212380Y-43532380D01*
X187355238Y-43484761D01*
X187450476Y-43389523D01*
X187498095Y-43294285D01*
X187545714Y-43103809D01*
X187545714Y-42960952D01*
X187498095Y-42770476D01*
X187450476Y-42675238D01*
X187355238Y-42580000D01*
X187212380Y-42532380D01*
X187117142Y-42532380D01*
X186974285Y-42580000D01*
X186926666Y-42627619D01*
X186545714Y-42627619D02*
X186498095Y-42580000D01*
X186402857Y-42532380D01*
X186164761Y-42532380D01*
X186069523Y-42580000D01*
X186021904Y-42627619D01*
X185974285Y-42722857D01*
X185974285Y-42818095D01*
X186021904Y-42960952D01*
X186593333Y-43532380D01*
X185974285Y-43532380D01*
G04 #@! TO.C,C8*
X163977142Y-103553333D02*
X164024761Y-103505714D01*
X164072380Y-103362857D01*
X164072380Y-103267619D01*
X164024761Y-103124761D01*
X163929523Y-103029523D01*
X163834285Y-102981904D01*
X163643809Y-102934285D01*
X163500952Y-102934285D01*
X163310476Y-102981904D01*
X163215238Y-103029523D01*
X163120000Y-103124761D01*
X163072380Y-103267619D01*
X163072380Y-103362857D01*
X163120000Y-103505714D01*
X163167619Y-103553333D01*
X163500952Y-104124761D02*
X163453333Y-104029523D01*
X163405714Y-103981904D01*
X163310476Y-103934285D01*
X163262857Y-103934285D01*
X163167619Y-103981904D01*
X163120000Y-104029523D01*
X163072380Y-104124761D01*
X163072380Y-104315238D01*
X163120000Y-104410476D01*
X163167619Y-104458095D01*
X163262857Y-104505714D01*
X163310476Y-104505714D01*
X163405714Y-104458095D01*
X163453333Y-104410476D01*
X163500952Y-104315238D01*
X163500952Y-104124761D01*
X163548571Y-104029523D01*
X163596190Y-103981904D01*
X163691428Y-103934285D01*
X163881904Y-103934285D01*
X163977142Y-103981904D01*
X164024761Y-104029523D01*
X164072380Y-104124761D01*
X164072380Y-104315238D01*
X164024761Y-104410476D01*
X163977142Y-104458095D01*
X163881904Y-104505714D01*
X163691428Y-104505714D01*
X163596190Y-104458095D01*
X163548571Y-104410476D01*
X163500952Y-104315238D01*
G04 #@! TO.C,R6*
X182486666Y-68932380D02*
X182820000Y-68456190D01*
X183058095Y-68932380D02*
X183058095Y-67932380D01*
X182677142Y-67932380D01*
X182581904Y-67980000D01*
X182534285Y-68027619D01*
X182486666Y-68122857D01*
X182486666Y-68265714D01*
X182534285Y-68360952D01*
X182581904Y-68408571D01*
X182677142Y-68456190D01*
X183058095Y-68456190D01*
X181629523Y-67932380D02*
X181820000Y-67932380D01*
X181915238Y-67980000D01*
X181962857Y-68027619D01*
X182058095Y-68170476D01*
X182105714Y-68360952D01*
X182105714Y-68741904D01*
X182058095Y-68837142D01*
X182010476Y-68884761D01*
X181915238Y-68932380D01*
X181724761Y-68932380D01*
X181629523Y-68884761D01*
X181581904Y-68837142D01*
X181534285Y-68741904D01*
X181534285Y-68503809D01*
X181581904Y-68408571D01*
X181629523Y-68360952D01*
X181724761Y-68313333D01*
X181915238Y-68313333D01*
X182010476Y-68360952D01*
X182058095Y-68408571D01*
X182105714Y-68503809D01*
G04 #@! TO.C,J3*
X189573333Y-55262380D02*
X189573333Y-55976666D01*
X189620952Y-56119523D01*
X189716190Y-56214761D01*
X189859047Y-56262380D01*
X189954285Y-56262380D01*
X189192380Y-55262380D02*
X188573333Y-55262380D01*
X188906666Y-55643333D01*
X188763809Y-55643333D01*
X188668571Y-55690952D01*
X188620952Y-55738571D01*
X188573333Y-55833809D01*
X188573333Y-56071904D01*
X188620952Y-56167142D01*
X188668571Y-56214761D01*
X188763809Y-56262380D01*
X189049523Y-56262380D01*
X189144761Y-56214761D01*
X189192380Y-56167142D01*
G04 #@! TO.C,R4*
X200462380Y-58763333D02*
X199986190Y-58430000D01*
X200462380Y-58191904D02*
X199462380Y-58191904D01*
X199462380Y-58572857D01*
X199510000Y-58668095D01*
X199557619Y-58715714D01*
X199652857Y-58763333D01*
X199795714Y-58763333D01*
X199890952Y-58715714D01*
X199938571Y-58668095D01*
X199986190Y-58572857D01*
X199986190Y-58191904D01*
X199795714Y-59620476D02*
X200462380Y-59620476D01*
X199414761Y-59382380D02*
X200129047Y-59144285D01*
X200129047Y-59763333D01*
G04 #@! TO.C,U2*
X182541904Y-76112380D02*
X182541904Y-76921904D01*
X182494285Y-77017142D01*
X182446666Y-77064761D01*
X182351428Y-77112380D01*
X182160952Y-77112380D01*
X182065714Y-77064761D01*
X182018095Y-77017142D01*
X181970476Y-76921904D01*
X181970476Y-76112380D01*
X181541904Y-76207619D02*
X181494285Y-76160000D01*
X181399047Y-76112380D01*
X181160952Y-76112380D01*
X181065714Y-76160000D01*
X181018095Y-76207619D01*
X180970476Y-76302857D01*
X180970476Y-76398095D01*
X181018095Y-76540952D01*
X181589523Y-77112380D01*
X180970476Y-77112380D01*
G04 #@! TO.C,R3*
X193886666Y-95932380D02*
X194220000Y-95456190D01*
X194458095Y-95932380D02*
X194458095Y-94932380D01*
X194077142Y-94932380D01*
X193981904Y-94980000D01*
X193934285Y-95027619D01*
X193886666Y-95122857D01*
X193886666Y-95265714D01*
X193934285Y-95360952D01*
X193981904Y-95408571D01*
X194077142Y-95456190D01*
X194458095Y-95456190D01*
X193553333Y-94932380D02*
X192934285Y-94932380D01*
X193267619Y-95313333D01*
X193124761Y-95313333D01*
X193029523Y-95360952D01*
X192981904Y-95408571D01*
X192934285Y-95503809D01*
X192934285Y-95741904D01*
X192981904Y-95837142D01*
X193029523Y-95884761D01*
X193124761Y-95932380D01*
X193410476Y-95932380D01*
X193505714Y-95884761D01*
X193553333Y-95837142D01*
G04 #@! TO.C,R5*
X196646666Y-107992380D02*
X196980000Y-107516190D01*
X197218095Y-107992380D02*
X197218095Y-106992380D01*
X196837142Y-106992380D01*
X196741904Y-107040000D01*
X196694285Y-107087619D01*
X196646666Y-107182857D01*
X196646666Y-107325714D01*
X196694285Y-107420952D01*
X196741904Y-107468571D01*
X196837142Y-107516190D01*
X197218095Y-107516190D01*
X195741904Y-106992380D02*
X196218095Y-106992380D01*
X196265714Y-107468571D01*
X196218095Y-107420952D01*
X196122857Y-107373333D01*
X195884761Y-107373333D01*
X195789523Y-107420952D01*
X195741904Y-107468571D01*
X195694285Y-107563809D01*
X195694285Y-107801904D01*
X195741904Y-107897142D01*
X195789523Y-107944761D01*
X195884761Y-107992380D01*
X196122857Y-107992380D01*
X196218095Y-107944761D01*
X196265714Y-107897142D01*
G04 #@! TO.C,C6*
X195856666Y-81857142D02*
X195904285Y-81904761D01*
X196047142Y-81952380D01*
X196142380Y-81952380D01*
X196285238Y-81904761D01*
X196380476Y-81809523D01*
X196428095Y-81714285D01*
X196475714Y-81523809D01*
X196475714Y-81380952D01*
X196428095Y-81190476D01*
X196380476Y-81095238D01*
X196285238Y-81000000D01*
X196142380Y-80952380D01*
X196047142Y-80952380D01*
X195904285Y-81000000D01*
X195856666Y-81047619D01*
X194999523Y-80952380D02*
X195190000Y-80952380D01*
X195285238Y-81000000D01*
X195332857Y-81047619D01*
X195428095Y-81190476D01*
X195475714Y-81380952D01*
X195475714Y-81761904D01*
X195428095Y-81857142D01*
X195380476Y-81904761D01*
X195285238Y-81952380D01*
X195094761Y-81952380D01*
X194999523Y-81904761D01*
X194951904Y-81857142D01*
X194904285Y-81761904D01*
X194904285Y-81523809D01*
X194951904Y-81428571D01*
X194999523Y-81380952D01*
X195094761Y-81333333D01*
X195285238Y-81333333D01*
X195380476Y-81380952D01*
X195428095Y-81428571D01*
X195475714Y-81523809D01*
G04 #@! TO.C,R1*
X180756666Y-95942380D02*
X181090000Y-95466190D01*
X181328095Y-95942380D02*
X181328095Y-94942380D01*
X180947142Y-94942380D01*
X180851904Y-94990000D01*
X180804285Y-95037619D01*
X180756666Y-95132857D01*
X180756666Y-95275714D01*
X180804285Y-95370952D01*
X180851904Y-95418571D01*
X180947142Y-95466190D01*
X181328095Y-95466190D01*
X179804285Y-95942380D02*
X180375714Y-95942380D01*
X180090000Y-95942380D02*
X180090000Y-94942380D01*
X180185238Y-95085238D01*
X180280476Y-95180476D01*
X180375714Y-95228095D01*
G04 #@! TO.C,J6*
X174258333Y-67557380D02*
X174258333Y-68271666D01*
X174305952Y-68414523D01*
X174401190Y-68509761D01*
X174544047Y-68557380D01*
X174639285Y-68557380D01*
X173353571Y-67557380D02*
X173544047Y-67557380D01*
X173639285Y-67605000D01*
X173686904Y-67652619D01*
X173782142Y-67795476D01*
X173829761Y-67985952D01*
X173829761Y-68366904D01*
X173782142Y-68462142D01*
X173734523Y-68509761D01*
X173639285Y-68557380D01*
X173448809Y-68557380D01*
X173353571Y-68509761D01*
X173305952Y-68462142D01*
X173258333Y-68366904D01*
X173258333Y-68128809D01*
X173305952Y-68033571D01*
X173353571Y-67985952D01*
X173448809Y-67938333D01*
X173639285Y-67938333D01*
X173734523Y-67985952D01*
X173782142Y-68033571D01*
X173829761Y-68128809D01*
G04 #@! TO.C,R2*
X180556666Y-107922380D02*
X180890000Y-107446190D01*
X181128095Y-107922380D02*
X181128095Y-106922380D01*
X180747142Y-106922380D01*
X180651904Y-106970000D01*
X180604285Y-107017619D01*
X180556666Y-107112857D01*
X180556666Y-107255714D01*
X180604285Y-107350952D01*
X180651904Y-107398571D01*
X180747142Y-107446190D01*
X181128095Y-107446190D01*
X180175714Y-107017619D02*
X180128095Y-106970000D01*
X180032857Y-106922380D01*
X179794761Y-106922380D01*
X179699523Y-106970000D01*
X179651904Y-107017619D01*
X179604285Y-107112857D01*
X179604285Y-107208095D01*
X179651904Y-107350952D01*
X180223333Y-107922380D01*
X179604285Y-107922380D01*
G04 #@! TO.C,C3*
X186926666Y-47347142D02*
X186974285Y-47394761D01*
X187117142Y-47442380D01*
X187212380Y-47442380D01*
X187355238Y-47394761D01*
X187450476Y-47299523D01*
X187498095Y-47204285D01*
X187545714Y-47013809D01*
X187545714Y-46870952D01*
X187498095Y-46680476D01*
X187450476Y-46585238D01*
X187355238Y-46490000D01*
X187212380Y-46442380D01*
X187117142Y-46442380D01*
X186974285Y-46490000D01*
X186926666Y-46537619D01*
X186593333Y-46442380D02*
X185974285Y-46442380D01*
X186307619Y-46823333D01*
X186164761Y-46823333D01*
X186069523Y-46870952D01*
X186021904Y-46918571D01*
X185974285Y-47013809D01*
X185974285Y-47251904D01*
X186021904Y-47347142D01*
X186069523Y-47394761D01*
X186164761Y-47442380D01*
X186450476Y-47442380D01*
X186545714Y-47394761D01*
X186593333Y-47347142D01*
D11*
G04 #@! TO.C,C5*
X184080000Y-53119000D02*
X189420000Y-53119000D01*
X184080000Y-56561000D02*
X184080000Y-55895000D01*
X184080000Y-56561000D02*
X189420000Y-56561000D01*
X189420000Y-56561000D02*
X189420000Y-55895000D01*
X189420000Y-53785000D02*
X189420000Y-53119000D01*
X184080000Y-53785000D02*
X184080000Y-53119000D01*
G04 #@! TO.C,U4*
X193845000Y-41750000D02*
X198345000Y-41750000D01*
X193845000Y-52030000D02*
X193845000Y-41750000D01*
X198345000Y-41750000D02*
X198345000Y-52030000D01*
X195095000Y-52030000D02*
X193845000Y-52030000D01*
X198345000Y-52030000D02*
X197095000Y-52030000D01*
X197095000Y-52030000D02*
G75*
G03*
X195095000Y-52030000I-1000000J0D01*
G01*
G04 #@! TO.C,C1*
X200000000Y-71490000D02*
X191760000Y-71490000D01*
X200000000Y-66250000D02*
X191760000Y-66250000D01*
X191760000Y-66250000D02*
X191760000Y-67614000D01*
X191760000Y-70126000D02*
X191760000Y-71490000D01*
X200000000Y-66250000D02*
X200000000Y-67614000D01*
X200000000Y-70126000D02*
X200000000Y-71490000D01*
G04 #@! TO.C,C4*
X184080000Y-49199000D02*
X189420000Y-49199000D01*
X189420000Y-52641000D02*
X189420000Y-51975000D01*
X184080000Y-49865000D02*
X184080000Y-49199000D01*
X184080000Y-52641000D02*
X184080000Y-51975000D01*
X184080000Y-52641000D02*
X189420000Y-52641000D01*
X189420000Y-49865000D02*
X189420000Y-49199000D01*
G04 #@! TO.C,C2*
X184090000Y-42025000D02*
X184090000Y-41359000D01*
X184090000Y-41359000D02*
X189430000Y-41359000D01*
X184090000Y-44801000D02*
X184090000Y-44135000D01*
X189430000Y-44801000D02*
X189430000Y-44135000D01*
X184090000Y-44801000D02*
X189430000Y-44801000D01*
X189430000Y-42025000D02*
X189430000Y-41359000D01*
G04 #@! TO.C,C8*
X167030000Y-101144000D02*
X167030000Y-102680000D01*
X166389000Y-101265000D02*
X166389000Y-102680000D01*
X166229000Y-101322000D02*
X166229000Y-102680000D01*
X166510000Y-101229000D02*
X166510000Y-102680000D01*
X165469000Y-104760000D02*
X165469000Y-105657000D01*
X164749000Y-102805000D02*
X164749000Y-104635000D01*
X165869000Y-101496000D02*
X165869000Y-102680000D01*
X165229000Y-102021000D02*
X165229000Y-102680000D01*
X166950000Y-104760000D02*
X166950000Y-106289000D01*
X166950000Y-101151000D02*
X166950000Y-102680000D01*
X165309000Y-104760000D02*
X165309000Y-105505000D01*
X165189000Y-104760000D02*
X165189000Y-105373000D01*
X166870000Y-104760000D02*
X166870000Y-106281000D01*
X166109000Y-101372000D02*
X166109000Y-102680000D01*
X166870000Y-101159000D02*
X166870000Y-102680000D01*
X166029000Y-104760000D02*
X166029000Y-106030000D01*
X166670000Y-104760000D02*
X166670000Y-106248000D01*
X166590000Y-104760000D02*
X166590000Y-106231000D01*
X165629000Y-104760000D02*
X165629000Y-105785000D01*
X166630000Y-101200000D02*
X166630000Y-102680000D01*
X165509000Y-101749000D02*
X165509000Y-102680000D01*
X165829000Y-104760000D02*
X165829000Y-105920000D01*
X167190000Y-101140000D02*
X167190000Y-102680000D01*
X165989000Y-104760000D02*
X165989000Y-106010000D01*
X165549000Y-104760000D02*
X165549000Y-105724000D01*
X166590000Y-101209000D02*
X166590000Y-102680000D01*
X165429000Y-101819000D02*
X165429000Y-102680000D01*
X167110000Y-101141000D02*
X167110000Y-102680000D01*
X166550000Y-104760000D02*
X166550000Y-106221000D01*
X166269000Y-104760000D02*
X166269000Y-106134000D01*
X165949000Y-101452000D02*
X165949000Y-102680000D01*
X165429000Y-104760000D02*
X165429000Y-105621000D01*
X165669000Y-104760000D02*
X165669000Y-105815000D01*
X166109000Y-104760000D02*
X166109000Y-106068000D01*
X169994775Y-102245000D02*
X169494775Y-102245000D01*
X165109000Y-102166000D02*
X165109000Y-105274000D01*
X166429000Y-104760000D02*
X166429000Y-106188000D01*
X166149000Y-101355000D02*
X166149000Y-102680000D01*
X167150000Y-101140000D02*
X167150000Y-102680000D01*
X165149000Y-102115000D02*
X165149000Y-105325000D01*
X166910000Y-101155000D02*
X166910000Y-102680000D01*
X167110000Y-104760000D02*
X167110000Y-106299000D01*
X165869000Y-104760000D02*
X165869000Y-105944000D01*
X166389000Y-104760000D02*
X166389000Y-106175000D01*
X167150000Y-104760000D02*
X167150000Y-106300000D01*
X165509000Y-104760000D02*
X165509000Y-105691000D01*
X166710000Y-101184000D02*
X166710000Y-102680000D01*
X165309000Y-101935000D02*
X165309000Y-102680000D01*
X166349000Y-101278000D02*
X166349000Y-102680000D01*
X166710000Y-104760000D02*
X166710000Y-106256000D01*
X167070000Y-101142000D02*
X167070000Y-102680000D01*
X167190000Y-104760000D02*
X167190000Y-106300000D01*
X166469000Y-104760000D02*
X166469000Y-106200000D01*
X165909000Y-101473000D02*
X165909000Y-102680000D01*
X164989000Y-102337000D02*
X164989000Y-105103000D01*
X166309000Y-101292000D02*
X166309000Y-102680000D01*
X164829000Y-102622000D02*
X164829000Y-104818000D01*
X165189000Y-102067000D02*
X165189000Y-102680000D01*
X164589000Y-103436000D02*
X164589000Y-104004000D01*
X166630000Y-104760000D02*
X166630000Y-106240000D01*
X165989000Y-101430000D02*
X165989000Y-102680000D01*
X166790000Y-101170000D02*
X166790000Y-102680000D01*
X166910000Y-104760000D02*
X166910000Y-106285000D01*
X166429000Y-101252000D02*
X166429000Y-102680000D01*
X166269000Y-101306000D02*
X166269000Y-102680000D01*
X166670000Y-101192000D02*
X166670000Y-102680000D01*
X165349000Y-101894000D02*
X165349000Y-102680000D01*
X165549000Y-101716000D02*
X165549000Y-102680000D01*
X165749000Y-104760000D02*
X165749000Y-105869000D01*
X164629000Y-103202000D02*
X164629000Y-104238000D01*
X166229000Y-104760000D02*
X166229000Y-106118000D01*
X165669000Y-101625000D02*
X165669000Y-102680000D01*
X165269000Y-104760000D02*
X165269000Y-105463000D01*
X166189000Y-101338000D02*
X166189000Y-102680000D01*
X164709000Y-102915000D02*
X164709000Y-104525000D01*
X165629000Y-101655000D02*
X165629000Y-102680000D01*
X165709000Y-101598000D02*
X165709000Y-102680000D01*
X165709000Y-104760000D02*
X165709000Y-105842000D01*
X166069000Y-101391000D02*
X166069000Y-102680000D01*
X166750000Y-104760000D02*
X166750000Y-106263000D01*
X165389000Y-104760000D02*
X165389000Y-105584000D01*
X165349000Y-104760000D02*
X165349000Y-105546000D01*
X166830000Y-104760000D02*
X166830000Y-106276000D01*
X165789000Y-101545000D02*
X165789000Y-102680000D01*
X165789000Y-104760000D02*
X165789000Y-105895000D01*
X165909000Y-104760000D02*
X165909000Y-105967000D01*
X166309000Y-104760000D02*
X166309000Y-106148000D01*
X165469000Y-101783000D02*
X165469000Y-102680000D01*
X167070000Y-104760000D02*
X167070000Y-106298000D01*
X165589000Y-104760000D02*
X165589000Y-105755000D01*
X166830000Y-101164000D02*
X166830000Y-102680000D01*
X165229000Y-104760000D02*
X165229000Y-105419000D01*
X165029000Y-102277000D02*
X165029000Y-105163000D01*
X169744775Y-101995000D02*
X169744775Y-102495000D01*
X166189000Y-104760000D02*
X166189000Y-106102000D01*
X166990000Y-104760000D02*
X166990000Y-106293000D01*
X165949000Y-104760000D02*
X165949000Y-105988000D01*
X165389000Y-101856000D02*
X165389000Y-102680000D01*
X166029000Y-101410000D02*
X166029000Y-102680000D01*
X164949000Y-102401000D02*
X164949000Y-105039000D01*
X165589000Y-101685000D02*
X165589000Y-102680000D01*
X165069000Y-102220000D02*
X165069000Y-105220000D01*
X165269000Y-101977000D02*
X165269000Y-102680000D01*
X166990000Y-101147000D02*
X166990000Y-102680000D01*
X166790000Y-104760000D02*
X166790000Y-106270000D01*
X164909000Y-102469000D02*
X164909000Y-104971000D01*
X165829000Y-101520000D02*
X165829000Y-102680000D01*
X166750000Y-101177000D02*
X166750000Y-102680000D01*
X164869000Y-102542000D02*
X164869000Y-104898000D01*
X165749000Y-101571000D02*
X165749000Y-102680000D01*
X166550000Y-101219000D02*
X166550000Y-102680000D01*
X164789000Y-102709000D02*
X164789000Y-104731000D01*
X166469000Y-101240000D02*
X166469000Y-102680000D01*
X166149000Y-104760000D02*
X166149000Y-106085000D01*
X166510000Y-104760000D02*
X166510000Y-106211000D01*
X164669000Y-103043000D02*
X164669000Y-104397000D01*
X166069000Y-104760000D02*
X166069000Y-106049000D01*
X166349000Y-104760000D02*
X166349000Y-106162000D01*
X167030000Y-104760000D02*
X167030000Y-106296000D01*
X169810000Y-103720000D02*
G75*
G03*
X169810000Y-103720000I-2620000J0D01*
G01*
G04 #@! TO.C,R6*
X186360000Y-68480000D02*
X185590000Y-68480000D01*
X185590000Y-67110000D02*
X185590000Y-69850000D01*
X179050000Y-67110000D02*
X185590000Y-67110000D01*
X178280000Y-68480000D02*
X179050000Y-68480000D01*
X185590000Y-69850000D02*
X179050000Y-69850000D01*
X179050000Y-69850000D02*
X179050000Y-67110000D01*
G04 #@! TO.C,J3*
X189240000Y-57250000D02*
X187910000Y-57250000D01*
X187910000Y-59850000D02*
X187910000Y-64990000D01*
X190570000Y-64990000D02*
X187910000Y-64990000D01*
X190570000Y-59850000D02*
X187910000Y-59850000D01*
X190570000Y-59850000D02*
X190570000Y-64990000D01*
X187910000Y-57250000D02*
X187910000Y-58580000D01*
G04 #@! TO.C,R4*
X198630000Y-62200000D02*
X198630000Y-55660000D01*
X201370000Y-62200000D02*
X198630000Y-62200000D01*
X198630000Y-55660000D02*
X201370000Y-55660000D01*
X200000000Y-54890000D02*
X200000000Y-55660000D01*
X201370000Y-55660000D02*
X201370000Y-62200000D01*
X200000000Y-62970000D02*
X200000000Y-62200000D01*
G04 #@! TO.C,R3*
X196990000Y-96850000D02*
X190450000Y-96850000D01*
X196990000Y-94110000D02*
X196990000Y-96850000D01*
X189680000Y-95480000D02*
X190450000Y-95480000D01*
X197760000Y-95480000D02*
X196990000Y-95480000D01*
X190450000Y-94110000D02*
X196990000Y-94110000D01*
X190450000Y-96850000D02*
X190450000Y-94110000D01*
G04 #@! TO.C,R5*
X193210000Y-108910000D02*
X193210000Y-106170000D01*
X200520000Y-107540000D02*
X199750000Y-107540000D01*
X199750000Y-108910000D02*
X193210000Y-108910000D01*
X193210000Y-106170000D02*
X199750000Y-106170000D01*
X199750000Y-106170000D02*
X199750000Y-108910000D01*
X192440000Y-107540000D02*
X193210000Y-107540000D01*
G04 #@! TO.C,C6*
X199810000Y-87870000D02*
X191570000Y-87870000D01*
X191570000Y-86506000D02*
X191570000Y-87870000D01*
X199810000Y-82630000D02*
X199810000Y-83994000D01*
X199810000Y-82630000D02*
X191570000Y-82630000D01*
X199810000Y-86506000D02*
X199810000Y-87870000D01*
X191570000Y-82630000D02*
X191570000Y-83994000D01*
G04 #@! TO.C,R1*
X177320000Y-96860000D02*
X177320000Y-94120000D01*
X184630000Y-95490000D02*
X183860000Y-95490000D01*
X183860000Y-96860000D02*
X177320000Y-96860000D01*
X183860000Y-94120000D02*
X183860000Y-96860000D01*
X177320000Y-94120000D02*
X183860000Y-94120000D01*
X176550000Y-95490000D02*
X177320000Y-95490000D01*
G04 #@! TO.C,J6*
X173925000Y-69545000D02*
X172595000Y-69545000D01*
X175255000Y-72145000D02*
X172595000Y-72145000D01*
X175255000Y-72145000D02*
X175255000Y-77285000D01*
X175255000Y-77285000D02*
X172595000Y-77285000D01*
X172595000Y-72145000D02*
X172595000Y-77285000D01*
X172595000Y-69545000D02*
X172595000Y-70875000D01*
G04 #@! TO.C,R2*
X177120000Y-108830000D02*
X177120000Y-106090000D01*
X177120000Y-106090000D02*
X183660000Y-106090000D01*
X183660000Y-106090000D02*
X183660000Y-108830000D01*
X184430000Y-107460000D02*
X183660000Y-107460000D01*
X183660000Y-108830000D02*
X177120000Y-108830000D01*
X176350000Y-107460000D02*
X177120000Y-107460000D01*
G04 #@! TO.C,C3*
X184090000Y-45935000D02*
X184090000Y-45269000D01*
X189430000Y-45935000D02*
X189430000Y-45269000D01*
X184090000Y-48711000D02*
X189430000Y-48711000D01*
X184090000Y-45269000D02*
X189430000Y-45269000D01*
X189430000Y-48711000D02*
X189430000Y-48045000D01*
X184090000Y-48711000D02*
X184090000Y-48045000D01*
G04 #@! TD*
M02*
