G04 #@! TF.GenerationSoftware,KiCad,Pcbnew,(6.0.4)*
G04 #@! TF.CreationDate,2023-10-17T09:27:22+07:00*
G04 #@! TF.ProjectId,09-Prototype-Final-BugFixing,30392d50-726f-4746-9f74-7970652d4669,rev?*
G04 #@! TF.SameCoordinates,Original*
G04 #@! TF.FileFunction,Legend,Top*
G04 #@! TF.FilePolarity,Positive*
%FSLAX46Y46*%
G04 Gerber Fmt 4.6, Leading zero omitted, Abs format (unit mm)*
G04 Created by KiCad (PCBNEW (6.0.4)) date 2023-10-17 09:27:22*
%MOMM*%
%LPD*%
G01*
G04 APERTURE LIST*
%ADD10C,0.150000*%
%ADD11C,0.120000*%
%ADD12C,0.100000*%
G04 APERTURE END LIST*
D10*
G04 #@! TO.C,J5*
X196516666Y-102957380D02*
X196516666Y-103671666D01*
X196469047Y-103814523D01*
X196373809Y-103909761D01*
X196230952Y-103957380D01*
X196135714Y-103957380D01*
X197469047Y-102957380D02*
X196992857Y-102957380D01*
X196945238Y-103433571D01*
X196992857Y-103385952D01*
X197088095Y-103338333D01*
X197326190Y-103338333D01*
X197421428Y-103385952D01*
X197469047Y-103433571D01*
X197516666Y-103528809D01*
X197516666Y-103766904D01*
X197469047Y-103862142D01*
X197421428Y-103909761D01*
X197326190Y-103957380D01*
X197088095Y-103957380D01*
X196992857Y-103909761D01*
X196945238Y-103862142D01*
G04 #@! TO.C,R7*
X167143333Y-94992380D02*
X166810000Y-94516190D01*
X166571904Y-94992380D02*
X166571904Y-93992380D01*
X166952857Y-93992380D01*
X167048095Y-94040000D01*
X167095714Y-94087619D01*
X167143333Y-94182857D01*
X167143333Y-94325714D01*
X167095714Y-94420952D01*
X167048095Y-94468571D01*
X166952857Y-94516190D01*
X166571904Y-94516190D01*
X167476666Y-93992380D02*
X168143333Y-93992380D01*
X167714761Y-94992380D01*
G04 #@! TO.C,C7*
X153627142Y-93956666D02*
X153674761Y-94004285D01*
X153722380Y-94147142D01*
X153722380Y-94242380D01*
X153674761Y-94385238D01*
X153579523Y-94480476D01*
X153484285Y-94528095D01*
X153293809Y-94575714D01*
X153150952Y-94575714D01*
X152960476Y-94528095D01*
X152865238Y-94480476D01*
X152770000Y-94385238D01*
X152722380Y-94242380D01*
X152722380Y-94147142D01*
X152770000Y-94004285D01*
X152817619Y-93956666D01*
X152722380Y-93623333D02*
X152722380Y-92956666D01*
X153722380Y-93385238D01*
G04 #@! TO.C,J2*
X151771666Y-76877380D02*
X151771666Y-77591666D01*
X151724047Y-77734523D01*
X151628809Y-77829761D01*
X151485952Y-77877380D01*
X151390714Y-77877380D01*
X152200238Y-76972619D02*
X152247857Y-76925000D01*
X152343095Y-76877380D01*
X152581190Y-76877380D01*
X152676428Y-76925000D01*
X152724047Y-76972619D01*
X152771666Y-77067857D01*
X152771666Y-77163095D01*
X152724047Y-77305952D01*
X152152619Y-77877380D01*
X152771666Y-77877380D01*
G04 #@! TO.C,U5*
X161942380Y-78011904D02*
X162751904Y-78011904D01*
X162847142Y-77964285D01*
X162894761Y-77916666D01*
X162942380Y-77821428D01*
X162942380Y-77630952D01*
X162894761Y-77535714D01*
X162847142Y-77488095D01*
X162751904Y-77440476D01*
X161942380Y-77440476D01*
X161942380Y-76488095D02*
X161942380Y-76964285D01*
X162418571Y-77011904D01*
X162370952Y-76964285D01*
X162323333Y-76869047D01*
X162323333Y-76630952D01*
X162370952Y-76535714D01*
X162418571Y-76488095D01*
X162513809Y-76440476D01*
X162751904Y-76440476D01*
X162847142Y-76488095D01*
X162894761Y-76535714D01*
X162942380Y-76630952D01*
X162942380Y-76869047D01*
X162894761Y-76964285D01*
X162847142Y-77011904D01*
G04 #@! TO.C,U6*
X167428095Y-102447380D02*
X167428095Y-103256904D01*
X167475714Y-103352142D01*
X167523333Y-103399761D01*
X167618571Y-103447380D01*
X167809047Y-103447380D01*
X167904285Y-103399761D01*
X167951904Y-103352142D01*
X167999523Y-103256904D01*
X167999523Y-102447380D01*
X168904285Y-102447380D02*
X168713809Y-102447380D01*
X168618571Y-102495000D01*
X168570952Y-102542619D01*
X168475714Y-102685476D01*
X168428095Y-102875952D01*
X168428095Y-103256904D01*
X168475714Y-103352142D01*
X168523333Y-103399761D01*
X168618571Y-103447380D01*
X168809047Y-103447380D01*
X168904285Y-103399761D01*
X168951904Y-103352142D01*
X168999523Y-103256904D01*
X168999523Y-103018809D01*
X168951904Y-102923571D01*
X168904285Y-102875952D01*
X168809047Y-102828333D01*
X168618571Y-102828333D01*
X168523333Y-102875952D01*
X168475714Y-102923571D01*
X168428095Y-103018809D01*
G04 #@! TO.C,J4*
X180133666Y-102830380D02*
X180133666Y-103544666D01*
X180086047Y-103687523D01*
X179990809Y-103782761D01*
X179847952Y-103830380D01*
X179752714Y-103830380D01*
X181038428Y-103163714D02*
X181038428Y-103830380D01*
X180800333Y-102782761D02*
X180562238Y-103497047D01*
X181181285Y-103497047D01*
G04 #@! TO.C,U3*
X164437619Y-52428095D02*
X163628095Y-52428095D01*
X163532857Y-52475714D01*
X163485238Y-52523333D01*
X163437619Y-52618571D01*
X163437619Y-52809047D01*
X163485238Y-52904285D01*
X163532857Y-52951904D01*
X163628095Y-52999523D01*
X164437619Y-52999523D01*
X164437619Y-53380476D02*
X164437619Y-53999523D01*
X164056666Y-53666190D01*
X164056666Y-53809047D01*
X164009047Y-53904285D01*
X163961428Y-53951904D01*
X163866190Y-53999523D01*
X163628095Y-53999523D01*
X163532857Y-53951904D01*
X163485238Y-53904285D01*
X163437619Y-53809047D01*
X163437619Y-53523333D01*
X163485238Y-53428095D01*
X163532857Y-53380476D01*
G04 #@! TO.C,R8*
X167223333Y-107902380D02*
X166890000Y-107426190D01*
X166651904Y-107902380D02*
X166651904Y-106902380D01*
X167032857Y-106902380D01*
X167128095Y-106950000D01*
X167175714Y-106997619D01*
X167223333Y-107092857D01*
X167223333Y-107235714D01*
X167175714Y-107330952D01*
X167128095Y-107378571D01*
X167032857Y-107426190D01*
X166651904Y-107426190D01*
X167794761Y-107330952D02*
X167699523Y-107283333D01*
X167651904Y-107235714D01*
X167604285Y-107140476D01*
X167604285Y-107092857D01*
X167651904Y-106997619D01*
X167699523Y-106950000D01*
X167794761Y-106902380D01*
X167985238Y-106902380D01*
X168080476Y-106950000D01*
X168128095Y-106997619D01*
X168175714Y-107092857D01*
X168175714Y-107140476D01*
X168128095Y-107235714D01*
X168080476Y-107283333D01*
X167985238Y-107330952D01*
X167794761Y-107330952D01*
X167699523Y-107378571D01*
X167651904Y-107426190D01*
X167604285Y-107521428D01*
X167604285Y-107711904D01*
X167651904Y-107807142D01*
X167699523Y-107854761D01*
X167794761Y-107902380D01*
X167985238Y-107902380D01*
X168080476Y-107854761D01*
X168128095Y-107807142D01*
X168175714Y-107711904D01*
X168175714Y-107521428D01*
X168128095Y-107426190D01*
X168080476Y-107378571D01*
X167985238Y-107330952D01*
G04 #@! TO.C,U1*
X187341095Y-80378380D02*
X187341095Y-81187904D01*
X187388714Y-81283142D01*
X187436333Y-81330761D01*
X187531571Y-81378380D01*
X187722047Y-81378380D01*
X187817285Y-81330761D01*
X187864904Y-81283142D01*
X187912523Y-81187904D01*
X187912523Y-80378380D01*
X188912523Y-81378380D02*
X188341095Y-81378380D01*
X188626809Y-81378380D02*
X188626809Y-80378380D01*
X188531571Y-80521238D01*
X188436333Y-80616476D01*
X188341095Y-80664095D01*
D11*
G04 #@! TO.C,R7*
X164040000Y-93160000D02*
X164040000Y-95900000D01*
X170580000Y-93160000D02*
X164040000Y-93160000D01*
X163270000Y-94530000D02*
X164040000Y-94530000D01*
X170580000Y-95900000D02*
X170580000Y-93160000D01*
X171350000Y-94530000D02*
X170580000Y-94530000D01*
X164040000Y-95900000D02*
X170580000Y-95900000D01*
G04 #@! TO.C,C7*
X157585888Y-91330000D02*
X157585888Y-92770000D01*
X159385888Y-93133000D02*
X159385888Y-94487000D01*
X158345888Y-91688000D02*
X158345888Y-92770000D01*
X157224888Y-91254000D02*
X157224888Y-92770000D01*
X157064888Y-91237000D02*
X157064888Y-92770000D01*
X157344888Y-91274000D02*
X157344888Y-92770000D01*
X158465888Y-94850000D02*
X158465888Y-95845000D01*
X158665888Y-94850000D02*
X158665888Y-95674000D01*
X157625888Y-94850000D02*
X157625888Y-96278000D01*
X158065888Y-91520000D02*
X158065888Y-92770000D01*
X157184888Y-91249000D02*
X157184888Y-92770000D01*
X157424888Y-94850000D02*
X157424888Y-96330000D01*
X158625888Y-91909000D02*
X158625888Y-92770000D01*
X156904888Y-94850000D02*
X156904888Y-96390000D01*
X157825888Y-91412000D02*
X157825888Y-92770000D01*
X158305888Y-91661000D02*
X158305888Y-92770000D01*
X157945888Y-91462000D02*
X157945888Y-92770000D01*
X157304888Y-94850000D02*
X157304888Y-96353000D01*
X158705888Y-94850000D02*
X158705888Y-95636000D01*
X157705888Y-94850000D02*
X157705888Y-96252000D01*
X158745888Y-94850000D02*
X158745888Y-95595000D01*
X157144888Y-91245000D02*
X157144888Y-92770000D01*
X158905888Y-92205000D02*
X158905888Y-95415000D01*
X158145888Y-91563000D02*
X158145888Y-92770000D01*
X157985888Y-94850000D02*
X157985888Y-96139000D01*
X157224888Y-94850000D02*
X157224888Y-96366000D01*
X159105888Y-92491000D02*
X159105888Y-95129000D01*
X159465888Y-93526000D02*
X159465888Y-94094000D01*
X158225888Y-91610000D02*
X158225888Y-92770000D01*
X159425888Y-93292000D02*
X159425888Y-94328000D01*
X157785888Y-94850000D02*
X157785888Y-96224000D01*
X157104888Y-94850000D02*
X157104888Y-96379000D01*
X157865888Y-91428000D02*
X157865888Y-92770000D01*
X158785888Y-94850000D02*
X158785888Y-95553000D01*
X157104888Y-91241000D02*
X157104888Y-92770000D01*
X158425888Y-94850000D02*
X158425888Y-95875000D01*
X157024888Y-94850000D02*
X157024888Y-96386000D01*
X157745888Y-91382000D02*
X157745888Y-92770000D01*
X157705888Y-91368000D02*
X157705888Y-92770000D01*
X158745888Y-92025000D02*
X158745888Y-92770000D01*
X157464888Y-91299000D02*
X157464888Y-92770000D01*
X157544888Y-91319000D02*
X157544888Y-92770000D01*
X157024888Y-91234000D02*
X157024888Y-92770000D01*
X158625888Y-94850000D02*
X158625888Y-95711000D01*
X158545888Y-94850000D02*
X158545888Y-95781000D01*
X158585888Y-91873000D02*
X158585888Y-92770000D01*
X158945888Y-92256000D02*
X158945888Y-95364000D01*
X157424888Y-91290000D02*
X157424888Y-92770000D01*
X159345888Y-93005000D02*
X159345888Y-94615000D01*
X157504888Y-91309000D02*
X157504888Y-92770000D01*
X157384888Y-91282000D02*
X157384888Y-92770000D01*
X154310113Y-92085000D02*
X154310113Y-92585000D01*
X159185888Y-92632000D02*
X159185888Y-94988000D01*
X158265888Y-91635000D02*
X158265888Y-92770000D01*
X158065888Y-94850000D02*
X158065888Y-96100000D01*
X159145888Y-92559000D02*
X159145888Y-95061000D01*
X156984888Y-94850000D02*
X156984888Y-96388000D01*
X156904888Y-91230000D02*
X156904888Y-92770000D01*
X158825888Y-92111000D02*
X158825888Y-92770000D01*
X159225888Y-92712000D02*
X159225888Y-94908000D01*
X156864888Y-91230000D02*
X156864888Y-92770000D01*
X158545888Y-91839000D02*
X158545888Y-92770000D01*
X159265888Y-92799000D02*
X159265888Y-94821000D01*
X156984888Y-91232000D02*
X156984888Y-92770000D01*
X158505888Y-94850000D02*
X158505888Y-95814000D01*
X158385888Y-94850000D02*
X158385888Y-95905000D01*
X157745888Y-94850000D02*
X157745888Y-96238000D01*
X157865888Y-94850000D02*
X157865888Y-96192000D01*
X157785888Y-91396000D02*
X157785888Y-92770000D01*
X158785888Y-92067000D02*
X158785888Y-92770000D01*
X158265888Y-94850000D02*
X158265888Y-95985000D01*
X158825888Y-94850000D02*
X158825888Y-95509000D01*
X158025888Y-91500000D02*
X158025888Y-92770000D01*
X158505888Y-91806000D02*
X158505888Y-92770000D01*
X158225888Y-94850000D02*
X158225888Y-96010000D01*
X157264888Y-91260000D02*
X157264888Y-92770000D01*
X158345888Y-94850000D02*
X158345888Y-95932000D01*
X159065888Y-92427000D02*
X159065888Y-95193000D01*
X157144888Y-94850000D02*
X157144888Y-96375000D01*
X157585888Y-94850000D02*
X157585888Y-96290000D01*
X158025888Y-94850000D02*
X158025888Y-96120000D01*
X156944888Y-94850000D02*
X156944888Y-96389000D01*
X156944888Y-91231000D02*
X156944888Y-92770000D01*
X157544888Y-94850000D02*
X157544888Y-96301000D01*
X158305888Y-94850000D02*
X158305888Y-95959000D01*
X157985888Y-91481000D02*
X157985888Y-92770000D01*
X157184888Y-94850000D02*
X157184888Y-96371000D01*
X158425888Y-91745000D02*
X158425888Y-92770000D01*
X158865888Y-92157000D02*
X158865888Y-92770000D01*
X158185888Y-94850000D02*
X158185888Y-96034000D01*
X157905888Y-91445000D02*
X157905888Y-92770000D01*
X158465888Y-91775000D02*
X158465888Y-92770000D01*
X154060113Y-92335000D02*
X154560113Y-92335000D01*
X158145888Y-94850000D02*
X158145888Y-96057000D01*
X157905888Y-94850000D02*
X157905888Y-96175000D01*
X158385888Y-91715000D02*
X158385888Y-92770000D01*
X157264888Y-94850000D02*
X157264888Y-96360000D01*
X157625888Y-91342000D02*
X157625888Y-92770000D01*
X157064888Y-94850000D02*
X157064888Y-96383000D01*
X157304888Y-91267000D02*
X157304888Y-92770000D01*
X157825888Y-94850000D02*
X157825888Y-96208000D01*
X158585888Y-94850000D02*
X158585888Y-95747000D01*
X158865888Y-94850000D02*
X158865888Y-95463000D01*
X158665888Y-91946000D02*
X158665888Y-92770000D01*
X157665888Y-91355000D02*
X157665888Y-92770000D01*
X157504888Y-94850000D02*
X157504888Y-96311000D01*
X158185888Y-91586000D02*
X158185888Y-92770000D01*
X158985888Y-92310000D02*
X158985888Y-95310000D01*
X157665888Y-94850000D02*
X157665888Y-96265000D01*
X156864888Y-94850000D02*
X156864888Y-96390000D01*
X158705888Y-91984000D02*
X158705888Y-92770000D01*
X157384888Y-94850000D02*
X157384888Y-96338000D01*
X159025888Y-92367000D02*
X159025888Y-95253000D01*
X158105888Y-91542000D02*
X158105888Y-92770000D01*
X157945888Y-94850000D02*
X157945888Y-96158000D01*
X157344888Y-94850000D02*
X157344888Y-96346000D01*
X159305888Y-92895000D02*
X159305888Y-94725000D01*
X157464888Y-94850000D02*
X157464888Y-96321000D01*
X158105888Y-94850000D02*
X158105888Y-96078000D01*
X159484888Y-93810000D02*
G75*
G03*
X159484888Y-93810000I-2620000J0D01*
G01*
G04 #@! TO.C,J1*
X151160500Y-98764000D02*
X153760500Y-98764000D01*
X157660500Y-98764000D02*
X160360500Y-98764000D01*
X150960500Y-99614000D02*
X150960500Y-98564000D01*
X160360500Y-104664000D02*
X160360500Y-113464000D01*
X151160500Y-113464000D02*
X151160500Y-98764000D01*
X160360500Y-98764000D02*
X160360500Y-100664000D01*
X152010500Y-98564000D02*
X150960500Y-98564000D01*
X160360500Y-113464000D02*
X151160500Y-113464000D01*
G04 #@! TO.C,J2*
X153435000Y-68245000D02*
X150775000Y-68245000D01*
X150775000Y-75985000D02*
X150775000Y-74655000D01*
X152105000Y-75985000D02*
X150775000Y-75985000D01*
X153435000Y-73385000D02*
X150775000Y-73385000D01*
X153435000Y-73385000D02*
X153435000Y-68245000D01*
X150775000Y-73385000D02*
X150775000Y-68245000D01*
G04 #@! TO.C,U5*
X157240000Y-84870000D02*
X168740000Y-84870000D01*
X168740000Y-84870000D02*
X168740000Y-69630000D01*
X168740000Y-69630000D02*
X157240000Y-69630000D01*
X157240000Y-69630000D02*
X157240000Y-84870000D01*
G04 #@! TO.C,U6*
X173310000Y-97354000D02*
X163070000Y-97354000D01*
X173310000Y-101995000D02*
X163070000Y-101995000D01*
X166339000Y-101995000D02*
X166339000Y-100485000D01*
X163070000Y-101995000D02*
X163070000Y-97354000D01*
X170040000Y-101995000D02*
X170040000Y-100485000D01*
X173310000Y-100485000D02*
X163070000Y-100485000D01*
X173310000Y-101995000D02*
X173310000Y-97354000D01*
G04 #@! TO.C,R8*
X164120000Y-108810000D02*
X170660000Y-108810000D01*
X164120000Y-106070000D02*
X164120000Y-108810000D01*
X170660000Y-108810000D02*
X170660000Y-106070000D01*
X170660000Y-106070000D02*
X164120000Y-106070000D01*
X163350000Y-107440000D02*
X164120000Y-107440000D01*
X171430000Y-107440000D02*
X170660000Y-107440000D01*
G04 #@! TO.C,U1*
X186215137Y-65785506D02*
X186208399Y-65762842D01*
X184943623Y-67493210D02*
X185034185Y-67503743D01*
X191080000Y-40710000D02*
X185380000Y-40710000D01*
X188314498Y-72128324D02*
X188414498Y-72128324D01*
X187217609Y-67790244D02*
X187282570Y-67804603D01*
X197120000Y-41810000D02*
X197120000Y-92610000D01*
X192324296Y-69632739D02*
X191617189Y-68925632D01*
X186210222Y-65832287D02*
X186215137Y-65785506D01*
X192889981Y-65390099D02*
X192182874Y-66097205D01*
X184437100Y-82732807D02*
X184437718Y-82732809D01*
X187151348Y-67794728D02*
X187217609Y-67790244D01*
X186532489Y-68977539D02*
X186770458Y-69215508D01*
X187398459Y-67869465D02*
X187498174Y-67957886D01*
X185688125Y-65987209D02*
X186308118Y-66427875D01*
X187142815Y-68323232D02*
X187030801Y-68191107D01*
X189448198Y-50141801D02*
X189448198Y-50778198D01*
X193264245Y-67178576D02*
X193264245Y-67278576D01*
X187498174Y-67957886D02*
X187586220Y-68057084D01*
X193243534Y-65743652D02*
X193031402Y-65531520D01*
X186705335Y-65599978D02*
X186690050Y-65448478D01*
X179280000Y-92670000D02*
X179280000Y-44350000D01*
X191804857Y-41025241D02*
X192082612Y-40710000D01*
X192889981Y-69067054D02*
X192677849Y-69279186D01*
X193243534Y-65743652D02*
X192536428Y-66450759D01*
X192237718Y-82732809D02*
X192238337Y-82732807D01*
X184758253Y-64470860D02*
X185465360Y-65177967D01*
X190768661Y-71188374D02*
X190061554Y-70481267D01*
X187666884Y-68236539D02*
X187664126Y-68302564D01*
X186408451Y-65928751D02*
X186348152Y-65933606D01*
X192536428Y-69420607D02*
X191829321Y-68713500D01*
X191070000Y-53600000D02*
X191070000Y-49860000D01*
X187923649Y-67744246D02*
X187899139Y-67726296D01*
X191988198Y-53318198D02*
X191351801Y-53318198D01*
X191926410Y-46360000D02*
X184533589Y-46360000D01*
X187923649Y-67744246D02*
X187899139Y-67726296D01*
X187142815Y-68323232D02*
X187030801Y-68191107D01*
X189708000Y-72249034D02*
X189495868Y-72461166D01*
X189295368Y-65688154D02*
X189384607Y-65962243D01*
X193370000Y-86200000D02*
X183090000Y-86200000D01*
X192270000Y-53600000D02*
X191070000Y-53600000D01*
X188769394Y-66346286D02*
X188674207Y-66251099D01*
X187486026Y-68482241D02*
X187420594Y-68487266D01*
X183717533Y-53282277D02*
X183717533Y-50482277D01*
X188959769Y-65965536D02*
X189054956Y-66060724D01*
X185981761Y-65951938D02*
X185941271Y-65880832D01*
X187651233Y-68172190D02*
X187666884Y-68236539D01*
X187639035Y-68363696D02*
X187597717Y-68415445D01*
X187597717Y-68415445D02*
X187546418Y-68456557D01*
X185952015Y-66783979D02*
X185507418Y-66558652D01*
X189495868Y-72461166D02*
X188788762Y-71754060D01*
X189448198Y-53318198D02*
X188811801Y-53318198D01*
X186472298Y-65387327D02*
X186475551Y-65439758D01*
X187233127Y-72461166D02*
X187940233Y-71754060D01*
X184444188Y-81823851D02*
X184630774Y-81823851D01*
X192102215Y-41060469D02*
X191917340Y-40897578D01*
X187523777Y-68226132D02*
X187465817Y-68122677D01*
X187402987Y-68053074D02*
X187281389Y-67952563D01*
X184758253Y-64470860D02*
X184546121Y-64682992D01*
X185111806Y-70339846D02*
X185818913Y-69632739D01*
X187089733Y-67819572D02*
X187151348Y-67794728D01*
X187134953Y-67953531D02*
X187112581Y-67987552D01*
X188165003Y-66956234D02*
X188070255Y-67018229D01*
X193031402Y-68925632D02*
X192324296Y-68218526D01*
X183697593Y-65531520D02*
X184404700Y-66238627D01*
X191430000Y-41360000D02*
X191426410Y-41359936D01*
X192840000Y-54270000D02*
X190500000Y-54270000D01*
X187207089Y-67927809D02*
X187168056Y-67932479D01*
X187859000Y-50311170D02*
X187859000Y-50345124D01*
X192940000Y-54570000D02*
X192940000Y-54170000D01*
X184846311Y-66829023D02*
X185131874Y-66543460D01*
X191475767Y-70481267D02*
X191263635Y-70693399D01*
X190415107Y-62915225D02*
X190202975Y-62703093D01*
X185128398Y-67214959D02*
X185198483Y-67262784D01*
X184404700Y-64824413D02*
X185111806Y-65531520D01*
X184546121Y-64682992D02*
X185253228Y-65390099D01*
X189708000Y-72249034D02*
X189000894Y-71541928D01*
X186497112Y-65341400D02*
X186472298Y-65387327D01*
X185928962Y-65817762D02*
X185949459Y-65717095D01*
X192337718Y-79332809D02*
X192337718Y-82632809D01*
X187020995Y-72249034D02*
X187728101Y-71541928D01*
X187411266Y-67505259D02*
X187458654Y-67439455D01*
X184538513Y-41359669D02*
X184540103Y-41360000D01*
X186879573Y-72107613D02*
X186667441Y-71895481D01*
X184910159Y-67627174D02*
X184943623Y-67493210D01*
X193597088Y-68359947D02*
X192889981Y-67652840D01*
X187233127Y-61995986D02*
X187940233Y-62703093D01*
X191122214Y-70834821D02*
X190910082Y-71046953D01*
X186335315Y-68780365D02*
X186437301Y-68882352D01*
X191351801Y-55858198D02*
X191351801Y-55221801D01*
X187390769Y-67605926D02*
X187411266Y-67505259D01*
X188811801Y-50141801D02*
X189448198Y-50141801D01*
X187151348Y-67794728D02*
X187217609Y-67790244D01*
X185253228Y-70481267D02*
X185960334Y-69774161D01*
X184830755Y-67206718D02*
X184892524Y-67203080D01*
X191122214Y-63622332D02*
X190910082Y-63410200D01*
X189298449Y-66129140D02*
X189168416Y-65729692D01*
X186076949Y-65856751D02*
X185981761Y-65951938D01*
X185253228Y-63975885D02*
X185960334Y-64682992D01*
X192640000Y-56810000D02*
X192940000Y-56510000D01*
X191988198Y-55221801D02*
X191988198Y-55858198D01*
X190202975Y-71754060D02*
X189495868Y-71046953D01*
X187672029Y-67620451D02*
X187676944Y-67573670D01*
X193597088Y-66097205D02*
X193384956Y-65885073D01*
X184752080Y-67206692D02*
X184830755Y-67206718D01*
X186695667Y-68814361D02*
X186532489Y-68977539D01*
X187133847Y-68103989D02*
X187239064Y-68229107D01*
X185131874Y-66733835D02*
X185567016Y-67168978D01*
X187860000Y-54170000D02*
X187860000Y-54570000D01*
X187390769Y-67605926D02*
X187411266Y-67505259D01*
X191351801Y-53318198D02*
X191351801Y-52681801D01*
X186467533Y-54782277D02*
X186467533Y-48982277D01*
X187978786Y-66919323D02*
X188152176Y-66815568D01*
X187860000Y-54570000D02*
X187860000Y-56510000D01*
X186498493Y-68617187D02*
X186335315Y-68780365D01*
X191263635Y-63763753D02*
X190556529Y-64470860D01*
X186372017Y-48882378D02*
X186367533Y-48882277D01*
X189299724Y-66686241D02*
X188864581Y-66251099D01*
X187133847Y-68103989D02*
X187239064Y-68229107D01*
X186437301Y-68882352D02*
X186600480Y-68719173D01*
X190061554Y-71895481D02*
X189849422Y-72107613D01*
X189730000Y-53600000D02*
X188530000Y-53600000D01*
X191122214Y-70834821D02*
X190415107Y-70127714D01*
X186555330Y-68369976D02*
X186702466Y-68222839D01*
X184770728Y-41260000D02*
X184515072Y-41260000D01*
X188654872Y-67034058D02*
X188592608Y-66925031D01*
X179280000Y-43080000D02*
X179280000Y-41750000D01*
X191988198Y-52681801D02*
X191988198Y-53318198D01*
X187651233Y-68172190D02*
X187666884Y-68236539D01*
X191475767Y-70481267D02*
X190768661Y-69774161D01*
X190768661Y-63268778D02*
X190556529Y-63056646D01*
X191070000Y-49860000D02*
X192270000Y-49860000D01*
X188520483Y-67148049D02*
X188659227Y-67151449D01*
X183344039Y-68572079D02*
X184051146Y-67864972D01*
X187546418Y-68456557D02*
X187486026Y-68482241D01*
X190300000Y-54270000D02*
X190300000Y-49201400D01*
X191988198Y-50778198D02*
X191351801Y-50778198D01*
X187586220Y-68057084D02*
X187651233Y-68172190D01*
X185606781Y-63622332D02*
X186313888Y-64329438D01*
X187432121Y-68348209D02*
X187470038Y-68341859D01*
X193243534Y-68713500D02*
X193031402Y-68925632D01*
X185617533Y-54732277D02*
X183817533Y-54732277D01*
X188864581Y-66251099D02*
X188769394Y-66346286D01*
X185949459Y-65717095D02*
X185996847Y-65651290D01*
X187282570Y-67804603D02*
X187398459Y-67869465D01*
X192238666Y-82732804D02*
X192237718Y-82732809D01*
X192238337Y-79232811D02*
X192237718Y-79232809D01*
X187465817Y-68122677D02*
X187402987Y-68053074D01*
X185507418Y-66558652D02*
X185785862Y-66950132D01*
X186313888Y-71541928D02*
X187020995Y-70834821D01*
X185617533Y-53382277D02*
X183817533Y-53382277D01*
X185130000Y-40914789D02*
X185130000Y-41260000D01*
X191617189Y-64117306D02*
X190910082Y-64824413D01*
X187241315Y-68410602D02*
X187142815Y-68323232D01*
X187117212Y-65618782D02*
X186763658Y-65972336D01*
X186705335Y-65599978D02*
X186690050Y-65448478D01*
X185949459Y-65717095D02*
X185996847Y-65651290D01*
X188592608Y-66925031D02*
X188589112Y-66825729D01*
X192082612Y-40710000D02*
X192267487Y-40872892D01*
X183697593Y-68925632D02*
X183485461Y-68713500D01*
X187546418Y-68456557D02*
X187486026Y-68482241D01*
X186472298Y-65387327D02*
X186475551Y-65439758D01*
X193384956Y-68572079D02*
X192677849Y-67864972D01*
X186308118Y-66427875D02*
X186211762Y-66524231D01*
X184899674Y-64329438D02*
X185606781Y-65036545D01*
X187538756Y-67644915D02*
X187443569Y-67740102D01*
X186526020Y-71754060D02*
X187233127Y-71046953D01*
X188811801Y-55858198D02*
X188811801Y-55221801D01*
X187860000Y-54170000D02*
X187860000Y-49290000D01*
X191919896Y-41360000D02*
X191430000Y-41360000D01*
X188589112Y-66825729D02*
X188496495Y-66803372D01*
X186461842Y-65956081D02*
X186437332Y-65938131D01*
X187586220Y-68057084D02*
X187651233Y-68172190D01*
X186600480Y-68719173D02*
X186695667Y-68814361D01*
X187241315Y-68410602D02*
X187142815Y-68323232D01*
X191926410Y-41354425D02*
X191926410Y-46360000D01*
X190202975Y-62703093D02*
X189495868Y-63410200D01*
X184717872Y-67190119D02*
X184735741Y-67202121D01*
X186246927Y-65999532D02*
X186158538Y-65911144D01*
X186982776Y-67943010D02*
X187037429Y-67860680D01*
X185347426Y-66327907D02*
X185838343Y-66576818D01*
X185981761Y-65951938D02*
X185941271Y-65880832D01*
X185030774Y-80541767D02*
X185030774Y-81423851D01*
X186879573Y-62349539D02*
X186667441Y-62561671D01*
X185818913Y-71046953D02*
X185606781Y-70834821D01*
X183131907Y-68359947D02*
X183839014Y-67652840D01*
X192536428Y-65036545D02*
X191829321Y-65743652D01*
X188152176Y-66815568D02*
X188310667Y-66798639D01*
X185928962Y-65817762D02*
X185949459Y-65717095D01*
X188496495Y-66803372D02*
X188435282Y-66760075D01*
X194580000Y-41810000D02*
X197120000Y-41810000D01*
X186403306Y-68521999D02*
X186498493Y-68617187D01*
X186974537Y-68067840D02*
X186982776Y-67943010D01*
X192270000Y-49860000D02*
X192270000Y-53600000D01*
X191680011Y-46370000D02*
X184779988Y-46370000D01*
X190061554Y-62561671D02*
X189849422Y-62349539D01*
X186208399Y-65762842D02*
X186194871Y-65743503D01*
X185128398Y-67214959D02*
X185198483Y-67262784D01*
X187281389Y-67952563D02*
X187207089Y-67927809D01*
X184404700Y-69632739D02*
X184192568Y-69420607D01*
X187037429Y-67860680D02*
X187089733Y-67819572D01*
X191351801Y-50141801D02*
X191988198Y-50141801D01*
X186208399Y-65762842D02*
X186194871Y-65743503D01*
X188742729Y-66455603D02*
X188792435Y-66535782D01*
X187666884Y-68236539D02*
X187664126Y-68302564D01*
X185034185Y-67503743D02*
X185068932Y-67494597D01*
X191829321Y-64329438D02*
X191617189Y-64117306D01*
X192182874Y-69774161D02*
X191475767Y-69067054D01*
X185227061Y-66638648D02*
X185131874Y-66733835D01*
X188792435Y-66535782D02*
X188805514Y-66609327D01*
X183697593Y-68925632D02*
X184404700Y-68218526D01*
X189849422Y-72107613D02*
X189142315Y-71400506D01*
X191617189Y-70339846D02*
X190910082Y-69632739D01*
X188307586Y-66935152D02*
X188165003Y-66956234D01*
X185818913Y-63410200D02*
X185606781Y-63622332D01*
X186526020Y-62703093D02*
X186313888Y-62915225D01*
X191080000Y-40853395D02*
X185380000Y-40853395D01*
X186879573Y-62349539D02*
X187586680Y-63056646D01*
X186348152Y-65933606D02*
X186246927Y-65999532D01*
X187670206Y-67551006D02*
X187656678Y-67531667D01*
X187358762Y-68326368D02*
X187432121Y-68348209D01*
X192536428Y-69420607D02*
X192324296Y-69632739D01*
X186702466Y-68222839D02*
X187232797Y-68753169D01*
X191351801Y-50778198D02*
X191351801Y-50141801D01*
X190061554Y-71895481D02*
X189354447Y-71188374D01*
X187899139Y-67726296D02*
X187870258Y-67716916D01*
X187358762Y-68326368D02*
X187432121Y-68348209D01*
X185590282Y-66085052D02*
X185688125Y-65987209D01*
X184964997Y-67198084D02*
X185022026Y-67195962D01*
X187233127Y-61995986D02*
X187020995Y-62208118D01*
X188496495Y-66803372D02*
X188435282Y-66760075D01*
X188592608Y-66925031D02*
X188589112Y-66825729D01*
X185036686Y-66829023D02*
X184941499Y-66924210D01*
X185837718Y-79222809D02*
X185337718Y-79222809D01*
X185617533Y-49882277D02*
X183817533Y-49882277D01*
X176855000Y-93785000D02*
X176855000Y-40635000D01*
X184192512Y-40872892D02*
X184471166Y-41189153D01*
X187870258Y-67716916D02*
X187809959Y-67721770D01*
X191988198Y-50141801D02*
X191988198Y-50778198D01*
X191426410Y-41359936D02*
X191426410Y-46370000D01*
X192182874Y-64682992D02*
X191970742Y-64470860D01*
X188654872Y-67034058D02*
X188592608Y-66925031D01*
X187028823Y-65530394D02*
X187117212Y-65618782D01*
X193370000Y-88860000D02*
X193370000Y-86200000D01*
X186348152Y-65933606D02*
X186246927Y-65999532D01*
X188530000Y-53600000D02*
X188530000Y-49860000D01*
X192267487Y-40872892D02*
X191988833Y-41189153D01*
X184540103Y-41360000D02*
X185030000Y-41360000D01*
X187037429Y-67860680D02*
X187089733Y-67819572D01*
X191988198Y-55858198D02*
X191351801Y-55858198D01*
X186461842Y-65956081D02*
X186437332Y-65938131D01*
X191829321Y-70127714D02*
X191122214Y-69420607D01*
X190500000Y-49201400D02*
X190500000Y-54270000D01*
X185022026Y-67195962D02*
X185128398Y-67214959D01*
X187403079Y-67668996D02*
X187390769Y-67605926D01*
X181940000Y-92670000D02*
X179280000Y-92670000D01*
X193384956Y-65885073D02*
X192677849Y-66592180D01*
X192889981Y-65390099D02*
X192677849Y-65177967D01*
X191926410Y-41354425D02*
X191926427Y-41351500D01*
X187402987Y-68053074D02*
X187281389Y-67952563D01*
X187960000Y-49190000D02*
X192840000Y-49190000D01*
X185960334Y-63268778D02*
X186667441Y-63975885D01*
X193597088Y-68359947D02*
X193384956Y-68572079D01*
X184892524Y-67203080D02*
X184964997Y-67198084D01*
X186518891Y-65509996D02*
X186423703Y-65605184D01*
X187356271Y-68473761D02*
X187241315Y-68410602D01*
X192889981Y-69067054D02*
X192182874Y-68359947D01*
X199605000Y-40635000D02*
X199605000Y-93785000D01*
X189394912Y-66591054D02*
X189299724Y-66686241D01*
X187106047Y-68027725D02*
X187133847Y-68103989D01*
X187239064Y-68229107D02*
X187358762Y-68326368D01*
X179280000Y-44350000D02*
X181940000Y-44350000D01*
X183344039Y-65885073D02*
X184051146Y-66592180D01*
X190837718Y-79222809D02*
X191337718Y-79222809D01*
X188811801Y-52681801D02*
X189448198Y-52681801D01*
X186526020Y-71754060D02*
X186313888Y-71541928D01*
X184964997Y-67198084D02*
X185022026Y-67195962D01*
X186437332Y-65938131D02*
X186408451Y-65928751D01*
X190061554Y-62561671D02*
X189354447Y-63268778D01*
X187620345Y-67699308D02*
X187672029Y-67620451D01*
X185111806Y-64117306D02*
X184899674Y-64329438D01*
X189327659Y-66207483D02*
X189298449Y-66129140D01*
X188674207Y-66251099D02*
X188959769Y-65965536D01*
X185838343Y-66576818D02*
X185590282Y-66085052D01*
X186408451Y-65928751D02*
X186348152Y-65933606D01*
X183464750Y-67278576D02*
X183464750Y-67178576D01*
X193264245Y-67278576D02*
X188414498Y-72128324D01*
X188310667Y-66798639D02*
X188307586Y-66935152D01*
X185033589Y-41359936D02*
X185033589Y-46370000D01*
X185030000Y-41360000D02*
X185033589Y-41359936D01*
X184758253Y-69986293D02*
X185465360Y-69279186D01*
X188811801Y-50778198D02*
X188811801Y-50141801D01*
X186667441Y-62561671D02*
X187374548Y-63268778D01*
X187106047Y-68027725D02*
X187133847Y-68103989D01*
X187112581Y-67987552D02*
X187106047Y-68027725D01*
X184533589Y-41354425D02*
X184533589Y-46360000D01*
X186172467Y-71400506D02*
X186879573Y-70693399D01*
X187207089Y-67927809D02*
X187168056Y-67932479D01*
X186879573Y-72107613D02*
X187586680Y-71400506D01*
X192324296Y-64824413D02*
X191617189Y-65531520D01*
X187523777Y-68226132D02*
X187465817Y-68122677D01*
X185785862Y-66950132D02*
X185689400Y-67046594D01*
X186211762Y-66524231D02*
X185820177Y-66245893D01*
X187672029Y-67620451D02*
X187676944Y-67573670D01*
X187134953Y-67953531D02*
X187112581Y-67987552D01*
X187443569Y-67740102D02*
X187403079Y-67668996D01*
X186475551Y-65439758D02*
X186518891Y-65509996D01*
X185567016Y-67168978D02*
X185471829Y-67264165D01*
X187020995Y-62208118D02*
X187728101Y-62915225D01*
X187654341Y-68005267D02*
X187749528Y-67910080D01*
X186690050Y-65448478D02*
X186637025Y-65342569D01*
X187470038Y-68341859D02*
X187502105Y-68320682D01*
X190556529Y-71400506D02*
X189849422Y-70693399D01*
X185717533Y-50482277D02*
X185717533Y-53282277D01*
X187664126Y-68302564D02*
X187639035Y-68363696D01*
X191122214Y-63622332D02*
X190415107Y-64329438D01*
X185717533Y-49782277D02*
X185617533Y-49882277D01*
X185606781Y-70834821D02*
X186313888Y-70127714D01*
X185689400Y-67046594D02*
X185248627Y-66426707D01*
X185941271Y-65880832D02*
X185928962Y-65817762D01*
X185022026Y-67195962D02*
X185128398Y-67214959D01*
X187217609Y-67790244D02*
X187282570Y-67804603D01*
X187030801Y-68191107D02*
X186974537Y-68067840D01*
X188742729Y-66455603D02*
X188792435Y-66535782D01*
X183090000Y-86200000D02*
X183090000Y-88860000D01*
X185818913Y-71046953D02*
X186526020Y-70339846D01*
X184051146Y-69279186D02*
X184758253Y-68572079D01*
X188530000Y-49860000D02*
X189730000Y-49860000D01*
X191475767Y-63975885D02*
X191263635Y-63763753D01*
X185131874Y-66543460D02*
X185227061Y-66638648D01*
X184943623Y-67493210D02*
X185034185Y-67503743D01*
X187486026Y-68482241D02*
X187420594Y-68487266D01*
X184862778Y-66954275D02*
X184856722Y-67090576D01*
X191970742Y-69986293D02*
X191263635Y-69279186D01*
X187420594Y-68487266D02*
X187356271Y-68473761D01*
X187030801Y-68191107D02*
X186974537Y-68067840D01*
X186695667Y-68406415D02*
X186586882Y-68515200D01*
X187670206Y-67551006D02*
X187656678Y-67531667D01*
X186586882Y-68515200D02*
X186555330Y-68369976D01*
X188625512Y-67349237D02*
X188534825Y-67478337D01*
X187137609Y-68848356D02*
X186695667Y-68406415D01*
X189448198Y-52681801D02*
X189448198Y-53318198D01*
X184192568Y-69420607D02*
X184899674Y-68713500D01*
X184337720Y-79332190D02*
X184337718Y-79332809D01*
X183717533Y-54632277D02*
X183717533Y-53982277D01*
X186215137Y-65785506D02*
X186208399Y-65762842D01*
X185465360Y-63763753D02*
X185253228Y-63975885D01*
X184892524Y-67203080D02*
X184964997Y-67198084D01*
X186974537Y-68067840D02*
X186982776Y-67943010D01*
X185111806Y-64117306D02*
X185818913Y-64824413D01*
X185117950Y-78527588D02*
X191417950Y-78527588D01*
X187809959Y-67721770D02*
X187708734Y-67787696D01*
X191689271Y-41260000D02*
X191944927Y-41260000D01*
X184192568Y-65036545D02*
X184899674Y-65743652D01*
X199605000Y-93785000D02*
X176855000Y-93785000D01*
X186437332Y-65938131D02*
X186408451Y-65928751D01*
X184533572Y-41351500D02*
X184538513Y-41359669D01*
X184051146Y-65177967D02*
X184758253Y-65885073D01*
X186497112Y-65341400D02*
X186472298Y-65387327D01*
X184357784Y-41060469D02*
X184542659Y-40897578D01*
X185960334Y-71188374D02*
X186667441Y-70481267D01*
X188659227Y-67151449D02*
X188625512Y-67349237D01*
X184051146Y-65177967D02*
X183839014Y-65390099D01*
X184830755Y-67206718D02*
X184892524Y-67203080D01*
X187708734Y-67787696D02*
X187620345Y-67699308D01*
X187620345Y-67699308D02*
X187672029Y-67620451D01*
X184051146Y-69279186D02*
X183839014Y-69067054D01*
X186763658Y-65972336D02*
X186715427Y-65924104D01*
X183485461Y-65743652D02*
X184192568Y-66450759D01*
X184546121Y-69774161D02*
X185253228Y-69067054D01*
X186192534Y-66217103D02*
X186287721Y-66121916D01*
X185068932Y-67494597D02*
X185098515Y-67474300D01*
X187089733Y-67819572D02*
X187151348Y-67794728D01*
X186172467Y-63056646D02*
X186879573Y-63763753D01*
X185471829Y-67264165D02*
X185036686Y-66829023D01*
X185068932Y-67494597D02*
X185098515Y-67474300D01*
X187239064Y-68229107D02*
X187358762Y-68326368D01*
X190556529Y-63056646D02*
X189849422Y-63763753D01*
X186158538Y-65911144D02*
X186210222Y-65832287D01*
X191080000Y-40853395D02*
X191080000Y-40710000D01*
X184717872Y-67190119D02*
X184735741Y-67202121D01*
X187809959Y-67721770D02*
X187708734Y-67787696D01*
X191970742Y-64470860D02*
X191263635Y-65177967D01*
X197120000Y-92610000D02*
X194580000Y-92610000D01*
X184941499Y-66924210D02*
X184846311Y-66829023D01*
X184752080Y-67206692D02*
X184830755Y-67206718D01*
X187860000Y-56510000D02*
X188160000Y-56810000D01*
X188659227Y-67151449D02*
X188625512Y-67349237D01*
X186715427Y-65924104D02*
X186705335Y-65599978D01*
X185818913Y-63410200D02*
X186526020Y-64117306D01*
X181940000Y-44350000D02*
X181940000Y-92670000D01*
X189448198Y-55858198D02*
X188811801Y-55858198D01*
X187639035Y-68363696D02*
X187597717Y-68415445D01*
X190910082Y-71046953D02*
X190202975Y-70339846D01*
X190910082Y-63410200D02*
X190202975Y-64117306D01*
X190415107Y-71541928D02*
X189708000Y-70834821D01*
X185034185Y-67503743D02*
X185068932Y-67494597D01*
X186172467Y-71400506D02*
X185960334Y-71188374D01*
X189054956Y-66060724D02*
X188959769Y-66155911D01*
X190415107Y-71541928D02*
X190202975Y-71754060D01*
X186158538Y-65911144D02*
X186210222Y-65832287D01*
X191475767Y-63975885D02*
X190768661Y-64682992D01*
X190768661Y-71188374D02*
X190556529Y-71400506D01*
X191829321Y-64329438D02*
X191122214Y-65036545D01*
X184735741Y-67202121D02*
X184752080Y-67206692D01*
X186044866Y-66691128D02*
X185952015Y-66783979D01*
X183697593Y-65531520D02*
X183485461Y-65743652D01*
X189849422Y-62349539D02*
X189142315Y-63056646D01*
X187597717Y-68415445D02*
X187546418Y-68456557D01*
X187870258Y-67716916D02*
X187809959Y-67721770D01*
X188152176Y-66815568D02*
X188310667Y-66798639D01*
X191417950Y-78102588D02*
X185117950Y-78102588D01*
X185465360Y-70693399D02*
X185253228Y-70481267D01*
X189708000Y-62208118D02*
X189000894Y-62915225D01*
X187664126Y-68302564D02*
X187639035Y-68363696D01*
X187859000Y-49582003D02*
X187859000Y-49771106D01*
X184421800Y-81623851D02*
X184421800Y-80341767D01*
X185117950Y-74002588D02*
X191417950Y-74002588D01*
X182967533Y-48982277D02*
X182967533Y-54782277D01*
X184404700Y-69632739D02*
X185111806Y-68925632D01*
X188959769Y-66155911D02*
X189394912Y-66591054D01*
X187859000Y-50394503D02*
X187859000Y-50439375D01*
X190768661Y-63268778D02*
X190061554Y-63975885D01*
X188314498Y-62328829D02*
X183464750Y-67178576D01*
X184437718Y-82732809D02*
X192237718Y-82732809D01*
X191921486Y-41359669D02*
X191919896Y-41360000D01*
X192182874Y-64682992D02*
X191475767Y-65390099D01*
X187899139Y-67726296D02*
X187870258Y-67716916D01*
X186770458Y-69215508D02*
X186675270Y-69310695D01*
X187420594Y-68487266D02*
X187356271Y-68473761D01*
X187432121Y-68348209D02*
X187470038Y-68341859D01*
X189448198Y-50778198D02*
X188811801Y-50778198D01*
X187112581Y-67987552D02*
X187106047Y-68027725D01*
X192536428Y-65036545D02*
X192324296Y-64824413D01*
X183839014Y-65390099D02*
X184546121Y-66097205D01*
X190415107Y-62915225D02*
X189708000Y-63622332D01*
X186526020Y-62703093D02*
X187233127Y-63410200D01*
X193597088Y-66097205D02*
X192889981Y-66804312D01*
X185380000Y-40853395D02*
X185380000Y-40710000D01*
X184337718Y-79332809D02*
X184337718Y-82632809D01*
X187356271Y-68473761D02*
X187241315Y-68410602D01*
X188811801Y-55221801D02*
X189448198Y-55221801D01*
X176855000Y-40635000D02*
X199605000Y-40635000D01*
X187676944Y-67573670D02*
X187670206Y-67551006D01*
X193243534Y-68713500D02*
X192536428Y-68006394D01*
X189168416Y-65729692D02*
X189295368Y-65688154D01*
X186690050Y-65448478D02*
X186637025Y-65342569D01*
X183344039Y-65885073D02*
X183131907Y-66097205D01*
X188792435Y-66535782D02*
X188805514Y-66609327D01*
X184779988Y-41360000D02*
X184779988Y-41355785D01*
X185130000Y-41195431D02*
X191330000Y-41195431D01*
X191680011Y-41360000D02*
X191680011Y-41355785D01*
X184630774Y-80141767D02*
X184444188Y-80141767D01*
X186675270Y-69310695D02*
X186144940Y-68780365D01*
X184735741Y-67202121D02*
X184752080Y-67206692D01*
X187233127Y-72461166D02*
X187020995Y-72249034D01*
X187282570Y-67804603D02*
X187398459Y-67869465D01*
X184437718Y-79232809D02*
X184437100Y-79232811D01*
X183464750Y-67278576D02*
X188314498Y-72128324D01*
X189941472Y-49189000D02*
X189752369Y-49189000D01*
X188307586Y-66935152D02*
X188165003Y-66956234D01*
X183817533Y-53882277D02*
X185617533Y-53882277D01*
X185111806Y-70339846D02*
X184899674Y-70127714D01*
X185941271Y-65880832D02*
X185928962Y-65817762D01*
X184377387Y-40710000D02*
X184192512Y-40872892D01*
X186144940Y-68780365D02*
X186403306Y-68521999D01*
X189495868Y-61995986D02*
X188788762Y-62703093D01*
X187470038Y-68341859D02*
X187502105Y-68320682D01*
X187676944Y-67573670D02*
X187670206Y-67551006D01*
X183090000Y-88860000D02*
X193370000Y-88860000D01*
X186667441Y-71895481D02*
X187374548Y-71188374D01*
X184899674Y-70127714D02*
X185606781Y-69420607D01*
X186313888Y-62915225D02*
X187020995Y-63622332D01*
X192940000Y-49290000D02*
X192940000Y-54170000D01*
X188414498Y-62328829D02*
X188314498Y-62328829D01*
X191829321Y-70127714D02*
X191617189Y-70339846D01*
X187498174Y-67957886D02*
X187586220Y-68057084D01*
X183839014Y-69067054D02*
X184546121Y-68359947D01*
X192182874Y-69774161D02*
X191970742Y-69986293D01*
X191351801Y-52681801D02*
X191988198Y-52681801D01*
X185465360Y-70693399D02*
X186172467Y-69986293D01*
X184437718Y-79232809D02*
X192237718Y-79232809D01*
X193264245Y-67178576D02*
X188414498Y-62328829D01*
X187978786Y-66919323D02*
X188152176Y-66815568D01*
X187398459Y-67869465D02*
X187498174Y-67957886D01*
X188589112Y-66825729D02*
X188496495Y-66803372D01*
X189385457Y-66296037D02*
X189327659Y-66207483D01*
X191368464Y-41338825D02*
X185091535Y-41338825D01*
X186475551Y-65439758D02*
X186518891Y-65509996D01*
X191351801Y-55221801D02*
X191988198Y-55221801D01*
X187168056Y-67932479D02*
X187134953Y-67953531D01*
X186850347Y-65708870D02*
X187028823Y-65530394D01*
X192677849Y-69279186D02*
X191970742Y-68572079D01*
X183817533Y-50382277D02*
X185617533Y-50382277D01*
X185717533Y-53982277D02*
X185717533Y-54632277D01*
X183717533Y-49782277D02*
X183717533Y-49132277D01*
X186172467Y-63056646D02*
X185960334Y-63268778D01*
X189708000Y-62208118D02*
X189495868Y-61995986D01*
X192337718Y-79332809D02*
X192337717Y-79332190D01*
X191263635Y-70693399D02*
X190556529Y-69986293D01*
X188165003Y-66956234D02*
X188070255Y-67018229D01*
X185820177Y-66245893D02*
X186044866Y-66691128D01*
X191330000Y-40914789D02*
X191330000Y-41260000D01*
X183131907Y-66097205D02*
X183839014Y-66804312D01*
X187411266Y-67505259D02*
X187458654Y-67439455D01*
X186367533Y-48882277D02*
X183067533Y-48882277D01*
X179280000Y-41750000D02*
X180610000Y-41750000D01*
X194580000Y-92610000D02*
X194580000Y-41810000D01*
X185717533Y-49132277D02*
X185717533Y-49782277D01*
X188811801Y-53318198D02*
X188811801Y-52681801D01*
X185465360Y-63763753D02*
X186172467Y-64470860D01*
X193031402Y-65531520D02*
X192324296Y-66238627D01*
X186982776Y-67943010D02*
X187037429Y-67860680D01*
X189730000Y-49860000D02*
X189730000Y-53600000D01*
X188160000Y-56810000D02*
X192640000Y-56810000D01*
X191417950Y-73577588D02*
X185117950Y-73577588D01*
X189385457Y-66296037D02*
X189327659Y-66207483D01*
X183344039Y-68572079D02*
X183131907Y-68359947D01*
X187443569Y-67740102D02*
X187403079Y-67668996D01*
X185248627Y-66426707D02*
X185347426Y-66327907D01*
X184655142Y-41025241D02*
X184377387Y-40710000D01*
X187403079Y-67668996D02*
X187390769Y-67605926D01*
X187465817Y-68122677D02*
X187402987Y-68053074D01*
X184404700Y-64824413D02*
X184192568Y-65036545D01*
X187281389Y-67952563D02*
X187207089Y-67927809D01*
X186210222Y-65832287D02*
X186215137Y-65785506D01*
X187168056Y-67932479D02*
X187134953Y-67953531D01*
X183067533Y-54882277D02*
X186367533Y-54882277D01*
X188625512Y-67349237D02*
X188534825Y-67478337D01*
X192940000Y-56510000D02*
X192940000Y-54570000D01*
X189448198Y-55221801D02*
X189448198Y-55858198D01*
X184758253Y-69986293D02*
X184546121Y-69774161D01*
X190300000Y-54270000D02*
X187960000Y-54270000D01*
X189327659Y-66207483D02*
X189298449Y-66129140D01*
X192677849Y-65177967D02*
X191970742Y-65885073D01*
X183817533Y-49032277D02*
X185617533Y-49032277D01*
X191926427Y-41351500D02*
X191921486Y-41359669D01*
X184533589Y-41354425D02*
X184533572Y-41351500D01*
X187232797Y-68753169D02*
X187137609Y-68848356D01*
X186842273Y-65590098D02*
X186850347Y-65708870D01*
X183485461Y-68713500D02*
X184192568Y-68006394D01*
X188537247Y-66671706D02*
G75*
G03*
X188657421Y-66675831I62053J55206D01*
G01*
X185033589Y-41359936D02*
G75*
G03*
X185130000Y-41260001I-3589J99936D01*
G01*
X183067533Y-48882273D02*
G75*
G03*
X182967533Y-48982277I67J-100067D01*
G01*
X187978795Y-66919332D02*
G75*
G03*
X187979849Y-67474087I268405J-276868D01*
G01*
X189611930Y-66060212D02*
G75*
G03*
X189468427Y-66055200I-74130J-65588D01*
G01*
X187917577Y-67905174D02*
G75*
G03*
X187923649Y-67744245I-74077J83374D01*
G01*
X187860000Y-54170000D02*
G75*
G03*
X187960000Y-54270000I100000J0D01*
G01*
X187749572Y-67910032D02*
G75*
G03*
X187917593Y-67905193I81528J88632D01*
G01*
X186467523Y-48982277D02*
G75*
G03*
X186367533Y-48882277I-100023J-23D01*
G01*
X191329966Y-41058187D02*
G75*
G03*
X191080000Y-40853395I-229366J-25013D01*
G01*
X184627255Y-67289871D02*
G75*
G03*
X184947023Y-67342355I211145J286071D01*
G01*
X187656656Y-67531689D02*
G75*
G03*
X187553204Y-67535280I-50056J-49911D01*
G01*
X184726051Y-67112459D02*
G75*
G03*
X184717872Y-67190119I34949J-42941D01*
G01*
X188439219Y-67383580D02*
G75*
G03*
X188520483Y-67148049I-207219J203280D01*
G01*
X184444188Y-80141767D02*
G75*
G03*
X184421800Y-80341767I441112J-150633D01*
G01*
X188533274Y-66555295D02*
G75*
G03*
X188537268Y-66671688I57126J-56305D01*
G01*
X184630774Y-81823854D02*
G75*
G03*
X185030774Y-81423851I-4J400004D01*
G01*
X187979843Y-67474092D02*
G75*
G03*
X188534825Y-67478337I279457J254892D01*
G01*
X186545769Y-66217423D02*
G75*
G03*
X186557986Y-65861851I-164639J183653D01*
G01*
X188074825Y-67378686D02*
G75*
G03*
X188439213Y-67383574I184475J167586D01*
G01*
X184862778Y-66954273D02*
G75*
G03*
X184631927Y-67016211I-55578J-254027D01*
G01*
X186091389Y-65747108D02*
G75*
G03*
X186076949Y-65856751I66211J-64492D01*
G01*
X189475989Y-66196158D02*
G75*
G03*
X189618326Y-66204461I75311J66858D01*
G01*
X189385467Y-66296027D02*
G75*
G03*
X189715320Y-66297843I165833J163727D01*
G01*
X184856729Y-67090557D02*
G75*
G03*
X184726052Y-67112461I-45829J-127343D01*
G01*
X188998436Y-67014720D02*
G75*
G03*
X189015224Y-66673706I-145236J178070D01*
G01*
X191329999Y-41260000D02*
G75*
G03*
X191426410Y-41359937I100001J0D01*
G01*
X188654891Y-67034039D02*
G75*
G03*
X188998438Y-67014722I163509J156639D01*
G01*
X184631923Y-67016206D02*
G75*
G03*
X184627252Y-67289874I131827J-139124D01*
G01*
X183817533Y-53882233D02*
G75*
G03*
X183717533Y-53982277I67J-100067D01*
G01*
X186284003Y-65642260D02*
G75*
G03*
X185996846Y-65651290I-139153J-145250D01*
G01*
X183817533Y-50382233D02*
G75*
G03*
X183717533Y-50482277I67J-100067D01*
G01*
X183717523Y-54632277D02*
G75*
G03*
X183817533Y-54732277I99977J-23D01*
G01*
X185617533Y-53382233D02*
G75*
G03*
X185717533Y-53282277I67J99933D01*
G01*
X185717523Y-53982277D02*
G75*
G03*
X185617533Y-53882277I-100023J-23D01*
G01*
X185380000Y-40709999D02*
G75*
G03*
X185129999Y-40914788I-20520J-229941D01*
G01*
X188440401Y-66457750D02*
G75*
G03*
X188435282Y-66760076I138399J-153550D01*
G01*
X185030773Y-80541767D02*
G75*
G03*
X184630774Y-80141767I-399933J67D01*
G01*
X192238337Y-82732816D02*
G75*
G03*
X192337716Y-82633428I-637J100016D01*
G01*
X188913604Y-66762362D02*
G75*
G03*
X188753884Y-66769744I-76304J-80638D01*
G01*
X188657470Y-66675878D02*
G75*
G03*
X188652109Y-66555359I-58470J57778D01*
G01*
X185117950Y-73577588D02*
G75*
G03*
X185117950Y-78527588I0J-2475000D01*
G01*
X188753869Y-66769726D02*
G75*
G03*
X188741454Y-66930265I72731J-86374D01*
G01*
X188019788Y-67650018D02*
G75*
G03*
X187785968Y-67612513I-141088J-131982D01*
G01*
X185117950Y-74002588D02*
G75*
G03*
X185117950Y-78102588I0J-2050000D01*
G01*
X187960000Y-49190000D02*
G75*
G03*
X187860000Y-49290000I0J-100000D01*
G01*
X191804848Y-41025233D02*
G75*
G03*
X191680011Y-41355785I375252J-330567D01*
G01*
X189468376Y-66055153D02*
G75*
G03*
X189475971Y-66196174I71824J-66847D01*
G01*
X186557983Y-65861853D02*
G75*
G03*
X186324161Y-65824349I-141083J-131947D01*
G01*
X188070256Y-67018230D02*
G75*
G03*
X188074823Y-67378688I176644J-178020D01*
G01*
X186194857Y-65743517D02*
G75*
G03*
X186091397Y-65747116I-50057J-49883D01*
G01*
X188652085Y-66555381D02*
G75*
G03*
X188533231Y-66555253I-59485J-54019D01*
G01*
X192840000Y-54269999D02*
G75*
G03*
X192939999Y-54170000I0J99999D01*
G01*
X184421819Y-81623853D02*
G75*
G03*
X184444188Y-81823851I445281J-51447D01*
G01*
X191417950Y-78102592D02*
G75*
G03*
X191417950Y-74002588I0J2050002D01*
G01*
X187553216Y-67535291D02*
G75*
G03*
X187538756Y-67644915I66284J-64509D01*
G01*
X184779976Y-41355785D02*
G75*
G03*
X184655142Y-41025241I-500076J-15D01*
G01*
X185717523Y-49132277D02*
G75*
G03*
X185617533Y-49032277I-100023J-23D01*
G01*
X186842277Y-65590098D02*
G75*
G03*
X186725520Y-65240688I-513577J22598D01*
G01*
X187654329Y-68005278D02*
G75*
G03*
X188007575Y-68005586I176771J169378D01*
G01*
X187785962Y-67612511D02*
G75*
G03*
X187745810Y-67430425I-162162J59711D01*
G01*
X186192530Y-66217107D02*
G75*
G03*
X186545769Y-66217421I176770J169307D01*
G01*
X185380000Y-40853397D02*
G75*
G03*
X185130000Y-41058182I-20510J-229953D01*
G01*
X186407334Y-65240785D02*
G75*
G03*
X186423703Y-65605184I179266J-174515D01*
G01*
X188742774Y-66455560D02*
G75*
G03*
X188440381Y-66457727I-150174J-143840D01*
G01*
X186287676Y-66121965D02*
G75*
G03*
X186455786Y-66117029I81524J88665D01*
G01*
X186324198Y-65824363D02*
G75*
G03*
X186284003Y-65642261I-162298J59663D01*
G01*
X189618376Y-66204508D02*
G75*
G03*
X189611952Y-66060192I-73976J69008D01*
G01*
X185717523Y-50482277D02*
G75*
G03*
X185617533Y-50382277I-100023J-23D01*
G01*
X189715334Y-66297858D02*
G75*
G03*
X189712558Y-65970423I-161834J162358D01*
G01*
X187502104Y-68320681D02*
G75*
G03*
X187523776Y-68226132I-65104J64681D01*
G01*
X189015219Y-66673711D02*
G75*
G03*
X188805515Y-66609327I-163519J-158889D01*
G01*
X189712555Y-65970425D02*
G75*
G03*
X189384607Y-65962243I-167955J-155475D01*
G01*
X184533593Y-41351500D02*
G75*
G03*
X184471166Y-41189153I-249593J-2800D01*
G01*
X183717523Y-53282277D02*
G75*
G03*
X183817533Y-53382277I99977J-23D01*
G01*
X186725538Y-65240671D02*
G75*
G03*
X186407342Y-65240794I-159038J-156129D01*
G01*
X185108819Y-67363497D02*
G75*
G03*
X184947023Y-67342355I-106219J-183203D01*
G01*
X187745857Y-67430376D02*
G75*
G03*
X187458655Y-67439455I-139157J-145124D01*
G01*
X184910177Y-67627134D02*
G75*
G03*
X185190198Y-67572993I100923J229234D01*
G01*
X183717523Y-49782277D02*
G75*
G03*
X183817533Y-49882277I99977J-23D01*
G01*
X186367533Y-54882233D02*
G75*
G03*
X186467533Y-54782277I67J99933D01*
G01*
X192337690Y-79332190D02*
G75*
G03*
X192238337Y-79232810I-99990J-610D01*
G01*
X185617533Y-54732233D02*
G75*
G03*
X185717533Y-54632277I67J99933D01*
G01*
X184337693Y-82633428D02*
G75*
G03*
X184437099Y-82732807I100007J628D01*
G01*
X184437100Y-79232820D02*
G75*
G03*
X184337720Y-79332189I600J-99980D01*
G01*
X186455805Y-66117051D02*
G75*
G03*
X186461842Y-65956082I-73405J83351D01*
G01*
X191988841Y-41189160D02*
G75*
G03*
X191926427Y-41351500I187459J-165240D01*
G01*
X185098521Y-67474307D02*
G75*
G03*
X185108820Y-67363497I-50821J60607D01*
G01*
X191417950Y-78527592D02*
G75*
G03*
X191417950Y-73577588I0J2475002D01*
G01*
X192940000Y-49290000D02*
G75*
G03*
X192840000Y-49190000I-100000J0D01*
G01*
X188007573Y-68005583D02*
G75*
G03*
X188019792Y-67650015I-164683J183653D01*
G01*
X183817533Y-49032233D02*
G75*
G03*
X183717533Y-49132277I67J-100067D01*
G01*
X188741457Y-66930262D02*
G75*
G03*
X188902295Y-66920491I75743J81862D01*
G01*
X191329961Y-40914793D02*
G75*
G03*
X191080000Y-40710001I-229361J-25007D01*
G01*
X188902315Y-66920517D02*
G75*
G03*
X188913557Y-66762413I-65615J84117D01*
G01*
X186637001Y-65342591D02*
G75*
G03*
X186497113Y-65341400I-70501J-64809D01*
G01*
X182967523Y-54782277D02*
G75*
G03*
X183067533Y-54882277I99977J-23D01*
G01*
X185190200Y-67572996D02*
G75*
G03*
X185198483Y-67262785I-140050J158956D01*
G01*
X188614498Y-71228576D02*
G75*
G03*
X188614498Y-71228576I-250000J0D01*
G01*
X191815021Y-80982809D02*
G75*
G03*
X191815021Y-80982809I-425876J0D01*
G01*
G36*
X192301620Y-87883060D02*
G01*
X191793620Y-87883060D01*
X191793620Y-87375060D01*
X192301620Y-87375060D01*
X192301620Y-87883060D01*
G37*
D12*
X192301620Y-87883060D02*
X191793620Y-87883060D01*
X191793620Y-87375060D01*
X192301620Y-87375060D01*
X192301620Y-87883060D01*
G36*
X187221620Y-87883060D02*
G01*
X186713620Y-87883060D01*
X186713620Y-87375060D01*
X187221620Y-87375060D01*
X187221620Y-87883060D01*
G37*
X187221620Y-87883060D02*
X186713620Y-87883060D01*
X186713620Y-87375060D01*
X187221620Y-87375060D01*
X187221620Y-87883060D01*
G36*
X189761620Y-87883060D02*
G01*
X189253620Y-87883060D01*
X189253620Y-87375060D01*
X189761620Y-87375060D01*
X189761620Y-87883060D01*
G37*
X189761620Y-87883060D02*
X189253620Y-87883060D01*
X189253620Y-87375060D01*
X189761620Y-87375060D01*
X189761620Y-87883060D01*
G36*
X184681620Y-87883060D02*
G01*
X184173620Y-87883060D01*
X184173620Y-87375060D01*
X184681620Y-87375060D01*
X184681620Y-87883060D01*
G37*
X184681620Y-87883060D02*
X184173620Y-87883060D01*
X184173620Y-87375060D01*
X184681620Y-87375060D01*
X184681620Y-87883060D01*
G04 #@! TD*
M02*
