M48
; DRILL file {KiCad (6.0.4)} date Tue Oct 17 09:27:24 2023
; FORMAT={-:-/ absolute / metric / decimal}
; #@! TF.CreationDate,2023-10-17T09:27:24+07:00
; #@! TF.GenerationSoftware,Kicad,Pcbnew,(6.0.4)
; #@! TF.FileFunction,Plated,1,2,PTH
FMAT,2
METRIC
; #@! TA.AperFunction,Plated,PTH,ViaDrill
T1C0.700
; #@! TA.AperFunction,Plated,PTH,ComponentDrill
T2C0.762
; #@! TA.AperFunction,Plated,PTH,ComponentDrill
T3C0.800
; #@! TA.AperFunction,Plated,PTH,ComponentDrill
T4C0.890
; #@! TA.AperFunction,Plated,PTH,ComponentDrill
T5C1.000
; #@! TA.AperFunction,Plated,PTH,ComponentDrill
T6C1.100
; #@! TA.AperFunction,Plated,PTH,ViaDrill
T7C1.400
%
G90
G05
T1
X153.34Y-65.8
X157.076Y-68.609
X159.52Y-48.87
X168.28Y-58.9
X171.14Y-52.22
X171.18Y-55.35
X171.32Y-67.06
X173.39Y-81.05
X175.8Y-63.67
X187.6Y-99.21
X193.33Y-96.48
T2
X159.51Y-62.45
X159.51Y-64.99
X162.05Y-62.45
X162.05Y-64.99
X164.05Y-70.81
X164.05Y-73.43
X164.05Y-75.97
X164.05Y-78.51
X164.05Y-81.05
X164.05Y-83.59
X164.59Y-62.45
X164.59Y-64.99
X167.13Y-62.45
X167.13Y-64.99
X167.89Y-70.9
X167.89Y-73.44
X167.89Y-75.98
X167.89Y-78.52
X167.89Y-81.06
X167.89Y-83.6
X199.51Y-73.35
X199.51Y-75.89
X199.51Y-78.43
X199.51Y-80.97
T3
X155.865Y-93.81
X157.865Y-93.81
X162.23Y-94.53
X162.31Y-107.44
X166.19Y-103.72
X168.19Y-103.72
X172.39Y-94.53
X172.47Y-107.44
X175.31Y-107.46
X175.51Y-95.49
X177.24Y-68.48
X184.25Y-50.92
X184.25Y-54.84
X184.26Y-43.08
X184.26Y-46.99
X185.47Y-107.46
X185.67Y-95.49
X187.4Y-68.48
X188.64Y-95.48
X189.25Y-50.92
X189.25Y-54.84
X189.26Y-43.08
X189.26Y-46.99
X191.4Y-107.54
X192.285Y-43.08
X192.285Y-45.62
X192.285Y-48.16
X192.285Y-50.7
X198.8Y-95.48
X199.905Y-43.08
X199.905Y-45.62
X199.905Y-48.16
X199.905Y-50.7
X200.0Y-53.85
X200.0Y-64.01
X201.56Y-107.54
T4
X178.865Y-99.12
X179.88Y-101.56
X180.9Y-99.12
X181.915Y-101.66
X195.285Y-99.12
X196.3Y-101.56
X197.32Y-99.12
X198.335Y-101.66
T5
X152.105Y-69.575
X152.105Y-72.115
X152.105Y-74.655
X173.925Y-70.875
X173.925Y-73.415
X173.925Y-75.955
X180.61Y-43.08
X180.61Y-45.62
X180.61Y-48.16
X180.61Y-50.7
X180.61Y-53.24
X180.61Y-55.78
X180.61Y-58.32
X180.61Y-60.86
X180.61Y-63.4
X180.61Y-65.94
X180.61Y-68.48
X180.61Y-71.02
X180.61Y-73.56
X180.61Y-76.1
X180.61Y-78.64
X180.61Y-81.18
X180.61Y-83.72
X180.61Y-86.26
X180.61Y-88.8
X180.61Y-91.34
X189.24Y-58.58
X189.24Y-61.12
X189.24Y-63.66
X191.94Y-85.25
X192.13Y-68.87
X195.85Y-43.08
X195.85Y-45.62
X195.85Y-48.16
X195.85Y-50.7
X195.85Y-53.24
X195.85Y-55.78
X195.85Y-58.32
X195.85Y-60.86
X195.85Y-63.4
X195.85Y-65.94
X195.85Y-68.48
X195.85Y-71.02
X195.85Y-73.56
X195.85Y-76.1
X195.85Y-78.64
X195.85Y-81.18
X195.85Y-83.72
X195.85Y-86.26
X195.85Y-88.8
X195.85Y-91.34
X199.44Y-85.25
X199.63Y-68.87
T6
X165.65Y-98.725
X168.19Y-98.725
X170.73Y-98.725
T7
X165.65Y-98.725
X168.19Y-98.725
X170.73Y-98.725
T5
G00X154.76Y-99.664
M15
G01X156.76Y-99.664
M16
G05
G00X154.76Y-105.664
M15
G01X156.76Y-105.664
M16
G05
G00X160.46Y-103.664
M15
G01X160.46Y-101.664
M16
G05
T0
M30
