G04 #@! TF.GenerationSoftware,KiCad,Pcbnew,(6.0.4)*
G04 #@! TF.CreationDate,2023-10-14T22:59:34+07:00*
G04 #@! TF.ProjectId,09-Prototype-Final-BugFixing,30392d50-726f-4746-9f74-7970652d4669,rev?*
G04 #@! TF.SameCoordinates,Original*
G04 #@! TF.FileFunction,Soldermask,Top*
G04 #@! TF.FilePolarity,Negative*
%FSLAX46Y46*%
G04 Gerber Fmt 4.6, Leading zero omitted, Abs format (unit mm)*
G04 Created by KiCad (PCBNEW (6.0.4)) date 2023-10-14 22:59:34*
%MOMM*%
%LPD*%
G01*
G04 APERTURE LIST*
G04 Aperture macros list*
%AMRoundRect*
0 Rectangle with rounded corners*
0 $1 Rounding radius*
0 $2 $3 $4 $5 $6 $7 $8 $9 X,Y pos of 4 corners*
0 Add a 4 corners polygon primitive as box body*
4,1,4,$2,$3,$4,$5,$6,$7,$8,$9,$2,$3,0*
0 Add four circle primitives for the rounded corners*
1,1,$1+$1,$2,$3*
1,1,$1+$1,$4,$5*
1,1,$1+$1,$6,$7*
1,1,$1+$1,$8,$9*
0 Add four rect primitives between the rounded corners*
20,1,$1+$1,$2,$3,$4,$5,0*
20,1,$1+$1,$4,$5,$6,$7,0*
20,1,$1+$1,$6,$7,$8,$9,0*
20,1,$1+$1,$8,$9,$2,$3,0*%
G04 Aperture macros list end*
%ADD10C,0.120000*%
%ADD11C,2.360000*%
%ADD12C,1.300000*%
%ADD13C,1.600000*%
%ADD14O,1.600000X1.600000*%
%ADD15R,1.600000X1.600000*%
%ADD16R,3.500000X3.500000*%
%ADD17RoundRect,0.750000X1.000000X-0.750000X1.000000X0.750000X-1.000000X0.750000X-1.000000X-0.750000X0*%
%ADD18RoundRect,0.875000X0.875000X-0.875000X0.875000X0.875000X-0.875000X0.875000X-0.875000X-0.875000X0*%
%ADD19R,1.700000X1.700000*%
%ADD20O,1.700000X1.700000*%
%ADD21C,3.500000*%
%ADD22R,1.524000X1.524000*%
%ADD23C,1.524000*%
%ADD24R,1.905000X2.000000*%
%ADD25O,1.905000X2.000000*%
%ADD26C,1.700000*%
%ADD27R,2.400000X1.600000*%
%ADD28O,2.400000X1.600000*%
%ADD29C,2.000000*%
G04 APERTURE END LIST*
D10*
G04 #@! TO.C,J5*
X190710000Y-96960000D02*
X202910000Y-96960000D01*
X202910000Y-96960000D02*
X202910000Y-109960000D01*
X202910000Y-109960000D02*
X190710000Y-109960000D01*
X190710000Y-109960000D02*
X190710000Y-96960000D01*
X204090000Y-103960000D02*
G75*
G03*
X204090000Y-103960000I-1180000J0D01*
G01*
X191890000Y-103960000D02*
G75*
G03*
X191890000Y-103960000I-1180000J0D01*
G01*
G04 #@! TO.C,J4*
X174290000Y-96960000D02*
X186490000Y-96960000D01*
X186490000Y-96960000D02*
X186490000Y-109960000D01*
X186490000Y-109960000D02*
X174290000Y-109960000D01*
X174290000Y-109960000D02*
X174290000Y-96960000D01*
X175470000Y-103960000D02*
G75*
G03*
X175470000Y-103960000I-1180000J0D01*
G01*
X187670000Y-103960000D02*
G75*
G03*
X187670000Y-103960000I-1180000J0D01*
G01*
G04 #@! TO.C,U3*
X150390000Y-40440000D02*
X176390000Y-40440000D01*
X176390000Y-40440000D02*
X176390000Y-65940000D01*
X176390000Y-65940000D02*
X150390000Y-65940000D01*
X150390000Y-65940000D02*
X150390000Y-40440000D01*
G04 #@! TO.C,U2*
X200780000Y-74620000D02*
X198240000Y-74620000D01*
X198240000Y-74620000D02*
X198240000Y-82240000D01*
X198240000Y-82240000D02*
X200780000Y-82240000D01*
X200780000Y-82240000D02*
X200780000Y-74620000D01*
X200780000Y-72080000D02*
X198240000Y-72080000D01*
X198240000Y-72080000D02*
X198240000Y-74620000D01*
X198240000Y-74620000D02*
X200780000Y-74620000D01*
X200780000Y-74620000D02*
X200780000Y-72080000D01*
X162780000Y-69540000D02*
X165320000Y-69540000D01*
X165320000Y-69540000D02*
X165320000Y-84780000D01*
X165320000Y-84780000D02*
X162780000Y-84780000D01*
X162780000Y-84780000D02*
X162780000Y-69540000D01*
G04 #@! TD*
D11*
G04 #@! TO.C,J5*
X202910000Y-103960000D03*
X190710000Y-103960000D03*
D12*
X195285000Y-99120000D03*
X197320000Y-99120000D03*
X196300000Y-101560000D03*
X198335000Y-101660000D03*
G04 #@! TD*
D13*
G04 #@! TO.C,R7*
X172390000Y-94530000D03*
D14*
X162230000Y-94530000D03*
G04 #@! TD*
D15*
G04 #@! TO.C,C7*
X155864888Y-93810000D03*
D13*
X157864888Y-93810000D03*
G04 #@! TD*
D16*
G04 #@! TO.C,J1*
X155760500Y-99664000D03*
D17*
X155760500Y-105664000D03*
D18*
X160460500Y-102664000D03*
G04 #@! TD*
D19*
G04 #@! TO.C,J2*
X152105000Y-74655000D03*
D20*
X152105000Y-72115000D03*
X152105000Y-69575000D03*
G04 #@! TD*
D21*
G04 #@! TO.C,U5*
X159740000Y-72130000D03*
X159740000Y-82370000D03*
D22*
X167890000Y-83600000D03*
D23*
X167890000Y-73440000D03*
X167890000Y-81060000D03*
X167890000Y-78520000D03*
X167890000Y-75980000D03*
X167890000Y-70900000D03*
G04 #@! TD*
D24*
G04 #@! TO.C,U6*
X170730000Y-98725000D03*
D25*
X168190000Y-98725000D03*
X165650000Y-98725000D03*
G04 #@! TD*
D11*
G04 #@! TO.C,J4*
X186490000Y-103960000D03*
X174290000Y-103960000D03*
D12*
X178865000Y-99120000D03*
X180900000Y-99120000D03*
X179880000Y-101560000D03*
X181915000Y-101660000D03*
G04 #@! TD*
D22*
G04 #@! TO.C,U3*
X159510000Y-64990000D03*
D23*
X159510000Y-62450000D03*
X162050000Y-64990000D03*
X162050000Y-62450000D03*
X164590000Y-64990000D03*
X164590000Y-62450000D03*
X167130000Y-64990000D03*
X167130000Y-62450000D03*
G04 #@! TD*
D13*
G04 #@! TO.C,R8*
X172470000Y-107440000D03*
D14*
X162310000Y-107440000D03*
G04 #@! TD*
D19*
G04 #@! TO.C,U1*
X180610000Y-43080000D03*
D26*
X180610000Y-45620000D03*
X180610000Y-48160000D03*
X180610000Y-50700000D03*
X180610000Y-53240000D03*
X180610000Y-55780000D03*
X180610000Y-58320000D03*
X180610000Y-60860000D03*
X180610000Y-63400000D03*
X180610000Y-65940000D03*
X180610000Y-68480000D03*
X180610000Y-71020000D03*
X180610000Y-73560000D03*
X180610000Y-76100000D03*
X180610000Y-78640000D03*
X180610000Y-81180000D03*
X180610000Y-83720000D03*
X180610000Y-86260000D03*
X180610000Y-88800000D03*
X180610000Y-91340000D03*
X195850000Y-91340000D03*
X195850000Y-88800000D03*
X195850000Y-86260000D03*
X195850000Y-83720000D03*
X195850000Y-81180000D03*
X195850000Y-78640000D03*
X195850000Y-76100000D03*
X195850000Y-73560000D03*
X195850000Y-71020000D03*
X195850000Y-68480000D03*
X195850000Y-65940000D03*
X195850000Y-63400000D03*
X195850000Y-60860000D03*
X195850000Y-58320000D03*
X195850000Y-55780000D03*
X195850000Y-53240000D03*
X195850000Y-50700000D03*
X195850000Y-48160000D03*
X195850000Y-45620000D03*
X195850000Y-43080000D03*
G04 #@! TD*
D13*
G04 #@! TO.C,C5*
X184250000Y-54840000D03*
X189250000Y-54840000D03*
G04 #@! TD*
D27*
G04 #@! TO.C,U4*
X192285000Y-50700000D03*
D28*
X192285000Y-48160000D03*
X192285000Y-45620000D03*
X192285000Y-43080000D03*
X199905000Y-43080000D03*
X199905000Y-45620000D03*
X199905000Y-48160000D03*
X199905000Y-50700000D03*
G04 #@! TD*
D29*
G04 #@! TO.C,C1*
X199630000Y-68870000D03*
X192130000Y-68870000D03*
G04 #@! TD*
D13*
G04 #@! TO.C,C4*
X184250000Y-50920000D03*
X189250000Y-50920000D03*
G04 #@! TD*
G04 #@! TO.C,C2*
X184260000Y-43080000D03*
X189260000Y-43080000D03*
G04 #@! TD*
D15*
G04 #@! TO.C,C8*
X168190000Y-103720000D03*
D13*
X166190000Y-103720000D03*
G04 #@! TD*
G04 #@! TO.C,R6*
X187400000Y-68480000D03*
D14*
X177240000Y-68480000D03*
G04 #@! TD*
D19*
G04 #@! TO.C,J3*
X189240000Y-58580000D03*
D20*
X189240000Y-61120000D03*
X189240000Y-63660000D03*
G04 #@! TD*
D13*
G04 #@! TO.C,R4*
X200000000Y-64010000D03*
D14*
X200000000Y-53850000D03*
G04 #@! TD*
D22*
G04 #@! TO.C,U2*
X199510000Y-73350000D03*
D23*
X199510000Y-75890000D03*
X199510000Y-78430000D03*
X199510000Y-80970000D03*
D22*
X164050000Y-70810000D03*
D23*
X164050000Y-73430000D03*
X164050000Y-78510000D03*
X164050000Y-75970000D03*
X164050000Y-81050000D03*
X164050000Y-83590000D03*
G04 #@! TD*
D13*
G04 #@! TO.C,R3*
X188640000Y-95480000D03*
D14*
X198800000Y-95480000D03*
G04 #@! TD*
D13*
G04 #@! TO.C,R5*
X191400000Y-107540000D03*
D14*
X201560000Y-107540000D03*
G04 #@! TD*
D29*
G04 #@! TO.C,C6*
X199440000Y-85250000D03*
X191940000Y-85250000D03*
G04 #@! TD*
D13*
G04 #@! TO.C,R1*
X175510000Y-95490000D03*
D14*
X185670000Y-95490000D03*
G04 #@! TD*
D19*
G04 #@! TO.C,J6*
X173925000Y-70875000D03*
D20*
X173925000Y-73415000D03*
X173925000Y-75955000D03*
G04 #@! TD*
D13*
G04 #@! TO.C,R2*
X175310000Y-107460000D03*
D14*
X185470000Y-107460000D03*
G04 #@! TD*
D13*
G04 #@! TO.C,C3*
X184260000Y-46990000D03*
X189260000Y-46990000D03*
G04 #@! TD*
M02*
